<?xml version="1.0" encoding="utf-8"?>
<!-- Generator: Adobe Illustrator 21.0.2, SVG Export Plug-In . SVG Version: 6.00 Build 0)  -->
<svg version="1.1" id="Layer_1" xmlns="http://www.w3.org/2000/svg" xmlns:xlink="http://www.w3.org/1999/xlink" x="0px" y="0px"
	 viewBox="0 0 15.6 8.9" style="enable-background:new 0 0 15.6 8.9;" xml:space="preserve">
<style type="text/css">
	.st0{opacity:0.67;}
	.st1{fill:#FF2020;}
	.st2{opacity:0.53;}
	.st3{fill:#202020;}
	.st4{opacity:0.46;}
	.st5{stroke:#FFFFFF;stroke-width:0.1;stroke-miterlimit:10;}
	.st6{font-family:'IndustryInc-InlineStroke';}
	.st7{font-size:2.9012px;}
</style>
<g class="st0">
	<g>
		<g>
			<g>
				<g>
					<g>
						<path class="st1" d="M15.6,2.6c0,0,0-0.4,0-0.5C15.6,2.3,15.6,2.7,15.6,2.6z"/>
						<polygon class="st1" points="15.3,3.6 15.3,3.4 15.2,3.8 						"/>
						<path class="st1" d="M14.9,3.6c0,0.7,0.1-0.1,0.2,0.1l0,0.2l0-0.6C15.1,3.4,15,3.8,14.9,3.6z"/>
						<path class="st1" d="M14.8,2C14.8,2.3,14.7,2.3,14.8,2C14.8,2.1,14.8,2.1,14.8,2C14.8,2.1,14.8,2.1,14.8,2z"/>
						<path class="st1" d="M14.8,2C14.8,2,14.8,1.8,14.8,2L14.8,2z"/>
						<path class="st1" d="M14.6,2.2l0-0.2c0-0.2,0-0.2,0-0.3C14.6,1.8,14.6,1.9,14.6,2.2z"/>
						<path class="st1" d="M14.6,2.7l0-0.1C14.6,2.6,14.6,2.5,14.6,2.7z"/>
						<path class="st1" d="M14.7,2.4l0,0.2c0,0.1,0,0.3,0-0.1C14.6,2.8,14.6,2.6,14.7,2.4z"/>
						<path class="st1" d="M14.7,2.5c0,0.2,0.1,0.3,0,0.5C14.8,2.9,14.8,2.4,14.7,2.5z"/>
						<path class="st1" d="M14.9,4.3l0,0.2L14.9,4.3C15,4.4,14.9,4.1,14.9,4.3z"/>
						<path class="st1" d="M14.4,1.8c0,0.2,0,0.4,0,0.6l0-0.2C14.4,2.2,14.4,2.1,14.4,1.8z"/>
						<path class="st1" d="M14.4,2.4l0,0.3C14.4,2.7,14.4,2.6,14.4,2.4z"/>
						<polygon class="st1" points="14.6,3.5 14.7,3 14.6,3.5 						"/>
						<polygon class="st1" points="14.2,1.8 14.2,1.5 14.2,2 						"/>
						<path class="st1" d="M14.1,1.9c0-0.3,0-0.5,0-0.7C14,1.3,14,1.5,14,1.7C14,1.6,14,1.6,14.1,1.9z"/>
						<path class="st1" d="M13.9,2.1c0-0.1,0-0.2,0-0.3C13.9,1.8,13.9,1.9,13.9,2.1z"/>
						<path class="st1" d="M14.3,2.6c0-0.1,0-0.3,0-0.4L14.3,2.6L14.3,2.6z"/>
						<path class="st1" d="M14.2,2.6L14.2,2.6C14.2,2.6,14.2,2.6,14.2,2.6C14.2,2.6,14.2,2.6,14.2,2.6z"/>
						<path class="st1" d="M14.3,2.6L14.3,2.6C14.3,2.7,14.3,2.7,14.3,2.6z"/>
						<path class="st1" d="M14.5,3.1c0,0.2-0.1,0.5,0,0.9C14.5,3.7,14.4,3.5,14.5,3.1z"/>
						<path class="st1" d="M14.3,3.2L14.3,3.2c0.1,0,0-0.2,0.1-0.3L14.3,3.2z"/>
						<polygon class="st1" points="14.3,3.3 14.3,3.2 14.3,3.1 						"/>
						<path class="st1" d="M14,2.5c0,0.2,0,0.2-0.1,0.2C14,2.8,14,2.8,14,2.8C14,2.7,14,2.4,14,2.5z"/>
						<path class="st1" d="M14.1,2.6C14.1,2.6,14.1,2.6,14.1,2.6C14.1,2.6,14.1,2.6,14.1,2.6z"/>
						<path class="st1" d="M13.7,2.7C13.7,2.7,13.7,2.7,13.7,2.7L13.7,2.7L13.7,2.7z"/>
						<path class="st1" d="M14,2.9c0,0.1,0,0,0-0.2C14.1,2.8,14,2.8,14,2.9C14,2.9,14,2.9,14,2.9z"/>
						<path class="st1" d="M13.8,2.3c0,0.1,0,0.2,0,0.2C13.9,2.4,13.8,2.1,13.8,2.3z"/>
						<path class="st1" d="M14.1,2.5C14.1,2.5,14.1,2.5,14.1,2.5C14.1,2.4,14.1,2.4,14.1,2.5z"/>
						<path class="st1" d="M14.1,2.5c0,0.1,0,0.2,0,0.3c0,0,0-0.1,0-0.1C14.1,2.6,14.1,2.5,14.1,2.5z"/>
						<path class="st1" d="M13.6,5.4c0-0.4,0.1-0.8,0.1-0.3c0-0.3,0-1.6,0-2.3c0,0.2,0,0.3-0.1,0.6c0,0.2,0.1,0.5,0.1,0.9
							c-0.1,0.2-0.1-0.1-0.1-0.4c0,0.5-0.1,0.7-0.1,1.4L13.6,5C13.6,5.1,13.6,5.3,13.6,5.4z"/>
						<path class="st1" d="M13.8,2.8L13.8,2.8c0-0.1,0-0.3-0.1-0.6c0,0.2,0,0.3,0,0.5L13.8,2.8L13.8,2.8z"/>
						<path class="st1" d="M13.9,2.8c0,0.4-0.1,0.6,0,1.1c0.1,0,0-0.4,0.1-0.5C13.8,3.4,14,3,13.9,2.8C13.9,2.7,13.9,2.7,13.9,2.8
							c0-0.1,0-0.2,0-0.3l0,0l0,0l0,0c0,0.1,0,0.1,0,0.1l0,0C13.9,2.6,13.9,2.7,13.9,2.8c0-0.1,0-0.1,0-0.2l0-0.1l0,0L13.9,2.8
							C13.8,2.8,13.8,2.8,13.9,2.8z"/>
						<path class="st1" d="M14.4,4.9C14.4,4.9,14.4,4.8,14.4,4.9C14.4,4.9,14.4,4.9,14.4,4.9z"/>
						<path class="st1" d="M14.3,4.7c0-0.1,0-0.2,0-0.2c0,0.1,0,0.2,0,0.3c0-0.1,0-0.3,0-0.5l0,0.1c0-0.1-0.1-0.7-0.1-0.7
							C14.3,4,14.3,4.3,14.3,4.7z"/>
						<path class="st1" d="M14.1,3.8L14,4l0,0.4l0-0.2C14.1,4.3,14.1,4,14.1,3.8z"/>
						<polygon class="st1" points="13.7,2.5 13.7,2 13.6,2.7 						"/>
						<polygon class="st1" points="13.5,2.5 13.5,2.1 13.5,2.4 						"/>
						<path class="st1" d="M7.4,7.4l0,0.1C7.4,7.5,7.4,7.4,7.4,7.4z"/>
						<path class="st1" d="M7.6,7.4l0-0.2C7.6,7.3,7.6,7.4,7.6,7.4z"/>
						<path class="st1" d="M10.9,2.5c0-0.4-0.1-0.9-0.1-0.5L10.9,2.5C10.9,2.4,10.9,2.5,10.9,2.5z"/>
						<path class="st1" d="M9.1,5.1c0,0,0,0.1,0,0.1c0-0.1,0-0.3,0-0.4C9.1,4.9,9.1,5,9.1,5.1z"/>
						<path class="st1" d="M9,6.9l0-0.3C9,6.7,9,6.8,9,6.9z"/>
						<path class="st1" d="M6.4,7.8l0,0.4C6.4,8.3,6.4,8.1,6.4,7.8z"/>
						<path class="st1" d="M12.4,2.7c0-0.2-0.1-0.2-0.1-0.3C12.4,2.7,12.4,3,12.4,2.7z"/>
						<path class="st1" d="M7.5,2.8c0,0.1,0,0.2,0,0.3C7.5,3,7.5,2.9,7.5,2.8z"/>
						<path class="st1" d="M12.3,2.4c0,0,0,0.1,0,0.1C12.3,2.4,12.3,2.4,12.3,2.4C12.3,2.2,12.3,2.1,12.3,2.4z"/>
						<path class="st1" d="M2.9,7.5C2.9,7.4,2.9,7.4,2.9,7.5C2.9,7.5,2.9,7.5,2.9,7.5z"/>
						<path class="st1" d="M2,3.1C2,3,2,3,2,3.1C2,3,2,3,2,3.1z"/>
						<path class="st1" d="M13.1,2.3C13.1,2.3,13.1,2.3,13.1,2.3L13.1,2.3z"/>
						<path class="st1" d="M13.2,4c0,0,0,0.1,0,0.2C13.2,4.2,13.2,4.1,13.2,4z"/>
						<path class="st1" d="M12,5.1L12,5.1C12.1,5.2,12.1,5.2,12,5.1z"/>
						<path class="st1" d="M13.1,2.5c0-0.1,0-0.1,0-0.1C13.1,2.4,13.1,2.5,13.1,2.5z"/>
						<path class="st1" d="M13.1,2.3C13.1,2.3,13.2,2.4,13.1,2.3C13.2,2.3,13.2,2.2,13.1,2.3z"/>
						<path class="st1" d="M13.1,2.4C13.1,2.3,13.1,2.4,13.1,2.4C13.1,2.4,13.1,2.3,13.1,2.4C13.1,2.3,13.1,2.3,13.1,2.4z"/>
						<path class="st1" d="M4.8,6.3C4.8,6.3,4.8,6.3,4.8,6.3C4.8,6.4,4.8,6.4,4.8,6.3z"/>
						<polygon class="st1" points="10.3,7 10.3,7 10.3,7 						"/>
						<path class="st1" d="M10.2,7.4c0-0.5,0.1-0.5,0.1-0.4l0-1.3L10.2,7.4z"/>
						<path class="st1" d="M7,7.5L7,7.9C7,8.5,6.9,8.3,7,8.9c0-1.4,0.2-0.1,0.3-1.5l0,0.3c0,0,0,0.1,0,0.1c0.1,0.7,0.1-1,0.2-0.8
							c0,0.1,0.1,0.3,0,0.5l0.1-0.3c0,0,0,0.3,0,0.2l0.1-0.1l0,0c0-0.2,0.1-0.5,0.1-0.7c0,0.2,0,0.1,0,0.3l0.1-0.3
							c0,0.4,0,0.7-0.1,0.6c0,1.4,0.1-0.3,0.2,0.5L7.8,7.8c0,0.8,0.1,0.5,0.1,1c0-0.3-0.1-1.2-0.1-1.5c0,0.1,0,0.2,0.1-0.1
							c0,0.5,0,0.4,0.1,0.3l0,0.6c0.1-0.2,0-0.5,0.1-0.8c0.1,0.1,0.1,0.6,0.1,1c0.1,0.1-0.1-0.8,0.1-0.9c0.1,0.2,0.1,0,0.2-0.4
							c0,0.2,0,0.4,0,0.6l0-0.5c0,0,0,0.2,0,0.2c0-0.2,0-0.6,0.1-0.8c0-0.7,0.1,1,0.2,0.2c0,0.2,0,0.4,0,0.6
							c0.1-0.5,0.1-0.4,0.2-1.1L9,6.6c0-0.5,0-1,0.1-1.5c0-0.2,0-0.4,0-0.5l0.1-0.3c0,0.1,0,0.3,0,0.6c0-0.1,0-0.1,0-0.2
							c0,0.2,0,0.6,0,1c0-0.1,0-0.3,0-0.4c0,0.4,0,0.8,0,1.2c0-0.1,0-0.1,0-0.2c0,0.1,0,0.2,0,0.3c0,0.1,0-0.1,0-0.2l0,0.7l0-0.3
							l0.1,0.4c0.1-0.7,0.2-1.8,0.3-2.1c0,0.5,0,0.9,0,1.5c0-0.7-0.1,0.3-0.2,0.1c0,0.1,0,0.4,0,0.5l0.1-0.6c0,0.5,0,0.4,0.1,0.6
							c0-1,0.1-0.7,0.2-1c0,0.3,0,0.7-0.1,0.6c0.1,0.8,0.1-1.2,0.2-0.5c0,0,0,0,0,0.1c0-0.3,0.1-0.1,0.1,0.2l0,0
							c0.1,0.1,0.3,0,0.3-0.8c0,0.1,0,1,0,1.2l0.2-2.9c0,0.7,0,2.5-0.1,2.9c0,0.1,0.1,0.2,0.1,0c0-0.1,0-1.1,0-1.1
							c0.1,0.8,0,0.4,0.1,1.1c0-0.2,0-1.3,0-1.3c0,0.2,0,1.1,0,1.2l0.1-1.1c0,0.2,0,1,0,1.3c0-0.2,0.1,0,0.1-0.1l0-0.3
							c0.1,0.2,0.1-1.6,0.2-1.5c0,0.2,0,1.4,0,1.6c0-0.6,0.1-2.8,0.2-3.2l0,0.3l0.1-0.4c0,0.9-0.2,2.7-0.3,3.4c0,0.3,0,0.4,0.1,0.4
							c0,0.3,0,0.5-0.1,0.5L11.2,8c0-0.7,0.1-0.7,0.1-1.2l-0.2,0.7c0-0.7,0.1-1.9,0.2-1.8c0,0.3,0,1.2,0,1.4c0-0.2,0.1-0.4,0.1-0.3
							l0,0.4c0.1,0.3,0.1-0.9,0.2-0.2c0,0,0.1,0.9,0.1,0.5c0-0.8,0-3.1,0-3.7c0,0.1,0.1,0.7,0.1,1.1c0,0.6-0.1,1.4,0,2
							c0-0.2,0-0.4,0-0.5c0,0.2,0,0.6,0,0.5c0-0.7,0.1,0.1,0-0.6c0.1-0.2,0.1,0.1,0.1,0.1c0-0.4,0.1-1.5,0.1-1.7c0,0.2,0,0.4,0,0.5
							c0.1,0.1,0.2,0.4,0.3,0.4c0,0.2,0.1,0.4,0,0.7c0-0.1,0-0.4,0.1-0.4c0.1,0.6-0.1,0.1,0,0.8c0-0.4,0.1-0.5,0.1-0.8
							c0-0.6-0.1-0.1-0.1,0.1c0-0.8,0.1-1.7,0.2-2.1c0.1-0.2,0,0.5,0.1,0.4c0.2,0.1,0.1-1.5,0.3-0.9c0.1,0.5,0,1.1,0,1.5
							c-0.1,0.2-0.1-0.3-0.2-0.3l0.1,0.3c0,0.2-0.1,0.3-0.1,0.2c0,0.5,0.3,0.1,0.4,0.5c0-0.2,0.1-0.4,0-0.6l0,0.1
							c0-0.4,0.1-0.6,0-0.8c0.1-0.3,0.1-0.8,0.2-0.5l0,0.6c0-0.2,0-0.4-0.1-0.2c0-0.3,0.1,0.8,0.1,0l-0.1-0.4c0.1-0.3,0.1-1,0.2-0.8
							c0-0.6,0,0.1-0.1-0.6c0,0.9-0.2,0-0.1,0.9c0-0.8-0.1-0.3-0.1-1.1c0,0.2,0,0.4,0,0.3c0,0.1,0,0.1,0,0.2l0,0l0,0c0,0,0,0,0,0
							c0,0.1,0,0.2,0,0.3c0,0.5-0.1,0.4-0.1,0.7c0-0.1,0-0.2,0-0.4l0,0.4c0-0.4-0.1-0.7,0-1l-0.1,0c0-0.3-0.1-0.4-0.1-0.2
							c0-0.1-0.1,0.5-0.1,0.1l-0.1,0.3l0-0.1c-0.1-0.1-0.2,0.7-0.3-0.1c0,0.1-0.1,0.3-0.1,0.1l0-0.4c0,0.1-0.1-0.4-0.2,0
							c0-1-0.2-0.2-0.3-0.4l0,0.5c-0.1,0-0.1,0.1-0.2,0.3l0,0.4c-0.1,0.4-0.1-0.3-0.2-0.3c0-0.2,0-0.1,0,0c-0.1-1-0.2,0.7-0.3,0
							c0,0.2,0,0.1-0.1,0c0,0,0,0,0,0c0,0,0,0,0,0c0-0.1,0-0.2,0-0.2c0,0.1,0,0.2,0,0.2c0,0,0,0.1-0.1,0.2l0-0.5c0,0,0,0,0,0
							c0-0.2,0,0.2,0,0.6c0,0.1,0,0.2,0,0.3c0-0.8-0.1,0.3-0.1-0.6c0,0.4-0.1,0.3-0.2,1.2c0-0.1,0-0.2,0-0.2c0-0.1-0.1-0.2-0.1,0
							l0-0.6L10.3,4c0-0.4-0.1-0.6,0-1.1c-0.1,0.7-0.1,0.3-0.2,1l0-0.4c0,0-0.1,0.5-0.1,0.2C10,3,9.7,3.7,9.6,3
							c0,1.2-0.1-0.5-0.1,0.4c0-0.3,0-0.4,0-0.7C9.4,3,9.3,2.3,9.3,3c0-0.3,0-0.4,0-0.6c0,0.1,0,0.2,0,0.1c0-0.2,0-0.2,0-0.4
							c-0.1,0-0.1,0.9-0.1,1.7c0-0.4-0.1-0.3-0.1,0.2c0-0.3,0-0.5,0-0.6c0,0-0.2-0.4-0.2,0.3c0-0.2,0,0-0.1,0c-0.1,0-0.1-0.1-0.1,0
							l0,0.1c0,0.8-0.1,0.2-0.1,0.3l0-0.1C8.4,3.4,8.5,4.2,8.4,3.6l0,0.5c0,1-0.1-0.6-0.2-0.2l0,0.3c0,0.4-0.1-1.4-0.1-1.5
							c0-0.1,0-0.1,0-0.2C8,1.8,8.1,3,8,3.2c0-0.3,0-0.9,0-0.9c0-0.3-0.2,1.1-0.2,0.4c0,0.3,0,0.5,0,0.7c-0.1,0.1-0.1-1-0.2-0.2
							c0-0.1,0-0.1,0-0.2c0,0.2-0.1,0.4-0.2,0.8c0-1.7-0.3,0.8-0.3-0.7L6.9,3.2l0-0.2C6.8,2.9,6.8,3.3,6.8,3.7c0-0.1,0-0.2,0-0.3
							C6.7,3,6.6,3.1,6.5,3.9l0-0.5c0,0.3-0.2-0.8-0.3-0.2c0-0.1,0-0.2,0-0.2C6.1,3.5,5.9,1.6,5.8,3.4L5.8,3.8c0.1,0.1,0,0.8,0,1.1
							c0,0.1-0.1-0.5-0.1-0.6l0,0.1c0-0.9-0.1-0.3-0.1-1c-0.2,0-0.5-0.5-0.7-0.5l0,0.7l-0.1,0c0-0.2,0-0.6,0-0.5
							c0-0.4-0.1,0.3-0.1,0.5c-0.1-0.3,0.1-0.9,0-0.9l0,0.1l0,0.1c0,0.3,0,0.6-0.1,0.6c0-0.1,0-0.5,0-0.5c0-0.1,0-0.1,0,0L4.5,2.8
							l0,0.6c0,0.3-0.1,0-0.1,0.6c0-1-0.4-0.4-0.4-0.7C4,3.7,4,3.7,3.9,3.7c0,0.1,0,0.8,0,0.7c0-1.3-0.1-0.6-0.1-1.5
							c0,0.6-0.2,0.2-0.1,1.1c-0.1-0.1,0-0.5,0-0.8C3.4,3.6,3.3,2.7,3.1,2.9c0,0.2,0,0.4,0,0.7L3,2.7c0,0.1,0,1-0.1,0.4
							c0,0.1,0,0.4,0,0.4C2.7,2.7,2.3,4.3,2,2.6C2.1,3,2,3,2,3c0,0.1,0,0.4,0,0.7L1.9,3c0,0.7-0.1,0-0.2,0.7l0-0.1
							c-0.1,0.7,0,1.7,0,2.6c0.1-0.8,0.1,1.3,0.3,0c0,0.2,0,0.3,0,0.5c0-0.4,0.1-0.5,0.1-0.3l0,0.1c0.2-0.1,0.2,0.3,0.4,0.6l0-0.5
							c0,0.1,0,0.2,0.1,0.3c0.1-0.7-0.1,0-0.1-0.8c0,1,0.3,0,0.3,1.1c0.1,0,0-0.5,0.1-0.5l0,0.3l0-0.4c0,0.1,0.1,0.4,0,0.7
							c0,0,0,0.1,0,0.1c0,0.3,0.1-0.1,0.2,0L3,7.3C3.2,7,3.4,7.4,3.5,6.8l0-0.2c0.1-0.4,0.1,0.2,0.2,0.1l0,0.1
							c0-0.2,0.1-0.3,0.1-0.3c0,0.3,0.1,0.5,0,0.8C4,6.7,3.9,6.8,4,6l0,0.4c0-0.3,0-0.5,0.1-0.6c-0.1,0.3,0,0.6,0,1
							c0.1,0.8,0.2-0.8,0.3,0.4c0.1-1-0.1-0.6-0.1-0.8c0-0.3,0.1-0.8,0.1-0.7c0,0,0.1,1.3,0.2,1.3c0,0,0,0.1,0,0.1
							c0,0.3,0.1-0.4,0.1,0.1c0-0.6,0.1,0,0.1-0.8L4.7,6.5c0.1-0.2,0.1-1.1,0.2-0.7c0,0.2,0,0.4-0.1,0.5c0,0.2,0.1-0.2,0.1,0.1
							c0,0.8-0.1,0.2-0.2,0.8c0,0.3,0.1-0.6,0.1,0.3C4.8,6.4,4.9,7.6,5,6.8l0,0.5C5,7.2,5,6.9,5,6.9l0,0.6C5,7,5.1,8,5.2,7.7
							c-0.1,0,0-0.6-0.1-0.9c0.2-0.6,0.1,1.2,0.2,1c0,0.1-0.1-0.3,0-0.5c0,0.1,0.1,0.3,0.1,0.5c0.1-0.1,0-0.5,0-0.8
							c0,0.6,0.1-0.2,0.1-0.4l0,0.5c0.1,0.3,0-1,0.2-0.6L5.6,7.2L5.7,7l0,0.5c0.1-0.4,0.1-0.3,0.2-0.1c0-0.3,0-0.9,0.1-0.9
							c0,0.3,0,0.5,0.1,0.4c0,0.3,0,0.7-0.1,0.2c0,0.2,0,0.3,0,0.5c0,0.3,0.1,0.1,0.1,0.1c0,0,0,0,0-0.1l0.1-0.7c0,0.2,0,0.3,0,0.5
							c0-0.1,0-0.3,0.1-0.3c0,0.4,0,0.8-0.1,1l0.1-0.4c0,0.2,0.1,0.5,0,0.6c0.1,0.2,0.2-0.8,0.2-0.5c0-0.1,0-0.1,0-0.2
							c0.1,0.1,0.1,0.6,0.2,0l0,0.7c0.1-0.2-0.1-0.9,0.1-1.2c0.1-0.2,0,0.6,0.1,0.8C6.9,7.6,7,6.9,7,7.5C7,7.6,7,7.5,7,7.5z
							 M7.9,7.2c0,0.1-0.1,0.4-0.1,0.1C7.8,6.8,7.8,7,7.9,7.2z M9.2,6.1c0,0.2,0,0.1-0.1-0.1C9.2,5.9,9.2,5.9,9.2,6.1z M12.9,2.7
							C12.9,2.7,12.9,2.7,12.9,2.7C12.8,2.6,12.8,2.6,12.9,2.7z M12.9,2.9c0-0.1,0-0.1,0-0.2c0,0.1,0,0.1,0,0.1
							C12.9,3,12.9,3,12.9,2.9z M4.6,3.1l0,0.1C4.6,3.3,4.6,3.2,4.6,3.1z"/>
						<path class="st1" d="M9,6.7c0-0.1,0-0.2,0-0.3C9,6.5,9,6.6,9,6.7z"/>
						<polygon class="st1" points="6.4,7.8 6.4,7.8 6.4,7.8 						"/>
						<path class="st1" d="M11.7,7c0-0.1,0-0.2,0-0.2C11.7,6.9,11.7,7,11.7,7z"/>
						<path class="st1" d="M13.3,2.1l0,0.1c0,0,0,0.1,0,0.2C13.3,2.3,13.3,2.1,13.3,2.1z"/>
						<path class="st1" d="M13.8,5.1C13.8,5,13.8,5.1,13.8,5.1l0-0.3C13.8,4.8,13.8,5,13.8,5.1z"/>
						<path class="st1" d="M13.4,3.7c0,0.4,0,0.3,0.1,0.2c0,0,0,0,0,0C13.5,3.3,13.4,3.5,13.4,3.7z"/>
						<path class="st1" d="M13.5,3.9C13.5,3.9,13.5,3.9,13.5,3.9C13.5,3.7,13.5,3.8,13.5,3.9z"/>
						<path class="st1" d="M13,2.7c0,0.1,0-0.5,0-0.4C13.1,1.8,12.9,2.9,13,2.7z"/>
						<polygon class="st1" points="13.4,5.1 13.4,4.6 13.4,5 						"/>
						<path class="st1" d="M13.2,4.7l0.1,0.1C13.2,4.7,13.2,4.7,13.2,4.7C13.2,4.6,13.1,4.5,13.2,4.7z"/>
						<path class="st1" d="M13.2,4.7C13.2,4.7,13.3,4.7,13.2,4.7C13.3,4.6,13.2,4.6,13.2,4.7z"/>
						<polygon class="st1" points="13.4,5.2 13.3,5.1 13.3,5.1 						"/>
						<path class="st1" d="M12.6,4.6l-0.1,0.1c0,0.2,0,0.3,0,0.2C12.5,4.8,12.6,4.7,12.6,4.6z"/>
						<path class="st1" d="M12.7,6c0-0.1,0-0.2,0-0.4l0,0.6L12.7,6z"/>
						<path class="st1" d="M12.6,6.1c0,0.2-0.1,0.5,0,0.5C12.6,6.4,12.6,6.2,12.6,6.1z"/>
						<polygon class="st1" points="11.6,5.3 11.7,5.3 11.7,4.3 						"/>
						<path class="st1" d="M10.8,7.7c0.1,0.2,0-0.6,0.1-0.3c0-0.2-0.1-0.2,0-0.5C10.8,7.2,10.8,7.1,10.8,7.7z"/>
						<path class="st1" d="M10.9,7c0,0,0-0.1,0-0.2C10.9,6.9,10.9,6.9,10.9,7z"/>
						<polygon class="st1" points="1.8,2.5 1.8,2.3 1.8,2.6 						"/>
						<path class="st1" d="M1.7,3.3l0-0.6L1.7,3.3C1.7,3.2,1.7,3.1,1.7,3.3z"/>
						<path class="st1" d="M8,8.5l0-0.2c0-0.2,0-0.2,0-0.2L8,8.5z"/>
						<polygon class="st1" points="7.3,8 7.4,8 7.3,7.4 						"/>
						<path class="st1" d="M6.8,8.8C6.8,8.8,6.9,8.7,6.8,8.8C6.8,8.8,6.8,8,6.8,8.8z"/>
					</g>
				</g>
			</g>
		</g>
	</g>
	<g class="st2">
		<g>
			<g>
				<g>
					<g>
						<path class="st3" d="M2.1,6.9c0,0,0,0.4,0,0.5C2.1,7.3,2.1,6.8,2.1,6.9z"/>
						<polygon class="st3" points="2.4,6 2.4,6.1 2.4,5.7 						"/>
						<path class="st3" d="M2.7,6C2.6,5.2,2.6,6.1,2.5,5.8l0-0.2l0,0.6C2.6,6.1,2.6,5.8,2.7,6z"/>
						<path class="st3" d="M2.9,7.5C2.9,7.2,2.9,7.3,2.9,7.5C2.9,7.4,2.9,7.5,2.9,7.5C2.9,7.5,2.9,7.5,2.9,7.5z"/>
						<path class="st3" d="M2.9,7.5C2.8,7.5,2.9,7.7,2.9,7.5L2.9,7.5z"/>
						<path class="st3" d="M3,7.3l0,0.2C3,7.7,3,7.8,3,7.9C3.1,7.7,3,7.6,3,7.3z"/>
						<path class="st3" d="M3,6.8l0,0.1C3,7,3,7,3,6.8z"/>
						<path class="st3" d="M3,7.1l0-0.2C3,6.8,3,6.5,3,7C3,6.8,3,7,3,7.1z"/>
						<path class="st3" d="M2.9,7c0-0.2-0.1-0.3,0-0.5C2.8,6.6,2.9,7.1,2.9,7z"/>
						<path class="st3" d="M2.7,5.2l0-0.2L2.7,5.2C2.6,5.1,2.7,5.4,2.7,5.2z"/>
						<path class="st3" d="M3.3,7.7c0-0.2,0-0.4,0-0.6l0,0.2C3.2,7.4,3.3,7.4,3.3,7.7z"/>
						<path class="st3" d="M3.3,7.1l0-0.3C3.2,6.8,3.2,6.9,3.3,7.1z"/>
						<polygon class="st3" points="3,6 3,6.5 3,6 						"/>
						<polygon class="st3" points="3.5,7.7 3.5,8 3.5,7.5 						"/>
						<path class="st3" d="M3.6,7.6c0,0.3,0,0.5,0,0.7c0-0.1,0-0.3,0.1-0.5C3.7,7.9,3.6,7.9,3.6,7.6z"/>
						<path class="st3" d="M3.7,7.4c0,0.1,0,0.2,0,0.3C3.7,7.7,3.7,7.6,3.7,7.4z"/>
						<path class="st3" d="M3.4,6.9c0,0.1,0,0.3,0.1,0.4L3.4,6.9C3.4,6.9,3.4,6.9,3.4,6.9z"/>
						<path class="st3" d="M3.4,6.9L3.4,6.9C3.4,6.9,3.4,6.9,3.4,6.9C3.4,6.9,3.4,6.9,3.4,6.9z"/>
						<path class="st3" d="M3.4,6.9C3.4,6.9,3.4,6.9,3.4,6.9C3.4,6.8,3.4,6.8,3.4,6.9z"/>
						<path class="st3" d="M3.1,6.4c0-0.2,0.1-0.5,0-0.9C3.1,5.8,3.2,6,3.1,6.4z"/>
						<path class="st3" d="M3.3,6.3L3.3,6.3c0,0,0,0.2,0,0.3L3.3,6.3z"/>
						<polygon class="st3" points="3.3,6.2 3.3,6.3 3.3,6.4 						"/>
						<path class="st3" d="M3.6,7c0-0.2,0-0.2,0.1-0.2c0-0.1-0.1-0.1-0.1-0.1C3.6,6.8,3.6,7,3.6,7z"/>
						<path class="st3" d="M3.5,6.9C3.5,6.9,3.5,6.9,3.5,6.9C3.5,6.9,3.5,6.8,3.5,6.9z"/>
						<path class="st3" d="M3.9,6.8C3.9,6.8,3.9,6.7,3.9,6.8C3.9,6.7,3.9,6.8,3.9,6.8L3.9,6.8z"/>
						<path class="st3" d="M3.6,6.6c0-0.1,0,0,0,0.2C3.6,6.7,3.6,6.7,3.6,6.6C3.6,6.6,3.6,6.6,3.6,6.6z"/>
						<path class="st3" d="M3.8,7.2c0-0.1,0-0.2,0-0.2C3.8,7.1,3.8,7.3,3.8,7.2z"/>
						<path class="st3" d="M3.5,7C3.5,7,3.5,7,3.5,7C3.5,7.1,3.5,7.1,3.5,7z"/>
						<path class="st3" d="M3.5,7c0-0.1,0-0.2,0-0.3c0,0,0,0.1,0,0.1C3.5,6.9,3.5,7,3.5,7z"/>
						<path class="st3" d="M3.9,4c0,0.4,0,0.8-0.1,0.3c0,0.3,0,1.6,0.1,2.3c0-0.2,0-0.3,0-0.6c0-0.2-0.1-0.5-0.1-0.9
							C3.9,5.1,3.9,5.4,4,5.6c0-0.5,0.1-0.7,0-1.4l0,0.3C3.9,4.3,3.9,4.1,3.9,4z"/>
						<path class="st3" d="M3.8,6.7L3.8,6.7c0,0.1,0,0.3,0.1,0.6c0-0.2,0-0.3,0-0.5L3.8,6.7L3.8,6.7z"/>
						<path class="st3" d="M3.7,6.7c0-0.4,0-0.6,0-1.1c-0.1,0,0,0.4-0.1,0.5C3.8,6.1,3.6,6.4,3.7,6.7C3.7,6.8,3.7,6.8,3.7,6.7
							c0,0.1,0,0.2,0,0.3c0,0,0,0,0,0l0,0c0,0,0,0,0,0c0-0.1,0-0.1,0-0.1c0,0,0,0,0,0C3.7,6.8,3.7,6.8,3.7,6.7c0,0.1,0,0.1,0,0.2
							c0,0,0,0,0,0.1c0,0,0,0,0,0L3.7,6.7C3.8,6.7,3.8,6.7,3.7,6.7z"/>
						<path class="st3" d="M3.2,4.6C3.2,4.6,3.2,4.7,3.2,4.6C3.2,4.6,3.2,4.6,3.2,4.6z"/>
						<path class="st3" d="M3.2,4.8c0,0.1,0,0.2,0,0.2c0-0.1,0-0.2,0-0.3c0,0.1,0,0.3,0,0.5l0-0.1c0,0.1,0.1,0.7,0.1,0.7
							C3.3,5.5,3.3,5.2,3.2,4.8z"/>
						<path class="st3" d="M3.5,5.7l0.1-0.2L3.5,5.1l0,0.2C3.4,5.2,3.5,5.5,3.5,5.7z"/>
						<polygon class="st3" points="4,7 4,7.5 4,6.8 						"/>
						<polygon class="st3" points="4.1,6.9 4.1,7.3 4.1,7.1 						"/>
						<path class="st3" d="M9.8,1.8l0-0.1C9.8,1.7,9.8,1.8,9.8,1.8z"/>
						<path class="st3" d="M9.6,1.8l0,0.2C9.6,1.9,9.6,1.8,9.6,1.8z"/>
						<path class="st3" d="M6.6,6.8c0,0.4,0.1,0.9,0.1,0.5L6.6,6.8C6.7,6.9,6.6,6.9,6.6,6.8z"/>
						<path class="st3" d="M8.3,4.1c0,0,0-0.1,0-0.1c0,0.1,0,0.3,0,0.4C8.3,4.3,8.3,4.2,8.3,4.1z"/>
						<path class="st3" d="M8.2,2.4l0.1,0.3C8.3,2.5,8.3,2.4,8.2,2.4z"/>
						<path class="st3" d="M10.7,1.3l0-0.4C10.6,0.9,10.7,1.1,10.7,1.3z"/>
						<path class="st3" d="M5.1,6.7C5.2,6.9,5.2,7,5.2,7C5.2,6.8,5.1,6.4,5.1,6.7z"/>
						<path class="st3" d="M9.9,6.4c0-0.1,0-0.2,0-0.3C9.9,6.2,9.9,6.3,9.9,6.4z"/>
						<path class="st3" d="M5.3,7c0,0,0-0.1,0-0.1C5.3,7,5.2,7,5.3,7C5.2,7.2,5.3,7.3,5.3,7z"/>
						<path class="st3" d="M14.1,1.5C14.1,1.6,14.1,1.6,14.1,1.5C14.1,1.5,14.1,1.5,14.1,1.5z"/>
						<path class="st3" d="M15.2,5.9C15.2,5.9,15.2,5.9,15.2,5.9C15.2,6,15.2,5.9,15.2,5.9z"/>
						<path class="st3" d="M4.5,7.1C4.5,7.1,4.5,7.2,4.5,7.1L4.5,7.1z"/>
						<path class="st3" d="M4.3,5.4c0,0,0-0.1,0-0.2C4.3,5.3,4.3,5.4,4.3,5.4z"/>
						<path class="st3" d="M5.4,4.3C5.4,4.3,5.4,4.3,5.4,4.3C5.4,4.2,5.4,4.2,5.4,4.3z"/>
						<path class="st3" d="M4.4,6.9c0,0.1,0,0.1,0,0.1C4.5,7,4.5,7,4.4,6.9z"/>
						<path class="st3" d="M4.5,7.1C4.5,7.1,4.4,7.1,4.5,7.1C4.4,7.2,4.4,7.2,4.5,7.1z"/>
						<path class="st3" d="M4.5,7.1C4.5,7.1,4.5,7.1,4.5,7.1C4.5,7.1,4.5,7.1,4.5,7.1C4.5,7.1,4.5,7.1,4.5,7.1z"/>
						<path class="st3" d="M12.3,2.8C12.3,2.8,12.3,2.8,12.3,2.8C12.3,2.6,12.3,2.7,12.3,2.8z"/>
						<path class="st3" d="M7,2.3C7,2.3,7,2.3,7,2.3C7,2.3,7,2.3,7,2.3L7,2.3z"/>
						<path class="st3" d="M7.1,2c0,0.5,0,0.5-0.1,0.4l0.1,1.2L7.1,2z"/>
						<path class="st3" d="M10.2,1.7l-0.1-0.4c0-0.6,0.1-0.4,0-1c0,1.4-0.2,0.1-0.2,1.5l0-0.3c0,0,0-0.1,0-0.1c-0.1-0.6,0,1-0.1,0.8
							c0-0.1-0.1-0.3-0.1-0.5L9.7,2.2c0,0,0-0.3,0-0.2L9.6,2l0,0c0,0.2,0,0.5,0,0.7c0-0.2,0-0.1,0-0.3l0,0.3c0-0.4,0-0.7,0-0.6
							c-0.1-1.4,0,0.3-0.2-0.4l0.1-0.2c-0.1-0.8-0.1-0.5-0.2-1c0,0.3,0.2,1.2,0.1,1.5c0-0.1,0-0.1-0.1,0.1c0-0.5,0-0.4-0.1-0.3
							l0-0.6c0,0.2,0,0.5,0,0.8C9.1,1.9,9,1.4,9,1C8.9,0.9,9.1,1.8,9,1.9c-0.1-0.2-0.1,0-0.2,0.4c-0.1-0.2,0-0.4,0-0.6l0,0.5
							c0,0,0-0.2,0-0.2c0,0.2,0,0.6,0,0.8c0,0.7-0.2-1-0.2-0.2c0-0.2,0-0.4,0-0.6C8.4,2.5,8.4,2.3,8.4,3L8.3,2.6c0.1,0.5,0,1,0,1.5
							c0,0.2,0,0.4,0.1,0.5L8.3,5c0-0.1,0-0.3,0-0.6c0,0.1,0,0.1,0,0.2c0-0.2,0-0.6,0-1c0,0.1,0,0.3,0,0.4c0-0.4,0-0.8,0-1.2
							c0,0.1,0,0.1,0,0.2c0-0.1,0-0.2,0-0.3c0-0.1,0,0.1,0,0.2l0-0.7l0,0.3L8,2.1C8,2.8,7.9,3.9,7.8,4.2c0-0.5,0-0.9,0-1.5
							c0.1,0.7,0.1-0.3,0.2-0.2c0-0.1,0-0.4,0-0.5L7.8,2.7c0-0.5,0-0.4-0.1-0.6c0.1,1-0.1,0.7-0.1,1c0-0.3,0-0.7,0-0.6
							C7.6,1.7,7.6,3.7,7.5,3c0,0,0,0,0-0.1c0,0.3-0.1,0.1-0.1-0.2l0,0c-0.1-0.1-0.3,0-0.3,0.9c0-0.1,0-1,0-1.2L7.1,5.2
							C7.1,4.5,7,2.7,7,2.3c0-0.1-0.1-0.2-0.1,0C6.9,2.4,7,3.4,7,3.5C6.9,2.6,6.9,3,6.8,2.3c0,0.2,0,1.3,0,1.3c0-0.2,0-1.1,0-1.2
							L6.7,3.5c0-0.2,0-1-0.1-1.3c0,0.2-0.1,0-0.1,0.1l0,0.3c-0.1-0.2,0,1.6-0.2,1.5c0-0.2,0-1.4-0.1-1.6c0,0.6,0,2.8-0.1,3.2l0-0.3
							L6.2,5.8c0-0.9,0.1-2.7,0.1-3.4c0-0.3,0-0.4-0.1-0.4c0-0.3,0-0.5,0-0.5L6.1,1.3C6.2,2,6.1,2,6.1,2.6l0.1-0.7
							c0,0.7,0,1.9-0.1,1.8c0-0.3,0-1.2,0-1.4C6,2.5,6,2.7,6,2.5l0-0.4C5.9,1.9,5.9,3.1,5.8,2.4c0,0-0.1-0.9-0.1-0.5
							c0.1,0.8,0.2,3.1,0.2,3.7c0-0.1-0.1-0.7-0.2-1.1C5.7,4,5.7,3.1,5.7,2.6c0,0.2,0,0.4,0,0.5c0-0.2,0-0.6-0.1-0.5
							c0,0.7-0.1-0.1,0,0.6c0,0.2-0.1-0.1-0.1-0.1c0,0.4,0,1.5,0,1.7c0-0.2,0-0.4,0-0.5C5.3,4.2,5.2,3.9,5.1,3.9
							c0-0.2-0.1-0.4-0.1-0.7c0,0.1,0,0.4,0,0.4C5,3.1,5.1,3.5,5,2.8C5,3.2,5,3.4,4.9,3.6C5,4.2,5,3.8,5.1,3.5c0,0.8,0,1.7-0.1,2.1
							C4.9,5.8,4.9,5.1,4.9,5.2C4.8,5.1,4.8,6.7,4.7,6.1C4.6,5.5,4.7,5,4.6,4.6C4.7,4.4,4.7,5,4.8,4.9L4.7,4.7
							c0-0.2,0.1-0.3,0.1-0.2C4.7,4,4.5,4.4,4.4,4c0,0.2,0,0.4,0,0.6l0-0.1c0.1,0.4,0,0.6,0,0.8c0,0.3-0.1,0.8-0.2,0.5l0-0.6
							c0,0.2,0.1,0.4,0.1,0.2c0,0.3-0.1-0.8-0.1,0l0.1,0.4c0,0.3-0.1,1-0.1,0.8c0.1,0.6,0-0.1,0.1,0.6c-0.1-0.9,0.2,0,0.1-0.9
							c0.1,0.8,0.1,0.3,0.2,1c0-0.2,0-0.4,0-0.3c0-0.1,0-0.1,0-0.2c0,0,0,0,0,0c0,0,0,0,0,0c0,0,0,0,0,0c0-0.1,0-0.2,0-0.3
							c0-0.5,0.1-0.5,0.1-0.7c0,0.1,0,0.2,0,0.4l0-0.4c0,0.4,0.1,0.7,0,1l0.1,0c0,0.3,0.1,0.3,0.1,0.2c0,0.1,0.1-0.5,0-0.1l0.1-0.3
							l0,0.1c0.1,0.1,0.2-0.8,0.3,0.1c0-0.1,0.1-0.3,0.1-0.1l0,0.4c0-0.1,0.1,0.4,0.1,0c0.1,1,0.2,0.2,0.3,0.4l0-0.5
							C5.9,7.1,6,6.9,6,6.7l0-0.4c0-0.4,0.2,0.3,0.2,0.3c0,0.2,0,0.1,0,0c0.1,1,0.2-0.7,0.3,0c0-0.2,0-0.1,0.1,0c0,0,0,0,0,0
							c0,0,0,0,0,0c0,0.1,0,0.2,0,0.2c0-0.1,0-0.2,0-0.2c0,0,0-0.1,0.1-0.2l0,0.5c0,0,0,0,0,0c0,0.2,0-0.2,0-0.6c0-0.1,0-0.2,0-0.3
							c0.1,0.8,0.1-0.3,0.1,0.6c0-0.4,0.1-0.3,0.1-1.2c0,0.1,0,0.2,0,0.2C7,5.6,7,5.7,7,5.5l0,0.6l0-0.8c0.1,0.4,0.1,0.6,0.1,1.1
							c0.1-0.7,0.1-0.3,0.1-1l0,0.4c0,0,0.1-0.5,0.1-0.2c0.1,0.7,0.3,0.1,0.5,0.8C7.8,5.1,8,6.8,8,5.9C8,6.2,8,6.3,8,6.6
							C8.1,6.3,8.2,7,8.2,6.3c0,0.3,0,0.4,0,0.6c0-0.1,0-0.2,0-0.1c0,0.2,0,0.2,0,0.4c0.1,0,0.1-0.9,0-1.7c0.1,0.4,0.1,0.3,0.1-0.2
							c0,0.3,0.1,0.5,0,0.6c0,0,0.2,0.4,0.2-0.3c0,0.2,0,0,0.1,0c0.1,0,0.1,0.1,0.1,0l0-0.1c0-0.8,0.1-0.2,0.1-0.3l0,0.1
							C9,5.8,8.9,5,9,5.6l0-0.5c0-1,0.1,0.6,0.2,0.2l0-0.3c0-0.4,0.2,1.4,0.2,1.5c0,0.1,0,0.1,0,0.2c0.1,0.6,0-0.6,0.1-0.8
							c0,0.3,0,0.9,0.1,0.9c0,0.3,0.1-1.1,0.2-0.5c0-0.3-0.1-0.5,0-0.7c0.1-0.1,0.2,1,0.2,0.2c0,0.1,0,0.1,0,0.2
							c0-0.2,0.1-0.4,0.1-0.8c0.1,1.7,0.2-0.8,0.3,0.7L10.4,6l0,0.2c0.1,0.1,0.1-0.3,0.1-0.6c0,0.1,0,0.2,0,0.3
							c0.1,0.3,0.1,0.2,0.2-0.5l0,0.5c0-0.3,0.2,0.8,0.3,0.2c0,0.1,0,0.2,0,0.2c0.1-0.6,0.4,1.4,0.4-0.4l0.1-0.4
							c-0.1-0.1,0-0.8-0.1-1.1c0-0.1,0.1,0.5,0.1,0.6l0-0.1c0,0.9,0.2,0.3,0.2,1c0.2-0.1,0.5,0.5,0.7,0.5l-0.1-0.7l0.1,0
							c0,0.2,0,0.6,0,0.5c0,0.4,0.1-0.4,0.1-0.5c0.1,0.3,0,0.9,0,0.9l0-0.1l0-0.1c0-0.3,0-0.6,0.1-0.6c0,0.1,0,0.5,0.1,0.5
							c0,0.1,0,0.1,0,0l0.1,0.1l-0.1-0.6c0-0.3,0.1,0,0-0.6c0.1,1,0.4,0.3,0.4,0.7c0-0.4,0.1-0.4,0.2-0.4c0-0.1-0.1-0.8,0-0.7
							c0,1.3,0.1,0.6,0.2,1.5c-0.1-0.6,0.2-0.2,0.1-1.1c0.1,0.1,0,0.5,0.1,0.8c0.1-0.5,0.3,0.3,0.4,0.1c0-0.2,0-0.4,0-0.7l0.1,0.9
							c0-0.1,0-1,0.1-0.4c0-0.1,0-0.4,0-0.4c0.3,0.8,0.6-0.7,0.9,0.9c-0.1-0.3,0-0.4,0-0.4c0-0.1,0-0.4,0-0.7l0.1,0.7
							c0-0.7,0.1,0,0.1-0.7l0,0.1c0-0.7-0.1-1.7-0.2-2.6c0,0.9-0.2-1.2-0.3,0c0-0.2,0-0.3,0-0.5c0,0.4,0,0.5-0.1,0.3l0-0.1
							c-0.1,0.1-0.2-0.3-0.4-0.6l0,0.5c0-0.1-0.1-0.2-0.1-0.3c0,0.7,0.1,0,0.1,0.8c-0.1-1-0.3,0-0.3-1.1c-0.1,0,0,0.5,0,0.5l0-0.3
							l0,0.4c0-0.1-0.1-0.4-0.1-0.7c0,0,0-0.1,0-0.1c-0.1-0.3-0.1,0.1-0.2,0L14,1.7c-0.1,0.3-0.3-0.1-0.5,0.5l0,0.2
							c-0.1,0.4-0.1-0.2-0.2,0l0-0.1c0,0.2,0,0.3-0.1,0.3c0-0.3-0.1-0.5,0-0.8c-0.1,0.4,0,0.4-0.1,1.2l0-0.4C13,3,13,3.2,13,3.3
							c0-0.3-0.1-0.6,0-1c-0.2-0.8-0.2,0.8-0.3-0.4c0,1,0.1,0.6,0.1,0.8c0,0.3,0,0.8-0.1,0.7c0,0-0.1-1.3-0.2-1.3c0,0,0-0.1,0-0.1
							c0-0.3-0.1,0.4-0.1-0.1c0,0.6-0.1,0,0,0.8l0.1-0.2c0,0.2-0.1,1.1-0.2,0.7c0-0.2,0-0.4,0-0.5c0-0.2,0,0.2-0.1-0.1
							c0-0.8,0.1-0.2,0.1-0.8c0-0.3-0.1,0.6-0.1-0.3c0,1.1-0.1-0.1-0.1,0.7l0-0.5c0,0.1,0,0.3,0,0.3l0-0.6c0,0.5-0.1-0.5-0.2-0.2
							c0.1,0,0,0.6,0.1,0.9c-0.1,0.6-0.1-1.2-0.3-1c0-0.1,0.1,0.3,0.1,0.5c0-0.1-0.1-0.3-0.1-0.5c-0.1,0.1,0,0.5,0,0.8
							c-0.1-0.6,0,0.2-0.1,0.4l0-0.5c-0.1-0.3,0,1-0.1,0.6l0-0.7l-0.1,0.2l0-0.5c0,0.4-0.1,0.3-0.1,0.2c0,0.3,0,0.9,0,0.9
							c0-0.3,0-0.5-0.1-0.4c0-0.3,0-0.7,0.1-0.2c0-0.2,0-0.3,0-0.5c-0.1-0.3-0.1-0.1-0.1-0.1c0,0,0,0,0,0.1l-0.1,0.7
							c0-0.2,0-0.3,0-0.5c0,0.1,0,0.3-0.1,0.3c0-0.4,0-0.8,0-1l-0.1,0.4c0-0.2-0.1-0.5-0.1-0.6c-0.1-0.2-0.1,0.8-0.2,0.5
							c0,0.1,0,0.1,0,0.2c-0.1-0.1-0.2-0.6-0.2,0l-0.1-0.7c-0.1,0.2,0.1,0.9,0,1.2c-0.1,0.2-0.1-0.6-0.1-0.8
							C10.2,1.6,10.2,2.3,10.2,1.7C10.1,1.6,10.1,1.7,10.2,1.7z M9.3,2c0-0.1,0-0.4,0.1-0.1C9.4,2.4,9.4,2.2,9.3,2z M8.1,3.2
							c0-0.2,0-0.1,0.1,0.1C8.2,3.4,8.1,3.3,8.1,3.2z M4.7,6.7C4.7,6.7,4.7,6.7,4.7,6.7C4.8,6.9,4.7,6.8,4.7,6.7z M4.6,6.5
							c0,0.1,0,0.1,0,0.2c0-0.1,0-0.1,0-0.1C4.7,6.5,4.7,6.4,4.6,6.5z M12.7,6l0-0.1C12.7,5.7,12.7,5.9,12.7,6z"/>
						<path class="st3" d="M8.2,2.6c0,0.1,0,0.2,0,0.3C8.3,2.7,8.3,2.6,8.2,2.6z"/>
						<path class="st3" d="M10.7,1.4C10.7,1.4,10.7,1.4,10.7,1.4C10.7,1.4,10.7,1.3,10.7,1.4L10.7,1.4z"/>
						<path class="st3" d="M5.6,2.4c0,0.1,0,0.2,0,0.2C5.7,2.5,5.7,2.4,5.6,2.4z"/>
						<path class="st3" d="M4.3,7.3l0-0.1c0,0,0-0.1,0-0.2C4.3,7.2,4.3,7.3,4.3,7.3z"/>
						<path class="st3" d="M3.7,4.4C3.7,4.4,3.7,4.4,3.7,4.4l0,0.3C3.8,4.7,3.8,4.5,3.7,4.4z"/>
						<path class="st3" d="M4.2,5.7c0-0.4,0-0.3-0.1-0.2c0,0,0,0,0,0C4.1,6.1,4.1,5.9,4.2,5.7z"/>
						<path class="st3" d="M4.1,5.6C4.1,5.6,4.1,5.6,4.1,5.6C4.1,5.8,4.1,5.6,4.1,5.6z"/>
						<path class="st3" d="M4.5,6.8c0-0.1,0,0.5,0,0.4C4.5,7.7,4.6,6.5,4.5,6.8z"/>
						<polygon class="st3" points="4.1,4.4 4.1,4.9 4.1,4.5 						"/>
						<path class="st3" d="M4.4,4.8L4.3,4.6C4.3,4.7,4.3,4.8,4.4,4.8C4.3,4.8,4.4,4.9,4.4,4.8z"/>
						<path class="st3" d="M4.3,4.8C4.3,4.8,4.3,4.8,4.3,4.8C4.3,4.9,4.3,4.9,4.3,4.8z"/>
						<polygon class="st3" points="4.2,4.3 4.2,4.4 4.2,4.4 						"/>
						<path class="st3" d="M4.9,4.8L5,4.7c0-0.2,0-0.3,0-0.2C4.9,4.6,4.9,4.7,4.9,4.8z"/>
						<path class="st3" d="M4.7,3.5c0,0.1,0,0.2,0,0.4l0-0.6L4.7,3.5z"/>
						<path class="st3" d="M4.9,3.3c0-0.2,0.1-0.5,0-0.5C4.9,3,4.8,3.2,4.9,3.3z"/>
						<polygon class="st3" points="5.8,4.1 5.8,4.1 5.8,5.1 						"/>
						<path class="st3" d="M6.5,1.6c-0.1-0.2,0,0.6-0.1,0.3c0,0.2,0.1,0.2,0.1,0.5C6.5,2.1,6.5,2.3,6.5,1.6z"/>
						<path class="st3" d="M6.5,2.4c0,0,0,0.1,0,0.2C6.5,2.5,6.5,2.4,6.5,2.4z"/>
						<polygon class="st3" points="15.4,6.4 15.5,6.6 15.4,6.3 						"/>
						<path class="st3" d="M15.5,5.7l0,0.6L15.5,5.7C15.5,5.8,15.5,5.8,15.5,5.7z"/>
						<path class="st3" d="M9.2,0.7l0,0.2c0,0.2,0,0.2,0,0.2L9.2,0.7z"/>
						<polygon class="st3" points="9.8,1.2 9.8,1.2 9.8,1.8 						"/>
						<path class="st3" d="M10.3,0.4C10.3,0.4,10.2,0.5,10.3,0.4C10.3,0.4,10.3,1.1,10.3,0.4z"/>
					</g>
				</g>
			</g>
		</g>
	</g>
	<g class="st2">
		<g>
			<g>
				<g>
					<g>
						<path class="st3" d="M6.6,2.1c0,0,0.1-0.4,0.1-0.4C6.6,1.7,6.6,2.2,6.6,2.1z"/>
						<polygon class="st3" points="6.3,3 6.3,2.8 6.2,3.2 						"/>
						<path class="st3" d="M6.1,3C6,3.7,6.2,2.9,6.2,3.1l0,0.2l0.1-0.6C6.2,2.8,6.1,3.2,6.1,3z"/>
						<path class="st3" d="M6.3,1.4C6.3,1.7,6.2,1.7,6.3,1.4C6.3,1.5,6.3,1.5,6.3,1.4C6.3,1.4,6.3,1.4,6.3,1.4z"/>
						<path class="st3" d="M6.3,1.4C6.3,1.4,6.3,1.2,6.3,1.4L6.3,1.4z"/>
						<path class="st3" d="M6.2,1.6l0.1-0.2c0-0.2,0-0.2,0-0.3C6.3,1.2,6.2,1.3,6.2,1.6z"/>
						<path class="st3" d="M6.1,2.1l0-0.1C6.1,1.9,6.1,1.9,6.1,2.1z"/>
						<path class="st3" d="M6.2,1.8L6.1,2c0,0.1-0.1,0.3,0-0.1C6.1,2.1,6.2,1.9,6.2,1.8z"/>
						<path class="st3" d="M6.2,1.9c0,0.2,0,0.3-0.1,0.5C6.2,2.3,6.2,1.8,6.2,1.9z"/>
						<path class="st3" d="M6,3.7l0,0.2L6,3.7C6,3.8,6,3.5,6,3.7z"/>
						<path class="st3" d="M6.1,1.2c0,0.2-0.1,0.4-0.1,0.6l0-0.2C6.1,1.5,6.1,1.4,6.1,1.2z"/>
						<path class="st3" d="M6.1,1.8L6,2C6,2.1,6,2,6.1,1.8z"/>
						<polygon class="st3" points="6,2.9 6.1,2.3 6,2.9 						"/>
						<polygon class="st3" points="6.1,1.2 6.1,0.8 6,1.3 						"/>
						<path class="st3" d="M6,1.2c0-0.3,0.1-0.5,0.1-0.7c0,0-0.1,0.3-0.1,0.5C6,0.9,6,1,6,1.2z"/>
						<path class="st3" d="M5.9,1.4c0-0.1,0-0.2,0.1-0.3C6,1.1,5.9,1.2,5.9,1.4z"/>
						<path class="st3" d="M6,2C6,1.9,6,1.6,6,1.5L6,2L6,2z"/>
						<path class="st3" d="M6,2L6,2C5.9,1.9,5.9,1.9,6,2C5.9,1.9,5.9,1.9,6,2z"/>
						<path class="st3" d="M6,2L6,2C6,2,6,2,6,2z"/>
						<path class="st3" d="M6,2.5C5.9,2.7,5.9,3,5.8,3.3C5.9,3,5.9,2.8,6,2.5z"/>
						<path class="st3" d="M5.9,2.5l0,0.1c0-0.1,0-0.3,0.1-0.4L5.9,2.5z"/>
						<polygon class="st3" points="5.9,2.6 5.9,2.5 5.9,2.5 						"/>
						<path class="st3" d="M5.9,1.8C5.8,2,5.8,2,5.8,2c0,0.1,0,0.1,0,0.1C5.8,2,5.9,1.8,5.9,1.8z"/>
						<path class="st3" d="M5.9,1.9C5.9,1.9,5.9,1.9,5.9,1.9C5.9,2,5.9,2,5.9,1.9z"/>
						<path class="st3" d="M5.7,2C5.7,2,5.7,2,5.7,2L5.7,2L5.7,2z"/>
						<path class="st3" d="M5.8,2.2c0,0.1,0,0,0-0.1C5.8,2.1,5.8,2.1,5.8,2.2C5.8,2.2,5.8,2.2,5.8,2.2z"/>
						<path class="st3" d="M5.8,1.6c0,0.1,0,0.2,0,0.2C5.8,1.7,5.8,1.5,5.8,1.6z"/>
						<path class="st3" d="M5.9,1.8C5.9,1.8,5.9,1.8,5.9,1.8C5.9,1.7,5.9,1.8,5.9,1.8z"/>
						<path class="st3" d="M5.9,1.8c0,0.1,0,0.2-0.1,0.3c0,0,0-0.1,0-0.1C5.9,1.9,5.9,1.9,5.9,1.8z"/>
						<path class="st3" d="M5.2,4.7c0.1-0.4,0.1-0.7,0.1-0.3c0.1-0.3,0.3-1.6,0.3-2.3c0,0.2-0.1,0.3-0.1,0.6c0,0.2,0,0.5-0.1,0.9
							c-0.1,0.2,0-0.1,0-0.4C5.4,3.6,5.3,3.8,5.2,4.6l0.1-0.2C5.3,4.4,5.2,4.6,5.2,4.7z"/>
						<path class="st3" d="M5.7,2.1L5.7,2.1c0-0.1,0-0.3,0.1-0.6c0,0.2-0.1,0.3-0.1,0.5L5.7,2.1L5.7,2.1z"/>
						<path class="st3" d="M5.8,2.1C5.7,2.5,5.6,2.7,5.6,3.1c0,0,0.1-0.4,0.1-0.5C5.6,2.7,5.8,2.4,5.8,2.1C5.8,2,5.8,2,5.8,2.1
							c0-0.1,0-0.2,0-0.3l0,0l0,0l0,0c0,0.1,0,0.1,0,0.1l0,0C5.8,2,5.8,2,5.8,2.1c0-0.1,0-0.1,0-0.2l0-0.1l0,0L5.8,2.1
							C5.7,2.1,5.7,2.1,5.8,2.1z"/>
						<path class="st3" d="M5.7,4.2C5.7,4.2,5.7,4.2,5.7,4.2C5.7,4.2,5.6,4.2,5.7,4.2z"/>
						<path class="st3" d="M5.7,4c0-0.1,0-0.2,0-0.2c0,0.1,0,0.2-0.1,0.3c0-0.1,0.1-0.3,0.1-0.5l0,0.1c0-0.1,0.1-0.7,0.1-0.7
							C5.8,3.3,5.7,3.6,5.7,4z"/>
						<path class="st3" d="M5.7,3.1L5.6,3.3l0,0.4l0-0.2C5.6,3.6,5.7,3.3,5.7,3.1z"/>
						<polygon class="st3" points="5.7,1.8 5.8,1.3 5.7,2 						"/>
						<polygon class="st3" points="5.6,1.8 5.7,1.4 5.7,1.7 						"/>
						<path class="st3" d="M2.4,6.4l0,0.1C2.3,6.5,2.4,6.4,2.4,6.4z"/>
						<path class="st3" d="M2.4,6.4l0-0.2C2.4,6.3,2.4,6.4,2.4,6.4z"/>
						<path class="st3" d="M4.4,1.7c0-0.4,0.1-0.9,0-0.5L4.4,1.7C4.4,1.6,4.4,1.6,4.4,1.7z"/>
						<path class="st3" d="M3.3,4.2c0,0,0,0.1,0,0.1c0-0.1,0-0.3,0.1-0.4C3.3,4,3.3,4.1,3.3,4.2z"/>
						<path class="st3" d="M3.1,6l0-0.3C3.1,5.8,3.1,5.9,3.1,6z"/>
						<path class="st3" d="M1.9,6.8l0,0.4C1.9,7.2,1.9,7,1.9,6.8z"/>
						<path class="st3" d="M5.1,1.9c0-0.2,0-0.2,0-0.3C5.1,1.9,5,2.3,5.1,1.9z"/>
						<path class="st3" d="M2.8,1.8c0,0.1,0,0.2,0,0.3C2.8,2,2.8,1.9,2.8,1.8z"/>
						<path class="st3" d="M5.1,1.6c0,0,0,0.1,0,0.1C5.1,1.7,5.1,1.6,5.1,1.6C5.1,1.5,5.1,1.3,5.1,1.6z"/>
						<path class="st3" d="M0.5,6.4C0.5,6.3,0.5,6.3,0.5,6.4C0.5,6.4,0.5,6.4,0.5,6.4z"/>
						<path class="st3" d="M0.2,2C0.2,2,0.2,2,0.2,2C0.2,1.9,0.2,1.9,0.2,2z"/>
						<path class="st3" d="M5.5,1.6C5.5,1.6,5.5,1.6,5.5,1.6L5.5,1.6z"/>
						<path class="st3" d="M5.3,3.3c0,0,0,0.1,0,0.2C5.2,3.4,5.3,3.3,5.3,3.3z"/>
						<path class="st3" d="M4.6,4.3L4.6,4.3C4.6,4.4,4.6,4.4,4.6,4.3z"/>
						<path class="st3" d="M5.5,1.8c0-0.1,0-0.1,0-0.1C5.5,1.7,5.5,1.7,5.5,1.8z"/>
						<path class="st3" d="M5.5,1.6C5.5,1.6,5.5,1.6,5.5,1.6C5.5,1.6,5.5,1.5,5.5,1.6z"/>
						<path class="st3" d="M5.4,1.6C5.5,1.6,5.5,1.6,5.4,1.6C5.5,1.6,5.5,1.6,5.4,1.6C5.5,1.6,5.5,1.6,5.4,1.6z"/>
						<path class="st3" d="M1.3,5.2C1.3,5.2,1.3,5.2,1.3,5.2C1.3,5.4,1.3,5.4,1.3,5.2z"/>
						<path class="st3" d="M3.6,6.1L3.6,6.1C3.6,6.1,3.6,6.1,3.6,6.1L3.6,6.1z"/>
						<path class="st3" d="M3.5,6.5C3.6,5.9,3.6,6,3.6,6.1l0.1-1.2L3.5,6.5z"/>
						<path class="st3" d="M2.2,6.5l0,0.4c-0.1,0.6-0.1,0.4-0.1,1c0.1-1.4,0.1-0.1,0.2-1.5l0,0.3c0,0,0,0.1,0,0.1
							c0,0.7,0.1-1,0.1-0.8c0,0.1,0,0.3,0,0.5L2.4,6c0,0,0,0.3,0,0.2l0.1-0.1l0,0c0-0.2,0.1-0.5,0.1-0.7c0,0.2,0,0.1,0,0.3l0.1-0.3
							c0,0.4-0.1,0.7-0.1,0.6c-0.1,1.4,0.1-0.3,0,0.5l0,0.2c-0.1,0.8,0,0.5,0,1c0-0.3,0.1-1.2,0.1-1.5c0,0.1,0,0.2,0-0.1
							c0,0.5,0,0.4,0,0.3L2.5,7.1c0-0.2,0.1-0.5,0.1-0.8c0,0.1,0,0.6-0.1,1c0,0.1,0-0.8,0.1-0.9c0,0.2,0.1,0,0.1-0.4
							c0,0.2,0,0.4-0.1,0.6L2.8,6c0,0,0,0.2,0,0.2c0-0.2,0.1-0.6,0.1-0.8c0.1-0.7,0,1,0.1,0.2c0,0.2,0,0.4-0.1,0.6
							C3,5.8,3,6,3.1,5.3l0,0.4c0-0.5,0.1-1,0.2-1.5c0-0.2,0-0.4,0-0.5l0.1-0.3c0,0.1,0,0.3-0.1,0.6c0-0.1,0-0.1,0-0.2
							c0,0.2-0.1,0.6-0.1,1c0-0.1,0-0.3,0-0.4c0,0.4-0.1,0.8-0.1,1.2c0-0.1,0-0.1,0-0.2c0,0.1,0,0.2,0,0.3c0,0.1,0-0.1,0-0.2
							L3.1,6.1l0-0.3l0,0.4c0.1-0.7,0.3-1.8,0.3-2C3.4,4.7,3.4,5,3.3,5.6C3.4,5,3.2,5.9,3.2,5.8c0,0.1,0,0.4,0,0.5l0.1-0.6
							c-0.1,0.5,0,0.4,0,0.6c0.1-1,0.1-0.7,0.2-1c0,0.3-0.1,0.7-0.1,0.6C3.3,6.6,3.5,4.7,3.5,5.4c0,0,0,0,0,0.1c0-0.3,0.1-0.1,0,0.2
							l0,0c0,0.1,0.1,0,0.2-0.8c0,0.1-0.1,1-0.1,1.2l0.4-2.8C3.9,4,3.7,5.7,3.6,6.1c0,0.1,0,0.2,0,0C3.6,6,3.7,5,3.8,5
							c-0.1,0.8,0,0.4-0.1,1.1c0-0.2,0.2-1.3,0.2-1.3C3.8,5,3.7,6,3.7,6.1L3.9,5c0,0.2-0.1,0.9-0.1,1.3c0-0.2,0,0,0.1-0.1l0-0.3
							c0,0.2,0.2-1.6,0.3-1.5C4,4.6,3.9,5.8,3.9,6C4,5.4,4.3,3.2,4.4,2.8l0,0.3l0.1-0.4C4.3,3.6,4,5.4,3.9,6.1c0,0.3,0,0.4,0,0.4
							c0,0.3-0.1,0.5-0.1,0.5l0,0.2C3.9,6.5,4,6.5,4,5.9L3.9,6.6C4,5.9,4.2,4.7,4.2,4.8C4.2,5.1,4,6,4,6.2C4,6,4.1,5.8,4.1,6L4,6.3
							c0,0.3,0.2-0.9,0.1-0.2c0,0-0.1,0.9,0,0.5c0.1-0.8,0.4-3.1,0.5-3.7c0,0.1,0,0.7-0.1,1.1C4.4,4.6,4.3,5.4,4.2,5.9
							c0-0.2,0.1-0.4,0.1-0.5c0,0.2-0.1,0.6,0,0.5c0.1-0.7,0,0.1,0.1-0.6c0-0.2,0,0.1,0,0.1C4.4,5,4.6,4,4.6,3.8
							c0,0.2,0,0.4-0.1,0.5c0,0.1,0,0.4,0.1,0.4c0,0.2,0,0.4-0.1,0.7C4.6,5.2,4.6,5,4.7,5c-0.1,0.6,0,0.1-0.1,0.8
							C4.6,5.4,4.6,5.2,4.7,5c0.1-0.6,0-0.1-0.1,0.1C4.7,4.3,4.9,3.4,5,3c0.1-0.2-0.1,0.5,0,0.4C5,3.6,5.2,2,5.2,2.6
							C5.1,3.1,5,3.7,5,4.1C4.9,4.3,5,3.7,5,3.7L5,4c0,0.2-0.1,0.3-0.1,0.2C4.8,4.6,5,4.2,5,4.7c0-0.2,0.1-0.4,0.1-0.6l0,0.1
							c0-0.4,0.1-0.6,0.1-0.8c0.1-0.3,0.2-0.8,0.2-0.5L5.3,3.5c0-0.2,0-0.4,0-0.2c0.1-0.3-0.1,0.8,0.1,0l0-0.4
							C5.4,2.6,5.6,2,5.6,2.2c0.1-0.6,0,0.1,0.1-0.6c-0.1,0.9-0.1,0-0.2,0.9c0.1-0.8,0-0.3,0.1-1c0,0.2,0,0.4-0.1,0.3
							c0,0.1,0,0.1,0,0.2l0,0l0,0c0,0,0,0,0,0c0,0.1,0,0.2,0,0.3C5.3,2.6,5.3,2.6,5.3,2.8c0-0.1,0-0.2,0.1-0.4L5.2,2.7
							c0.1-0.4,0.1-0.7,0.1-1l0,0c0-0.3,0-0.4,0-0.2c0-0.1-0.1,0.5,0,0.1L5.2,1.9l0-0.1c0-0.1-0.2,0.7-0.1-0.1C5,1.8,5,2,5,1.9
							l0-0.4c0,0.1,0-0.4-0.1,0c0.1-1-0.1-0.2-0.1-0.4L4.8,1.5c0,0-0.1,0.1-0.1,0.3L4.6,2.3C4.5,2.7,4.6,2,4.5,2c0-0.2,0-0.1,0,0
							c0.1-1-0.2,0.7-0.2,0c0,0.2,0,0.1,0,0c0,0,0,0,0,0c0,0,0,0,0,0c0-0.1,0-0.2,0-0.2c0,0.1,0,0.2,0,0.2c0,0,0,0.1-0.1,0.2
							l0.1-0.5c0,0,0,0,0,0c0-0.2,0,0.2-0.1,0.6c0,0.1,0,0.2-0.1,0.3c0.1-0.8-0.1,0.3,0-0.6C4.2,2.3,4.2,2.2,4,3.1
							c0-0.1,0-0.2,0-0.2c0-0.1,0-0.2,0,0l0.1-0.6L4,3.2c0-0.4,0-0.6,0.1-1.1C3.9,2.8,4,2.4,3.9,3.1l0-0.4c0,0-0.1,0.5-0.1,0.2
							c0.1-0.8-0.1-0.1-0.2-0.8c-0.1,1.2,0-0.5-0.1,0.4c0-0.3,0-0.4,0.1-0.7C3.6,2,3.7,1.3,3.6,2.1c0-0.3,0-0.4,0.1-0.6
							c0,0.1,0,0.2,0,0.1c0-0.2,0-0.2,0-0.3c0,0-0.1,0.9-0.2,1.7c0-0.4,0-0.3-0.1,0.2c0-0.3,0-0.5,0.1-0.6c0,0-0.1-0.4-0.1,0.2
							c0-0.2,0,0,0,0c0,0,0-0.1-0.1,0l0,0.1C3.1,3.6,3.2,3,3.1,3.1l0-0.1c0-0.6-0.1,0.3-0.1-0.4l0,0.5C3,4.1,3.1,2.5,3,2.9l0,0.3
							C2.9,3.5,3.1,1.8,3,1.6c0-0.1,0-0.1,0-0.2C3.1,0.8,3,2.1,3,2.2C3,1.9,3,1.3,3,1.3C3,1,2.9,2.4,2.9,1.7c0,0.3,0,0.5-0.1,0.7
							c0,0.1,0-1-0.1-0.2c0-0.1,0-0.1,0-0.2c0,0.2-0.1,0.3-0.1,0.8c0.1-1.7-0.2,0.8-0.1-0.7L2.5,2.2l0-0.2c0-0.1-0.1,0.3-0.1,0.6
							c0-0.1,0-0.2,0-0.3c0-0.3,0-0.2-0.2,0.5l0-0.5c0,0.3,0-0.8-0.1-0.2c0-0.1,0-0.2,0-0.2C2.1,2.5,2.1,0.5,1.9,2.3L1.9,2.8
							c0,0.1-0.1,0.8-0.1,1.1c0,0.1,0-0.5,0-0.6l0,0.1c0.1-0.9,0-0.3,0-1c-0.1,0-0.2-0.5-0.3-0.5l0,0.7l0,0c0-0.2,0-0.6,0-0.5
							c0-0.4-0.1,0.3-0.1,0.5c0-0.3,0.1-0.9,0.1-0.9l0,0.1l0,0.1c0,0.3-0.1,0.6-0.1,0.6c0-0.1,0-0.5,0-0.5c0-0.1,0-0.1,0,0l0-0.1
							l0,0.6c0,0.3,0,0-0.1,0.6c0-1-0.1-0.4-0.2-0.7c0,0.4-0.1,0.4-0.1,0.4c0,0.1,0,0.8,0,0.7C1.1,2,1,2.7,1,1.7
							c0,0.6-0.1,0.2-0.1,1.1c0-0.1,0-0.5,0-0.8C0.8,2.5,0.8,1.6,0.7,1.8c0,0.2,0,0.4,0,0.7l0-0.9c0,0.1,0,1-0.1,0.4
							c0,0.1,0,0.4,0,0.4C0.5,1.6,0.3,3.2,0.2,1.6c0,0.3,0,0.4,0,0.4c0,0.1,0,0.4,0,0.7l0-0.7C0.1,2.6,0,2,0,2.6l0-0.1
							c0,0.7,0,1.7,0,2.6c0-0.8,0,1.3,0.1,0c0,0.2,0,0.3,0,0.5c0-0.4,0-0.5,0.1-0.3l0,0.1c0.1-0.1,0.1,0.3,0.2,0.6l0-0.5
							c0,0.1,0,0.2,0,0.3c0-0.7,0,0,0-0.8c0,1,0.1,0,0.1,1.1c0,0,0-0.5,0-0.5l0,0.3l0-0.4c0,0.1,0,0.4,0,0.7c0,0,0,0.1,0,0.1
							c0,0.3,0.1-0.1,0.1,0l0-0.2c0.1-0.3,0.1,0.1,0.2-0.5l0-0.2c0.1-0.4,0,0.2,0.1,0.1l0,0.1c0-0.2,0-0.3,0.1-0.3
							c0,0.3,0,0.5,0,0.8C1,5.6,0.9,5.7,1,4.9l0,0.4c0-0.3,0-0.5,0.1-0.6c0,0.3,0,0.6-0.1,1C1,6.5,1.1,4.8,1.1,6c0.1-1,0-0.6,0-0.8
							c0-0.3,0.1-0.8,0.1-0.7c0,0,0,1.3,0,1.3c0,0,0,0.1,0,0.1c0,0.3,0.1-0.4,0.1,0.1c0-0.6,0,0,0.1-0.8L1.3,5.4
							c0-0.2,0.1-1.1,0.1-0.7c0,0.2,0,0.4-0.1,0.5c0,0.2,0-0.2,0,0.1c0,0.8-0.1,0.2-0.1,0.8c0,0.3,0.1-0.6,0,0.3
							c0.1-1.1,0,0.1,0.1-0.7l0,0.5c0-0.1,0-0.3,0-0.3L1.3,6.5C1.4,6,1.4,7,1.4,6.7c-0.1,0,0-0.6,0-0.9c0.1-0.6,0,1.2,0,1
							c0,0.1,0-0.3,0-0.5c0,0.1,0,0.3,0,0.5c0.1-0.1,0-0.5,0.1-0.8c0,0.6,0-0.2,0.1-0.4l0,0.5c0,0.3,0.1-1,0.1-0.6L1.6,6.1l0-0.2
							l0,0.5c0.1-0.4,0.1-0.3,0.1-0.1c0-0.3,0.1-0.9,0.1-0.9c0,0.3,0,0.5,0,0.4c0,0.3-0.1,0.7,0,0.2c0,0.2,0,0.3,0,0.5
							c0,0.3,0,0.1,0.1,0.1c0,0,0,0,0-0.1l0.1-0.7c0,0.2,0,0.3,0,0.5c0-0.1,0-0.3,0.1-0.3c0,0.4-0.1,0.8-0.1,1l0.1-0.4
							c0,0.2,0,0.5,0,0.6c0,0.2,0.1-0.8,0.1-0.4c0-0.1,0-0.1,0-0.2c0,0.1,0,0.6,0.1,0l0,0.7c0-0.2,0-0.9,0.1-1.1
							c0.1-0.2,0,0.6,0,0.8C2.1,6.6,2.2,5.8,2.2,6.5C2.2,6.5,2.2,6.4,2.2,6.5z M2.6,6.2c0,0.1-0.1,0.4,0,0.1C2.6,5.8,2.6,6,2.6,6.2z
							 M3.2,5.1c0,0.2,0,0.1,0-0.1C3.2,5,3.2,5,3.2,5.1z M5.3,2C5.3,2,5.3,2,5.3,2C5.3,1.8,5.3,1.9,5.3,2z M5.3,2.2l0-0.2
							c0,0.1,0,0.1,0,0.1C5.3,2.2,5.3,2.3,5.3,2.2z M1.4,2l0,0.1C1.4,2.3,1.4,2.1,1.4,2z"/>
						<path class="st3" d="M3.1,5.8c0-0.1,0-0.2,0-0.3C3.1,5.6,3.1,5.7,3.1,5.8z"/>
						<polygon class="st3" points="1.9,6.7 1.9,6.7 1.9,6.8 						"/>
						<path class="st3" d="M4.2,6.2c0-0.1,0-0.2,0-0.2C4.2,6,4.2,6.1,4.2,6.2z"/>
						<path class="st3" d="M5.6,1.4l0,0.1c0,0,0,0.1,0,0.2C5.6,1.6,5.6,1.4,5.6,1.4z"/>
						<path class="st3" d="M5.4,4.4C5.4,4.3,5.4,4.4,5.4,4.4l0.1-0.3C5.4,4.1,5.4,4.3,5.4,4.4z"/>
						<path class="st3" d="M5.4,3c-0.1,0.4,0,0.3,0,0.2l0,0C5.5,2.6,5.4,2.8,5.4,3z"/>
						<path class="st3" d="M5.4,3.2C5.4,3.2,5.4,3.1,5.4,3.2C5.5,2.9,5.4,3.1,5.4,3.2z"/>
						<path class="st3" d="M5.4,1.9c0,0.1,0.1-0.5,0.1-0.3C5.5,1.1,5.3,2.2,5.4,1.9z"/>
						<polygon class="st3" points="5.2,4.3 5.3,3.8 5.2,4.2 						"/>
						<path class="st3" d="M5.1,3.9l0,0.1C5.2,4,5.2,3.9,5.1,3.9C5.2,3.9,5.2,3.8,5.1,3.9z"/>
						<path class="st3" d="M5.2,3.9C5.2,3.9,5.2,3.9,5.2,3.9C5.2,3.8,5.2,3.8,5.2,3.9z"/>
						<polygon class="st3" points="5.1,4.5 5.2,4.4 5.1,4.3 						"/>
						<path class="st3" d="M4.9,3.8l0,0.1c0,0.2,0,0.3,0,0.2C4.8,4,4.9,4,4.9,3.8z"/>
						<path class="st3" d="M4.8,5.2c0-0.1,0-0.2,0-0.4L4.7,5.4L4.8,5.2z"/>
						<path class="st3" d="M4.7,5.3c0,0.2-0.1,0.5-0.1,0.5C4.6,5.6,4.7,5.4,4.7,5.3z"/>
						<polygon class="st3" points="4.4,4.5 4.4,4.5 4.5,3.5 						"/>
						<path class="st3" d="M3.7,6.8c0,0.2,0.1-0.6,0.1-0.3c0-0.2,0-0.2,0-0.5C3.8,6.3,3.8,6.2,3.7,6.8z"/>
						<path class="st3" d="M3.8,6.1c0,0,0-0.1,0-0.2C3.9,6,3.9,6,3.8,6.1z"/>
						<polygon class="st3" points="0.1,1.4 0.1,1.2 0.1,1.6 						"/>
						<path class="st3" d="M0,2.2l0-0.6L0,2.2C0,2.1,0,2,0,2.2z"/>
						<path class="st3" d="M2.5,7.5l0-0.2c0-0.2,0-0.2,0-0.2L2.5,7.5z"/>
						<polygon class="st3" points="2.3,7 2.3,7 2.3,6.4 						"/>
						<path class="st3" d="M2,7.7C2,7.8,2,7.6,2,7.7C2,7.8,2.1,7,2,7.7z"/>
					</g>
				</g>
			</g>
		</g>
	</g>
	<g>
		<g>
			<g>
				<g>
					<g>
						<path class="st1" d="M0.3,6.9c0,0,0,0.4,0,0.5C0.4,7.3,0.4,7,0.3,6.9z"/>
						<polygon class="st1" points="0.3,5.9 0.3,6.1 0.3,5.7 						"/>
						<path class="st1" d="M0.3,5.9c-0.1-0.7,0,0.1,0-0.1l0-0.2l0,0.6C0.3,6.1,0.3,5.7,0.3,5.9z"/>
						<path class="st1" d="M0.4,7.5C0.4,7.2,0.4,7.2,0.4,7.5C0.4,7.4,0.4,7.4,0.4,7.5C0.4,7.5,0.4,7.5,0.4,7.5z"/>
						<path class="st1" d="M0.4,7.5C0.4,7.5,0.5,7.7,0.4,7.5L0.4,7.5z"/>
						<path class="st1" d="M0.4,7.3l0,0.2c0,0.2,0,0.2,0,0.3C0.5,7.7,0.5,7.6,0.4,7.3z"/>
						<path class="st1" d="M0.4,6.8l0,0.1C0.4,7,0.4,7,0.4,6.8z"/>
						<path class="st1" d="M0.4,7.1l0-0.2c0-0.1,0-0.3,0,0.1C0.4,6.8,0.4,7,0.4,7.1z"/>
						<path class="st1" d="M0.4,7c0-0.2,0-0.3,0-0.5C0.4,6.6,0.4,7.1,0.4,7z"/>
						<path class="st1" d="M0.3,5.2l0-0.2L0.3,5.2C0.3,5.1,0.3,5.4,0.3,5.2z"/>
						<path class="st1" d="M0.5,7.7c0-0.2,0-0.4,0-0.6l0,0.2C0.5,7.4,0.5,7.4,0.5,7.7z"/>
						<path class="st1" d="M0.4,7.1l0-0.3C0.4,6.8,0.4,6.9,0.4,7.1z"/>
						<polygon class="st1" points="0.4,6 0.4,6.5 0.4,6 						"/>
						<polygon class="st1" points="0.5,7.7 0.5,8 0.5,7.5 						"/>
						<path class="st1" d="M0.5,7.6c0,0.3,0,0.5,0,0.7c0-0.1,0-0.3,0-0.5C0.5,7.9,0.5,7.9,0.5,7.6z"/>
						<path class="st1" d="M0.5,7.4c0,0.1,0,0.2,0,0.3C0.5,7.7,0.5,7.6,0.5,7.4z"/>
						<path class="st1" d="M0.4,6.9c0,0.1,0,0.3,0,0.4L0.4,6.9L0.4,6.9z"/>
						<path class="st1" d="M0.4,6.9L0.4,6.9C0.4,6.9,0.4,6.9,0.4,6.9C0.4,6.9,0.4,6.9,0.4,6.9z"/>
						<path class="st1" d="M0.4,6.9L0.4,6.9C0.4,6.8,0.4,6.8,0.4,6.9z"/>
						<path class="st1" d="M0.4,6.4c0-0.2,0-0.5,0-0.9C0.4,5.8,0.4,6,0.4,6.4z"/>
						<path class="st1" d="M0.4,6.4L0.4,6.4c0,0,0,0.2,0,0.3L0.4,6.4z"/>
						<polygon class="st1" points="0.4,6.2 0.4,6.4 0.4,6.4 						"/>
						<path class="st1" d="M0.5,7c0-0.2,0-0.2,0-0.2c0-0.1,0-0.1,0-0.1C0.5,6.8,0.5,7,0.5,7z"/>
						<path class="st1" d="M0.5,6.9C0.5,6.9,0.5,6.9,0.5,6.9C0.4,6.9,0.4,6.9,0.5,6.9z"/>
						<path class="st1" d="M0.5,6.8C0.5,6.8,0.5,6.8,0.5,6.8L0.5,6.8L0.5,6.8z"/>
						<path class="st1" d="M0.4,6.6c0-0.1,0,0,0,0.2C0.4,6.7,0.4,6.7,0.4,6.6C0.4,6.6,0.4,6.6,0.4,6.6z"/>
						<path class="st1" d="M0.5,7.2c0-0.1,0-0.2,0-0.2C0.5,7.1,0.5,7.4,0.5,7.2z"/>
						<path class="st1" d="M0.5,7C0.5,7,0.5,7,0.5,7C0.5,7.1,0.5,7.1,0.5,7z"/>
						<path class="st1" d="M0.5,7c0-0.1,0-0.2,0-0.3c0,0,0,0.1,0,0.1C0.5,6.9,0.5,7,0.5,7z"/>
						<path class="st1" d="M0.4,4.1c0,0.4,0,0.8,0,0.3c0,0.3,0.1,1.6,0.1,2.3c0-0.2,0-0.3,0-0.6c0-0.2,0-0.5,0-0.9
							c0-0.2,0,0.1,0,0.3c0-0.5,0-0.7,0-1.4l0,0.3C0.4,4.4,0.4,4.2,0.4,4.1z"/>
						<path class="st1" d="M0.5,6.7L0.5,6.7c0,0.1,0,0.3,0,0.6c0-0.2,0-0.3,0-0.5L0.5,6.7L0.5,6.7z"/>
						<path class="st1" d="M0.5,6.7c0-0.4,0-0.6,0-1.1c0,0,0,0.4,0,0.5C0.4,6.1,0.4,6.5,0.5,6.7C0.5,6.8,0.5,6.8,0.5,6.7
							c0,0.1,0,0.2,0,0.3l0,0l0,0l0,0c0-0.1,0-0.1,0-0.1l0,0C0.5,6.9,0.5,6.8,0.5,6.7c0,0.1,0,0.1,0,0.2l0,0.1l0,0L0.5,6.7
							C0.5,6.7,0.5,6.7,0.5,6.7z"/>
						<path class="st1" d="M0.3,4.6C0.3,4.6,0.3,4.7,0.3,4.6C0.3,4.6,0.3,4.6,0.3,4.6z"/>
						<path class="st1" d="M0.3,4.9c0,0.1,0,0.2,0,0.2c0-0.1,0-0.2,0-0.3c0,0.1,0,0.3,0,0.5l0-0.1c0,0.1,0,0.7,0,0.7
							C0.4,5.5,0.3,5.2,0.3,4.9z"/>
						<path class="st1" d="M0.4,5.7l0-0.2l0-0.4l0,0.2C0.4,5.2,0.4,5.5,0.4,5.7z"/>
						<polygon class="st1" points="0.5,7 0.5,7.5 0.5,6.8 						"/>
						<polygon class="st1" points="0.5,7 0.5,7.4 0.5,7.1 						"/>
						<path class="st1" d="M1.4,2.1l0-0.1C1.5,2,1.5,2.1,1.4,2.1z"/>
						<path class="st1" d="M1.4,2.1l0,0.2C1.4,2.2,1.4,2.1,1.4,2.1z"/>
						<path class="st1" d="M0.7,6.9c0,0.4,0,0.9,0,0.5L0.7,6.9C0.7,7.1,0.7,7,0.7,6.9z"/>
						<path class="st1" d="M1,4.4c0,0,0-0.1,0-0.1c0,0.1,0,0.3,0,0.4C1,4.5,1,4.5,1,4.4z"/>
						<path class="st1" d="M1.1,2.6l0,0.3C1.1,2.7,1.1,2.7,1.1,2.6z"/>
						<path class="st1" d="M1.7,1.7l0.1-0.4C1.7,1.2,1.7,1.5,1.7,1.7z"/>
						<path class="st1" d="M0.6,6.8c0,0.2,0,0.2,0,0.3C0.6,6.8,0.6,6.5,0.6,6.8z"/>
						<path class="st1" d="M0.9,6.7c0-0.1,0-0.2,0-0.3C1,6.5,1,6.6,0.9,6.7z"/>
						<path class="st1" d="M0.6,7.1c0,0,0-0.1,0-0.1C0.6,7,0.6,7.1,0.6,7.1C0.6,7.3,0.6,7.4,0.6,7.1z"/>
						<path class="st1" d="M2.3,2.1C2.3,2.2,2.3,2.2,2.3,2.1C2.3,2.1,2.3,2.1,2.3,2.1z"/>
						<path class="st1" d="M1.4,6.4C1.4,6.5,1.4,6.5,1.4,6.4C1.4,6.5,1.4,6.5,1.4,6.4z"/>
						<path class="st1" d="M0.5,7.2C0.5,7.2,0.5,7.2,0.5,7.2L0.5,7.2z"/>
						<path class="st1" d="M0.5,5.4c0,0,0-0.1,0-0.2C0.5,5.3,0.5,5.4,0.5,5.4z"/>
						<path class="st1" d="M0.6,4.4L0.6,4.4C0.6,4.3,0.6,4.3,0.6,4.4z"/>
						<path class="st1" d="M0.5,7c0,0.1,0,0.1,0,0.1C0.5,7.1,0.5,7,0.5,7z"/>
						<path class="st1" d="M0.5,7.2C0.5,7.2,0.5,7.1,0.5,7.2C0.5,7.2,0.5,7.2,0.5,7.2z"/>
						<path class="st1" d="M0.5,7.1C0.5,7.1,0.5,7.1,0.5,7.1C0.5,7.1,0.5,7.1,0.5,7.1L0.5,7.1z"/>
						<path class="st1" d="M1.7,3.2C1.7,3.2,1.7,3.2,1.7,3.2C1.8,3.1,1.8,3.1,1.7,3.2z"/>
						<path class="st1" d="M0.9,2.4L0.9,2.4C0.9,2.5,0.9,2.5,0.9,2.4L0.9,2.4z"/>
						<path class="st1" d="M0.9,2.1c0,0.5,0,0.5,0,0.4L0.9,3.7L0.9,2.1z"/>
						<path class="st1" d="M1.5,2l0-0.4c0.1-0.6,0.1-0.4,0.1-1C1.5,2,1.6,0.8,1.5,2.1l0-0.3c0,0,0-0.1,0-0.1c0.1-0.6-0.1,1-0.1,0.8
							c0-0.1,0-0.3,0-0.5l0,0.3c0,0,0-0.3,0-0.2l0,0.1l0,0c0,0.2-0.1,0.5-0.1,0.7c0-0.2,0-0.1,0-0.3l0,0.3c0-0.4,0.1-0.7,0.1-0.6
							c0.1-1.3,0,0.3,0-0.5l0-0.2c0.1-0.8,0-0.5,0.1-1c0,0.3-0.1,1.2-0.1,1.5c0-0.1,0-0.2,0,0.1c0-0.5,0-0.4,0-0.3l0.1-0.6
							c0,0.2-0.1,0.5-0.1,0.8c0-0.1,0-0.6,0.1-1c0-0.1-0.1,0.8-0.1,0.9c0-0.2,0,0-0.1,0.4c0-0.2,0-0.4,0-0.6L1.2,2.5
							c0,0,0-0.2,0-0.2c0,0.2-0.1,0.6-0.1,0.8c-0.1,0.7,0.1-1,0-0.2c0-0.2,0-0.4,0.1-0.6c-0.1,0.5,0,0.4-0.1,1.1l0-0.4
							c0,0.5-0.1,1-0.1,1.5c0,0.2,0,0.4,0,0.5l0,0.3c0-0.1,0-0.3,0-0.6c0,0.1,0,0.1,0,0.2c0-0.2,0-0.6,0.1-1C1,4,1,4.1,1,4.2
							C1,3.8,1.1,3.4,1.1,3c0,0.1,0,0.1,0,0.2c0-0.1,0-0.2,0-0.3c0-0.1,0,0.1,0,0.2l0-0.7l0,0.3l0-0.4C1,3,1,4.1,0.9,4.4
							C1,3.8,1,3.5,1,2.9c0,0.7,0-0.3,0-0.1c0-0.1,0-0.4,0-0.5L1,2.9c0-0.5,0-0.4,0-0.6C1,3.3,1,3,1,3.3c0-0.3,0-0.7,0-0.6
							C1,1.9,0.9,3.8,1,3.2c0,0,0,0,0-0.1c0,0.3,0,0.1,0-0.2l0,0c0-0.1-0.1,0-0.1,0.8c0-0.1,0.1-1,0.1-1.2L0.8,5.3
							c0-0.7,0.1-2.5,0.1-2.9c0-0.1,0-0.2,0,0c0,0.1,0,1.1,0,1.1c0-0.8,0-0.4,0-1.1c0,0.2-0.1,1.2-0.1,1.3c0-0.2,0-1.1,0-1.2
							L0.8,3.6c0-0.2,0-1,0-1.3c0,0.2,0,0,0,0.1l0,0.3c0-0.2-0.1,1.6-0.1,1.5c0-0.2,0-1.4,0-1.6c0,0.6-0.1,2.8-0.1,3.2l0-0.3l0,0.4
							c0-0.9,0.1-2.7,0.1-3.4c0-0.3,0-0.4,0-0.4c0-0.3,0-0.5,0-0.5l0-0.2c0,0.7,0,0.7,0,1.2l0-0.7c0,0.7-0.1,1.9-0.1,1.8
							c0-0.3,0-1.2,0-1.4c0,0.2,0,0.4,0,0.3l0-0.4c0-0.3,0,0.9,0,0.2c0,0,0-0.9,0-0.5c0,0.8,0,3.1,0,3.7c0-0.1,0-0.7,0-1.1
							c0-0.6,0-1.4,0-2c0,0.2,0,0.4,0,0.5c0-0.2,0-0.6,0-0.5c0,0.7,0-0.1,0,0.6c0,0.2,0-0.1,0-0.1c0,0.4,0,1.5,0,1.7
							c0-0.2,0-0.4,0-0.5c0-0.1,0-0.4,0-0.4c0-0.2,0-0.4,0-0.7c0,0.1,0,0.4,0,0.4c0-0.6,0-0.1,0-0.8c0,0.4,0,0.5,0,0.8
							c0,0.6,0,0.1,0-0.1c0,0.8,0,1.7,0,2.1c0,0.2,0-0.5,0-0.4c0-0.1,0,1.5,0,0.9c0-0.5,0-1.1,0-1.5c0-0.2,0,0.3,0,0.3l0-0.3
							c0-0.2,0-0.3,0-0.2c0-0.5,0-0.1-0.1-0.5c0,0.2,0,0.4,0,0.6l0-0.1c0,0.4,0,0.6,0,0.8c0,0.3,0,0.8,0,0.5l0-0.6
							c0,0.2,0,0.4,0,0.2c0,0.3,0-0.8,0,0l0,0.4c0,0.3,0,1,0,0.8c0,0.6,0-0.1,0,0.6c0-0.9,0,0,0-0.9c0,0.8,0,0.3,0,1
							c0-0.2,0-0.4,0-0.3c0-0.1,0-0.1,0-0.2l0,0l0,0c0,0,0,0,0,0c0-0.1,0-0.2,0-0.3c0-0.5,0-0.5,0-0.7c0,0.1,0,0.2,0,0.4l0-0.4
							c0,0.4,0,0.7,0,1l0,0c0,0.3,0,0.4,0,0.2c0,0.1,0-0.5,0-0.1l0-0.3l0,0.1c0,0.1,0-0.7,0,0.1c0-0.1,0-0.3,0-0.1l0,0.4
							c0-0.1,0,0.4,0,0c0,1,0,0.2,0,0.4l0-0.5c0,0,0-0.1,0-0.3l0-0.4c0-0.4,0,0.3,0,0.3c0,0.2,0,0.1,0,0c0,1,0-0.7,0,0
							c0-0.2,0-0.1,0,0c0,0,0,0,0,0l0,0c0,0.1,0,0.2,0,0.2c0-0.1,0-0.2,0-0.2c0,0,0-0.1,0-0.2l0,0.5c0,0,0,0,0,0c0,0.2,0-0.2,0-0.6
							c0-0.1,0-0.2,0-0.3c0,0.6,0-0.1,0,0.6c0-0.4,0-0.3,0.1-1.2c0,0.1,0,0.2,0,0.2c0,0.1,0,0.2,0,0l0,0.6l0-0.8c0,0.4,0,0.6,0,1.1
							c0-0.7,0-0.3,0.1-1l0,0.4c0,0,0-0.5,0-0.2c0,0.8,0,0.1,0,0.8c0.1-1.2,0,0.5,0-0.4c0,0.3,0,0.4,0,0.7c0-0.3,0,0.4,0-0.3
							c0,0.3,0,0.4,0,0.6c0-0.1,0-0.2,0-0.1c0,0.2,0,0.2,0,0.4c0,0,0.1-0.9,0.1-1.7c0,0.4,0,0.3,0-0.2c0,0.3,0,0.5,0,0.6
							c0,0,0,0.4,0-0.3c0,0.2,0,0,0,0c0,0,0,0.1,0,0l0-0.1C1,4.9,1,5.5,1,5.4l0,0.1c0,0.6,0-0.3,0,0.4l0-0.5c0.1-1,0,0.6,0,0.2
							l0-0.3C1,5,0.9,6.7,0.9,6.9c0,0.1,0,0.1,0,0.2C0.8,7.7,0.9,6.4,0.9,6.3c0,0.3-0.1,0.9-0.1,0.9c0,0.3,0.1-1.1,0.1-0.4
							C0.9,6.5,1,6.3,1,6.1C1,6,0.9,7,1,6.2c0,0.1,0,0.1,0,0.2c0-0.2,0-0.4,0.1-0.8C0.9,7.3,1.2,4.8,1,6.4l0-0.1l0,0.2
							c0,0.1,0-0.3,0.1-0.6c0,0.1,0,0.2,0,0.3c0,0.3,0,0.2,0.1-0.5L1.1,6.1c0-0.3-0.1,0.8,0,0.2c0,0.1,0,0.2,0,0.2
							C1.2,6,0.9,7.9,1.2,6.1l0.1-0.4c0-0.1,0.1-0.8,0.2-1.1c0-0.1-0.1,0.5-0.1,0.6l0-0.1c-0.1,0.9,0,0.3-0.1,1c0,0,0,0.5,0,0.5
							l0.1-0.7l0,0c0,0.2-0.1,0.6-0.1,0.5C1.1,6.9,1.2,6.1,1.3,6C1.2,6.3,1.1,6.8,1.1,6.8l0-0.1l0-0.1c0.1-0.3,0.1-0.6,0.1-0.6
							c0,0.1-0.1,0.4-0.1,0.5c0,0.1,0,0.1,0,0l0,0.1l0.1-0.6c0.1-0.3,0,0,0.1-0.6c-0.2,1,0,0.4-0.1,0.7c0.1-0.4,0.1-0.4,0.1-0.4
							c0-0.1,0.1-0.8,0.1-0.7C1.3,6.5,1.4,5.7,1.2,6.7c0.1-0.6,0-0.2,0.2-1c0,0.1-0.1,0.5-0.2,0.8c0.1-0.5,0,0.3,0,0.2
							c0-0.2,0.1-0.4,0.1-0.7L1.3,6.8c0-0.1,0.2-1,0.1-0.4c0-0.1,0.1-0.4,0.1-0.4C1.3,6.8,1.7,5.3,1.3,6.8c0.1-0.3,0.1-0.4,0.1-0.4
							c0-0.1,0.1-0.4,0.2-0.7L1.4,6.5c0.2-0.6,0,0,0.2-0.7l0,0.1C1.8,5.2,2,4.3,2.2,3.4C2,4.2,2.5,2.2,2.2,3.3
							c0-0.2,0.1-0.3,0.1-0.5C2.2,3.2,2.2,3.3,2.2,3.1l0-0.1c0,0.1,0-0.3,0.1-0.6L2.2,2.9c0-0.1,0-0.2,0.1-0.3c-0.2,0.7,0,0-0.2,0.8
							c0.2-0.9,0,0,0.2-1.1c0,0-0.1,0.5-0.1,0.5l0.1-0.3L2.1,2.9c0-0.1,0.1-0.4,0.1-0.7c0,0,0-0.1,0-0.1c0.1-0.3-0.1,0.1,0,0l0,0.2
							C2.1,2.6,2.2,2.2,2,2.8L2,3C1.9,3.4,2,2.8,2,2.9l0-0.1c0,0.2-0.1,0.3-0.1,0.3C2,2.9,2,2.7,2.1,2.4C1.9,2.8,2,2.8,1.8,3.6
							l0.1-0.4C1.8,3.5,1.8,3.7,1.7,3.8c0.1-0.3,0.1-0.6,0.2-1c0.1-0.8-0.2,0.8,0-0.4C1.8,3.5,1.9,3,1.8,3.2C1.8,3.6,1.7,4,1.7,3.9
							c0,0,0.1-0.3,0.1-0.7c0.1-0.3,0.1-0.6,0.1-0.6c0,0,0-0.1,0-0.1c0-0.3-0.1,0.3,0-0.1c-0.1,0.6,0,0-0.1,0.7l0-0.2
							c0,0.2-0.2,1.1-0.1,0.7c0-0.2,0.1-0.4,0.1-0.5c0-0.2,0,0.2,0-0.1c0.1-0.8,0-0.2,0.2-0.8C2,2,1.8,2.9,1.9,2.1
							C1.7,3.2,1.9,2,1.8,2.8l0.1-0.5c0,0.1-0.1,0.3-0.1,0.3L1.9,2C1.8,2.5,2,1.5,1.9,1.8c0,0-0.1,0.6-0.1,0.9
							C1.7,3.3,2,1.5,1.9,1.7c0-0.1,0,0.3-0.1,0.5c0-0.1,0-0.3,0.1-0.5c0,0.1-0.1,0.5-0.1,0.8c0.1-0.6,0,0.2-0.1,0.4l0.1-0.5
							c0-0.3-0.2,1-0.1,0.6l0.1-0.7l0,0.2L1.8,2c-0.1,0.4-0.1,0.3,0,0.1c0,0.2-0.1,0.4-0.1,0.6C1.6,2.9,1.6,3,1.6,3
							c0-0.3,0.1-0.5,0-0.4c0-0.3,0.1-0.7,0-0.2c0-0.2,0-0.3,0.1-0.5c0-0.3,0-0.1,0-0.1c0,0,0,0,0,0.1L1.6,2.6c0-0.2,0-0.3,0.1-0.5
							c0,0.1,0,0.3-0.1,0.3c0.1-0.4,0.1-0.8,0.1-1L1.7,1.9c0-0.2,0.1-0.5,0.1-0.6c0-0.2-0.1,0.8-0.1,0.4c0,0.1,0,0.1,0,0.2
							C1.6,1.9,1.7,1.4,1.5,2l0.1-0.8c0,0.2-0.1,0.9-0.2,1.1c0,0.2,0.1-0.6,0.1-0.8C1.6,1.9,1.5,2.6,1.5,2C1.5,1.9,1.5,2,1.5,2z
							 M1.3,2.3c0-0.1,0.1-0.4,0-0.1C1.3,2.7,1.3,2.4,1.3,2.3z M1,3.4c0-0.2,0-0.1,0,0.1C1,3.6,1,3.6,1,3.4z M0.5,6.8
							C0.5,6.8,0.5,6.8,0.5,6.8C0.5,6.9,0.5,6.9,0.5,6.8z M0.5,6.6l0,0.2c0-0.1,0-0.1,0-0.1C0.5,6.5,0.5,6.5,0.5,6.6z M1.2,6.4
							l0-0.1C1.3,6.2,1.2,6.3,1.2,6.4z"/>
						<path class="st1" d="M1.1,2.8c0,0.1,0,0.2,0,0.3C1.1,3,1.1,2.9,1.1,2.8z"/>
						<polygon class="st1" points="1.7,1.8 1.7,1.8 1.7,1.7 						"/>
						<path class="st1" d="M0.7,2.5c0,0.1,0,0.2,0,0.2C0.7,2.6,0.7,2.5,0.7,2.5z"/>
						<path class="st1" d="M0.5,7.4l0-0.1c0,0,0-0.1,0-0.2C0.5,7.2,0.5,7.4,0.5,7.4z"/>
						<path class="st1" d="M0.4,4.4C0.4,4.5,0.4,4.4,0.4,4.4l0,0.3C0.4,4.7,0.4,4.5,0.4,4.4z"/>
						<path class="st1" d="M0.5,5.8c0-0.4,0-0.3,0-0.2l0,0C0.5,6.2,0.5,6,0.5,5.8z"/>
						<path class="st1" d="M0.5,5.6C0.5,5.6,0.5,5.6,0.5,5.6C0.5,5.8,0.5,5.7,0.5,5.6z"/>
						<path class="st1" d="M0.5,6.8c0-0.1,0,0.5,0,0.4C0.5,7.7,0.5,6.6,0.5,6.8z"/>
						<polygon class="st1" points="0.4,4.4 0.4,4.9 0.4,4.5 						"/>
						<path class="st1" d="M0.5,4.8l0-0.1C0.5,4.8,0.5,4.8,0.5,4.8C0.5,4.9,0.5,5,0.5,4.8z"/>
						<path class="st1" d="M0.5,4.8C0.5,4.8,0.5,4.8,0.5,4.8C0.5,4.9,0.5,4.9,0.5,4.8z"/>
						<polygon class="st1" points="0.4,4.3 0.4,4.4 0.4,4.4 						"/>
						<path class="st1" d="M0.5,4.9l0-0.1c0-0.2,0-0.3,0-0.2C0.5,4.7,0.5,4.7,0.5,4.9z"/>
						<path class="st1" d="M0.5,3.5c0,0.1,0,0.2,0,0.4l0-0.6L0.5,3.5z"/>
						<path class="st1" d="M0.5,3.4c0-0.2,0-0.5,0-0.5C0.5,3.1,0.5,3.2,0.5,3.4z"/>
						<polygon class="st1" points="0.7,4.2 0.7,4.2 0.6,5.2 						"/>
						<path class="st1" d="M0.8,1.7c0-0.2,0,0.6,0,0.3c0,0.2,0,0.2,0,0.5C0.8,2.3,0.8,2.4,0.8,1.7z"/>
						<path class="st1" d="M0.8,2.5c0,0,0,0.1,0,0.2C0.8,2.6,0.8,2.6,0.8,2.5z"/>
						<polygon class="st1" points="1.3,7 1.3,7.2 1.3,6.9 						"/>
						<path class="st1" d="M1.5,6.2L1.3,6.9L1.5,6.2C1.5,6.3,1.5,6.4,1.5,6.2z"/>
						<path class="st1" d="M1.5,1l0,0.2c0,0.2,0,0.2,0,0.2L1.5,1z"/>
						<polygon class="st1" points="1.5,1.5 1.5,1.5 1.5,2.1 						"/>
						<path class="st1" d="M1.7,0.8C1.7,0.7,1.7,0.9,1.7,0.8C1.7,0.7,1.6,1.5,1.7,0.8z"/>
					</g>
				</g>
			</g>
		</g>
	</g>
	<g class="st4">
		<g>
			<g>
				<g>
					<g>
						<path class="st3" d="M0.1,6C0.1,6,0,6.4,0,6.5C0,6.4,0.1,5.9,0.1,6z"/>
						<polygon class="st3" points="0.3,5.1 0.3,5.3 0.3,4.8 						"/>
						<path class="st3" d="M0.3,5.1c0.1-0.7,0,0.1,0-0.1l0-0.2L0.2,5.4C0.3,5.3,0.3,4.9,0.3,5.1z"/>
						<path class="st3" d="M0.1,6.6C0.1,6.4,0.1,6.4,0.1,6.6C0.1,6.6,0.1,6.6,0.1,6.6C0.1,6.6,0.1,6.6,0.1,6.6z"/>
						<path class="st3" d="M0.1,6.6C0.1,6.6,0.1,6.8,0.1,6.6L0.1,6.6z"/>
						<path class="st3" d="M0.1,6.5l0,0.2c0,0.2,0,0.2,0,0.3C0.1,6.9,0.1,6.7,0.1,6.5z"/>
						<path class="st3" d="M0.2,5.9l0,0.1C0.2,6.1,0.2,6.1,0.2,5.9z"/>
						<path class="st3" d="M0.2,6.3l0-0.2c0-0.1,0.1-0.3,0,0.1C0.2,5.9,0.2,6.1,0.2,6.3z"/>
						<path class="st3" d="M0.2,6.2c0-0.2,0-0.3,0.1-0.5C0.2,5.8,0.1,6.3,0.2,6.2z"/>
						<path class="st3" d="M0.4,4.4l0-0.2L0.4,4.4C0.5,4.3,0.4,4.6,0.4,4.4z"/>
						<path class="st3" d="M0.1,6.8c0-0.1,0.1-0.4,0.1-0.6l0,0.2C0.2,6.5,0.1,6.6,0.1,6.8z"/>
						<path class="st3" d="M0.2,6.2l0-0.3C0.3,5.9,0.2,6.1,0.2,6.2z"/>
						<polygon class="st3" points="0.4,5.2 0.3,5.7 0.4,5.2 						"/>
						<polygon class="st3" points="0.1,6.8 0.1,7.2 0.2,6.7 						"/>
						<path class="st3" d="M0.2,6.8C0.1,7.1,0.1,7.3,0,7.5c0-0.1,0.1-0.3,0.1-0.5C0.1,7.1,0.1,7,0.2,6.8z"/>
						<path class="st3" d="M0.2,6.6c0,0.1,0,0.2-0.1,0.3C0.2,6.9,0.2,6.8,0.2,6.6z"/>
						<path class="st3" d="M0.3,6.1c0,0.1-0.1,0.3-0.1,0.4L0.3,6.1C0.3,6.1,0.3,6.1,0.3,6.1z"/>
						<path class="st3" d="M0.3,6L0.3,6C0.3,6.1,0.3,6.1,0.3,6C0.3,6.1,0.3,6.1,0.3,6z"/>
						<path class="st3" d="M0.3,6.1C0.3,6.1,0.3,6.1,0.3,6.1C0.3,6,0.3,6,0.3,6.1z"/>
						<path class="st3" d="M0.3,5.5c0-0.2,0.1-0.5,0.1-0.8C0.4,5,0.4,5.2,0.3,5.5z"/>
						<path class="st3" d="M0.3,5.5L0.3,5.5c0,0,0,0.2-0.1,0.3L0.3,5.5z"/>
						<polygon class="st3" points="0.4,5.4 0.3,5.5 0.3,5.6 						"/>
						<path class="st3" d="M0.3,6.2c0-0.2,0-0.2,0-0.2c0-0.1,0-0.1,0-0.1C0.3,6,0.3,6.2,0.3,6.2z"/>
						<path class="st3" d="M0.3,6.1C0.3,6.1,0.3,6.1,0.3,6.1C0.3,6,0.3,6,0.3,6.1z"/>
						<path class="st3" d="M0.3,6C0.4,6,0.4,5.9,0.3,6C0.4,5.9,0.4,6,0.3,6L0.3,6z"/>
						<path class="st3" d="M0.3,5.8c0-0.1,0,0,0,0.1C0.3,5.9,0.3,5.9,0.3,5.8C0.3,5.8,0.3,5.8,0.3,5.8z"/>
						<path class="st3" d="M0.3,6.4c0-0.1,0-0.2,0-0.2C0.3,6.3,0.2,6.5,0.3,6.4z"/>
						<path class="st3" d="M0.3,6.2C0.3,6.2,0.3,6.2,0.3,6.2C0.2,6.3,0.2,6.3,0.3,6.2z"/>
						<path class="st3" d="M0.3,6.2c0-0.1,0-0.2,0-0.3c0,0,0,0.1,0,0.1C0.3,6.1,0.3,6.1,0.3,6.2z"/>
						<path class="st3" d="M0.8,3.3C0.7,3.7,0.7,4,0.7,3.6C0.7,3.9,0.5,5.2,0.4,5.9c0-0.2,0.1-0.3,0.1-0.6c0-0.2,0.1-0.5,0.1-0.9
							c0-0.2,0,0.1,0,0.3c0.1-0.5,0.1-0.7,0.2-1.4L0.7,3.7C0.8,3.6,0.8,3.4,0.8,3.3z"/>
						<path class="st3" d="M0.4,5.9L0.4,5.9c0,0.1,0,0.3-0.1,0.6c0-0.2,0.1-0.3,0.1-0.5L0.4,5.9L0.4,5.9z"/>
						<path class="st3" d="M0.3,5.9c0.1-0.4,0.1-0.6,0.2-1.1c0,0-0.1,0.4-0.1,0.5C0.4,5.3,0.4,5.6,0.3,5.9C0.3,6,0.3,6,0.3,5.9
							c0,0.1,0,0.2,0,0.3c0,0,0,0,0,0l0,0c0,0,0,0,0,0c0-0.1,0-0.1,0-0.1c0,0,0,0,0,0C0.3,6,0.3,6,0.3,5.9c0,0.1,0,0.1,0,0.2
							c0,0,0,0,0,0.1c0,0,0,0,0,0L0.3,5.9C0.3,5.9,0.3,5.9,0.3,5.9z"/>
						<path class="st3" d="M0.6,3.8C0.6,3.8,0.6,3.9,0.6,3.8C0.6,3.8,0.6,3.8,0.6,3.8z"/>
						<path class="st3" d="M0.6,4c0,0.1,0,0.2,0,0.2c0-0.1,0-0.2,0.1-0.3c0,0.1-0.1,0.3-0.1,0.5l0-0.1c0,0.1-0.1,0.7-0.1,0.7
							C0.5,4.7,0.5,4.4,0.6,4z"/>
						<path class="st3" d="M0.5,4.9l0-0.2l0.1-0.4l0,0.2C0.5,4.4,0.5,4.7,0.5,4.9z"/>
						<polygon class="st3" points="0.3,6.2 0.2,6.7 0.3,6 						"/>
						<polygon class="st3" points="0.3,6.2 0.3,6.5 0.3,6.3 						"/>
						<path class="st3" d="M2,1.5l0-0.1C2,1.4,2,1.4,2,1.5z"/>
						<path class="st3" d="M1.9,1.4l0,0.2C1.9,1.5,1.9,1.4,1.9,1.4z"/>
						<path class="st3" d="M0.7,6.2C0.6,6.5,0.6,7.1,0.6,6.7L0.7,6.2C0.7,6.3,0.7,6.3,0.7,6.2z"/>
						<path class="st3" d="M1.4,3.7c0,0,0-0.1,0-0.1c0,0.1,0,0.3-0.1,0.4C1.3,3.9,1.4,3.8,1.4,3.7z"/>
						<path class="st3" d="M1.7,1.9l0,0.3C1.6,2.1,1.7,2,1.7,1.9z"/>
						<path class="st3" d="M2.2,1l0.1-0.4C2.2,0.6,2.2,0.8,2.2,1z"/>
						<path class="st3" d="M0.5,6c0,0.2,0,0.2,0,0.3C0.5,6,0.6,5.7,0.5,6z"/>
						<path class="st3" d="M1.2,6c0-0.1,0-0.2,0-0.3C1.2,5.8,1.2,5.9,1.2,6z"/>
						<path class="st3" d="M0.5,6.3c0,0,0-0.1,0-0.1C0.5,6.3,0.5,6.3,0.5,6.3C0.5,6.5,0.4,6.6,0.5,6.3z"/>
						<path class="st3" d="M2.6,1.5C2.6,1.5,2.6,1.5,2.6,1.5C2.6,1.4,2.6,1.4,2.6,1.5z"/>
						<path class="st3" d="M2,5.8C2,5.8,2,5.8,2,5.8C2,5.9,2,5.9,2,5.8z"/>
						<path class="st3" d="M0.4,6.4C0.4,6.4,0.4,6.4,0.4,6.4L0.4,6.4z"/>
						<path class="st3" d="M0.6,4.7c0,0,0-0.1,0-0.2C0.7,4.6,0.6,4.6,0.6,4.7z"/>
						<path class="st3" d="M1,3.6C1,3.6,1,3.6,1,3.6C1,3.5,1,3.6,1,3.6z"/>
						<path class="st3" d="M0.4,6.2c0,0.1,0,0.1,0,0.1C0.4,6.3,0.4,6.2,0.4,6.2z"/>
						<path class="st3" d="M0.4,6.4C0.4,6.3,0.4,6.3,0.4,6.4C0.3,6.4,0.3,6.4,0.4,6.4z"/>
						<path class="st3" d="M0.4,6.3C0.4,6.3,0.4,6.3,0.4,6.3C0.4,6.3,0.4,6.3,0.4,6.3C0.4,6.3,0.4,6.3,0.4,6.3z"/>
						<path class="st3" d="M2.1,2.6C2.1,2.6,2.1,2.6,2.1,2.6C2.2,2.4,2.2,2.4,2.1,2.6z"/>
						<path class="st3" d="M1.5,1.7C1.5,1.7,1.5,1.8,1.5,1.7C1.5,1.8,1.5,1.8,1.5,1.7L1.5,1.7z"/>
						<path class="st3" d="M1.6,1.4C1.5,2,1.5,1.9,1.5,1.8L1.3,3L1.6,1.4z"/>
						<path class="st3" d="M2,1.3L2.1,1c0.1-0.6,0.1-0.4,0.2-1C2,1.3,2.2,0.1,2,1.5l0-0.3c0,0,0-0.1,0-0.1c0.1-0.6-0.2,1-0.2,0.8
							c0-0.1,0-0.3,0.1-0.5L1.9,1.8c0,0,0-0.3,0-0.2l0,0.1l0,0c0,0.2-0.1,0.5-0.1,0.7c0-0.2,0-0.1,0.1-0.3L1.8,2.3
							C1.8,2,1.9,1.6,1.9,1.7C2.1,0.3,1.8,2,1.9,1.2l0-0.2c0.1-0.8,0.1-0.5,0.1-1c0,0.2-0.2,1.2-0.2,1.5c0-0.1,0-0.1,0,0.1
							c0.1-0.5,0.1-0.4,0-0.3L2,0.8C2,1,1.9,1.3,1.9,1.6c0-0.1,0.1-0.6,0.2-1c0-0.1-0.1,0.8-0.2,0.9c0-0.2,0,0-0.1,0.4
							c0-0.2,0.1-0.4,0.1-0.6L1.8,1.8c0,0,0-0.2,0-0.2c0,0.2-0.1,0.6-0.1,0.8c-0.1,0.7,0.2-1,0-0.2c0-0.2,0.1-0.4,0.1-0.6
							C1.7,2,1.7,1.9,1.6,2.6l0.1-0.4c-0.1,0.5-0.2,1-0.3,1.5c0,0.2-0.1,0.4-0.1,0.5L1.2,4.5c0-0.1,0.1-0.3,0.1-0.6
							c0,0.1,0,0.1,0,0.2c0-0.2,0.1-0.6,0.2-0.9c0,0.1,0,0.3-0.1,0.4c0.1-0.4,0.1-0.8,0.2-1.2c0,0.1,0,0.1,0,0.2c0-0.1,0-0.2,0-0.3
							c0-0.1,0,0.1,0,0.2l0.1-0.7l0,0.3l0.1-0.4c-0.1,0.7-0.3,1.7-0.4,2c0.1-0.5,0.1-0.8,0.2-1.5c-0.1,0.6,0.1-0.3,0-0.1
							c0-0.1,0.1-0.4,0.1-0.5L1.6,2.2c0.1-0.5,0.1-0.4,0.1-0.6c-0.2,1-0.1,0.7-0.2,1C1.5,2.2,1.6,1.9,1.6,2c0.1-0.7-0.2,1.2-0.1,0.5
							c0,0,0,0,0-0.1c-0.1,0.3,0,0.1,0-0.2l0,0c0-0.1,0,0-0.2,0.8c0-0.1,0.2-1,0.2-1.2L1,4.6c0.1-0.7,0.4-2.4,0.5-2.8
							c0-0.1,0-0.2,0,0c0,0.1-0.2,1-0.2,1.1c0.1-0.8,0.1-0.4,0.2-1.1c0,0.2-0.2,1.3-0.2,1.2c0-0.2,0.2-1.1,0.2-1.2L1.3,2.9
							c0-0.2,0.2-0.9,0.2-1.3c0,0.2,0,0,0,0.1l0,0.3c0-0.2-0.3,1.6-0.3,1.5c0-0.2,0.2-1.4,0.3-1.5C1.3,2.5,0.9,4.7,0.8,5.1l0.1-0.3
							L0.8,5.2C1,4.3,1.3,2.5,1.4,1.8c0-0.3,0.1-0.4,0-0.4C1.5,1.1,1.5,1,1.6,1l0-0.2C1.5,1.4,1.4,1.4,1.3,2l0.1-0.7
							C1.4,2,1.2,3.2,1.2,3.1c0-0.3,0.2-1.2,0.2-1.4c0,0.2-0.1,0.4-0.1,0.3l0.1-0.4c0-0.3-0.2,0.9-0.1,0.2c0,0,0.1-0.9,0.1-0.5
							C1.3,2.1,0.9,4.5,0.8,5C0.8,5,0.9,4.3,1,3.9C1.1,3.3,1.2,2.5,1.3,2c0,0.2-0.1,0.4-0.1,0.5c0-0.2,0.1-0.6,0.1-0.5
							c-0.1,0.7,0-0.1-0.1,0.6c0,0.2,0-0.1,0-0.1C1.1,2.9,0.9,3.9,0.9,4.1C0.9,4,1,3.7,1,3.6c0-0.1,0-0.4,0-0.4C1,3.1,1,2.9,1.1,2.6
							C1.1,2.7,1,2.9,1,3c0.1-0.6,0-0.1,0.1-0.8C1.1,2.6,1.1,2.7,1,3c-0.1,0.6,0,0.1,0-0.1C0.9,3.7,0.8,4.5,0.7,4.9
							c0,0.2,0.1-0.5,0.1-0.4c0-0.1-0.3,1.5-0.2,0.8c0.1-0.5,0.2-1.1,0.2-1.4c0-0.2,0,0.3,0,0.3l0-0.3c0-0.2,0.1-0.3,0-0.2
							c0.1-0.5,0-0.1,0-0.5c0,0.2-0.1,0.4-0.1,0.6l0-0.1C0.7,4.2,0.7,4.4,0.7,4.6C0.6,4.9,0.5,5.3,0.6,5.1l0.1-0.6
							c0,0.2-0.1,0.4,0,0.2c0,0.3,0.1-0.8,0,0L0.6,5.1C0.5,5.4,0.4,6,0.4,5.8c-0.1,0.6,0-0.1-0.1,0.6c0.1-0.9,0,0,0.2-0.9
							c-0.1,0.8,0,0.3-0.2,1c0-0.2,0.1-0.4,0.1-0.3c0-0.1,0-0.1,0-0.2c0,0,0,0,0,0c0,0,0,0,0,0c0,0,0,0,0,0c0-0.1,0-0.2,0-0.3
							c0.1-0.5,0.1-0.4,0.1-0.7c0,0.1,0,0.2-0.1,0.4l0.1-0.4C0.5,5.7,0.5,6,0.4,6.2l0,0c0,0.2,0,0.3,0,0.2c0,0.1,0.1-0.5,0-0.1
							L0.5,6l0,0.1c0,0.1,0.2-0.7,0,0.1c0-0.1,0.1-0.2,0-0.1L0.5,6.4c0-0.1,0,0.4,0,0c-0.2,1,0,0.2,0,0.4l0.1-0.5c0,0,0-0.1,0.1-0.3
							l0.1-0.4c0.1-0.4,0,0.3,0,0.3c0,0.2,0,0.1,0,0c-0.2,1,0.2-0.7,0,0c0-0.2,0-0.1,0,0c0,0,0,0,0,0c0,0,0,0,0,0c0,0.1,0,0.2,0,0.2
							c0-0.1,0-0.2,0-0.2c0,0,0-0.1,0-0.2L0.7,6.2c0,0,0,0,0,0c0,0.2,0-0.2,0.1-0.6c0-0.1,0-0.2,0.1-0.3C0.7,6.1,0.9,5.1,0.8,5.9
							C0.8,5.5,0.8,5.6,1,4.8C1,4.9,1,4.9,1,5c0,0.1,0,0.2,0,0L0.9,5.5L1,4.7C1,5.1,0.9,5.3,0.8,5.8C1,5,0.9,5.5,1,4.8L1,5.2
							c0,0,0.1-0.5,0-0.2C0.9,5.7,1,5.1,1,5.8C1.1,4.6,0.9,6.3,1,5.4C1,5.7,1,5.8,0.9,6C1,5.8,0.9,6.5,1,5.7C1,6,0.9,6.1,0.9,6.3
							c0-0.1,0-0.2,0-0.1c0,0.2,0,0.2-0.1,0.3c0,0,0.2-0.9,0.3-1.7c-0.1,0.4,0,0.3,0-0.2c0,0.3-0.1,0.5-0.1,0.6c0,0,0,0.4,0.1-0.2
							c0,0.2,0,0,0,0c0,0,0,0.1,0,0l0-0.1c0.1-0.8,0-0.2,0.1-0.3l0,0.1c-0.1,0.6,0.1-0.3,0,0.4l0.1-0.5c0.2-1-0.1,0.6,0,0.2l0-0.3
							C1.4,4.3,1.1,6,1.1,6.2c0,0.1,0,0.1,0,0.2C1,7,1.2,5.7,1.2,5.6C1.1,5.9,1.1,6.4,1.1,6.5c0,0.3,0.2-1.1,0.1-0.4
							c0-0.3,0.1-0.5,0.1-0.7c0-0.1-0.1,1,0,0.2c0,0.1,0,0.1,0,0.2c0-0.2,0.1-0.3,0.2-0.8C1.1,6.6,1.6,4.2,1.3,5.7l0-0.1l0,0.2
							c0,0.1,0.1-0.3,0.1-0.6c0,0.1,0,0.2-0.1,0.3c0,0.3,0,0.2,0.1-0.5L1.4,5.4c0.1-0.3-0.1,0.8,0,0.2c0,0.1,0,0.2,0,0.2
							c0.1-0.6-0.2,1.4,0.1-0.4L1.6,5c0-0.1,0.1-0.8,0.2-1.1c0-0.1-0.1,0.5-0.1,0.6l0-0.1c-0.2,0.9,0,0.3-0.1,1c0,0,0,0.5,0,0.5
							l0.1-0.7l0,0c0,0.2-0.1,0.6-0.1,0.5C1.5,6.2,1.7,5.5,1.7,5.3c0,0.3-0.1,0.8-0.1,0.9l0-0.1l0-0.1c0.1-0.3,0.1-0.6,0.1-0.6
							c0,0.1-0.1,0.4-0.1,0.5c0,0.1,0,0.1,0,0l0,0.1l0.1-0.6c0.1-0.3,0,0,0.1-0.6c-0.2,1,0,0.4-0.1,0.7c0.1-0.4,0.1-0.4,0.1-0.4
							C1.9,5,2,4.4,2,4.5C1.7,5.8,1.9,5.1,1.7,6c0.1-0.6,0.1-0.2,0.2-1c0,0.1-0.1,0.5-0.1,0.8c0.1-0.5,0,0.3,0,0.2
							c0-0.2,0.1-0.4,0.1-0.7L1.8,6.1c0-0.1,0.2-1,0.1-0.4c0-0.1,0.1-0.4,0.1-0.4c-0.1,0.9,0.2-0.7,0,0.9C2,5.9,2,5.8,2,5.8
							c0-0.1,0.1-0.4,0.1-0.7L2,5.8c0.1-0.7,0,0,0.1-0.7l0,0.1c0.1-0.7,0.3-1.6,0.4-2.6c-0.1,0.8,0.2-1.2,0,0c0-0.2,0.1-0.3,0.1-0.5
							C2.5,2.5,2.5,2.6,2.5,2.4l0-0.1c0,0.1,0-0.3,0-0.6L2.5,2.2c0-0.1,0-0.2,0-0.3c-0.1,0.7,0,0-0.1,0.8c0.2-1,0,0,0.1-1.1
							c0,0-0.1,0.5-0.1,0.5l0-0.3L2.5,2.2c0-0.1,0.1-0.4,0.1-0.7c0,0,0-0.1,0-0.1c0.1-0.3,0,0.1,0,0l0,0.2c-0.1,0.3,0-0.1-0.1,0.5
							l0,0.2c-0.1,0.4,0-0.2,0-0.1l0-0.1c0,0.2-0.1,0.3-0.1,0.3c0-0.3,0.1-0.5,0.1-0.8C2.3,2.2,2.3,2.1,2.2,2.9l0.1-0.4
							C2.2,2.9,2.2,3,2.1,3.1c0.1-0.3,0.1-0.6,0.2-1c0.1-0.8-0.2,0.8,0-0.4c-0.2,1-0.1,0.6-0.1,0.8C2.2,2.9,2.1,3.3,2.1,3.2
							c0,0,0.2-1.3,0.2-1.3c0,0,0-0.1,0-0.1c0-0.3-0.1,0.3,0-0.1c-0.1,0.6,0,0-0.1,0.7l0-0.2C2.2,2.6,2,3.5,2.1,3
							c0-0.2,0.1-0.4,0.1-0.5c0-0.2,0,0.2,0-0.1c0.1-0.8,0-0.2,0.2-0.8c0.1-0.3-0.1,0.6,0-0.3c-0.2,1.1,0-0.1-0.1,0.7l0.1-0.5
							c0,0.1-0.1,0.3-0.1,0.3l0.1-0.6c-0.1,0.5,0.1-0.5,0-0.2c0,0-0.1,0.6-0.1,0.9C2.1,2.7,2.4,0.8,2.3,1c0-0.1,0,0.3-0.1,0.5
							c0-0.1,0-0.3,0.1-0.5c0,0.1-0.1,0.5-0.1,0.8c0.1-0.6,0,0.2-0.1,0.4l0.1-0.5c0-0.3-0.2,1-0.1,0.6l0.1-0.7l0,0.2l0.1-0.5
							c-0.1,0.4-0.1,0.3,0,0.1C2.1,1.8,2,2.3,2,2.3c0-0.3,0.1-0.5,0.1-0.4c0.1-0.3,0.1-0.7,0-0.2c0-0.2,0.1-0.3,0.1-0.5
							c0-0.3,0-0.1,0-0.1c0,0,0,0,0,0.1L2.1,2c0-0.2,0.1-0.3,0.1-0.5c0,0.1-0.1,0.3-0.1,0.3c0.1-0.4,0.1-0.8,0.2-1L2.2,1.3
							c0-0.2,0.1-0.5,0.1-0.6c0-0.2-0.1,0.7-0.1,0.4C2.1,1.2,2.1,1.3,2,1.3C2.1,1.2,2.2,0.7,2,1.3l0.2-0.8c0,0.2-0.1,0.9-0.2,1.1
							c0,0.2,0.1-0.6,0.1-0.8C2.1,1.3,1.9,2,2,1.3C2,1.3,2,1.4,2,1.3z M1.9,1.6c0-0.1,0.1-0.4,0-0.1C1.8,2,1.9,1.8,1.9,1.6z
							 M1.5,2.7c0-0.2,0-0.1,0,0.1C1.5,2.9,1.5,2.9,1.5,2.7z M0.5,6C0.5,6,0.5,6,0.5,6C0.4,6.1,0.5,6.1,0.5,6z M0.5,5.8
							c0,0.1,0,0.1,0,0.2c0-0.1,0-0.1,0-0.1C0.5,5.7,0.5,5.7,0.5,5.8z M1.6,5.8l0-0.1C1.7,5.5,1.7,5.6,1.6,5.8z"/>
						<path class="st3" d="M1.6,2.1c0,0.1,0,0.2,0,0.3C1.6,2.3,1.6,2.2,1.6,2.1z"/>
						<path class="st3" d="M2.2,1.1C2.2,1.1,2.2,1.1,2.2,1.1C2.2,1.1,2.2,1,2.2,1.1L2.2,1.1z"/>
						<path class="st3" d="M1.3,1.8c0,0.1,0,0.2,0,0.2C1.3,1.9,1.3,1.8,1.3,1.8z"/>
						<path class="st3" d="M0.3,6.6l0-0.1c0,0,0-0.1,0-0.2C0.3,6.4,0.3,6.6,0.3,6.6z"/>
						<path class="st3" d="M0.7,3.6C0.7,3.7,0.7,3.6,0.7,3.6L0.7,3.9C0.7,3.9,0.7,3.7,0.7,3.6z"/>
						<path class="st3" d="M0.6,5c0.1-0.4,0-0.3,0-0.2c0,0,0,0,0,0C0.5,5.4,0.5,5.2,0.6,5z"/>
						<path class="st3" d="M0.6,4.8C0.6,4.8,0.6,4.8,0.6,4.8C0.5,5,0.6,4.9,0.6,4.8z"/>
						<path class="st3" d="M0.4,6c0-0.1-0.1,0.5-0.1,0.3C0.3,6.9,0.5,5.8,0.4,6z"/>
						<polygon class="st3" points="0.8,3.7 0.7,4.2 0.8,3.8 						"/>
						<path class="st3" d="M0.7,4l0-0.1C0.7,4,0.7,4,0.7,4C0.7,4.1,0.7,4.2,0.7,4z"/>
						<path class="st3" d="M0.7,4.1C0.7,4.1,0.7,4.1,0.7,4.1C0.7,4.1,0.7,4.1,0.7,4.1z"/>
						<polygon class="st3" points="0.8,3.5 0.8,3.6 0.8,3.7 						"/>
						<path class="st3" d="M0.8,4.1l0-0.1c0-0.2,0-0.3,0-0.2C0.9,3.9,0.8,4,0.8,4.1z"/>
						<path class="st3" d="M1,2.8C1,2.9,1,3,1,3.2l0.1-0.6L1,2.8z"/>
						<path class="st3" d="M1.1,2.6c0-0.2,0.1-0.5,0.1-0.4C1.1,2.4,1.1,2.5,1.1,2.6z"/>
						<polygon class="st3" points="1.1,3.4 1.1,3.4 0.9,4.5 						"/>
						<path class="st3" d="M1.6,1.1c0-0.2-0.1,0.6-0.1,0.3c0,0.2,0,0.2-0.1,0.5C1.5,1.6,1.5,1.7,1.6,1.1z"/>
						<path class="st3" d="M1.4,1.8c0,0,0,0.1,0,0.2C1.4,1.9,1.4,1.9,1.4,1.8z"/>
						<polygon class="st3" points="1.9,6.3 1.9,6.5 2,6.2 						"/>
						<path class="st3" d="M2.1,5.6L2,6.2L2.1,5.6C2.1,5.7,2,5.7,2.1,5.6z"/>
						<path class="st3" d="M2.1,0.3l0,0.2c0,0.2,0,0.2,0,0.2L2.1,0.3z"/>
						<polygon class="st3" points="2.1,0.8 2.1,0.8 2,1.4 						"/>
						<path class="st3" d="M2.3,0.1C2.3,0.1,2.2,0.2,2.3,0.1C2.3,0.1,2.2,0.8,2.3,0.1z"/>
					</g>
				</g>
			</g>
		</g>
	</g>
</g>
<text transform="matrix(0.66 0 0 1 1.031 5.5689)" class="st5 st6 st7">Special Offer!</text>
</svg>
