<?xml version="1.0" encoding="utf-8"?>
<!-- Generator: Adobe Illustrator 21.0.2, SVG Export Plug-In . SVG Version: 6.00 Build 0)  -->
<svg version="1.1" id="Layer_1" xmlns="http://www.w3.org/2000/svg" xmlns:xlink="http://www.w3.org/1999/xlink" x="0px" y="0px"
	 viewBox="0 0 48 48" style="enable-background:new 0 0 48 48;" xml:space="preserve">
<style type="text/css">
	.st0{opacity:0.67;}
	.st1{fill:#FF2020;}
	.st2{opacity:0.53;}
	.st3{fill:#202020;}
	.st4{opacity:0.46;}
	.st5{stroke:#FFFFFF;stroke-width:0.1;stroke-miterlimit:10;}
	.st6{font-family:'IndustryInc-InlineStroke';}
	.st7{font-size:2.9012px;}
</style>
<g class="st0">
	<g>
		<g>
			<g>
				<g>
					<g>
						<path class="st1" d="M33.3,22.2c0,0,0-0.4,0-0.5C33.3,21.8,33.3,22.3,33.3,22.2z"/>
						<polygon class="st1" points="32.9,23.1 32.9,23 32.8,23.4 						"/>
						<path class="st1" d="M32.5,23.1c0,0.7,0.1-0.1,0.2,0.1l0,0.2l0-0.6C32.6,22.9,32.5,23.3,32.5,23.1z"/>
						<path class="st1" d="M32.2,21.6C32.3,21.8,32.2,21.8,32.2,21.6C32.3,21.6,32.3,21.6,32.2,21.6C32.3,21.6,32.3,21.6,32.2,21.6z
							"/>
						<path class="st1" d="M32.3,21.6C32.3,21.6,32.3,21.4,32.3,21.6L32.3,21.6z"/>
						<path class="st1" d="M32.1,21.7l0.1-0.2c0-0.2-0.1-0.2,0-0.3C32,21.3,32.1,21.5,32.1,21.7z"/>
						<path class="st1" d="M32,22.3l0-0.1C32.1,22.1,32.1,22.1,32,22.3z"/>
						<path class="st1" d="M32.1,21.9l-0.1,0.2c0,0.1,0,0.3,0-0.1C32.1,22.3,32.1,22.1,32.1,21.9z"/>
						<path class="st1" d="M32.2,22c0,0.2,0.1,0.3,0,0.5C32.3,22.5,32.3,21.9,32.2,22z"/>
						<path class="st1" d="M32.5,23.9l0,0.2L32.5,23.9C32.5,23.9,32.5,23.6,32.5,23.9z"/>
						<path class="st1" d="M31.7,21.4c0,0.2,0,0.4,0,0.6l0-0.2C31.8,21.7,31.8,21.6,31.7,21.4z"/>
						<path class="st1" d="M31.8,22l-0.1,0.3C31.8,22.3,31.8,22.1,31.8,22z"/>
						<polygon class="st1" points="32,23.1 32.1,22.5 32,23.1 						"/>
						<polygon class="st1" points="31.5,21.4 31.5,21 31.5,21.5 						"/>
						<path class="st1" d="M31.4,21.4c0-0.3,0-0.5,0-0.7c0,0.1-0.1,0.3-0.1,0.5C31.3,21.1,31.3,21.2,31.4,21.4z"/>
						<path class="st1" d="M31.2,21.6c0-0.1,0-0.2,0.1-0.3C31.2,21.3,31.2,21.4,31.2,21.6z"/>
						<path class="st1" d="M31.6,22.2c0-0.1,0-0.3-0.1-0.4L31.6,22.2L31.6,22.2z"/>
						<path class="st1" d="M31.6,22.2L31.6,22.2C31.6,22.1,31.5,22.1,31.6,22.2C31.5,22.1,31.6,22.1,31.6,22.2z"/>
						<path class="st1" d="M31.6,22.2L31.6,22.2C31.6,22.2,31.6,22.2,31.6,22.2z"/>
						<path class="st1" d="M31.9,22.7c0,0.2-0.1,0.5,0,0.9C31.9,23.2,31.8,23,31.9,22.7z"/>
						<path class="st1" d="M31.7,22.7L31.7,22.7c0.1,0,0-0.2,0.1-0.3L31.7,22.7z"/>
						<polygon class="st1" points="31.6,22.8 31.7,22.7 31.6,22.7 						"/>
						<path class="st1" d="M31.3,22c0,0.2-0.1,0.2-0.1,0.2c0,0.1,0.1,0.1,0.1,0.1C31.3,22.2,31.3,22,31.3,22z"/>
						<path class="st1" d="M31.4,22.1C31.4,22.1,31.4,22.1,31.4,22.1C31.4,22.2,31.4,22.2,31.4,22.1z"/>
						<path class="st1" d="M30.9,22.2C30.9,22.2,30.9,22.3,30.9,22.2L30.9,22.2L30.9,22.2z"/>
						<path class="st1" d="M31.3,22.4c0,0.1,0,0,0.1-0.2C31.4,22.3,31.4,22.4,31.3,22.4C31.3,22.4,31.3,22.5,31.3,22.4z"/>
						<path class="st1" d="M31.1,21.8c0,0.1,0,0.2,0.1,0.2C31.1,21.9,31.1,21.7,31.1,21.8z"/>
						<path class="st1" d="M31.4,22C31.4,22,31.4,22,31.4,22C31.4,21.9,31.4,22,31.4,22z"/>
						<path class="st1" d="M31.4,22c0,0.1,0,0.2,0,0.3c0,0,0-0.1,0-0.1C31.4,22.1,31.4,22.1,31.4,22z"/>
						<path class="st1" d="M30.8,25c0-0.4,0.1-0.8,0.1-0.3c0.1-0.3,0-1.6-0.1-2.3c0,0.2,0,0.3-0.1,0.6c0,0.2,0.1,0.5,0.1,0.9
							c-0.1,0.2-0.1-0.1-0.1-0.3c0,0.5-0.1,0.7-0.1,1.4l0.1-0.3C30.8,24.7,30.8,24.9,30.8,25z"/>
						<path class="st1" d="M31,22.3L31,22.3c0-0.1,0-0.3-0.1-0.6c0,0.2,0,0.3-0.1,0.5L31,22.3L31,22.3z"/>
						<path class="st1" d="M31.1,22.3c0,0.4-0.1,0.6,0,1.1c0.1,0,0.1-0.4,0.1-0.5C31.1,22.9,31.2,22.6,31.1,22.3
							C31.2,22.3,31.2,22.2,31.1,22.3c0-0.1,0-0.2,0-0.3l0,0l0,0l0,0c0,0.1,0,0.1,0,0.1l0,0C31.2,22.2,31.1,22.2,31.1,22.3
							c0-0.1,0-0.1,0-0.2l0-0.1l0,0L31,22.3C31.1,22.4,31.1,22.3,31.1,22.3z"/>
						<path class="st1" d="M31.8,24.5C31.8,24.4,31.8,24.4,31.8,24.5C31.8,24.4,31.8,24.4,31.8,24.5z"/>
						<path class="st1" d="M31.7,24.2c0-0.1,0-0.2,0-0.2c0,0.1,0,0.2,0,0.3c0-0.1,0.1-0.3,0-0.5l0,0.1c-0.1-0.1-0.1-0.7-0.1-0.7
							C31.7,23.5,31.7,23.8,31.7,24.2z"/>
						<path class="st1" d="M31.4,23.4l-0.1,0.2l0.1,0.4l0-0.2C31.5,23.8,31.4,23.5,31.4,23.4z"/>
						<polygon class="st1" points="30.9,22 30.9,21.6 30.8,22.2 						"/>
						<polygon class="st1" points="30.7,22.1 30.7,21.7 30.7,21.9 						"/>
						<path class="st1" d="M23.1,26.9l0,0.1C23.1,27,23.1,27,23.1,26.9z"/>
						<path class="st1" d="M23.3,27l0-0.2C23.3,26.9,23.3,27,23.3,27z"/>
						<path class="st1" d="M27.4,22.1c0-0.4-0.1-0.9-0.1-0.5L27.4,22.1C27.4,22,27.4,22,27.4,22.1z"/>
						<path class="st1" d="M25.1,24.7c0,0,0,0.1,0,0.1c0-0.1,0-0.3,0-0.4C25.2,24.5,25.2,24.6,25.1,24.7z"/>
						<path class="st1" d="M25.1,26.5l-0.1-0.3C25.1,26.3,25.1,26.4,25.1,26.5z"/>
						<path class="st1" d="M21.9,27.4l0,0.4C21.9,27.8,21.9,27.6,21.9,27.4z"/>
						<path class="st1" d="M29.4,22.2c0-0.2-0.1-0.2-0.1-0.3C29.3,22.2,29.3,22.6,29.4,22.2z"/>
						<path class="st1" d="M23.2,22.3c0,0.1,0,0.2,0,0.3C23.2,22.5,23.2,22.4,23.2,22.3z"/>
						<path class="st1" d="M29.1,22c0,0,0,0.1,0,0.1c0-0.1,0.1-0.1,0.1-0.1C29.2,21.8,29.2,21.7,29.1,22z"/>
						<path class="st1" d="M17.5,27C17.5,27,17.5,27,17.5,27C17.5,27,17.5,27,17.5,27z"/>
						<path class="st1" d="M16.3,22.6C16.3,22.6,16.3,22.6,16.3,22.6C16.3,22.6,16.3,22.6,16.3,22.6z"/>
						<path class="st1" d="M30.2,21.9C30.2,21.8,30.2,21.8,30.2,21.9L30.2,21.9z"/>
						<path class="st1" d="M30.3,23.6c0,0,0,0.1,0,0.2C30.3,23.7,30.3,23.6,30.3,23.6z"/>
						<path class="st1" d="M28.9,24.7L28.9,24.7C28.9,24.7,28.9,24.7,28.9,24.7z"/>
						<path class="st1" d="M30.2,22.1c0-0.1,0-0.1,0-0.1C30.2,22,30.2,22,30.2,22.1z"/>
						<path class="st1" d="M30.2,21.9C30.2,21.9,30.2,21.9,30.2,21.9C30.3,21.8,30.2,21.8,30.2,21.9z"/>
						<path class="st1" d="M30.1,21.9C30.2,21.9,30.2,21.9,30.1,21.9C30.2,21.9,30.2,21.9,30.1,21.9C30.2,21.9,30.2,21.9,30.1,21.9z
							"/>
						<path class="st1" d="M19.8,25.9C19.8,25.9,19.8,25.8,19.8,25.9C19.8,26,19.8,26,19.8,25.9z"/>
						<polygon class="st1" points="26.7,26.6 26.7,26.6 26.7,26.6 						"/>
						<path class="st1" d="M26.6,26.9c0-0.5,0.1-0.5,0.1-0.4l0-1.3L26.6,26.9z"/>
						<path class="st1" d="M22.6,27.1l0.1,0.4c-0.1,0.6-0.2,0.4-0.1,1c0-1.4,0.3-0.1,0.3-1.5l0,0.3c0,0,0,0.1,0,0.1
							c0.1,0.7,0.1-1,0.2-0.8c0,0.1,0.1,0.3,0,0.5l0.1-0.3c0,0,0,0.3,0,0.2l0.1-0.1l0,0c0-0.2,0.1-0.5,0.1-0.7c0,0.2,0,0.1,0,0.3
							l0.1-0.3c0,0.4,0,0.7-0.1,0.6c0.1,1.4,0.1-0.3,0.2,0.5l-0.1,0.2c0,0.8,0.1,0.5,0.2,1c0-0.3-0.2-1.2-0.1-1.5
							c0,0.1,0.1,0.2,0.1-0.1c0,0.5,0,0.4,0.1,0.3l0,0.6c0.1-0.2,0.1-0.5,0.1-0.8c0.1,0.1,0.1,0.6,0.1,1c0.1,0.1-0.1-0.8,0.1-0.9
							c0.1,0.2,0.2,0,0.3-0.4c0.1,0.2,0,0.4,0,0.6l0.1-0.5c0,0,0,0.2,0,0.2c0-0.2,0-0.6,0.1-0.8c0-0.7,0.1,1,0.2,0.2
							c0,0.2,0,0.4,0,0.6c0.1-0.5,0.1-0.4,0.2-1.1l0.1,0.4c-0.1-0.5,0-1,0.1-1.5c0-0.2,0-0.4-0.1-0.5l0.1-0.3c0,0.1,0,0.3,0,0.6
							c0-0.1,0-0.1,0-0.2c0,0.2,0,0.6,0,1c0-0.1,0-0.3,0-0.4c0,0.4-0.1,0.8-0.1,1.2c0-0.1,0-0.1,0-0.2c0,0.1,0,0.2,0,0.3
							c0,0.1,0-0.1,0-0.2l0,0.7l0-0.3l0.2,0.4c0.1-0.7,0.2-1.8,0.4-2.1c0,0.5,0,0.9,0,1.5c0-0.7-0.1,0.3-0.2,0.1c0,0.1,0,0.4,0,0.5
							l0.2-0.6c0,0.5,0,0.4,0.1,0.6c0-1,0.1-0.7,0.2-1c0,0.3,0,0.7-0.1,0.6c0.1,0.8,0.1-1.2,0.2-0.5c0,0,0,0,0,0.1
							c0-0.3,0.2-0.1,0.1,0.2l0,0c0.1,0.1,0.4,0,0.4-0.8c0,0.1,0,1,0,1.2l0.2-2.9c0,0.7,0.1,2.5,0,2.9c0,0.1,0.1,0.2,0.1,0
							c0-0.1-0.1-1.1,0-1.1c0.1,0.8,0.1,0.4,0.2,1.1c0-0.2,0-1.3,0.1-1.3c0,0.2,0,1.1,0,1.2l0.1-1.1c0,0.2,0,1,0,1.3
							c0-0.2,0.1,0,0.1-0.1l-0.1-0.3c0.1,0.2,0.1-1.6,0.3-1.5c0,0.2,0,1.4,0,1.6c0-0.6,0.1-2.8,0.3-3.2l0,0.3l0.1-0.4
							c-0.1,0.9-0.2,2.7-0.3,3.4c0.1,0.3,0,0.4,0.1,0.4c0,0.3,0,0.5-0.1,0.5l0.2,0.2c0-0.7,0.1-0.7,0.1-1.2L27.7,27
							c0-0.7,0.1-1.9,0.2-1.8c0,0.3,0,1.2,0,1.4c0-0.2,0.1-0.4,0.1-0.3L28,26.7c0.1,0.3,0.1-0.9,0.2-0.2c0,0,0.1,0.9,0.1,0.5
							c-0.1-0.8-0.1-3.1,0-3.7c0,0.1,0.2,0.7,0.2,1.1c0.1,0.6-0.1,1.4,0,2c0-0.2,0-0.4,0-0.5c0,0.2,0,0.6,0.1,0.5
							c0-0.7,0.1,0.1,0-0.6c0.1-0.2,0.1,0.1,0.1,0.1c0-0.4,0.1-1.5,0.1-1.7c0,0.2,0,0.4,0,0.5c0.1,0.1,0.2,0.4,0.3,0.4
							c0,0.2,0.1,0.4,0.1,0.7c0-0.1,0-0.4,0.1-0.4c0.1,0.6-0.1,0.1,0,0.8c0-0.4,0.1-0.5,0.2-0.8c0-0.6-0.1-0.1-0.2,0.1
							c0-0.8,0.1-1.7,0.2-2.1c0.1-0.2,0,0.5,0.1,0.4c0.2,0.1,0.2-1.5,0.3-0.9c0.1,0.5,0,1.1,0,1.5c-0.1,0.2-0.1-0.3-0.2-0.3l0.1,0.3
							c0,0.2-0.1,0.3-0.1,0.2c0.1,0.5,0.3,0.1,0.5,0.5c0-0.2,0.1-0.4,0-0.6l0,0.1c0-0.4,0.1-0.6,0-0.8c0.1-0.3,0.1-0.8,0.2-0.5
							l0,0.6c0-0.2-0.1-0.4-0.1-0.2c0-0.3,0.1,0.8,0.2,0l-0.1-0.4c0.1-0.3,0.1-1,0.2-0.8c0-0.6,0,0.1-0.1-0.6c0.1,0.9-0.2,0-0.1,0.9
							c-0.1-0.8-0.1-0.3-0.2-1.1c0,0.2,0,0.4,0,0.3c0,0.1,0,0.1,0,0.2l0,0l0,0c0,0,0,0,0,0c0,0.1,0,0.2,0,0.3c0,0.5-0.1,0.4-0.2,0.7
							c0-0.1,0-0.2,0-0.4L30,23c0-0.4-0.1-0.7,0-1l-0.1,0c-0.1-0.3-0.1-0.4-0.2-0.2c0-0.1-0.1,0.5-0.1,0.1l-0.1,0.3l0-0.1
							c-0.1-0.1-0.3,0.7-0.4-0.1c0,0.1-0.1,0.3-0.2,0.1l0-0.4c-0.1,0.1-0.2-0.4-0.2,0c-0.1-1-0.3-0.2-0.4-0.4l0,0.5
							c-0.1,0-0.1,0.1-0.2,0.3l0,0.4c-0.1,0.4-0.2-0.3-0.3-0.3c0-0.2,0-0.1,0.1,0c-0.1-1-0.3,0.7-0.4,0c0,0.2-0.1,0.1-0.1,0
							c0,0,0,0,0,0c0,0,0,0,0,0c0-0.1,0-0.2,0-0.2c0,0.1,0,0.2,0,0.2c0,0-0.1,0.1-0.1,0.2l0-0.5c0,0,0,0,0,0c0-0.2,0,0.2,0,0.6
							c0,0.1,0,0.2,0,0.3c0-0.8-0.1,0.3-0.1-0.6c0,0.4-0.2,0.3-0.2,1.2c0-0.1,0-0.2,0-0.2c0-0.1-0.1-0.2-0.1,0l0-0.6l-0.1,0.8
							c-0.1-0.4-0.1-0.6,0-1.1c-0.1,0.7-0.1,0.3-0.2,1l0-0.4c0,0-0.1,0.5-0.1,0.2c-0.1-0.8-0.4-0.1-0.6-0.8c0,1.2-0.1-0.5-0.1,0.4
							c0-0.3,0-0.4,0-0.7c-0.1,0.3-0.2-0.4-0.2,0.3c0-0.3,0-0.4,0-0.6c0,0.1,0,0.2,0,0.1c0-0.2,0-0.2,0-0.4c-0.1,0-0.1,0.9-0.1,1.7
							c-0.1-0.4-0.1-0.3-0.1,0.2c0-0.3-0.1-0.5,0-0.6c0,0-0.2-0.4-0.3,0.3c0-0.2-0.1,0-0.1,0c-0.1,0-0.1-0.1-0.2,0l0,0.1
							c0,0.8-0.1,0.2-0.1,0.3l0-0.1c-0.2-0.6-0.1,0.3-0.2-0.4l0,0.5c0,1-0.1-0.6-0.2-0.2l0,0.3c-0.1,0.4-0.1-1.4-0.2-1.5
							c0-0.1,0-0.1,0-0.2c-0.1-0.6,0,0.6-0.1,0.8c0-0.3,0-0.9,0-0.9c0-0.3-0.2,1.1-0.3,0.4c0,0.3,0,0.5,0,0.7
							c-0.1,0.1-0.2-1-0.3-0.2c0-0.1,0-0.1,0-0.2C23.1,22.8,23,23,23,23.4c0-1.7-0.3,0.8-0.3-0.7l-0.2,0.1l0-0.2
							c-0.1-0.1-0.1,0.3-0.2,0.6c0-0.1,0-0.2,0-0.3c-0.2-0.3-0.2-0.2-0.3,0.5l0-0.5c0,0.3-0.2-0.8-0.4-0.2c0-0.1,0-0.2,0-0.2
							c-0.2,0.6-0.4-1.4-0.5,0.4L21,23.4c0.1,0.1,0,0.8,0,1.1c-0.1,0.1-0.1-0.5-0.1-0.6l0,0.1c0-0.9-0.2-0.3-0.2-1
							c-0.3,0-0.6-0.5-0.8-0.5l0,0.7l-0.1,0c0-0.2,0-0.6,0-0.5c0-0.4-0.1,0.3-0.1,0.5c-0.1-0.3,0.1-0.9,0-0.9l-0.1,0.1l0,0.1
							c0,0.3-0.1,0.6-0.1,0.6c0-0.1,0-0.5,0-0.5c0-0.1,0-0.1,0,0l-0.1-0.1l0,0.6c-0.1,0.3-0.1,0-0.1,0.6c-0.1-1-0.4-0.4-0.5-0.7
							c-0.1,0.4-0.2,0.4-0.2,0.4c0,0.1,0,0.8-0.1,0.7c0.1-1.3-0.1-0.6-0.2-1.5c0,0.6-0.2,0.2-0.2,1.1c-0.1-0.1,0-0.5,0-0.8
							c-0.2,0.5-0.3-0.3-0.5-0.2c0,0.2,0,0.4,0,0.7l-0.1-0.9c0,0.1-0.1,1-0.1,0.4c0,0.1,0,0.4,0,0.4c-0.4-0.9-0.8,0.7-1.1-0.9
							c0,0.3,0,0.4,0,0.4c0,0.1,0,0.4,0,0.7l-0.1-0.7c0,0.7-0.2,0-0.2,0.7l0.1-0.1c-0.1,0.7,0.1,1.7,0,2.6c0.1-0.8,0.2,1.3,0.3,0
							c0,0.2,0,0.3,0,0.5c0-0.4,0.1-0.5,0.1-0.3l0,0.1c0.2-0.1,0.3,0.3,0.5,0.6l0-0.5c0,0.1,0.1,0.2,0.1,0.3c0.1-0.7-0.1,0-0.1-0.8
							c0,1,0.3,0,0.4,1.1c0.1,0,0-0.5,0.1-0.5l0,0.3l0-0.4c0,0.1,0.1,0.4,0.1,0.7c0,0,0,0.1,0,0.1c0.1,0.3,0.2-0.1,0.2,0l-0.1-0.2
							c0.2-0.3,0.4,0.1,0.7-0.5l0-0.2c0.2-0.4,0.1,0.2,0.3,0.1l0,0.1c0-0.2,0.1-0.3,0.1-0.3c0,0.3,0.1,0.5,0,0.8
							c0.2-0.4,0.1-0.3,0.2-1.2l0,0.4c0-0.3,0-0.5,0.1-0.6c-0.1,0.3,0,0.6,0,1c0.2,0.8,0.3-0.8,0.3,0.4c0.1-1-0.1-0.6-0.1-0.8
							c0-0.3,0.1-0.8,0.1-0.7c0.1,0,0.1,1.3,0.2,1.3c0,0,0,0.1,0,0.1c0,0.3,0.1-0.4,0.2,0.1c0-0.6,0.1,0,0.1-0.8l-0.1,0.2
							c0.1-0.2,0.2-1.1,0.3-0.7c0,0.2,0,0.4-0.1,0.5c0,0.2,0.1-0.2,0.1,0.1c0,0.8-0.2,0.2-0.2,0.8c0,0.3,0.2-0.6,0.1,0.3
							c0.1-1.1,0.1,0.1,0.2-0.7l0,0.5c0-0.1,0-0.3,0.1-0.3l-0.1,0.6c0.1-0.5,0.1,0.5,0.2,0.2c-0.2,0,0-0.6-0.1-0.9
							c0.2-0.6,0.1,1.2,0.3,1c0,0.1-0.1-0.3-0.1-0.5c0,0.1,0.1,0.3,0.1,0.5c0.1-0.1,0-0.5,0-0.8c0,0.6,0.1-0.2,0.1-0.4l0,0.5
							c0.2,0.3,0.1-1,0.2-0.6l-0.1,0.7l0.1-0.2l0,0.5c0.1-0.4,0.1-0.3,0.2-0.1c0-0.3,0-0.9,0.1-0.9c0,0.3,0,0.5,0.1,0.4
							c0,0.3-0.1,0.7-0.1,0.2c0,0.2,0,0.3,0,0.5c0,0.3,0.1,0.1,0.2,0.1c0,0,0,0,0-0.1l0.2-0.7c0,0.2,0,0.3,0,0.5
							c0-0.1,0.1-0.3,0.1-0.3c0,0.4,0,0.8-0.1,1l0.1-0.4c0,0.2,0.1,0.5,0,0.6c0.1,0.2,0.2-0.8,0.3-0.5c0-0.1,0-0.1,0-0.2
							c0.1,0.1,0.2,0.6,0.3,0l0.1,0.7c0.1-0.2-0.1-0.9,0.1-1.2c0.1-0.2,0,0.6,0.1,0.8C22.5,27.1,22.6,26.4,22.6,27.1
							C22.6,27.1,22.6,27,22.6,27.1z M23.6,26.8c0,0.1-0.1,0.4-0.1,0.1C23.6,26.3,23.6,26.6,23.6,26.8z M25.3,25.6
							c0,0.2,0,0.1-0.1-0.1C25.3,25.5,25.3,25.5,25.3,25.6z M29.9,22.3C29.9,22.3,29.9,22.3,29.9,22.3
							C29.8,22.1,29.8,22.2,29.9,22.3z M30,22.5c0-0.1,0-0.1,0-0.2c0,0.1,0,0.1-0.1,0.1C29.9,22.5,29.9,22.6,30,22.5z M19.6,22.6
							l0,0.1C19.6,22.9,19.6,22.8,19.6,22.6z"/>
						<path class="st1" d="M25.1,26.3c0-0.1,0-0.2,0-0.3C25.1,26.1,25.1,26.2,25.1,26.3z"/>
						<polygon class="st1" points="21.9,27.3 21.9,27.3 21.9,27.4 						"/>
						<path class="st1" d="M28.5,26.6c0-0.1,0-0.2,0-0.2C28.5,26.4,28.5,26.5,28.5,26.6z"/>
						<path class="st1" d="M30.5,21.7l-0.1,0.1c0,0,0,0.1,0.1,0.2C30.5,21.8,30.5,21.7,30.5,21.7z"/>
						<path class="st1" d="M31,24.6C31.1,24.6,31.1,24.6,31,24.6l0-0.3C31,24.4,31,24.5,31,24.6z"/>
						<path class="st1" d="M30.5,23.3c0,0.4,0,0.3,0.1,0.2c0,0,0,0,0,0C30.6,22.9,30.6,23.1,30.5,23.3z"/>
						<path class="st1" d="M30.6,23.4C30.7,23.4,30.7,23.4,30.6,23.4C30.7,23.2,30.7,23.4,30.6,23.4z"/>
						<path class="st1" d="M30.1,22.2c0,0.1,0-0.5,0-0.4C30.1,21.3,30,22.5,30.1,22.2z"/>
						<polygon class="st1" points="30.6,24.6 30.6,24.1 30.6,24.5 						"/>
						<path class="st1" d="M30.2,24.2l0.1,0.1C30.3,24.3,30.3,24.2,30.2,24.2C30.3,24.2,30.2,24.1,30.2,24.2z"/>
						<path class="st1" d="M30.3,24.2C30.4,24.2,30.4,24.2,30.3,24.2C30.4,24.1,30.4,24.1,30.3,24.2z"/>
						<polygon class="st1" points="30.5,24.7 30.5,24.6 30.4,24.6 						"/>
						<path class="st1" d="M29.5,24.1l-0.1,0.1c0,0.2,0,0.3,0,0.2C29.5,24.4,29.5,24.3,29.5,24.1z"/>
						<path class="st1" d="M29.7,25.5c0-0.1,0-0.2,0-0.4l0,0.6L29.7,25.5z"/>
						<path class="st1" d="M29.5,25.6c0,0.2-0.1,0.5,0,0.5C29.5,25.9,29.6,25.8,29.5,25.6z"/>
						<polygon class="st1" points="28.4,24.9 28.4,24.8 28.4,23.8 						"/>
						<path class="st1" d="M27.4,27.3c0.1,0.2,0-0.6,0.1-0.3c0-0.2-0.1-0.2,0-0.5C27.4,26.8,27.3,26.6,27.4,27.3z"/>
						<path class="st1" d="M27.4,26.5c0,0,0-0.1,0-0.2C27.4,26.4,27.4,26.5,27.4,26.5z"/>
						<polygon class="st1" points="16.1,22.1 16,21.9 16,22.2 						"/>
						<path class="st1" d="M15.9,22.8l0-0.6L15.9,22.8C15.9,22.8,15.9,22.7,15.9,22.8z"/>
						<path class="st1" d="M23.8,28.1l0-0.2c0-0.2,0-0.2,0-0.2L23.8,28.1z"/>
						<polygon class="st1" points="23,27.6 23,27.6 23,27 						"/>
						<path class="st1" d="M22.3,28.3C22.4,28.3,22.4,28.2,22.3,28.3C22.4,28.3,22.3,27.6,22.3,28.3z"/>
					</g>
				</g>
			</g>
		</g>
	</g>
	<g class="st2">
		<g>
			<g>
				<g>
					<g>
						<path class="st3" d="M16.3,26.5c0,0,0,0.4,0,0.5C16.3,26.9,16.3,26.4,16.3,26.5z"/>
						<polygon class="st3" points="16.6,25.5 16.6,25.7 16.7,25.3 						"/>
						<path class="st3" d="M17,25.5c-0.1-0.7-0.1,0.1-0.2-0.1l0-0.2l0,0.6C16.8,25.7,16.9,25.3,17,25.5z"/>
						<path class="st3" d="M17.2,27.1C17.2,26.8,17.2,26.8,17.2,27.1C17.2,27,17.2,27,17.2,27.1C17.2,27,17.2,27,17.2,27.1z"/>
						<path class="st3" d="M17.2,27C17.1,27.1,17.2,27.3,17.2,27L17.2,27z"/>
						<path class="st3" d="M17.3,26.9l0,0.2c0,0.2,0.1,0.2,0,0.3C17.4,27.3,17.4,27.1,17.3,26.9z"/>
						<path class="st3" d="M17.4,26.4l0,0.1C17.3,26.5,17.3,26.6,17.4,26.4z"/>
						<path class="st3" d="M17.3,26.7l0-0.2c0-0.1,0-0.3,0,0.1C17.3,26.3,17.3,26.5,17.3,26.7z"/>
						<path class="st3" d="M17.3,26.6c0-0.2-0.1-0.3,0-0.5C17.1,26.2,17.2,26.7,17.3,26.6z"/>
						<path class="st3" d="M17,24.8l0-0.2L17,24.8C16.9,24.7,17,25,17,24.8z"/>
						<path class="st3" d="M17.6,27.2c0-0.2,0-0.4,0-0.6l0,0.2C17.6,26.9,17.6,27,17.6,27.2z"/>
						<path class="st3" d="M17.6,26.6l0-0.3C17.6,26.3,17.6,26.5,17.6,26.6z"/>
						<polygon class="st3" points="17.3,25.6 17.3,26.1 17.3,25.6 						"/>
						<polygon class="st3" points="17.8,27.2 17.8,27.6 17.8,27.1 						"/>
						<path class="st3" d="M18,27.2c0,0.3,0,0.5,0,0.7c0-0.1,0.1-0.3,0.1-0.5C18,27.4,18,27.4,18,27.2z"/>
						<path class="st3" d="M18.1,27c0,0.1,0,0.2,0,0.3C18.1,27.3,18.1,27.2,18.1,27z"/>
						<path class="st3" d="M17.7,26.4c0,0.1,0,0.3,0.1,0.4L17.7,26.4C17.7,26.5,17.7,26.5,17.7,26.4z"/>
						<path class="st3" d="M17.7,26.4L17.7,26.4C17.8,26.5,17.8,26.5,17.7,26.4C17.8,26.5,17.8,26.5,17.7,26.4z"/>
						<path class="st3" d="M17.7,26.4C17.7,26.4,17.7,26.4,17.7,26.4C17.7,26.4,17.7,26.4,17.7,26.4z"/>
						<path class="st3" d="M17.5,25.9c0-0.2,0.1-0.5,0-0.9C17.5,25.4,17.5,25.6,17.5,25.9z"/>
						<path class="st3" d="M17.7,25.9L17.7,25.9c-0.1,0,0,0.2,0,0.3L17.7,25.9z"/>
						<polygon class="st3" points="17.7,25.8 17.7,25.9 17.7,25.9 						"/>
						<path class="st3" d="M18,26.6c0-0.2,0-0.2,0.1-0.2c0-0.1-0.1-0.1-0.1-0.1C18,26.4,18,26.6,18,26.6z"/>
						<path class="st3" d="M17.9,26.5C17.9,26.5,17.9,26.5,17.9,26.5C17.9,26.4,17.9,26.4,17.9,26.5z"/>
						<path class="st3" d="M18.3,26.4C18.3,26.3,18.3,26.3,18.3,26.4C18.3,26.3,18.3,26.3,18.3,26.4L18.3,26.4z"/>
						<path class="st3" d="M18,26.2c0-0.1,0,0,0,0.2C17.9,26.3,17.9,26.2,18,26.2C18,26.2,18,26.1,18,26.2z"/>
						<path class="st3" d="M18.2,26.8c0-0.1,0-0.2,0-0.2C18.1,26.7,18.2,26.9,18.2,26.8z"/>
						<path class="st3" d="M17.9,26.6C17.9,26.6,17.9,26.6,17.9,26.6C17.9,26.7,17.9,26.6,17.9,26.6z"/>
						<path class="st3" d="M17.9,26.6c0-0.1,0-0.2,0-0.3c0,0,0,0.1,0,0.1C17.9,26.5,17.9,26.5,17.9,26.6z"/>
						<path class="st3" d="M18.3,23.6c0,0.4,0,0.8-0.1,0.3c0,0.3,0,1.6,0.1,2.3c0-0.2,0-0.3,0-0.6c0-0.2-0.1-0.5-0.1-0.9
							c0.1-0.2,0.1,0.1,0.1,0.3c0-0.5,0.1-0.7,0-1.4L18.3,24C18.3,23.9,18.4,23.7,18.3,23.6z"/>
						<path class="st3" d="M18.2,26.2L18.2,26.2c0,0.1,0,0.3,0.1,0.6c0-0.2,0-0.3,0-0.5L18.2,26.2L18.2,26.2z"/>
						<path class="st3" d="M18.1,26.3c0-0.4,0-0.6,0-1.1c-0.1,0,0,0.4-0.1,0.5C18.2,25.7,18,26,18.1,26.3
							C18.1,26.3,18.1,26.3,18.1,26.3c0,0.1,0,0.2,0,0.3c0,0,0,0,0,0l0,0c0,0,0,0,0,0c0-0.1,0-0.1,0-0.1c0,0,0,0,0,0
							C18.1,26.4,18.1,26.3,18.1,26.3c0,0.1,0,0.1,0,0.2c0,0,0,0,0,0.1c0,0,0,0,0,0l0.1-0.2C18.2,26.2,18.2,26.2,18.1,26.3z"/>
						<path class="st3" d="M17.5,24.2C17.5,24.2,17.5,24.2,17.5,24.2C17.5,24.2,17.5,24.2,17.5,24.2z"/>
						<path class="st3" d="M17.6,24.4c0,0.1,0,0.2,0,0.2c0-0.1,0-0.2,0-0.3c0,0.1,0,0.3,0,0.5l0-0.1c0,0.1,0.1,0.7,0.1,0.7
							C17.6,25.1,17.6,24.8,17.6,24.4z"/>
						<path class="st3" d="M17.8,25.2l0.1-0.2l-0.1-0.4l0,0.2C17.8,24.8,17.8,25.1,17.8,25.2z"/>
						<polygon class="st3" points="18.4,26.6 18.4,27 18.4,26.4 						"/>
						<polygon class="st3" points="18.5,26.5 18.5,26.9 18.5,26.7 						"/>
						<path class="st3" d="M24.8,21.4l0-0.1C24.8,21.3,24.8,21.3,24.8,21.4z"/>
						<path class="st3" d="M24.6,21.3l0,0.2C24.6,21.4,24.6,21.3,24.6,21.3z"/>
						<path class="st3" d="M21.3,26.4c0.1,0.4,0.1,0.9,0.1,0.5L21.3,26.4C21.3,26.5,21.3,26.5,21.3,26.4z"/>
						<path class="st3" d="M23.1,23.7c0,0,0-0.1,0-0.1c0,0.1,0,0.3,0,0.4C23.1,23.9,23.1,23.8,23.1,23.7z"/>
						<path class="st3" d="M23.1,21.9l0.1,0.3C23.1,22.1,23.1,22,23.1,21.9z"/>
						<path class="st3" d="M25.8,20.9l0-0.4C25.7,20.4,25.8,20.6,25.8,20.9z"/>
						<path class="st3" d="M19.7,26.3c0,0.2,0.1,0.2,0.1,0.3C19.7,26.3,19.6,25.9,19.7,26.3z"/>
						<path class="st3" d="M24.9,26c0-0.1,0-0.2,0-0.3C24.9,25.8,24.9,25.9,24.9,26z"/>
						<path class="st3" d="M19.8,26.6c0,0,0-0.1,0-0.1C19.8,26.5,19.8,26.6,19.8,26.6C19.8,26.7,19.8,26.9,19.8,26.6z"/>
						<path class="st3" d="M29.5,21.1C29.5,21.1,29.5,21.1,29.5,21.1C29.5,21.1,29.5,21.1,29.5,21.1z"/>
						<path class="st3" d="M30.8,25.4C30.8,25.4,30.7,25.4,30.8,25.4C30.7,25.5,30.7,25.5,30.8,25.4z"/>
						<path class="st3" d="M18.9,26.7C18.9,26.7,18.9,26.7,18.9,26.7L18.9,26.7z"/>
						<path class="st3" d="M18.8,25c0,0,0-0.1,0-0.2C18.8,24.9,18.8,24.9,18.8,25z"/>
						<path class="st3" d="M20,23.9C20,23.9,20,23.9,20,23.9C20,23.8,20,23.8,20,23.9z"/>
						<path class="st3" d="M18.9,26.5c0,0.1,0,0.1,0,0.1C18.9,26.6,18.9,26.5,18.9,26.5z"/>
						<path class="st3" d="M18.9,26.7C18.9,26.7,18.9,26.7,18.9,26.7C18.9,26.7,18.9,26.8,18.9,26.7z"/>
						<path class="st3" d="M19,26.7C19,26.7,19,26.6,19,26.7C18.9,26.6,19,26.7,19,26.7C19,26.7,19,26.7,19,26.7z"/>
						<path class="st3" d="M27.6,22.3C27.6,22.3,27.6,22.3,27.6,22.3C27.6,22.2,27.6,22.2,27.6,22.3z"/>
						<path class="st3" d="M21.8,21.8C21.8,21.8,21.8,21.8,21.8,21.8C21.8,21.9,21.8,21.9,21.8,21.8L21.8,21.8z"/>
						<path class="st3" d="M21.8,21.5c0,0.5,0,0.5-0.1,0.4l0.1,1.2L21.8,21.5z"/>
						<path class="st3" d="M25.2,21.2l-0.1-0.4c0-0.6,0.1-0.4,0-1c0,1.4-0.2,0.1-0.2,1.5l-0.1-0.3c0,0,0-0.1,0-0.1
							c-0.1-0.6,0,1-0.1,0.8c0-0.1-0.1-0.3-0.1-0.5l-0.1,0.3c0,0,0-0.3,0-0.2l-0.1,0.1l0,0c0,0.2,0,0.5,0,0.7c0-0.2,0-0.1,0-0.3
							l-0.1,0.3c0-0.4,0-0.7,0-0.6c-0.1-1.4,0,0.3-0.2-0.4l0.1-0.2c-0.1-0.8-0.1-0.5-0.2-1c0,0.2,0.2,1.2,0.1,1.5
							c0-0.1-0.1-0.1-0.1,0.1c0-0.5-0.1-0.4-0.1-0.3l0-0.6c0,0.2,0,0.5,0,0.8c-0.1-0.1-0.1-0.6-0.1-1c-0.1-0.1,0.1,0.8,0,0.9
							c-0.1-0.2-0.1,0-0.2,0.4c-0.1-0.2,0-0.4,0-0.6l0,0.5c0,0,0-0.2,0-0.2c0,0.2,0,0.6,0,0.8c0,0.7-0.2-1-0.2-0.2
							c0-0.2,0-0.4,0-0.6c-0.1,0.5-0.1,0.4-0.1,1.1l-0.1-0.4c0.1,0.5,0,1,0,1.5c0,0.2,0.1,0.4,0.1,0.5l-0.1,0.3c0-0.1,0-0.3,0-0.6
							c0,0.1,0,0.1,0,0.2c0-0.2,0-0.6,0-1c0,0.1,0,0.3,0.1,0.4c0-0.4,0-0.8,0-1.2c0,0.1,0,0.1,0,0.2c0-0.1,0-0.2,0-0.3
							c0-0.1,0,0.1,0,0.2l0-0.7l0,0.3l-0.1-0.4c-0.1,0.7-0.1,1.8-0.2,2.1c0-0.5,0-0.9,0-1.5c0.1,0.7,0.1-0.3,0.2-0.2
							c0-0.1,0-0.4,0-0.5l-0.1,0.6c0-0.5,0-0.4-0.1-0.6c0.1,1-0.1,0.7-0.1,1c0-0.3,0-0.7,0.1-0.6c-0.1-0.8-0.1,1.2-0.1,0.5
							c0,0,0,0,0-0.1c0,0.3-0.1,0.1-0.1-0.2l0,0c-0.1-0.1-0.3,0-0.3,0.9c0-0.1,0-1,0-1.2l-0.1,2.9c0-0.7-0.1-2.5-0.1-2.9
							c0-0.1-0.1-0.2-0.1,0c0,0.1,0.1,1.1,0.1,1.1c-0.1-0.8-0.1-0.4-0.2-1.1c0,0.2,0,1.3,0,1.3c0-0.2,0-1.1,0-1.2L21.4,23
							c0-0.2,0-1-0.1-1.3c0,0.2-0.1,0-0.1,0.1l0.1,0.3c-0.1-0.2-0.1,1.6-0.2,1.5c0-0.2,0-1.4-0.1-1.6c0,0.6,0,2.8-0.1,3.2l0-0.3
							l-0.1,0.4c0-0.9,0.1-2.7,0.1-3.4c-0.1-0.3,0-0.4-0.1-0.4c0-0.3,0-0.5,0-0.5l-0.2-0.2c0,0.7-0.1,0.7-0.1,1.2l0.1-0.7
							c0,0.7,0,1.9-0.1,1.8c0-0.3,0-1.2,0-1.4c0,0.2-0.1,0.4-0.1,0.3l0-0.4c-0.1-0.3-0.1,0.9-0.2,0.3c0,0-0.1-0.9-0.1-0.5
							c0.1,0.8,0.2,3.1,0.2,3.7c0-0.1-0.2-0.7-0.2-1.1c-0.1-0.6,0-1.4,0-1.9c0,0.2,0,0.4,0,0.5c0-0.2,0-0.6-0.1-0.5
							c0,0.7-0.1-0.1,0,0.6c0,0.2-0.1-0.1-0.1-0.1c0,0.4,0,1.5,0,1.7c0-0.2,0-0.4,0-0.5c-0.1-0.1-0.2-0.4-0.3-0.4
							c0-0.2-0.1-0.4-0.1-0.7c0,0.1,0,0.4,0,0.4c-0.1-0.6,0.1-0.1,0-0.8c0,0.4-0.1,0.6-0.1,0.8c0,0.6,0.1,0.1,0.2-0.1
							c0,0.8,0,1.7-0.1,2.1c-0.1,0.2-0.1-0.5-0.1-0.4c-0.2-0.1-0.1,1.5-0.2,0.9c-0.1-0.5,0-1.1-0.1-1.5c0.1-0.2,0.1,0.3,0.2,0.3
							l-0.1-0.3c0-0.2,0.1-0.3,0.1-0.2c-0.1-0.5-0.3-0.1-0.4-0.5c0,0.2,0,0.4,0,0.6l0-0.1c0.1,0.4-0.1,0.6,0,0.8
							c0,0.3-0.1,0.8-0.2,0.5l0-0.6c0,0.2,0.1,0.4,0.1,0.2c0,0.3-0.1-0.8-0.2,0l0.1,0.4c0,0.3-0.1,1-0.2,0.8c0.1,0.6,0-0.1,0.1,0.6
							c-0.1-0.9,0.2,0,0.1-0.9c0.1,0.8,0.1,0.3,0.2,1c0-0.2,0-0.4,0-0.3c0-0.1,0-0.1,0-0.2c0,0,0,0,0,0c0,0,0,0,0,0c0,0,0,0,0,0
							c0-0.1,0-0.2,0-0.3c0-0.5,0.1-0.5,0.1-0.7c0,0.1,0,0.2,0,0.4l0-0.4c0,0.4,0.1,0.7,0,1l0.1,0c0.1,0.2,0.1,0.3,0.1,0.2
							c0,0.1,0.1-0.5,0.1-0.1l0.1-0.3l0,0.1c0.1,0.1,0.2-0.8,0.4,0.1c0-0.1,0.1-0.3,0.1-0.1l0,0.4c0-0.1,0.2,0.4,0.2,0
							c0.1,1,0.2,0.2,0.3,0.4l0-0.5c0.1,0,0.1-0.1,0.2-0.3l0-0.4c0-0.4,0.2,0.3,0.3,0.3c0,0.2,0,0.1,0,0c0.2,1,0.2-0.7,0.4,0
							c0-0.2,0-0.1,0.1,0c0,0,0,0,0,0c0,0,0,0,0,0c0,0.1,0,0.2,0,0.2c0-0.1,0-0.2,0-0.2c0,0,0-0.1,0.1-0.2l0,0.5c0,0,0,0,0,0
							c0,0.2,0-0.2,0-0.6c0-0.1,0-0.2,0-0.3c0.1,0.8,0.1-0.3,0.1,0.6c0-0.4,0.1-0.3,0.1-1.2c0,0.1,0,0.2,0,0.2
							c0,0.1,0.1,0.2,0.1-0.1l0,0.6l0-0.8c0.1,0.4,0.1,0.6,0.1,1.1c0.1-0.7,0.1-0.3,0.1-1l0,0.4c0,0,0.1-0.5,0.1-0.2
							c0.1,0.7,0.4,0.1,0.6,0.8c-0.1-1.2,0.1,0.5,0.1-0.4c0,0.3,0.1,0.4,0,0.7c0.1-0.3,0.2,0.4,0.2-0.3c0,0.3,0,0.4,0,0.6
							c0-0.1,0-0.2,0-0.1c0,0.2,0,0.2,0,0.4c0.1-0.1,0.1-0.9,0.1-1.7c0.1,0.4,0.1,0.3,0.1-0.2c0,0.3,0.1,0.5,0,0.6
							c0,0,0.2,0.4,0.2-0.3c0,0.2,0,0,0.1,0c0.1,0,0.1,0.1,0.2,0l0-0.1c0-0.8,0.1-0.2,0.1-0.3l0,0.1c0.2,0.6,0.1-0.3,0.2,0.4l0-0.5
							c0-1,0.1,0.6,0.2,0.2l0-0.3c0-0.4,0.2,1.4,0.2,1.5c0,0.1,0,0.1,0,0.2c0.1,0.6,0-0.6,0.1-0.8c0,0.3,0,0.9,0.1,0.9
							c0,0.3,0.1-1.1,0.2-0.5c0-0.3-0.1-0.5,0-0.7c0.1-0.1,0.2,1,0.2,0.2c0,0.1,0,0.1,0,0.2c0-0.2,0.1-0.4,0.1-0.8
							c0.1,1.7,0.3-0.8,0.3,0.7l0.1-0.1l0,0.2c0.1,0.1,0.1-0.3,0.1-0.6c0,0.1,0,0.2,0,0.3c0.1,0.3,0.2,0.2,0.2-0.5l0,0.5
							c0-0.3,0.2,0.8,0.3,0.2c0,0.1,0,0.2,0,0.2c0.1-0.6,0.4,1.4,0.4-0.4l0.1-0.4c-0.1-0.1,0-0.8-0.1-1.1c0-0.1,0.1,0.5,0.1,0.6
							l0-0.1c0,0.9,0.2,0.3,0.2,1c0.2-0.1,0.5,0.5,0.7,0.5L27.6,25l0.1,0c0,0.2,0.1,0.6,0,0.5c0,0.4,0.1-0.4,0.1-0.5
							c0.1,0.3,0,0.9,0,0.9l0-0.1l0-0.1c0-0.3,0-0.6,0.1-0.6c0,0.1,0,0.5,0.1,0.5c0,0.1,0,0.1,0,0l0.1,0.1L28,25.2
							c0-0.3,0.1,0,0-0.6c0.1,1,0.4,0.3,0.4,0.7c0-0.4,0.1-0.4,0.2-0.4c0-0.1-0.1-0.8,0-0.7c0,1.3,0.1,0.6,0.2,1.5
							c-0.1-0.6,0.2-0.2,0.1-1.1c0.1,0.1,0,0.5,0.1,0.8c0.1-0.5,0.3,0.3,0.5,0.1c0-0.2,0-0.4,0-0.7l0.1,0.9c0-0.1,0-1,0.1-0.4
							c0-0.1,0-0.4,0-0.4c0.4,0.8,0.6-0.7,1,0.9c-0.1-0.3,0-0.4,0-0.4c0-0.1,0-0.4,0-0.7l0.2,0.7c0-0.7,0.1-0.1,0.1-0.7l0,0.1
							c0-0.7-0.1-1.7-0.2-2.6c0,0.9-0.2-1.2-0.3,0c0-0.2,0-0.3,0-0.5c0,0.4,0,0.5-0.1,0.3l0-0.1c-0.2,0.1-0.3-0.3-0.5-0.6l0,0.5
							c0-0.1-0.1-0.2-0.1-0.3c0,0.7,0.1,0,0.1,0.8c-0.1-1-0.3,0-0.4-1.1c-0.1,0,0,0.5,0,0.5l0-0.3l0,0.4c0-0.1-0.1-0.4-0.1-0.7
							c0,0,0-0.1,0-0.1c-0.1-0.3-0.1,0.1-0.2,0l0.1,0.2c-0.2,0.3-0.4-0.1-0.5,0.5l0,0.2c-0.1,0.4-0.1-0.2-0.2,0l0-0.1
							c0,0.2-0.1,0.3-0.1,0.3c0-0.3-0.1-0.5-0.1-0.8c-0.1,0.4-0.1,0.4-0.1,1.2l0-0.4c0,0.3,0,0.5-0.1,0.6c0-0.3-0.1-0.6,0-1
							c-0.2-0.8-0.2,0.8-0.3-0.4c0,1,0.1,0.6,0.1,0.8c0,0.3,0,0.8-0.1,0.7c0,0-0.1-1.3-0.2-1.3c0,0,0-0.1,0-0.1
							c-0.1-0.3-0.1,0.4-0.1-0.1c0,0.6-0.1,0,0,0.8l0.1-0.2c-0.1,0.2-0.1,1.1-0.2,0.7c0-0.2,0-0.4,0-0.5c0-0.2-0.1,0.2-0.1-0.1
							c0-0.8,0.1-0.2,0.2-0.8c0-0.3-0.1,0.6-0.1-0.3c0,1.1-0.1-0.1-0.2,0.7l0-0.5c0,0.1,0,0.3-0.1,0.3l0-0.6c0,0.5-0.1-0.5-0.2-0.2
							c0.1,0,0.1,0.6,0.1,0.9c-0.1,0.6-0.1-1.2-0.3-1c0-0.1,0.1,0.3,0.1,0.5c0-0.1-0.1-0.3-0.1-0.5c-0.1,0.1,0,0.5,0,0.8
							c-0.1-0.6,0,0.2-0.1,0.4l0-0.5c-0.1-0.3,0,1-0.1,0.6l0-0.7l-0.1,0.2l0-0.5c-0.1,0.4-0.1,0.3-0.2,0.2c0,0.3,0,0.9,0,0.9
							c-0.1-0.3,0-0.5-0.1-0.4c0-0.3,0-0.7,0.1-0.2c0-0.2,0-0.3,0-0.5c-0.1-0.3-0.1-0.1-0.1-0.1c0,0,0,0,0,0.1l-0.1,0.7
							c0-0.2,0-0.3,0-0.5c0,0.1,0,0.3-0.1,0.3c0-0.4,0-0.8,0-1l-0.1,0.4c0-0.2-0.1-0.5-0.1-0.6c-0.1-0.2-0.1,0.8-0.2,0.5
							c0,0.1,0,0.1,0,0.2c-0.1-0.1-0.2-0.6-0.2,0l-0.1-0.7c-0.1,0.2,0.1,0.9,0,1.2c-0.1,0.2-0.1-0.6-0.1-0.8
							C25.3,21.1,25.3,21.9,25.2,21.2C25.2,21.2,25.2,21.3,25.2,21.2z M24.3,21.6c0-0.1,0-0.4,0.1-0.1C24.4,22,24.3,21.7,24.3,21.6z
							 M23,22.8c0-0.2,0-0.1,0.1,0.1C23,22.9,23,22.9,23,22.8z M19.2,26.3C19.2,26.3,19.2,26.3,19.2,26.3
							C19.2,26.4,19.2,26.4,19.2,26.3z M19.1,26.1c0,0.1,0,0.1,0,0.2c0-0.1,0-0.1,0-0.1C19.1,26.1,19.1,26,19.1,26.1z M28,25.5
							l0-0.1C28,25.3,28,25.4,28,25.5z"/>
						<path class="st3" d="M23.1,22.1c0,0.1,0,0.2,0,0.3C23.1,22.3,23.1,22.2,23.1,22.1z"/>
						<path class="st3" d="M25.8,20.9C25.8,20.9,25.8,20.9,25.8,20.9C25.8,20.9,25.8,20.9,25.8,20.9L25.8,20.9z"/>
						<path class="st3" d="M20.2,21.9c0,0.1,0,0.2,0,0.2C20.3,22.1,20.3,22,20.2,21.9z"/>
						<path class="st3" d="M18.7,26.9l0-0.1c0,0,0-0.1-0.1-0.2C18.7,26.7,18.7,26.9,18.7,26.9z"/>
						<path class="st3" d="M18.1,23.9C18.1,24,18.1,24,18.1,23.9l0,0.3C18.2,24.2,18.2,24,18.1,23.9z"/>
						<path class="st3" d="M18.6,25.3c0-0.4,0-0.3-0.1-0.2c0,0,0,0,0,0C18.5,25.7,18.6,25.5,18.6,25.3z"/>
						<path class="st3" d="M18.5,25.1C18.5,25.2,18.5,25.2,18.5,25.1C18.5,25.4,18.5,25.2,18.5,25.1z"/>
						<path class="st3" d="M19,26.3c0-0.1,0,0.5,0,0.4C19,27.2,19.1,26.1,19,26.3z"/>
						<polygon class="st3" points="18.5,24 18.5,24.5 18.6,24.1 						"/>
						<path class="st3" d="M18.8,24.3l-0.1-0.1C18.8,24.3,18.8,24.3,18.8,24.3C18.8,24.4,18.8,24.5,18.8,24.3z"/>
						<path class="st3" d="M18.7,24.4C18.7,24.4,18.7,24.4,18.7,24.4C18.7,24.4,18.7,24.4,18.7,24.4z"/>
						<polygon class="st3" points="18.6,23.8 18.6,23.9 18.7,24 						"/>
						<path class="st3" d="M19.5,24.4l0.1-0.1c0-0.2,0-0.3,0-0.2C19.5,24.2,19.4,24.2,19.5,24.4z"/>
						<path class="st3" d="M19.2,23c0,0.1,0,0.2,0,0.4l0-0.6L19.2,23z"/>
						<path class="st3" d="M19.4,22.9c0-0.2,0.1-0.5,0-0.5C19.4,22.6,19.3,22.7,19.4,22.9z"/>
						<polygon class="st3" points="20.4,23.6 20.4,23.6 20.4,24.7 						"/>
						<path class="st3" d="M21.2,21.2c-0.1-0.2,0,0.6-0.1,0.3c0,0.2,0.1,0.2,0.1,0.5C21.2,21.7,21.2,21.8,21.2,21.2z"/>
						<path class="st3" d="M21.1,21.9c0,0,0,0.1,0,0.2C21.1,22,21.1,22,21.1,21.9z"/>
						<polygon class="st3" points="31,25.9 31,26.2 31,25.8 						"/>
						<path class="st3" d="M31,25.2l0,0.6L31,25.2C31.1,25.3,31,25.3,31,25.2z"/>
						<path class="st3" d="M24.1,20.3l0,0.2c0,0.2,0,0.2,0.1,0.2L24.1,20.3z"/>
						<polygon class="st3" points="24.8,20.7 24.8,20.7 24.8,21.3 						"/>
						<path class="st3" d="M25.3,19.9C25.3,19.9,25.3,20.1,25.3,19.9C25.3,19.9,25.4,20.7,25.3,19.9z"/>
					</g>
				</g>
			</g>
		</g>
	</g>
	<g class="st2">
		<g>
			<g>
				<g>
					<g>
						<path class="st3" d="M20.8,21.7c0,0,0.1-0.4,0.1-0.4C20.9,21.3,20.8,21.8,20.8,21.7z"/>
						<polygon class="st3" points="20.5,22.6 20.5,22.4 20.4,22.8 						"/>
						<path class="st3" d="M20.3,22.5c-0.1,0.7,0.1-0.1,0.1,0.1l0,0.2l0.1-0.6C20.4,22.4,20.3,22.7,20.3,22.5z"/>
						<path class="st3" d="M20.5,21C20.5,21.3,20.5,21.2,20.5,21C20.5,21.1,20.5,21,20.5,21C20.5,21,20.5,21,20.5,21z"/>
						<path class="st3" d="M20.5,21C20.6,21,20.6,20.8,20.5,21L20.5,21z"/>
						<path class="st3" d="M20.4,21.2l0.1-0.2c0-0.2,0-0.2,0-0.3C20.5,20.7,20.5,20.9,20.4,21.2z"/>
						<path class="st3" d="M20.3,21.7l0-0.1C20.4,21.5,20.4,21.5,20.3,21.7z"/>
						<path class="st3" d="M20.4,21.4l-0.1,0.2c0,0.1-0.1,0.3,0-0.1C20.3,21.7,20.4,21.5,20.4,21.4z"/>
						<path class="st3" d="M20.4,21.5c0,0.2,0,0.3-0.1,0.5C20.4,21.9,20.5,21.4,20.4,21.5z"/>
						<path class="st3" d="M20.2,23.3l0,0.2L20.2,23.3C20.2,23.3,20.2,23,20.2,23.3z"/>
						<path class="st3" d="M20.4,20.8c0,0.2-0.1,0.4-0.1,0.6l0-0.2C20.3,21.1,20.3,21,20.4,20.8z"/>
						<path class="st3" d="M20.3,21.4l-0.1,0.3C20.2,21.7,20.2,21.5,20.3,21.4z"/>
						<polygon class="st3" points="20.2,22.4 20.3,21.9 20.2,22.5 						"/>
						<polygon class="st3" points="20.3,20.7 20.3,20.4 20.2,20.9 						"/>
						<path class="st3" d="M20.2,20.8c0-0.3,0.1-0.5,0.1-0.7c0,0-0.1,0.3-0.1,0.5C20.2,20.5,20.2,20.6,20.2,20.8z"/>
						<path class="st3" d="M20.1,21c0-0.1,0-0.2,0.1-0.3C20.2,20.7,20.1,20.8,20.1,21z"/>
						<path class="st3" d="M20.2,21.5c0-0.1,0-0.3,0.1-0.4L20.2,21.5L20.2,21.5z"/>
						<path class="st3" d="M20.2,21.5L20.2,21.5C20.2,21.5,20.2,21.5,20.2,21.5C20.2,21.5,20.2,21.5,20.2,21.5z"/>
						<path class="st3" d="M20.2,21.5L20.2,21.5C20.2,21.6,20.2,21.6,20.2,21.5z"/>
						<path class="st3" d="M20.2,22.1c-0.1,0.2-0.1,0.5-0.2,0.8C20.1,22.6,20.1,22.4,20.2,22.1z"/>
						<path class="st3" d="M20.1,22.1l0,0.1c0-0.1,0-0.3,0.1-0.4L20.1,22.1z"/>
						<polygon class="st3" points="20.1,22.2 20.1,22.1 20.1,22 						"/>
						<path class="st3" d="M20.1,21.4c0,0.2-0.1,0.2-0.1,0.2c0,0.1,0,0.1,0,0.1C20.1,21.6,20.1,21.3,20.1,21.4z"/>
						<path class="st3" d="M20.1,21.5C20.1,21.5,20.1,21.5,20.1,21.5C20.1,21.5,20.1,21.6,20.1,21.5z"/>
						<path class="st3" d="M19.9,21.6C19.9,21.6,19.9,21.6,19.9,21.6L19.9,21.6L19.9,21.6z"/>
						<path class="st3" d="M20,21.8c0,0.1,0,0,0-0.1C20.1,21.7,20.1,21.7,20,21.8C20,21.8,20,21.8,20,21.8z"/>
						<path class="st3" d="M20,21.1c0,0.1,0,0.2,0,0.2C20,21.3,20.1,21,20,21.1z"/>
						<path class="st3" d="M20.1,21.4C20.1,21.4,20.1,21.4,20.1,21.4C20.2,21.3,20.1,21.3,20.1,21.4z"/>
						<path class="st3" d="M20.1,21.4c0,0.1,0,0.2-0.1,0.3c0,0,0-0.1,0-0.1C20.1,21.5,20.1,21.4,20.1,21.4z"/>
						<path class="st3" d="M19.4,24.3c0.1-0.4,0.1-0.7,0.1-0.3c0.1-0.3,0.3-1.6,0.3-2.3c0,0.2-0.1,0.3-0.1,0.6c0,0.2,0,0.5-0.1,0.9
							c-0.1,0.2,0-0.1,0-0.4c-0.1,0.5-0.1,0.7-0.3,1.4l0.1-0.2C19.5,24,19.4,24.2,19.4,24.3z"/>
						<path class="st3" d="M19.9,21.7L19.9,21.7c0-0.1,0-0.3,0.1-0.6c0,0.2-0.1,0.3-0.1,0.5L19.9,21.7L19.9,21.7z"/>
						<path class="st3" d="M20,21.6c-0.1,0.4-0.1,0.6-0.2,1.1c0,0,0.1-0.4,0.1-0.5C19.9,22.3,20,21.9,20,21.6
							C20,21.6,20,21.6,20,21.6c0-0.1,0-0.2,0-0.3l0,0l0,0l0,0c0,0.1,0,0.1,0,0.1l0,0C20,21.5,20,21.6,20,21.6c0-0.1,0-0.1,0-0.2
							l0-0.1l0,0L20,21.6C19.9,21.7,20,21.7,20,21.6z"/>
						<path class="st3" d="M19.9,23.8C19.9,23.8,19.9,23.7,19.9,23.8C19.9,23.8,19.9,23.8,19.9,23.8z"/>
						<path class="st3" d="M19.9,23.6c0-0.1,0-0.2,0-0.2c0,0.1,0,0.2-0.1,0.3c0-0.1,0.1-0.3,0.1-0.5l0,0.1c0-0.1,0.1-0.7,0.1-0.7
							C20,22.9,19.9,23.2,19.9,23.6z"/>
						<path class="st3" d="M19.9,22.7l-0.1,0.2l0,0.4l0-0.2C19.9,23.1,19.9,22.9,19.9,22.7z"/>
						<polygon class="st3" points="19.9,21.3 20,20.9 19.9,21.5 						"/>
						<polygon class="st3" points="19.9,21.4 19.9,21 19.9,21.2 						"/>
						<path class="st3" d="M16.6,25.9l0,0.1C16.6,26,16.6,26,16.6,25.9z"/>
						<path class="st3" d="M16.7,26l0-0.2C16.7,25.9,16.6,26,16.7,26z"/>
						<path class="st3" d="M18.6,21.3c0-0.4,0.1-0.9,0-0.5L18.6,21.3C18.6,21.1,18.6,21.2,18.6,21.3z"/>
						<path class="st3" d="M17.5,23.7c0,0,0,0.1,0,0.1c0-0.1,0-0.3,0.1-0.4C17.5,23.6,17.5,23.6,17.5,23.7z"/>
						<path class="st3" d="M17.3,25.5l0-0.3C17.3,25.3,17.3,25.4,17.3,25.5z"/>
						<path class="st3" d="M16.1,26.4l0,0.4C16.1,26.8,16.1,26.6,16.1,26.4z"/>
						<path class="st3" d="M19.3,21.5c0-0.2,0-0.2,0-0.3C19.3,21.5,19.3,21.8,19.3,21.5z"/>
						<path class="st3" d="M17,21.4c0,0.1,0,0.2,0,0.3C17,21.6,17,21.5,17,21.4z"/>
						<path class="st3" d="M19.3,21.2c0,0,0,0.1,0,0.1C19.3,21.2,19.3,21.2,19.3,21.2C19.3,21,19.3,20.9,19.3,21.2z"/>
						<path class="st3" d="M14.7,25.9C14.7,25.9,14.7,25.9,14.7,25.9C14.7,25.9,14.7,25.9,14.7,25.9z"/>
						<path class="st3" d="M14.4,21.5C14.4,21.5,14.4,21.5,14.4,21.5C14.4,21.5,14.4,21.5,14.4,21.5z"/>
						<path class="st3" d="M19.7,21.2C19.7,21.1,19.7,21.1,19.7,21.2L19.7,21.2z"/>
						<path class="st3" d="M19.5,22.9c0,0,0,0.1,0,0.2C19.5,23,19.5,22.9,19.5,22.9z"/>
						<path class="st3" d="M18.8,23.9L18.8,23.9C18.8,24,18.8,23.9,18.8,23.9z"/>
						<path class="st3" d="M19.7,21.4c0-0.1,0-0.1,0-0.1C19.7,21.3,19.7,21.3,19.7,21.4z"/>
						<path class="st3" d="M19.7,21.2C19.7,21.2,19.7,21.2,19.7,21.2C19.7,21.1,19.7,21.1,19.7,21.2z"/>
						<path class="st3" d="M19.7,21.2C19.7,21.2,19.7,21.2,19.7,21.2C19.7,21.2,19.7,21.2,19.7,21.2C19.7,21.2,19.7,21.2,19.7,21.2z
							"/>
						<path class="st3" d="M15.6,24.8C15.6,24.8,15.6,24.8,15.6,24.8C15.5,25,15.5,24.9,15.6,24.8z"/>
						<path class="st3" d="M17.8,25.7L17.8,25.7C17.8,25.7,17.8,25.7,17.8,25.7L17.8,25.7z"/>
						<path class="st3" d="M17.7,26c0.1-0.5,0.1-0.5,0.1-0.4l0.1-1.2L17.7,26z"/>
						<path class="st3" d="M16.4,26.1l0,0.4c-0.1,0.6-0.1,0.4-0.1,1c0.1-1.4,0.1-0.1,0.2-1.5l0,0.3c0,0,0,0.1,0,0.1
							c0,0.7,0.1-1,0.1-0.8c0,0.1,0,0.3,0,0.5l0.1-0.3c0,0,0,0.3,0,0.2l0.1-0.1l0,0c0-0.2,0.1-0.5,0.1-0.7c0,0.2,0,0.1,0,0.3
							l0.1-0.3c0,0.4-0.1,0.7-0.1,0.6c-0.1,1.4,0.1-0.3,0,0.5l0,0.2c-0.1,0.8,0,0.5,0,1c0-0.3,0.1-1.2,0.1-1.5c0,0.1,0,0.2,0-0.1
							c0,0.5,0,0.4,0,0.3l-0.1,0.6c0-0.2,0.1-0.5,0.1-0.8c0,0.1,0,0.6-0.1,1c0,0.1,0-0.8,0.1-0.9c0,0.2,0.1,0,0.1-0.4
							c0,0.2,0,0.4-0.1,0.6l0.1-0.5c0,0,0,0.2,0,0.2c0-0.2,0.1-0.6,0.1-0.8c0.1-0.7,0,1,0.1,0.2c0,0.2,0,0.4-0.1,0.6
							c0.1-0.5,0.1-0.4,0.2-1.1l0,0.4c0-0.5,0.1-1,0.2-1.5c0-0.2,0-0.4,0-0.5l0.1-0.3c0,0.1,0,0.3-0.1,0.6c0-0.1,0-0.1,0-0.2
							c0,0.2-0.1,0.6-0.1,1c0-0.1,0-0.3,0-0.4c0,0.4-0.1,0.8-0.1,1.2c0-0.1,0-0.1,0-0.2c0,0.1,0,0.2,0,0.3c0,0.1,0-0.1,0-0.2
							l-0.1,0.7l0-0.3l0,0.4c0.1-0.7,0.3-1.8,0.3-2c-0.1,0.5-0.1,0.8-0.2,1.5c0.1-0.7-0.1,0.3-0.1,0.1c0,0.1,0,0.4,0,0.5l0.1-0.6
							c-0.1,0.5,0,0.4,0,0.6c0.1-1,0.1-0.7,0.2-1c0,0.3-0.1,0.7-0.1,0.6c-0.1,0.8,0.2-1.2,0.1-0.5c0,0,0,0,0,0.1
							c0-0.3,0.1-0.1,0,0.2l0,0c0,0.1,0.1,0,0.2-0.8c0,0.1-0.1,1-0.1,1.2l0.4-2.8c-0.1,0.7-0.3,2.5-0.4,2.9c0,0.1,0,0.2,0,0
							c0-0.1,0.1-1.1,0.1-1.1c-0.1,0.8,0,0.4-0.1,1.1c0-0.2,0.2-1.3,0.2-1.3c0,0.2-0.1,1.1-0.2,1.2l0.2-1.1c0,0.2-0.1,0.9-0.1,1.3
							c0-0.2,0,0,0.1-0.1l0-0.3c0,0.2,0.2-1.6,0.3-1.5c0,0.2-0.2,1.4-0.2,1.6c0.1-0.6,0.4-2.7,0.5-3.2l0,0.3l0.1-0.4
							c-0.1,0.9-0.4,2.7-0.5,3.4c0,0.3,0,0.4,0,0.4c0,0.3-0.1,0.5-0.1,0.5l0,0.2c0.1-0.7,0.1-0.7,0.2-1.2l-0.2,0.7
							c0.1-0.7,0.3-1.9,0.3-1.8c0,0.3-0.2,1.2-0.2,1.4c0-0.2,0.1-0.4,0.1-0.3l-0.1,0.4c0,0.3,0.2-0.9,0.1-0.2c0,0-0.1,0.9,0,0.5
							c0.1-0.8,0.4-3.1,0.5-3.7c0,0.1,0,0.7-0.1,1.1c-0.1,0.6-0.2,1.4-0.3,1.9c0-0.2,0.1-0.4,0.1-0.5c0,0.2-0.1,0.6,0,0.5
							c0.1-0.7,0,0.1,0.1-0.6c0-0.2,0,0.1,0,0.1c0.1-0.4,0.2-1.5,0.3-1.7c0,0.2,0,0.4-0.1,0.5c0,0.1,0,0.4,0.1,0.4
							c0,0.2,0,0.4-0.1,0.7c0-0.1,0.1-0.3,0.1-0.4c-0.1,0.6,0,0.1-0.1,0.8c0.1-0.4,0.1-0.5,0.2-0.8c0.1-0.6,0-0.1-0.1,0.1
							c0.1-0.8,0.3-1.7,0.4-2.1c0.1-0.2-0.1,0.5,0,0.4c0,0.2,0.3-1.4,0.2-0.8c-0.1,0.5-0.2,1.1-0.2,1.4c-0.1,0.2,0-0.3,0-0.3l0,0.3
							c0,0.2-0.1,0.3-0.1,0.2c0,0.5,0.1,0.1,0.1,0.6c0-0.2,0.1-0.4,0.1-0.6l0,0.1c0-0.4,0.1-0.6,0.1-0.8c0.1-0.3,0.2-0.8,0.2-0.5
							l-0.1,0.6c0-0.2,0-0.4,0-0.2c0.1-0.3-0.1,0.8,0.1,0l0-0.4c0.1-0.3,0.2-0.9,0.2-0.7c0.1-0.6,0,0.1,0.1-0.6
							c-0.1,0.9-0.1,0-0.2,0.9c0.1-0.8,0-0.3,0.1-1c0,0.2,0,0.4-0.1,0.3c0,0.1,0,0.1,0,0.2l0,0l0,0c0,0,0,0,0,0c0,0.1,0,0.2,0,0.3
							c-0.1,0.5-0.1,0.4-0.2,0.7c0-0.1,0-0.2,0.1-0.4l-0.1,0.4c0.1-0.4,0.1-0.7,0.1-1l0,0c0-0.3,0-0.4,0-0.2c0-0.1-0.1,0.5,0,0.1
							l-0.1,0.3l0-0.1c0-0.1-0.2,0.7-0.1-0.1c0,0.1-0.1,0.2-0.1,0.1l0-0.4c0,0.1,0-0.4-0.1,0c0.1-1-0.1-0.2-0.1-0.4L19,21.1
							c0,0-0.1,0.1-0.1,0.3l-0.1,0.4c-0.1,0.4,0-0.3-0.1-0.3c0-0.2,0-0.1,0,0c0.1-1-0.2,0.7-0.2,0c0,0.2,0,0.1,0,0c0,0,0,0,0,0
							c0,0,0,0,0,0c0-0.1,0-0.2,0-0.2c0,0.1,0,0.2,0,0.2c0,0,0,0.1-0.1,0.2l0.1-0.5c0,0,0,0,0,0c0-0.2,0,0.2-0.1,0.6
							c0,0.1,0,0.2-0.1,0.3c0.1-0.8-0.1,0.3,0-0.6c-0.1,0.4-0.1,0.3-0.2,1.1c0-0.1,0-0.2,0-0.2c0-0.1,0-0.2,0,0l0.1-0.6l-0.1,0.8
							c0-0.4,0-0.6,0.1-1.1c-0.1,0.7-0.1,0.3-0.2,1l0-0.4c0,0-0.1,0.5-0.1,0.2c0.1-0.8-0.1-0.1-0.2-0.8c-0.1,1.2,0-0.5-0.1,0.4
							c0-0.3,0-0.4,0.1-0.7c-0.1,0.3,0-0.4-0.1,0.3c0-0.3,0-0.4,0.1-0.6c0,0.1,0,0.2,0,0.1c0-0.2,0-0.2,0-0.3c0,0-0.1,0.9-0.2,1.7
							c0-0.4,0-0.3-0.1,0.2c0-0.3,0-0.5,0.1-0.6c0,0-0.1-0.4-0.1,0.2c0-0.2,0,0,0,0c0,0,0-0.1-0.1,0l0,0.1c-0.1,0.8,0,0.2-0.1,0.3
							l0-0.1c0-0.6-0.1,0.3-0.1-0.4l0,0.5c-0.1,1,0-0.6-0.1-0.2l0,0.3c-0.1,0.3,0.1-1.4,0.1-1.5c0-0.1,0-0.1,0-0.2
							c0-0.6-0.1,0.6-0.1,0.8c0-0.3,0.1-0.9,0.1-0.9c0-0.3-0.2,1.1-0.1,0.4c0,0.3,0,0.5-0.1,0.7c0,0.1,0-1-0.1-0.2
							c0-0.1,0-0.1,0-0.2c0,0.2-0.1,0.3-0.1,0.8c0.1-1.7-0.2,0.8-0.1-0.7l-0.1,0.1l0-0.2c0-0.1-0.1,0.3-0.1,0.6c0-0.1,0-0.2,0-0.3
							c0-0.3,0-0.2-0.2,0.5l0-0.5c0,0.3,0-0.8-0.1-0.2c0-0.1,0-0.2,0-0.2c-0.1,0.6-0.1-1.4-0.2,0.4l-0.1,0.4c0,0.1-0.1,0.8-0.1,1.1
							c0,0.1,0-0.5,0-0.6l0,0.1c0.1-0.9,0-0.3,0-1c-0.1,0-0.2-0.5-0.3-0.5l0,0.7l0,0c0-0.2,0-0.6,0-0.5c0-0.4-0.1,0.3-0.1,0.5
							c0-0.3,0.1-0.9,0.1-0.9l0,0.1l0,0.1c0,0.3-0.1,0.6-0.1,0.6c0-0.1,0-0.5,0-0.5c0-0.1,0-0.1,0,0l0-0.1l0,0.6c0,0.3,0,0-0.1,0.6
							c0-1-0.1-0.4-0.2-0.7c0,0.4-0.1,0.4-0.1,0.4c0,0.1,0,0.8,0,0.7c0.1-1.3,0-0.6,0-1.5c0,0.6-0.1,0.2-0.1,1.1c0-0.1,0-0.5,0-0.8
							c-0.1,0.5-0.1-0.3-0.2-0.2c0,0.2,0,0.4,0,0.7l0-0.9c0,0.1,0,1-0.1,0.4c0,0.1,0,0.4,0,0.4c-0.1-0.9-0.3,0.7-0.4-0.9
							c0,0.3,0,0.4,0,0.4c0,0.1,0,0.4,0,0.7l0-0.7c0,0.7-0.1,0-0.1,0.7l0-0.1c0,0.7,0,1.7,0,2.6c0-0.8,0,1.3,0.1,0
							c0,0.2,0,0.3,0,0.5c0-0.4,0-0.5,0.1-0.3l0,0.1c0.1-0.1,0.1,0.3,0.2,0.6l0-0.5c0,0.1,0,0.2,0,0.3c0-0.7,0,0,0-0.8
							c0,1,0.1,0,0.1,1.1c0,0,0-0.5,0-0.5l0,0.3l0-0.4c0,0.1,0,0.4,0,0.7c0,0,0,0.1,0,0.1c0,0.3,0.1-0.1,0.1,0l0-0.2
							c0.1-0.3,0.1,0.1,0.2-0.5l0-0.2c0.1-0.4,0,0.2,0.1,0.1l0,0.1c0-0.2,0-0.3,0.1-0.3c0,0.3,0,0.5,0,0.8c0.1-0.4,0-0.3,0.1-1.2
							l0,0.4c0-0.3,0-0.5,0.1-0.6c0,0.3,0,0.6-0.1,1c0,0.8,0.1-0.8,0.1,0.4c0.1-1,0-0.6,0-0.8c0-0.3,0.1-0.8,0.1-0.7
							c0,0,0,1.3,0,1.3c0,0,0,0.1,0,0.1c0,0.3,0.1-0.4,0.1,0.1c0-0.6,0,0,0.1-0.8L15.5,25c0-0.2,0.1-1.1,0.1-0.7
							c0,0.2,0,0.4-0.1,0.5c0,0.2,0-0.2,0,0.1c0,0.8-0.1,0.2-0.1,0.8c0,0.3,0.1-0.6,0,0.3c0.1-1.1,0,0.1,0.1-0.7l0,0.5
							c0-0.1,0-0.3,0-0.3l-0.1,0.6c0.1-0.5,0,0.5,0.1,0.2c-0.1,0,0-0.6,0-0.9c0.1-0.6,0,1.2,0,1c0,0.1,0-0.3,0-0.5
							c0,0.1,0,0.3,0,0.5c0.1-0.1,0-0.5,0.1-0.8c0,0.6,0-0.2,0.1-0.4l0,0.5c0,0.3,0.1-1,0.1-0.6l-0.1,0.7l0-0.2l0,0.5
							c0.1-0.4,0.1-0.3,0.1-0.1c0-0.3,0.1-0.9,0.1-0.9c0,0.3,0,0.5,0,0.4c0,0.3-0.1,0.7,0,0.2c0,0.2,0,0.3,0,0.5
							c0,0.3,0,0.1,0.1,0.1c0,0,0,0,0-0.1l0.1-0.7c0,0.2,0,0.3,0,0.5c0-0.1,0-0.3,0.1-0.3c0,0.4-0.1,0.8-0.1,1l0.1-0.4
							c0,0.2,0,0.5,0,0.6c0,0.2,0.1-0.8,0.1-0.4c0-0.1,0-0.1,0-0.2c0,0.1,0,0.6,0.1,0l0,0.7c0-0.2,0-0.9,0.1-1.1
							c0.1-0.2,0,0.6,0,0.8C16.4,26.1,16.4,25.4,16.4,26.1C16.4,26.1,16.4,26,16.4,26.1z M16.8,25.8c0,0.1-0.1,0.4,0,0.1
							C16.8,25.4,16.8,25.6,16.8,25.8z M17.5,24.7c0,0.2,0,0.1,0-0.1C17.4,24.5,17.5,24.6,17.5,24.7z M19.5,21.5
							C19.5,21.6,19.5,21.6,19.5,21.5C19.5,21.4,19.5,21.5,19.5,21.5z M19.5,21.8l0-0.2c0,0.1,0,0.1,0,0.1
							C19.5,21.8,19.5,21.9,19.5,21.8z M15.6,21.6l0,0.1C15.6,21.8,15.6,21.7,15.6,21.6z"/>
						<path class="st3" d="M17.3,25.3c0-0.1,0-0.2,0-0.3C17.3,25.1,17.3,25.2,17.3,25.3z"/>
						<polygon class="st3" points="16.2,26.3 16.2,26.3 16.1,26.4 						"/>
						<path class="st3" d="M18.4,25.7c0-0.1,0-0.2,0-0.2C18.4,25.6,18.4,25.7,18.4,25.7z"/>
						<path class="st3" d="M19.8,21l0,0.1c0,0,0,0.1,0,0.2C19.8,21.1,19.8,21,19.8,21z"/>
						<path class="st3" d="M19.6,24C19.6,23.9,19.6,24,19.6,24l0.1-0.3C19.6,23.7,19.6,23.9,19.6,24z"/>
						<path class="st3" d="M19.6,22.6c-0.1,0.4,0,0.3,0,0.2l0,0C19.7,22.2,19.7,22.4,19.6,22.6z"/>
						<path class="st3" d="M19.6,22.7C19.6,22.7,19.6,22.7,19.6,22.7C19.7,22.5,19.6,22.7,19.6,22.7z"/>
						<path class="st3" d="M19.6,21.5c0,0.1,0.1-0.5,0.1-0.3C19.7,20.6,19.5,21.8,19.6,21.5z"/>
						<polygon class="st3" points="19.4,23.9 19.5,23.4 19.4,23.8 						"/>
						<path class="st3" d="M19.4,23.5l0,0.1C19.4,23.6,19.4,23.5,19.4,23.5C19.4,23.5,19.4,23.4,19.4,23.5z"/>
						<path class="st3" d="M19.4,23.5C19.4,23.5,19.4,23.5,19.4,23.5C19.4,23.4,19.4,23.4,19.4,23.5z"/>
						<polygon class="st3" points="19.4,24 19.4,23.9 19.4,23.9 						"/>
						<path class="st3" d="M19.1,23.4l0,0.1c0,0.2,0,0.3,0,0.2C19.1,23.6,19.1,23.5,19.1,23.4z"/>
						<path class="st3" d="M19,24.7c0-0.1,0-0.2,0-0.4L18.9,25L19,24.7z"/>
						<path class="st3" d="M18.9,24.9c0,0.2-0.1,0.5-0.1,0.5C18.9,25.2,18.9,25,18.9,24.9z"/>
						<polygon class="st3" points="18.6,24 18.6,24 18.7,23 						"/>
						<path class="st3" d="M18,26.4c0,0.2,0.1-0.6,0.1-0.3c0-0.2,0-0.2,0-0.5C18,25.9,18,25.8,18,26.4z"/>
						<path class="st3" d="M18.1,25.6c0,0,0-0.1,0-0.2C18.1,25.6,18.1,25.6,18.1,25.6z"/>
						<polygon class="st3" points="14.3,21 14.3,20.8 14.3,21.1 						"/>
						<path class="st3" d="M14.2,21.8l0-0.6L14.2,21.8C14.2,21.7,14.2,21.6,14.2,21.8z"/>
						<path class="st3" d="M16.7,27.1l0-0.2c0-0.2,0-0.2,0-0.2L16.7,27.1z"/>
						<polygon class="st3" points="16.5,26.6 16.5,26.6 16.5,26 						"/>
						<path class="st3" d="M16.2,27.3C16.2,27.3,16.3,27.2,16.2,27.3C16.2,27.3,16.3,26.6,16.2,27.3z"/>
					</g>
				</g>
			</g>
		</g>
	</g>
	<g>
		<g>
			<g>
				<g>
					<g>
						<path class="st1" d="M14.6,26.5c0,0,0,0.4,0,0.5C14.6,26.8,14.6,26.6,14.6,26.5z"/>
						<polygon class="st1" points="14.5,25.5 14.5,25.7 14.5,25.3 						"/>
						<path class="st1" d="M14.6,25.5c-0.1-0.7,0,0.1,0-0.1l0-0.2l0,0.6C14.5,25.7,14.5,25.3,14.6,25.5z"/>
						<path class="st1" d="M14.7,27C14.6,26.8,14.6,26.8,14.7,27C14.7,27,14.7,27,14.7,27C14.7,27,14.7,27,14.7,27z"/>
						<path class="st1" d="M14.7,27C14.7,27.1,14.7,27.3,14.7,27L14.7,27z"/>
						<path class="st1" d="M14.7,26.9l0,0.2c0,0.2,0,0.2,0,0.3C14.7,27.3,14.7,27.1,14.7,26.9z"/>
						<path class="st1" d="M14.6,26.4l0,0.1C14.6,26.5,14.6,26.6,14.6,26.4z"/>
						<path class="st1" d="M14.6,26.7l0-0.2c0-0.1,0-0.3,0,0.1C14.6,26.3,14.6,26.5,14.6,26.7z"/>
						<path class="st1" d="M14.6,26.6c0-0.2,0-0.3,0-0.5C14.6,26.2,14.6,26.7,14.6,26.6z"/>
						<path class="st1" d="M14.5,24.8l0-0.2L14.5,24.8C14.5,24.7,14.5,25,14.5,24.8z"/>
						<path class="st1" d="M14.7,27.2c0-0.2,0-0.4,0-0.6l0,0.2C14.7,26.9,14.7,27,14.7,27.2z"/>
						<path class="st1" d="M14.7,26.6l0-0.3C14.6,26.4,14.7,26.5,14.7,26.6z"/>
						<polygon class="st1" points="14.6,25.6 14.6,26.1 14.6,25.6 						"/>
						<polygon class="st1" points="14.7,27.3 14.7,27.6 14.7,27.1 						"/>
						<path class="st1" d="M14.7,27.2c0,0.3,0,0.5,0,0.7c0-0.1,0-0.3,0-0.5C14.7,27.5,14.7,27.4,14.7,27.2z"/>
						<path class="st1" d="M14.7,27c0,0.1,0,0.2,0,0.3C14.7,27.3,14.7,27.2,14.7,27z"/>
						<path class="st1" d="M14.7,26.5c0,0.1,0,0.3,0,0.4L14.7,26.5L14.7,26.5z"/>
						<path class="st1" d="M14.7,26.5L14.7,26.5C14.7,26.5,14.7,26.5,14.7,26.5C14.7,26.5,14.7,26.5,14.7,26.5z"/>
						<path class="st1" d="M14.7,26.5L14.7,26.5C14.7,26.4,14.7,26.4,14.7,26.5z"/>
						<path class="st1" d="M14.6,25.9c0-0.2,0-0.5,0-0.9C14.6,25.4,14.6,25.6,14.6,25.9z"/>
						<path class="st1" d="M14.6,25.9L14.6,25.9c0,0,0,0.2,0,0.3L14.6,25.9z"/>
						<polygon class="st1" points="14.6,25.8 14.6,25.9 14.6,26 						"/>
						<path class="st1" d="M14.7,26.6c0-0.2,0-0.2,0-0.2c0-0.1,0-0.1,0-0.1C14.7,26.4,14.7,26.6,14.7,26.6z"/>
						<path class="st1" d="M14.7,26.5C14.7,26.5,14.7,26.5,14.7,26.5C14.7,26.4,14.7,26.4,14.7,26.5z"/>
						<path class="st1" d="M14.7,26.4C14.7,26.4,14.7,26.3,14.7,26.4L14.7,26.4L14.7,26.4z"/>
						<path class="st1" d="M14.7,26.2c0-0.1,0,0,0,0.2C14.7,26.3,14.7,26.3,14.7,26.2C14.7,26.2,14.7,26.2,14.7,26.2z"/>
						<path class="st1" d="M14.7,26.8c0-0.1,0-0.2,0-0.2C14.7,26.7,14.7,26.9,14.7,26.8z"/>
						<path class="st1" d="M14.7,26.6C14.7,26.6,14.7,26.6,14.7,26.6C14.7,26.7,14.7,26.7,14.7,26.6z"/>
						<path class="st1" d="M14.7,26.6c0-0.1,0-0.2,0-0.3c0,0,0,0.1,0,0.1C14.7,26.5,14.7,26.6,14.7,26.6z"/>
						<path class="st1" d="M14.6,23.6c0,0.4,0,0.8,0,0.3c0,0.3,0.1,1.6,0.1,2.3c0-0.2,0-0.3,0-0.6c0-0.2,0-0.5,0-0.9
							c0-0.2,0,0.1,0,0.3c0-0.5,0-0.7,0-1.4l0,0.3C14.6,23.9,14.6,23.7,14.6,23.6z"/>
						<path class="st1" d="M14.7,26.3L14.7,26.3c0,0.1,0,0.3,0,0.6c0-0.2,0-0.3,0-0.5L14.7,26.3L14.7,26.3z"/>
						<path class="st1" d="M14.7,26.3c0-0.4,0-0.6,0-1.1c0,0,0,0.4,0,0.5C14.7,25.7,14.7,26,14.7,26.3
							C14.7,26.3,14.7,26.4,14.7,26.3c0,0.1,0,0.2,0,0.3l0,0l0,0l0,0c0-0.1,0-0.1,0-0.1l0,0C14.7,26.4,14.7,26.4,14.7,26.3
							c0,0.1,0,0.1,0,0.2l0,0.1l0,0L14.7,26.3C14.7,26.3,14.7,26.3,14.7,26.3z"/>
						<path class="st1" d="M14.5,24.2C14.5,24.2,14.5,24.2,14.5,24.2C14.5,24.2,14.5,24.2,14.5,24.2z"/>
						<path class="st1" d="M14.5,24.4c0,0.1,0,0.2,0,0.2c0-0.1,0-0.2,0-0.3c0,0.1,0,0.3,0,0.5l0-0.1c0,0.1,0,0.7,0,0.7
							C14.6,25.1,14.6,24.8,14.5,24.4z"/>
						<path class="st1" d="M14.6,25.3l0-0.2l0-0.4l0,0.2C14.6,24.8,14.6,25.1,14.6,25.3z"/>
						<polygon class="st1" points="14.7,26.6 14.7,27.1 14.7,26.4 						"/>
						<polygon class="st1" points="14.7,26.5 14.7,26.9 14.7,26.7 						"/>
						<path class="st1" d="M15.7,21.7l0-0.1C15.7,21.6,15.7,21.6,15.7,21.7z"/>
						<path class="st1" d="M15.6,21.7l0,0.2C15.6,21.7,15.6,21.7,15.6,21.7z"/>
						<path class="st1" d="M14.9,26.5c0,0.4,0,0.9,0,0.5L14.9,26.5C14.9,26.6,14.9,26.6,14.9,26.5z"/>
						<path class="st1" d="M15.2,23.9c0,0,0-0.1,0-0.1c0,0.1,0,0.3,0,0.4C15.2,24.1,15.2,24,15.2,23.9z"/>
						<path class="st1" d="M15.3,22.1l0,0.3C15.3,22.3,15.3,22.2,15.3,22.1z"/>
						<path class="st1" d="M15.9,21.2l0.1-0.4C16,20.8,15.9,21,15.9,21.2z"/>
						<path class="st1" d="M14.8,26.4c0,0.2,0,0.2,0,0.3C14.8,26.4,14.8,26,14.8,26.4z"/>
						<path class="st1" d="M15.2,26.3c0-0.1,0-0.2,0-0.3C15.2,26.1,15.2,26.2,15.2,26.3z"/>
						<path class="st1" d="M14.8,26.6c0,0,0-0.1,0-0.1C14.8,26.6,14.8,26.7,14.8,26.6C14.8,26.8,14.8,26.9,14.8,26.6z"/>
						<path class="st1" d="M16.5,21.7C16.5,21.7,16.5,21.7,16.5,21.7C16.5,21.7,16.5,21.7,16.5,21.7z"/>
						<path class="st1" d="M15.7,26C15.6,26,15.6,26,15.7,26C15.6,26.1,15.6,26.1,15.7,26z"/>
						<path class="st1" d="M14.7,26.7C14.7,26.8,14.7,26.8,14.7,26.7L14.7,26.7z"/>
						<path class="st1" d="M14.7,25c0,0,0-0.1,0-0.2C14.7,24.9,14.7,25,14.7,25z"/>
						<path class="st1" d="M14.8,23.9L14.8,23.9C14.8,23.9,14.8,23.9,14.8,23.9z"/>
						<path class="st1" d="M14.7,26.5c0,0.1,0,0.1,0,0.1C14.7,26.6,14.7,26.6,14.7,26.5z"/>
						<path class="st1" d="M14.7,26.7C14.7,26.7,14.7,26.7,14.7,26.7C14.7,26.8,14.7,26.8,14.7,26.7z"/>
						<path class="st1" d="M14.7,26.7C14.7,26.7,14.7,26.7,14.7,26.7C14.7,26.7,14.7,26.7,14.7,26.7L14.7,26.7z"/>
						<path class="st1" d="M16,22.8C16,22.8,16,22.8,16,22.8C16,22.7,16,22.7,16,22.8z"/>
						<path class="st1" d="M15.1,22L15.1,22C15.1,22,15.1,22,15.1,22L15.1,22z"/>
						<path class="st1" d="M15.2,21.7c0,0.5,0,0.5,0,0.4l-0.1,1.2L15.2,21.7z"/>
						<path class="st1" d="M15.8,21.6l0-0.4c0.1-0.6,0.1-0.4,0.1-1c-0.2,1.3-0.1,0.1-0.2,1.5l0-0.3c0,0,0-0.1,0-0.1
							c0.1-0.6-0.1,1-0.1,0.8c0-0.1,0-0.3,0-0.5l0,0.3c0,0,0-0.3,0-0.2l0,0.1l0,0c0,0.2-0.1,0.5-0.1,0.7c0-0.2,0-0.1,0-0.3l0,0.3
							c0-0.4,0.1-0.7,0.1-0.6c0.1-1.3,0,0.3,0-0.5l0-0.2c0.1-0.8,0-0.5,0.1-1c0,0.3-0.1,1.2-0.1,1.5c0-0.1,0-0.2,0,0.1
							c0-0.5,0-0.4,0-0.3l0.1-0.6c0,0.2-0.1,0.5-0.1,0.8c0-0.1,0-0.6,0.1-1c0-0.1-0.1,0.8-0.1,0.9c0-0.2,0,0-0.1,0.4
							c0-0.2,0-0.4,0-0.6l-0.1,0.5c0,0,0-0.2,0-0.2c0,0.2-0.1,0.6-0.1,0.8c-0.1,0.7,0.1-1,0-0.2c0-0.2,0-0.4,0.1-0.6
							c-0.1,0.5,0,0.4-0.1,1.1l0-0.4c0,0.5-0.1,1-0.1,1.5c0,0.2,0,0.4,0,0.5l0,0.3c0-0.1,0-0.3,0-0.6c0,0.1,0,0.1,0,0.2
							c0-0.2,0-0.6,0.1-1c0,0.1,0,0.3,0,0.4c0-0.4,0.1-0.8,0.1-1.2c0,0.1,0,0.1,0,0.2c0-0.1,0-0.2,0-0.3c0-0.1,0,0.1,0,0.2l0-0.7
							l0,0.3l0-0.4c-0.1,0.7-0.2,1.8-0.2,2.1c0-0.5,0.1-0.9,0.1-1.5c0,0.7,0-0.3,0-0.1c0-0.1,0-0.4,0-0.5l-0.1,0.6
							c0-0.5,0-0.4,0-0.6c-0.1,1-0.1,0.7-0.1,1c0-0.3,0-0.7,0-0.6c0-0.8-0.1,1.2-0.1,0.5c0,0,0,0,0-0.1c0,0.3,0,0.1,0-0.2l0,0
							c0-0.1-0.1,0-0.1,0.8c0-0.1,0.1-1,0.1-1.2L15,24.9c0-0.7,0.1-2.5,0.1-2.9c0-0.1,0-0.2,0,0c0,0.1,0,1.1,0,1.1
							c0-0.8,0-0.4,0-1.1c0,0.2-0.1,1.2-0.1,1.3c0-0.2,0-1.1,0-1.2L15,23.2c0-0.2,0-1,0-1.3c0,0.2,0,0,0,0.1l0,0.3
							c0-0.2-0.1,1.6-0.1,1.5c0-0.2,0-1.4,0-1.6c0,0.6-0.1,2.8-0.1,3.2l0-0.3l0,0.4c0-0.9,0.1-2.7,0.1-3.4c0-0.3,0-0.4,0-0.4
							c0-0.3,0-0.5,0-0.5l0-0.2c0,0.7,0,0.7,0,1.2l0-0.7c0,0.7-0.1,1.9-0.1,1.8c0-0.3,0-1.2,0-1.4c0,0.2,0,0.4,0,0.3l0-0.4
							c0-0.3,0,0.9,0,0.2c0,0,0-0.9,0-0.5c0,0.8,0,3.1,0,3.7c0-0.1,0-0.7,0-1.1c0-0.6,0-1.4,0-2c0,0.2,0,0.4,0,0.5
							c0-0.2,0-0.6,0-0.5c0,0.7,0-0.1,0,0.6c0,0.2,0-0.1,0-0.1c0,0.4,0,1.5,0,1.7c0-0.2,0-0.4,0-0.5c0-0.1,0-0.4,0-0.4
							c0-0.2,0-0.4,0-0.7c0,0.1,0,0.4,0,0.4c0-0.6,0-0.1,0-0.8c0,0.4,0,0.5,0,0.8c0,0.6,0,0.1,0-0.1c0,0.8,0,1.7,0,2.1
							c0,0.2,0-0.5,0-0.4c0-0.1,0,1.5,0,0.9c0-0.5,0-1.1,0-1.5c0-0.2,0,0.3,0,0.3l0-0.3c0-0.2,0-0.3,0-0.2c0-0.5,0-0.1-0.1-0.5
							c0,0.2,0,0.4,0,0.6l0-0.1c0,0.4,0,0.6,0,0.8c0,0.3,0,0.8,0,0.5l0-0.6c0,0.2,0,0.4,0,0.2c0,0.3,0-0.8,0,0l0,0.4
							c0,0.3,0,1,0,0.8c0,0.6,0-0.1,0,0.6c0-0.9,0,0,0-0.9c0,0.8,0,0.3,0,1c0-0.2,0-0.4,0-0.3c0-0.1,0-0.1,0-0.2l0,0l0,0
							c0,0,0,0,0,0c0-0.1,0-0.2,0-0.3c0-0.5,0-0.5,0-0.7c0,0.1,0,0.2,0,0.4l0-0.4c0,0.4,0,0.7,0,1l0,0c0,0.3,0,0.4,0,0.2
							c0,0.1,0-0.5,0-0.1l0-0.3l0,0.1c0,0.1,0-0.7,0,0.1c0-0.1,0-0.3,0-0.1l0,0.4c0-0.1,0,0.4,0,0c0,1,0,0.2,0,0.4l0-0.5
							c0,0,0-0.1,0-0.3l0-0.4c0-0.4,0,0.3,0,0.3c0,0.2,0,0.1,0,0c0,1,0-0.7,0,0c0-0.2,0-0.1,0,0c0,0,0,0,0,0l0,0c0,0.1,0,0.2,0,0.2
							c0-0.1,0-0.2,0-0.2c0,0,0-0.1,0-0.2l0,0.5c0,0,0,0,0,0c0,0.2,0-0.2,0-0.6c0-0.1,0-0.2,0-0.3c0,0.6,0-0.1,0,0.6
							c0-0.4,0-0.3,0.1-1.2c0,0.1,0,0.2,0,0.2c0,0.1,0,0.2,0,0l0,0.6l0-0.8c0,0.4,0,0.6,0,1.1c0-0.7,0-0.3,0.1-1l0,0.4
							c0,0,0-0.5,0-0.2c0,0.8,0,0.1,0,0.8c0.1-1.2,0,0.5,0-0.4c0,0.3,0,0.4,0,0.7c0-0.3,0,0.4,0-0.3c0,0.3,0,0.4,0,0.6
							c0-0.1,0-0.2,0-0.1c0,0.2,0,0.2,0,0.4c0,0,0.1-0.9,0.1-1.7c0,0.4,0,0.3,0-0.2c0,0.3,0,0.5,0,0.6c0,0,0,0.4,0-0.3
							c0,0.2,0,0,0,0c0,0,0,0.1,0,0l0-0.1c0.1-0.8,0-0.2,0-0.3l0,0.1c0,0.6,0-0.3,0,0.4l0-0.5c0.1-1,0,0.6,0,0.2l0-0.3
							c0-0.4-0.1,1.4-0.1,1.5c0,0.1,0,0.1,0,0.2c-0.1,0.6,0.1-0.6,0.1-0.8c0,0.3-0.1,0.9-0.1,0.9c0,0.3,0.1-1.1,0.1-0.4
							c0-0.3,0.1-0.5,0.1-0.7c0-0.1-0.1,1,0,0.2c0,0.1,0,0.1,0,0.2c0-0.2,0-0.4,0.1-0.8c-0.2,1.6,0.1-0.8-0.1,0.7l0-0.1l0,0.2
							c0,0.1,0-0.3,0.1-0.6c0,0.1,0,0.2,0,0.3c0,0.3,0,0.2,0.1-0.5l-0.1,0.5c0-0.3-0.1,0.8,0,0.2c0,0.1,0,0.2,0,0.2
							c0.1-0.6-0.2,1.4,0.1-0.4l0.1-0.4c0-0.1,0.1-0.8,0.2-1.1c0-0.1-0.1,0.5-0.1,0.6l0-0.1c-0.1,0.9,0,0.3-0.1,1c0,0,0,0.5,0,0.5
							l0.1-0.7l0,0c0,0.2-0.1,0.6-0.1,0.5c-0.1,0.4,0.1-0.3,0.1-0.5c-0.1,0.3-0.1,0.8-0.1,0.9l0-0.1l0-0.1c0.1-0.3,0.1-0.6,0.1-0.6
							c0,0.1-0.1,0.4-0.1,0.5c0,0.1,0,0.1,0,0l0,0.1l0.1-0.6c0.1-0.3,0,0,0.1-0.6c-0.2,1,0,0.4-0.1,0.7c0.1-0.4,0.1-0.4,0.1-0.4
							c0-0.1,0.1-0.8,0.1-0.7c-0.2,1.3-0.1,0.6-0.3,1.5c0.1-0.6,0-0.2,0.2-1c0,0.1-0.1,0.5-0.2,0.8c0.1-0.5,0,0.3,0,0.2
							c0-0.2,0.1-0.4,0.1-0.7l-0.2,0.9c0-0.1,0.2-1,0.1-0.4c0-0.1,0.1-0.4,0.1-0.4c-0.2,0.8,0.2-0.7-0.1,0.9
							c0.1-0.3,0.1-0.4,0.1-0.4c0-0.1,0.1-0.4,0.2-0.7L15.7,26c0.2-0.6,0,0,0.2-0.7l0,0.1c0.2-0.7,0.4-1.6,0.6-2.5
							c-0.2,0.8,0.3-1.2,0-0.1c0-0.2,0.1-0.3,0.1-0.5c-0.1,0.4-0.1,0.5-0.1,0.3l0-0.1c0,0.1,0-0.3,0.1-0.6l-0.1,0.5
							c0-0.1,0-0.2,0.1-0.3c-0.2,0.7,0,0-0.2,0.8c0.2-0.9,0,0,0.2-1.1c0,0-0.1,0.5-0.1,0.5l0.1-0.3l-0.1,0.4c0-0.1,0.1-0.4,0.1-0.7
							c0,0,0-0.1,0-0.1c0.1-0.3-0.1,0.1,0,0l0,0.2c-0.1,0.3,0-0.1-0.2,0.5l0,0.2c-0.1,0.4,0-0.2,0-0.1l0-0.1c0,0.2-0.1,0.3-0.1,0.3
							c0-0.3,0.1-0.5,0.2-0.8c-0.1,0.4-0.1,0.3-0.2,1.2l0.1-0.4C16,23.1,16,23.3,16,23.4c0.1-0.3,0.1-0.6,0.2-1
							c0.1-0.8-0.2,0.8,0-0.4c-0.2,1-0.1,0.6-0.1,0.8c-0.1,0.3-0.1,0.8-0.1,0.7c0,0,0.1-0.3,0.1-0.7c0.1-0.3,0.1-0.6,0.1-0.6
							c0,0,0-0.1,0-0.1c0-0.3-0.1,0.3,0-0.1c-0.1,0.6,0,0-0.1,0.7l0-0.2c0,0.2-0.2,1.1-0.1,0.7c0-0.2,0.1-0.4,0.1-0.5
							c0-0.2,0,0.2,0-0.1c0.1-0.8,0-0.2,0.2-0.8c0.1-0.3-0.1,0.6,0-0.3c-0.2,1.1,0-0.1-0.1,0.7l0.1-0.5c0,0.1-0.1,0.3-0.1,0.3
							l0.1-0.6c-0.1,0.5,0.1-0.5,0-0.2c0,0-0.1,0.6-0.1,0.9c-0.1,0.6,0.2-1.2,0.1-1c0-0.1,0,0.3-0.1,0.5c0-0.1,0-0.3,0.1-0.5
							c0,0.1-0.1,0.5-0.1,0.8c0.1-0.6,0,0.2-0.1,0.4L16,22c0-0.3-0.2,1-0.1,0.6l0.1-0.7l0,0.2l0.1-0.5c-0.1,0.4-0.1,0.3,0,0.1
							c0,0.2-0.1,0.4-0.1,0.6c0,0.2-0.1,0.3-0.1,0.3c0-0.3,0.1-0.5,0-0.4c0-0.3,0.1-0.7,0-0.2c0-0.2,0-0.3,0.1-0.5
							c0-0.3,0-0.1,0-0.1c0,0,0,0,0,0.1l-0.1,0.7c0-0.2,0-0.3,0.1-0.5c0,0.1,0,0.3-0.1,0.3c0.1-0.4,0.1-0.8,0.1-1l-0.1,0.4
							c0-0.2,0.1-0.5,0.1-0.6c0-0.2-0.1,0.8-0.1,0.4c0,0.1,0,0.1,0,0.2C15.9,21.4,15.9,21,15.8,21.6l0.1-0.8c0,0.2-0.1,0.9-0.2,1.1
							c0,0.2,0.1-0.6,0.1-0.8C15.8,21.5,15.7,22.2,15.8,21.6C15.8,21.5,15.8,21.6,15.8,21.6z M15.6,21.9c0-0.1,0.1-0.4,0-0.1
							C15.5,22.3,15.6,22,15.6,21.9z M15.3,23c0-0.2,0-0.1,0,0.1C15.3,23.1,15.3,23.1,15.3,23z M14.8,26.3
							C14.8,26.3,14.8,26.3,14.8,26.3C14.8,26.5,14.8,26.4,14.8,26.3z M14.7,26.1l0,0.2c0-0.1,0-0.1,0-0.1
							C14.7,26.1,14.7,26,14.7,26.1z M15.4,26l0-0.1C15.5,25.7,15.5,25.9,15.4,26z"/>
						<path class="st1" d="M15.3,22.3c0,0.1,0,0.2,0,0.3C15.3,22.5,15.3,22.4,15.3,22.3z"/>
						<polygon class="st1" points="15.9,21.3 15.9,21.3 15.9,21.2 						"/>
						<path class="st1" d="M14.9,22c0,0.1,0,0.2,0,0.2C14.9,22.2,14.9,22.1,14.9,22z"/>
						<path class="st1" d="M14.7,27l0-0.1c0,0,0-0.1,0-0.2C14.7,26.8,14.7,26.9,14.7,27z"/>
						<path class="st1" d="M14.6,24C14.6,24,14.6,24,14.6,24l0,0.3C14.6,24.2,14.6,24.1,14.6,24z"/>
						<path class="st1" d="M14.7,25.4c0-0.4,0-0.3,0-0.2l0,0C14.7,25.7,14.7,25.5,14.7,25.4z"/>
						<path class="st1" d="M14.7,25.2C14.7,25.2,14.7,25.2,14.7,25.2C14.7,25.4,14.7,25.2,14.7,25.2z"/>
						<path class="st1" d="M14.7,26.4c0-0.1,0,0.5,0,0.4C14.8,27.3,14.7,26.1,14.7,26.4z"/>
						<polygon class="st1" points="14.6,24 14.7,24.5 14.7,24.1 						"/>
						<path class="st1" d="M14.7,24.4l0-0.1C14.7,24.3,14.7,24.4,14.7,24.4C14.7,24.4,14.7,24.5,14.7,24.4z"/>
						<path class="st1" d="M14.7,24.4C14.7,24.4,14.7,24.4,14.7,24.4C14.7,24.5,14.7,24.5,14.7,24.4z"/>
						<polygon class="st1" points="14.7,23.9 14.7,24 14.7,24 						"/>
						<path class="st1" d="M14.8,24.5l0-0.1c0-0.2,0-0.3,0-0.2C14.8,24.2,14.8,24.3,14.8,24.5z"/>
						<path class="st1" d="M14.7,23.1c0,0.1,0,0.2,0,0.4l0-0.6L14.7,23.1z"/>
						<path class="st1" d="M14.7,23c0-0.2,0-0.5,0-0.5C14.7,22.7,14.7,22.8,14.7,23z"/>
						<polygon class="st1" points="14.9,23.7 14.9,23.8 14.9,24.8 						"/>
						<path class="st1" d="M15.1,21.3c0-0.2,0,0.6,0,0.3c0,0.2,0,0.2,0,0.5C15,21.8,15,22,15.1,21.3z"/>
						<path class="st1" d="M15,22.1c0,0,0,0.1,0,0.2C15,22.2,15,22.1,15,22.1z"/>
						<polygon class="st1" points="15.5,26.5 15.5,26.8 15.6,26.4 						"/>
						<path class="st1" d="M15.7,25.8l-0.2,0.6L15.7,25.8C15.7,25.9,15.7,26,15.7,25.8z"/>
						<path class="st1" d="M15.7,20.6l0,0.2c0,0.2,0,0.2,0,0.2L15.7,20.6z"/>
						<polygon class="st1" points="15.8,21.1 15.8,21 15.7,21.6 						"/>
						<path class="st1" d="M15.9,20.3C15.9,20.3,15.9,20.4,15.9,20.3C15.9,20.3,15.9,21,15.9,20.3z"/>
					</g>
				</g>
			</g>
		</g>
	</g>
	<g class="st4">
		<g>
			<g>
				<g>
					<g>
						<path class="st3" d="M14.3,25.6c0,0-0.1,0.4-0.1,0.5C14.2,25.9,14.3,25.5,14.3,25.6z"/>
						<polygon class="st3" points="14.5,24.7 14.5,24.8 14.5,24.4 						"/>
						<path class="st3" d="M14.5,24.7c0.1-0.7,0,0.1,0-0.1l0-0.2l-0.1,0.6C14.5,24.8,14.6,24.5,14.5,24.7z"/>
						<path class="st3" d="M14.3,26.2C14.4,25.9,14.4,26,14.3,26.2C14.3,26.1,14.3,26.2,14.3,26.2C14.3,26.2,14.3,26.2,14.3,26.2z"
							/>
						<path class="st3" d="M14.3,26.2C14.3,26.2,14.3,26.4,14.3,26.2L14.3,26.2z"/>
						<path class="st3" d="M14.4,26l0,0.2c0,0.2,0,0.2,0,0.3C14.3,26.5,14.3,26.3,14.4,26z"/>
						<path class="st3" d="M14.4,25.5l0,0.1C14.4,25.7,14.4,25.7,14.4,25.5z"/>
						<path class="st3" d="M14.4,25.8l0-0.2c0-0.1,0.1-0.3,0,0.1C14.4,25.5,14.4,25.7,14.4,25.8z"/>
						<path class="st3" d="M14.4,25.7c0-0.2,0-0.3,0.1-0.5C14.5,25.3,14.4,25.8,14.4,25.7z"/>
						<path class="st3" d="M14.7,23.9l0-0.2L14.7,23.9C14.7,23.9,14.6,24.2,14.7,23.9z"/>
						<path class="st3" d="M14.3,26.4c0-0.1,0.1-0.4,0.1-0.6l0,0.2C14.4,26.1,14.4,26.2,14.3,26.4z"/>
						<path class="st3" d="M14.4,25.8l0-0.3C14.5,25.5,14.5,25.6,14.4,25.8z"/>
						<polygon class="st3" points="14.6,24.7 14.5,25.3 14.6,24.7 						"/>
						<polygon class="st3" points="14.4,26.4 14.3,26.8 14.4,26.2 						"/>
						<path class="st3" d="M14.4,26.4c-0.1,0.3-0.1,0.5-0.1,0.7c0-0.1,0.1-0.3,0.1-0.5C14.3,26.6,14.3,26.6,14.4,26.4z"/>
						<path class="st3" d="M14.4,26.2c0,0.1,0,0.2-0.1,0.3C14.4,26.4,14.4,26.3,14.4,26.2z"/>
						<path class="st3" d="M14.5,25.6c0,0.1-0.1,0.3-0.1,0.4L14.5,25.6C14.5,25.6,14.5,25.6,14.5,25.6z"/>
						<path class="st3" d="M14.5,25.6L14.5,25.6C14.5,25.6,14.5,25.7,14.5,25.6C14.5,25.7,14.5,25.6,14.5,25.6z"/>
						<path class="st3" d="M14.5,25.6C14.5,25.6,14.5,25.6,14.5,25.6C14.5,25.6,14.5,25.6,14.5,25.6z"/>
						<path class="st3" d="M14.5,25.1c0-0.2,0.1-0.5,0.1-0.8C14.6,24.6,14.6,24.8,14.5,25.1z"/>
						<path class="st3" d="M14.6,25.1L14.6,25.1c0,0,0,0.2-0.1,0.3L14.6,25.1z"/>
						<polygon class="st3" points="14.6,25 14.6,25.1 14.6,25.1 						"/>
						<path class="st3" d="M14.5,25.8c0-0.2,0-0.2,0-0.2c0-0.1,0-0.1,0-0.1C14.5,25.6,14.5,25.8,14.5,25.8z"/>
						<path class="st3" d="M14.5,25.7C14.5,25.7,14.5,25.7,14.5,25.7C14.5,25.6,14.5,25.6,14.5,25.7z"/>
						<path class="st3" d="M14.6,25.6C14.6,25.5,14.6,25.5,14.6,25.6C14.6,25.5,14.6,25.5,14.6,25.6L14.6,25.6z"/>
						<path class="st3" d="M14.6,25.4c0-0.1,0,0,0,0.1C14.5,25.5,14.5,25.4,14.6,25.4C14.6,25.4,14.6,25.3,14.6,25.4z"/>
						<path class="st3" d="M14.5,26c0-0.1,0-0.2,0-0.2C14.5,25.9,14.5,26.1,14.5,26z"/>
						<path class="st3" d="M14.5,25.8C14.5,25.8,14.5,25.8,14.5,25.8C14.5,25.9,14.5,25.8,14.5,25.8z"/>
						<path class="st3" d="M14.5,25.8c0-0.1,0-0.2,0-0.3c0,0,0,0.1,0,0.1C14.5,25.7,14.5,25.7,14.5,25.8z"/>
						<path class="st3" d="M15,22.9c-0.1,0.4-0.1,0.8-0.1,0.3c-0.1,0.3-0.3,1.6-0.4,2.3c0-0.2,0.1-0.3,0.1-0.6
							c0-0.2,0.1-0.5,0.1-0.9c0-0.2,0,0.1,0,0.3c0.1-0.5,0.1-0.7,0.2-1.4L15,23.3C15,23.1,15,23,15,22.9z"/>
						<path class="st3" d="M14.6,25.5L14.6,25.5c0,0.1,0,0.3-0.1,0.6c0-0.2,0.1-0.3,0.1-0.5L14.6,25.5L14.6,25.5z"/>
						<path class="st3" d="M14.5,25.5c0.1-0.4,0.1-0.6,0.2-1.1c0,0-0.1,0.4-0.1,0.5C14.7,24.9,14.6,25.2,14.5,25.5
							C14.5,25.5,14.5,25.5,14.5,25.5c0,0.1,0,0.2,0,0.3c0,0,0,0,0,0l0,0c0,0,0,0,0,0c0-0.1,0-0.1,0-0.1c0,0,0,0,0,0
							C14.5,25.6,14.5,25.6,14.5,25.5c0,0.1,0,0.1,0,0.2c0,0,0,0,0,0.1c0,0,0,0,0,0L14.5,25.5C14.6,25.4,14.6,25.5,14.5,25.5z"/>
						<path class="st3" d="M14.8,23.4C14.8,23.4,14.8,23.4,14.8,23.4C14.8,23.4,14.8,23.4,14.8,23.4z"/>
						<path class="st3" d="M14.8,23.6c0,0.1,0,0.2,0,0.2c0-0.1,0-0.2,0.1-0.3c0,0.1-0.1,0.3-0.1,0.5l0-0.1c0,0.1-0.1,0.7-0.1,0.7
							C14.7,24.3,14.7,24,14.8,23.6z"/>
						<path class="st3" d="M14.7,24.4l0-0.2l0.1-0.4l0,0.2C14.8,24,14.7,24.3,14.7,24.4z"/>
						<polygon class="st3" points="14.5,25.8 14.5,26.2 14.6,25.6 						"/>
						<polygon class="st3" points="14.6,25.7 14.5,26.1 14.5,25.9 						"/>
						<path class="st3" d="M16.2,21l0-0.1C16.2,20.9,16.2,21,16.2,21z"/>
						<path class="st3" d="M16.2,21l0,0.2C16.2,21.1,16.2,21,16.2,21z"/>
						<path class="st3" d="M14.9,25.7c-0.1,0.4-0.1,0.9-0.1,0.5L14.9,25.7C14.9,25.9,14.9,25.8,14.9,25.7z"/>
						<path class="st3" d="M15.6,23.2c0,0,0-0.1,0-0.1c0,0.1,0,0.3-0.1,0.4C15.6,23.4,15.6,23.3,15.6,23.2z"/>
						<path class="st3" d="M15.9,21.5l0,0.3C15.9,21.6,15.9,21.6,15.9,21.5z"/>
						<path class="st3" d="M16.4,20.6l0.1-0.4C16.5,20.2,16.4,20.4,16.4,20.6z"/>
						<path class="st3" d="M14.7,25.6c0,0.2,0,0.2,0,0.3C14.7,25.6,14.8,25.2,14.7,25.6z"/>
						<path class="st3" d="M15.4,25.6c0-0.1,0-0.2,0-0.3C15.4,25.4,15.4,25.5,15.4,25.6z"/>
						<path class="st3" d="M14.7,25.9c0,0,0-0.1,0-0.1C14.7,25.8,14.7,25.9,14.7,25.9C14.7,26,14.7,26.2,14.7,25.9z"/>
						<path class="st3" d="M16.8,21C16.8,21,16.8,21.1,16.8,21C16.8,21,16.8,21,16.8,21z"/>
						<path class="st3" d="M16.2,25.4C16.2,25.4,16.2,25.4,16.2,25.4C16.2,25.4,16.2,25.4,16.2,25.4z"/>
						<path class="st3" d="M14.6,25.9C14.6,26,14.6,26,14.6,25.9L14.6,25.9z"/>
						<path class="st3" d="M14.9,24.2c0,0,0-0.1,0-0.2C14.9,24.1,14.9,24.2,14.9,24.2z"/>
						<path class="st3" d="M15.2,23.2C15.2,23.2,15.2,23.2,15.2,23.2C15.2,23.1,15.2,23.1,15.2,23.2z"/>
						<path class="st3" d="M14.6,25.7c0,0.1,0,0.1,0,0.1C14.6,25.8,14.6,25.8,14.6,25.7z"/>
						<path class="st3" d="M14.6,25.9C14.6,25.9,14.6,25.9,14.6,25.9C14.6,26,14.6,26,14.6,25.9z"/>
						<path class="st3" d="M14.6,25.9C14.6,25.9,14.6,25.9,14.6,25.9C14.6,25.9,14.6,25.9,14.6,25.9C14.6,25.9,14.6,25.9,14.6,25.9z
							"/>
						<path class="st3" d="M16.4,22.1C16.4,22.1,16.4,22.2,16.4,22.1C16.4,22,16.4,22,16.4,22.1z"/>
						<path class="st3" d="M15.7,21.3C15.7,21.3,15.7,21.3,15.7,21.3C15.7,21.3,15.7,21.3,15.7,21.3L15.7,21.3z"/>
						<path class="st3" d="M15.8,21c-0.1,0.5-0.1,0.5-0.1,0.4l-0.2,1.2L15.8,21z"/>
						<path class="st3" d="M16.3,20.9l0.1-0.4c0.1-0.6,0.1-0.4,0.2-1c-0.2,1.3-0.1,0.1-0.3,1.5l0-0.3c0,0,0-0.1,0-0.1
							c0.1-0.6-0.2,1-0.2,0.8c0-0.1,0-0.3,0.1-0.5l-0.1,0.3c0,0,0-0.3,0-0.2l0,0.1l0,0c0,0.2-0.1,0.5-0.1,0.7c0-0.2,0-0.1,0.1-0.3
							L16,21.9c0.1-0.3,0.1-0.7,0.1-0.6c0.2-1.3-0.1,0.3,0.1-0.4l0-0.2c0.1-0.8,0.1-0.5,0.1-1c0,0.2-0.2,1.2-0.2,1.5
							c0-0.1,0-0.1,0,0.1c0.1-0.5,0.1-0.4,0-0.3l0.1-0.6c0,0.2-0.1,0.5-0.1,0.8c0-0.1,0.1-0.6,0.2-1c0-0.1-0.1,0.8-0.2,0.9
							c0-0.2,0,0-0.1,0.4c0-0.2,0.1-0.4,0.1-0.6L16,21.4c0,0,0-0.2,0-0.2c0,0.2-0.1,0.6-0.1,0.8c-0.1,0.7,0.2-1,0-0.2
							c0-0.2,0.1-0.4,0.1-0.6c-0.1,0.5-0.1,0.4-0.2,1.1l0.1-0.4c-0.1,0.5-0.2,1-0.3,1.5c0,0.2-0.1,0.4-0.1,0.5l-0.1,0.3
							c0-0.1,0.1-0.3,0.1-0.6c0,0.1,0,0.1,0,0.2c0-0.2,0.1-0.6,0.2-0.9c0,0.1,0,0.3-0.1,0.4c0.1-0.4,0.1-0.8,0.2-1.2
							c0,0.1,0,0.1,0,0.2c0-0.1,0-0.2,0-0.3c0-0.1,0,0.1,0,0.2l0.1-0.7l0,0.3l0.1-0.4c-0.1,0.7-0.3,1.7-0.4,2
							c0.1-0.5,0.1-0.8,0.2-1.5c-0.1,0.6,0.1-0.3,0-0.1c0-0.1,0.1-0.4,0.1-0.5l-0.1,0.6c0.1-0.5,0.1-0.4,0.1-0.6
							c-0.2,1-0.1,0.7-0.2,1c0.1-0.3,0.1-0.7,0.1-0.6c0.1-0.7-0.2,1.2-0.1,0.5c0,0,0,0,0-0.1c-0.1,0.3,0,0.1,0-0.2l0,0
							c0-0.1,0,0-0.2,0.8c0-0.1,0.2-1,0.2-1.2l-0.5,2.8c0.1-0.7,0.4-2.4,0.5-2.8c0-0.1,0-0.2,0,0c0,0.1-0.2,1-0.2,1.1
							c0.1-0.8,0.1-0.4,0.2-1.1c0,0.2-0.2,1.3-0.2,1.2c0-0.2,0.2-1.1,0.2-1.2l-0.2,1.1c0-0.2,0.2-0.9,0.2-1.3c0,0.2,0,0,0,0.1l0,0.3
							c0-0.2-0.3,1.6-0.3,1.5c0-0.2,0.2-1.4,0.3-1.5c-0.1,0.6-0.5,2.7-0.6,3.2l0.1-0.3L15,24.7c0.1-0.9,0.5-2.6,0.6-3.3
							c0-0.3,0.1-0.4,0-0.4c0-0.3,0.1-0.5,0.1-0.5l0-0.2c-0.1,0.7-0.1,0.7-0.2,1.2l0.1-0.7c-0.1,0.7-0.3,1.9-0.3,1.8
							c0-0.3,0.2-1.2,0.2-1.4c0,0.2-0.1,0.4-0.1,0.3l0.1-0.4c0-0.3-0.2,0.9-0.1,0.2c0,0,0.1-0.9,0.1-0.5c-0.1,0.8-0.5,3.1-0.6,3.7
							c0-0.1,0.1-0.7,0.2-1.1c0.1-0.6,0.2-1.4,0.3-1.9c0,0.2-0.1,0.4-0.1,0.5c0-0.2,0.1-0.6,0.1-0.5c-0.1,0.7,0-0.1-0.1,0.6
							c0,0.2,0-0.1,0-0.1c-0.1,0.4-0.3,1.5-0.3,1.7c0-0.2,0.1-0.4,0.1-0.5c0-0.1,0-0.4,0-0.4c0-0.2,0.1-0.4,0.1-0.7
							c0,0.1-0.1,0.3-0.1,0.4c0.1-0.6,0-0.1,0.1-0.8c-0.1,0.4-0.1,0.5-0.1,0.8c-0.1,0.6,0,0.1,0-0.1c-0.1,0.8-0.3,1.7-0.4,2.1
							c0,0.2,0.1-0.5,0.1-0.4c0-0.1-0.3,1.5-0.2,0.8c0.1-0.5,0.2-1.1,0.2-1.4c0-0.2,0,0.3,0,0.3l0-0.3c0-0.2,0.1-0.3,0-0.2
							c0.1-0.5,0-0.1,0-0.5c0,0.2-0.1,0.4-0.1,0.6l0-0.1c-0.1,0.4-0.1,0.6-0.1,0.8c-0.1,0.3-0.1,0.8-0.1,0.5l0.1-0.6
							c0,0.2-0.1,0.4,0,0.2c0,0.3,0.1-0.8,0,0l-0.1,0.4c-0.1,0.3-0.2,0.9-0.2,0.8c-0.1,0.6,0-0.1-0.1,0.6c0.1-0.9,0,0,0.2-0.9
							c-0.1,0.8,0,0.3-0.2,1c0-0.2,0.1-0.4,0.1-0.3c0-0.1,0-0.1,0-0.2c0,0,0,0,0,0c0,0,0,0,0,0c0,0,0,0,0,0c0-0.1,0-0.2,0-0.3
							c0.1-0.5,0.1-0.4,0.1-0.7c0,0.1,0,0.2-0.1,0.4l0.1-0.4c-0.1,0.4-0.1,0.7-0.2,1l0,0c0,0.2,0,0.3,0,0.2c0,0.1,0.1-0.5,0-0.1
							l0.1-0.3l0,0.1c0,0.1,0.2-0.7,0,0.1c0-0.1,0.1-0.2,0-0.1L14.7,26c0-0.1,0,0.4,0,0c-0.2,1,0,0.2,0,0.4l0.1-0.5
							c0,0,0-0.1,0.1-0.3l0.1-0.4c0.1-0.4,0,0.3,0,0.3c0,0.2,0,0.1,0,0c-0.2,1,0.2-0.7,0,0c0-0.2,0-0.1,0,0c0,0,0,0,0,0c0,0,0,0,0,0
							c0,0.1,0,0.2,0,0.2c0-0.1,0-0.2,0-0.2c0,0,0-0.1,0-0.2l-0.1,0.5c0,0,0,0,0,0c0,0.2,0-0.2,0.1-0.6c0-0.1,0-0.2,0.1-0.3
							c-0.1,0.8,0.1-0.3-0.1,0.6c0.1-0.4,0.1-0.3,0.2-1.1c0,0.1,0,0.2,0,0.2c0,0.1,0,0.2,0,0l-0.1,0.6l0.1-0.8
							c-0.1,0.4-0.1,0.6-0.2,1c0.1-0.7,0.1-0.3,0.2-1l-0.1,0.4c0,0,0.1-0.5,0-0.2c-0.1,0.7,0,0.1-0.1,0.8c0.2-1.2-0.1,0.5,0.1-0.4
							c0,0.3-0.1,0.4-0.1,0.7c0.1-0.3-0.1,0.4,0.1-0.3c0,0.3-0.1,0.4-0.1,0.6c0-0.1,0-0.2,0-0.1c0,0.2,0,0.2-0.1,0.3
							c0,0,0.2-0.9,0.3-1.7c-0.1,0.4,0,0.3,0-0.2c0,0.3-0.1,0.5-0.1,0.6c0,0,0,0.4,0.1-0.2c0,0.2,0,0,0,0c0,0,0,0.1,0,0l0-0.1
							c0.1-0.8,0-0.2,0.1-0.3l0,0.1c-0.1,0.6,0.1-0.3,0,0.4l0.1-0.5c0.2-1-0.1,0.6,0,0.2l0-0.3c0.1-0.3-0.2,1.4-0.2,1.5
							c0,0.1,0,0.1,0,0.2c-0.1,0.6,0.1-0.6,0.1-0.8c-0.1,0.3-0.1,0.9-0.1,0.9c0,0.3,0.2-1.1,0.1-0.4c0-0.3,0.1-0.5,0.1-0.7
							c0-0.1-0.1,1,0,0.2c0,0.1,0,0.1,0,0.2c0-0.2,0.1-0.3,0.2-0.8c-0.3,1.6,0.2-0.8-0.1,0.7l0-0.1l0,0.2c0,0.1,0.1-0.3,0.1-0.6
							c0,0.1,0,0.2-0.1,0.3c0,0.3,0,0.2,0.1-0.5L15.7,25c0.1-0.3-0.1,0.8,0,0.2c0,0.1,0,0.2,0,0.2c0.1-0.6-0.2,1.4,0.1-0.4l0.1-0.4
							c0-0.1,0.1-0.8,0.2-1.1c0-0.1-0.1,0.5-0.1,0.6l0-0.1c-0.2,0.9,0,0.3-0.1,1c0,0,0,0.5,0,0.5l0.1-0.7l0,0c0,0.2-0.1,0.6-0.1,0.5
							c-0.1,0.4,0.1-0.3,0.1-0.5c0,0.3-0.1,0.8-0.1,0.9l0-0.1l0-0.1c0.1-0.3,0.1-0.6,0.1-0.6c0,0.1-0.1,0.4-0.1,0.5c0,0.1,0,0.1,0,0
							l0,0.1l0.1-0.6c0.1-0.3,0,0,0.1-0.6c-0.2,1,0,0.4-0.1,0.7c0.1-0.4,0.1-0.4,0.1-0.4c0-0.1,0.1-0.8,0.1-0.7
							c-0.2,1.3-0.1,0.6-0.2,1.5c0.1-0.6,0.1-0.2,0.2-1c0,0.1-0.1,0.5-0.1,0.8c0.1-0.5,0,0.3,0,0.2c0-0.2,0.1-0.4,0.1-0.7L16,25.7
							c0-0.1,0.2-1,0.1-0.4c0-0.1,0.1-0.4,0.1-0.4c-0.1,0.9,0.2-0.7,0,0.9c0.1-0.3,0.1-0.4,0.1-0.4c0-0.1,0.1-0.4,0.1-0.7l-0.1,0.7
							c0.1-0.7,0,0,0.1-0.7l0,0.1c0.1-0.7,0.3-1.6,0.4-2.6c-0.1,0.8,0.2-1.2,0,0c0-0.2,0.1-0.3,0.1-0.5c-0.1,0.4-0.1,0.5-0.1,0.3
							l0-0.1c0,0.1,0-0.3,0-0.6l-0.1,0.5c0-0.1,0-0.2,0-0.3c-0.1,0.7,0,0-0.1,0.8c0.2-1,0,0,0.1-1.1c0,0-0.1,0.5-0.1,0.5l0-0.3
							l-0.1,0.4c0-0.1,0.1-0.4,0.1-0.7c0,0,0-0.1,0-0.1c0.1-0.3,0,0.1,0,0l0,0.2c-0.1,0.3,0-0.1-0.1,0.5l0,0.2c-0.1,0.4,0-0.2,0-0.1
							l0-0.1c0,0.2-0.1,0.3-0.1,0.3c0-0.3,0.1-0.5,0.1-0.8c-0.1,0.4-0.1,0.3-0.2,1.2l0.1-0.4c-0.1,0.3-0.1,0.5-0.1,0.6
							c0.1-0.3,0.1-0.6,0.2-1c0.1-0.8-0.2,0.8,0-0.4c-0.2,1-0.1,0.6-0.1,0.8c-0.1,0.3-0.1,0.8-0.1,0.7c0,0,0.2-1.3,0.2-1.3
							c0,0,0-0.1,0-0.1c0-0.3-0.1,0.3,0-0.1c-0.1,0.6,0,0-0.1,0.7l0-0.2c0,0.2-0.2,1.1-0.1,0.7c0-0.2,0.1-0.4,0.1-0.5
							c0-0.2,0,0.2,0-0.1c0.1-0.8,0-0.2,0.2-0.8c0.1-0.3-0.1,0.6,0-0.3c-0.2,1.1,0-0.1-0.1,0.7l0.1-0.5c0,0.1-0.1,0.3-0.1,0.3
							l0.1-0.6c-0.1,0.5,0.1-0.5,0-0.2c0,0-0.1,0.6-0.1,0.9c-0.1,0.6,0.2-1.2,0.1-1c0-0.1,0,0.3-0.1,0.5c0-0.1,0-0.3,0.1-0.5
							c0,0.1-0.1,0.5-0.1,0.8c0.1-0.6,0,0.2-0.1,0.4l0.1-0.5c0-0.3-0.2,1-0.1,0.6l0.1-0.7l0,0.2l0.1-0.5c-0.1,0.4-0.1,0.3,0,0.1
							c-0.1,0.3-0.1,0.9-0.2,0.9c0-0.3,0.1-0.5,0.1-0.4c0.1-0.3,0.1-0.7,0-0.2c0-0.2,0.1-0.3,0.1-0.5c0-0.3,0-0.1,0-0.1
							c0,0,0,0,0,0.1l-0.1,0.7c0-0.2,0.1-0.3,0.1-0.5c0,0.1-0.1,0.3-0.1,0.3c0.1-0.4,0.1-0.8,0.2-1l-0.1,0.4c0-0.2,0.1-0.5,0.1-0.6
							c0-0.2-0.1,0.7-0.1,0.4C16.4,20.8,16.4,20.8,16.3,20.9C16.3,20.8,16.4,20.3,16.3,20.9l0.2-0.8c0,0.2-0.1,0.9-0.2,1.1
							c0,0.2,0.1-0.6,0.1-0.8C16.3,20.8,16.2,21.6,16.3,20.9C16.3,20.9,16.3,21,16.3,20.9z M16.1,21.2c0-0.1,0.1-0.4,0-0.1
							C16,21.6,16.1,21.4,16.1,21.2z M15.7,22.3c0-0.2,0-0.1,0,0.1C15.7,22.5,15.7,22.4,15.7,22.3z M14.7,25.5
							C14.7,25.5,14.7,25.5,14.7,25.5C14.7,25.7,14.7,25.6,14.7,25.5z M14.7,25.3c0,0.1,0,0.1,0,0.2c0-0.1,0-0.1,0-0.1
							C14.7,25.3,14.7,25.2,14.7,25.3z M15.9,25.3l0-0.1C15.9,25.1,15.9,25.2,15.9,25.3z"/>
						<path class="st3" d="M15.9,21.7c0,0.1,0,0.2,0,0.3C15.8,21.8,15.8,21.8,15.9,21.7z"/>
						<path class="st3" d="M16.4,20.7C16.4,20.7,16.4,20.7,16.4,20.7C16.4,20.7,16.4,20.6,16.4,20.7L16.4,20.7z"/>
						<path class="st3" d="M15.5,21.3c0,0.1,0,0.2,0,0.2C15.5,21.5,15.5,21.4,15.5,21.3z"/>
						<path class="st3" d="M14.5,26.1l0-0.1c0,0,0-0.1,0-0.2C14.5,26,14.5,26.1,14.5,26.1z"/>
						<path class="st3" d="M15,23.2C14.9,23.2,14.9,23.2,15,23.2l-0.1,0.3C14.9,23.5,14.9,23.3,15,23.2z"/>
						<path class="st3" d="M14.8,24.6c0.1-0.4,0-0.3,0-0.2c0,0,0,0,0,0C14.7,24.9,14.7,24.7,14.8,24.6z"/>
						<path class="st3" d="M14.8,24.4C14.8,24.4,14.8,24.4,14.8,24.4C14.7,24.6,14.8,24.4,14.8,24.4z"/>
						<path class="st3" d="M14.6,25.6c0-0.1-0.1,0.5-0.1,0.3C14.5,26.5,14.7,25.3,14.6,25.6z"/>
						<polygon class="st3" points="15,23.2 14.9,23.7 15,23.3 						"/>
						<path class="st3" d="M15,23.6l0-0.1C15,23.5,15,23.6,15,23.6C15,23.7,14.9,23.8,15,23.6z"/>
						<path class="st3" d="M15,23.6C15,23.6,14.9,23.6,15,23.6C14.9,23.7,14.9,23.7,15,23.6z"/>
						<polygon class="st3" points="15,23.1 15,23.2 15,23.2 						"/>
						<path class="st3" d="M15,23.7l0-0.1c0-0.2,0-0.3,0-0.2C15.1,23.5,15.1,23.5,15,23.7z"/>
						<path class="st3" d="M15.2,22.4c0,0.1,0,0.2-0.1,0.4l0.1-0.6L15.2,22.4z"/>
						<path class="st3" d="M15.3,22.2c0-0.2,0.1-0.5,0.1-0.4C15.3,21.9,15.3,22.1,15.3,22.2z"/>
						<polygon class="st3" points="15.3,23 15.3,23 15.1,24 						"/>
						<path class="st3" d="M15.8,20.6c0-0.2-0.1,0.6-0.1,0.3c0,0.2,0,0.2-0.1,0.5C15.7,21.1,15.7,21.3,15.8,20.6z"/>
						<path class="st3" d="M15.7,21.4c0,0,0,0.1,0,0.2C15.6,21.5,15.6,21.4,15.7,21.4z"/>
						<polygon class="st3" points="16.2,25.9 16.1,26.1 16.2,25.8 						"/>
						<path class="st3" d="M16.3,25.2l-0.1,0.6L16.3,25.2C16.3,25.3,16.3,25.3,16.3,25.2z"/>
						<path class="st3" d="M16.3,19.9l0,0.2c0,0.2,0,0.2,0,0.2L16.3,19.9z"/>
						<polygon class="st3" points="16.3,20.4 16.3,20.4 16.2,21 						"/>
						<path class="st3" d="M16.5,19.7C16.5,19.6,16.5,19.8,16.5,19.7C16.5,19.6,16.4,20.4,16.5,19.7z"/>
					</g>
				</g>
			</g>
		</g>
	</g>
</g>
<text transform="matrix(0.66 0 0 1 14.9755 25.1406)" class="st5 st6 st7">Special Offer!</text>
</svg>
