<?xml version="1.0" encoding="utf-8"?>
<!-- Generator: Adobe Illustrator 21.0.2, SVG Export Plug-In . SVG Version: 6.00 Build 0)  -->
<svg version="1.1" id="Layer_1" xmlns="http://www.w3.org/2000/svg" xmlns:xlink="http://www.w3.org/1999/xlink" x="0px" y="0px"
	 viewBox="0 0 239 121.9" style="enable-background:new 0 0 239 121.9;" xml:space="preserve">
<style type="text/css">
	.st0{opacity:0.67;}
	.st1{fill:#FF2020;}
	.st2{opacity:0.53;}
	.st3{fill:#202020;}
	.st4{opacity:0.46;}
	.st5{fill:#FCF5F5;stroke:#000000;stroke-miterlimit:10;}
	.st6{font-family:'SegoeScript';}
	.st7{font-size:39.7419px;}
	.st8{fill:none;stroke:#FFFFFF;stroke-width:0.1;stroke-miterlimit:10;}
	.st9{font-family:'Impact';}
</style>
<g class="st0">
	<g>
		<g>
			<g>
				<g>
					<g>
						<path class="st1" d="M239,35.6c0,0,0-5.5,0-6.8C239,31.5,239,37,239,35.6z"/>
						<polygon class="st1" points="234.4,49.3 234.4,46.6 232.9,52.1 						"/>
						<path class="st1" d="M228.3,49.3c0,9.6,1.5-1.4,3.1,1.4v2.7v-8.2C231.3,46.6,229.8,52.1,228.3,49.3z"/>
						<path class="st1" d="M226.7,27.4C226.7,31.5,225.2,31.5,226.7,27.4C226.7,28.8,226.7,28.8,226.7,27.4
							C226.7,28.8,226.7,28.8,226.7,27.4z"/>
						<path class="st1" d="M226.7,27.4C226.7,27.4,226.7,24.7,226.7,27.4L226.7,27.4z"/>
						<path class="st1" d="M223.7,30.1v-2.7c0-2.7,0-2.7,0-4.1C223.7,24.7,223.7,26,223.7,30.1z"/>
						<path class="st1" d="M223.7,37v-1.4C223.7,35.6,223.7,34.2,223.7,37z"/>
						<path class="st1" d="M225.2,32.9v2.7c0,1.4,0,4.1,0-1.4C223.7,38.4,223.7,35.6,225.2,32.9z"/>
						<path class="st1" d="M225.2,34.2c0,2.7,1.5,4.1,0,6.8C226.7,39.7,226.7,32.9,225.2,34.2z"/>
						<path class="st1" d="M228.3,58.9v2.7V58.9C229.8,60.3,228.3,56.2,228.3,58.9z"/>
						<path class="st1" d="M220.6,24.7c0,2.7,0,5.5,0,8.2v-2.7C220.6,30.1,220.6,28.8,220.6,24.7z"/>
						<path class="st1" d="M220.6,32.9V37C220.6,37,220.6,35.6,220.6,32.9z"/>
						<path class="st1" d="M223.7,47.9l1.5-6.8L223.7,47.9z"/>
						<polygon class="st1" points="217.6,24.7 217.6,20.5 217.6,27.4 						"/>
						<path class="st1" d="M216,26c0-4.1,0-6.8,0-9.6c-1.5,1.4-1.5,4.1-1.5,6.8C214.5,21.9,214.5,21.9,216,26z"/>
						<path class="st1" d="M213,28.8c0-1.4,0-2.7,0-4.1C213,24.7,213,26,213,28.8z"/>
						<path class="st1" d="M219.1,35.6c0-1.4,0-4.1,0-5.5V35.6L219.1,35.6z"/>
						<path class="st1" d="M217.6,35.6L217.6,35.6L217.6,35.6L217.6,35.6z"/>
						<path class="st1" d="M219.1,35.6L219.1,35.6C219.1,37,219.1,37,219.1,35.6z"/>
						<path class="st1" d="M222.1,42.5c0,2.7-1.5,6.8,0,12.3C222.1,50.7,220.6,47.9,222.1,42.5z"/>
						<path class="st1" d="M219.1,43.8L219.1,43.8c1.5,0,0-2.7,1.5-4.1L219.1,43.8z"/>
						<polygon class="st1" points="219.1,45.2 219.1,43.8 219.1,42.5 						"/>
						<path class="st1" d="M214.5,34.2c0,2.7,0,2.7-1.5,2.7c1.5,1.4,1.5,1.4,1.5,1.4C214.5,37,214.5,32.9,214.5,34.2z"/>
						<path class="st1" d="M216,35.6L216,35.6L216,35.6z"/>
						<path class="st1" d="M209.9,37L209.9,37L209.9,37L209.9,37z"/>
						<path class="st1" d="M214.5,39.7c0,1.4,0,0,0-2.7C216,38.4,214.5,38.4,214.5,39.7L214.5,39.7z"/>
						<path class="st1" d="M211.4,31.5c0,1.4,0,2.7,0,2.7C213,32.9,211.4,28.8,211.4,31.5z"/>
						<path class="st1" d="M216,34.2L216,34.2C216,32.9,216,32.9,216,34.2z"/>
						<path class="st1" d="M216,34.2c0,1.4,0,2.7,0,4.1V37C216,35.6,216,34.2,216,34.2z"/>
						<path class="st1" d="M208.4,74c0-5.5,1.5-11,1.5-4.1c0-4.1,0-21.9,0-31.5c0,2.7,0,4.1-1.5,8.2c0,2.7,1.5,6.8,1.5,12.3
							c-1.5,2.7-1.5-1.4-1.5-5.5c0,6.8-1.5,9.6-1.5,19.2l1.5-4.1C208.4,69.9,208.4,72.6,208.4,74z"/>
						<path class="st1" d="M211.4,38.4L211.4,38.4c0-1.4,0-4.1-1.5-8.2c0,2.7,0,4.1,0,6.8L211.4,38.4L211.4,38.4z"/>
						<path class="st1" d="M213,38.4c0,5.5-1.5,8.2,0,15.1c1.5,0,0-5.5,1.5-6.8C211.4,46.6,214.5,41.1,213,38.4
							C213,37,213,37,213,38.4c0-1.4,0-2.7,0-4.1l0,0l0,0l0,0c0,1.4,0,1.4,0,1.4l0,0C213,35.6,213,37,213,38.4c0-1.4,0-1.4,0-2.7
							v-1.4l0,0V38.4C211.4,38.4,211.4,38.4,213,38.4z"/>
						<path class="st1" d="M220.6,67.1C220.6,67.1,220.6,65.8,220.6,67.1L220.6,67.1z"/>
						<path class="st1" d="M219.1,64.4c0-1.4,0-2.7,0-2.7c0,1.4,0,2.7,0,4.1c0-1.4,0-4.1,0-6.8v1.4c0-1.4-1.5-9.6-1.5-9.6
							C219.1,54.8,219.1,58.9,219.1,64.4z"/>
						<path class="st1" d="M216,52.1l-1.5,2.7v5.5v-2.7C216,58.9,216,54.8,216,52.1z"/>
						<polygon class="st1" points="209.9,34.2 209.9,27.4 208.4,37 						"/>
						<polygon class="st1" points="206.8,34.2 206.8,28.8 206.8,32.9 						"/>
						<path class="st1" d="M113.4,101.4v1.4V101.4z"/>
						<path class="st1" d="M116.4,101.4v-2.7C116.4,100,116.4,101.4,116.4,101.4z"/>
						<path class="st1" d="M167,34.2c0-5.5-1.5-12.3-1.5-6.8L167,34.2C167,32.9,167,34.2,167,34.2z"/>
						<path class="st1" d="M139.4,69.9v1.4c0-1.4,0-4.1,0-5.5C139.4,67.1,139.4,68.5,139.4,69.9z"/>
						<path class="st1" d="M137.9,94.5v-4.1C137.9,91.8,137.9,93.1,137.9,94.5z"/>
						<path class="st1" d="M98.1,106.8v5.5C98.1,113.7,98.1,111,98.1,106.8z"/>
						<path class="st1" d="M190,37c0-2.7-1.5-2.7-1.5-4.1C190,37,190,41.1,190,37z"/>
						<path class="st1" d="M114.9,38.4c0,1.4,0,2.7,0,4.1C114.9,41.1,114.9,39.7,114.9,38.4z"/>
						<path class="st1" d="M188.4,32.9v1.4C188.4,32.9,188.4,32.9,188.4,32.9C188.4,30.1,188.4,28.8,188.4,32.9z"/>
						<path class="st1" d="M44.4,102.7C44.4,101.4,44.4,101.4,44.4,102.7L44.4,102.7z"/>
						<path class="st1" d="M30.6,42.5C30.6,41.1,30.6,41.1,30.6,42.5C30.6,41.1,30.6,41.1,30.6,42.5z"/>
						<path class="st1" d="M200.7,31.5L200.7,31.5L200.7,31.5z"/>
						<path class="st1" d="M202.2,54.8c0,0,0,1.4,0,2.7C202.2,57.5,202.2,56.2,202.2,54.8z"/>
						<path class="st1" d="M183.8,69.9L183.8,69.9C185.4,71.2,185.4,71.2,183.8,69.9z"/>
						<path class="st1" d="M200.7,34.2c0-1.4,0-1.4,0-1.4V34.2z"/>
						<path class="st1" d="M200.7,31.5C200.7,31.5,202.2,32.9,200.7,31.5C202.2,31.5,202.2,30.1,200.7,31.5z"/>
						<path class="st1" d="M200.7,32.9C200.7,31.5,200.7,32.9,200.7,32.9S200.7,31.5,200.7,32.9C200.7,31.5,200.7,31.5,200.7,32.9z"
							/>
						<path class="st1" d="M73.5,86.3L73.5,86.3C73.5,87.7,73.5,87.7,73.5,86.3z"/>
						<path class="st1" d="M157.8,95.9L157.8,95.9L157.8,95.9z"/>
						<path class="st1" d="M156.3,101.4c0-6.8,1.5-6.8,1.5-5.5V78.1L156.3,101.4z"/>
						<path class="st1" d="M107.2,102.7v5.5c0,8.2-1.5,5.5,0,13.7c0-19.2,3.1-1.4,4.6-20.5v4.1v1.4c1.5,9.6,1.5-13.7,3.1-11
							c0,1.4,1.5,4.1,0,6.8l1.5-4.1c0,0,0,4.1,0,2.7l1.5-1.4l0,0c0-2.7,1.5-6.8,1.5-9.6c0,2.7,0,1.4,0,4.1l1.5-4.1
							c0,5.5,0,9.6-1.5,8.2c0,19.2,1.5-4.1,3.1,6.8l-3.1,1.4c0,11,1.5,6.8,1.5,13.7c0-4.1-1.5-16.4-1.5-20.5c0,1.4,0,2.7,1.5-1.4
							c0,6.8,0,5.5,1.5,4.1v8.2c1.5-2.7,0-6.8,1.5-11c1.5,1.4,1.5,8.2,1.5,13.7c1.5,1.4-1.5-11,1.5-12.3c1.5,2.7,1.5,0,3.1-5.5
							c0,2.7,0,5.5,0,8.2v-6.8v2.7c0-2.7,0-8.2,1.5-11c0-9.6,1.5,13.7,3.1,2.7c0,2.7,0,5.5,0,8.2c1.5-6.8,1.5-5.5,3.1-15.1l0,5.5
							c0-6.8,0-13.7,1.5-20.5c0-2.7,0-5.5,0-6.8l1.5-4.1c0,1.4,0,4.1,0,8.2c0-1.4,0-1.4,0-2.7c0,2.7,0,8.2,0,13.7c0-1.4,0-4.1,0-5.5
							c0,5.5,0,11,0,16.4c0-1.4,0-1.4,0-2.7c0,1.4,0,2.7,0,4.1c0,1.4,0-1.4,0-2.7v9.6v-4.1l1.5,5.5c1.5-9.6,3.1-24.7,4.6-28.8
							c0,6.8,0,12.3,0,20.5c0-9.6-1.5,4.1-3.1,1.4c0,1.4,0,5.5,0,6.8l1.5-8.2c0,6.8,0,5.5,1.5,8.2c0-13.7,1.5-9.6,3.1-13.7
							c0,4.1,0,9.6-1.5,8.2c1.5,11,1.5-16.4,3.1-6.8c0,0,0,0,0,1.4c0-4.1,1.5-1.4,1.5,2.7l0,0c1.5,1.4,4.6,0,4.6-11
							c0,1.4,0,13.7,0,16.4l3.1-39.7c0,9.6,0,34.2-1.5,39.7c0,1.4,1.5,2.7,1.5,0c0-1.4,0-15.1,0-15.1c1.5,11,0,5.5,1.5,15.1
							c0-2.7,0-17.8,0-17.8c0,2.7,0,15.1,0,16.4l1.5-15.1c0,2.7,0,13.7,0,17.8c0-2.7,1.5,0,1.5-1.4v-4.1c1.5,2.7,1.5-21.9,3.1-20.5
							c0,2.7,0,19.2,0,21.9c0-8.2,1.5-38.4,3.1-43.8v4.1l1.5-5.5c0,12.3-3.1,37-4.6,46.6c0,4.1,0,5.5,1.5,5.5c0,4.1,0,6.8-1.5,6.8
							l3.1,2.7c0-9.6,1.5-9.6,1.5-16.4l-3.1,9.6c0-9.6,1.5-26,3.1-24.7c0,4.1,0,16.4,0,19.2c0-2.7,1.5-5.5,1.5-4.1v5.5
							c1.5,4.1,1.5-12.3,3.1-2.7c0,0,1.5,12.3,1.5,6.8c0-11,0-42.5,0-50.7c0,1.4,1.5,9.6,1.5,15.1c0,8.2-1.5,19.2,0,27.4
							c0-2.7,0-5.5,0-6.8c0,2.7,0,8.2,0,6.8c0-9.6,1.5,1.4,0-8.2c1.5-2.7,1.5,1.4,1.5,1.4c0-5.5,1.5-20.5,1.5-23.3
							c0,2.7,0,5.5,0,6.8c1.5,1.4,3.1,5.5,4.6,5.5c0,2.7,1.5,5.5,0,9.6c0-1.4,0-5.5,1.5-5.5c1.5,8.2-1.5,1.4,0,11
							c0-5.5,1.5-6.8,1.5-11c0-8.2-1.5-1.4-1.5,1.4c0-11,1.5-23.3,3.1-28.8c1.5-2.7,0,6.8,1.5,5.5c3.1,1.4,1.5-20.5,4.6-12.3
							c1.5,6.8,0,15.1,0,20.5c-1.5,2.7-1.5-4.1-3.1-4.1l1.5,4.1c0,2.7-1.5,4.1-1.5,2.7c0,6.8,4.6,1.4,6.1,6.8c0-2.7,1.5-5.5,0-8.2
							v1.4c0-5.5,1.5-8.2,0-11c1.5-4.1,1.5-11,3.1-6.8v8.2c0-2.7,0-5.5-1.5-2.7c0-4.1,1.5,11,1.5,0l-1.5-5.5
							c1.5-4.1,1.5-13.7,3.1-11c0-8.2,0,1.4-1.5-8.2c0,12.3-3.1,0-1.5,12.3c0-11-1.5-4.1-1.5-15.1c0,2.7,0,5.5,0,4.1
							c0,1.4,0,1.4,0,2.7l0,0l0,0l0,0c0,1.4,0,2.7,0,4.1c0,6.8-1.5,5.5-1.5,9.6c0-1.4,0-2.7,0-5.5v5.5c0-5.5-1.5-9.6,0-13.7h-1.5
							c0-4.1-1.5-5.5-1.5-2.7c0-1.4-1.5,6.8-1.5,1.4l-1.5,4.1v-1.4c-1.5-1.4-3.1,9.6-4.6-1.4c0,1.4-1.5,4.1-1.5,1.4v-5.5
							c0,1.4-1.5-5.5-3.1,0c0-13.7-3.1-2.7-4.6-5.5v6.8c-1.5,0-1.5,1.4-3.1,4.1v5.5c-1.5,5.5-1.5-4.1-3.1-4.1c0-2.7,0-1.4,0,0
							c-1.5-13.7-3.1,9.6-4.6,0c0,2.7,0,1.4-1.5,0l0,0l0,0c0-1.4,0-2.7,0-2.7c0,1.4,0,2.7,0,2.7s0,1.4-1.5,2.7v-6.8l0,0
							c0-2.7,0,2.7,0,8.2c0,1.4,0,2.7,0,4.1c0-11-1.5,4.1-1.5-8.2c0,5.5-1.5,4.1-3.1,16.4c0-1.4,0-2.7,0-2.7c0-1.4-1.5-2.7-1.5,0
							v-8.2l-3.1,9.6c0-5.5-1.5-8.2,0-15.1c-1.5,9.6-1.5,4.1-3.1,13.7v-5.5c0,0-1.5,6.8-1.5,2.7c0-9.6-4.6,0-6.1-9.6
							c0,16.4-1.5-6.8-1.5,5.5c0-4.1,0-5.5,0-9.6c-1.5,4.1-3.1-5.5-3.1,4.1c0-4.1,0-5.5,0-8.2c0,1.4,0,2.7,0,1.4c0-2.7,0-2.7,0-5.5
							c-1.5,0-1.5,12.3-1.5,23.3c0-5.5-1.5-4.1-1.5,2.7c0-4.1,0-6.8,0-8.2c0,0-3.1-5.5-3.1,4.1c0-2.7,0,0-1.5,0s-1.5-1.4-1.5,0v1.4
							c0,11-1.5,2.7-1.5,4.1v-1.4c-3.1-8.2-1.5,2.7-3.1-5.5v6.8c0,13.7-1.5-8.2-3.1-2.7v4.1c0,5.5-1.5-19.2-1.5-20.5s0-1.4,0-2.7
							c-1.5-9.6,0,6.8-1.5,9.6c0-4.1,0-12.3,0-12.3c0-4.1-3.1,15.1-3.1,5.5c0,4.1,0,6.8,0,9.6c-1.5,1.4-1.5-13.7-3.1-2.7
							c0-1.4,0-1.4,0-2.7c0,2.7-1.5,5.5-3.1,11c0-23.3-4.6,11-4.6-9.6l-3.1,1.4v-2.7c-1.5-1.4-1.5,4.1-1.5,9.6c0-1.4,0-2.7,0-4.1
							c-1.5-5.5-3.1-4.1-4.6,6.8v-6.8c0,4.1-3.1-11-4.6-2.7c0-1.4,0-2.7,0-2.7c-1.5,6.8-4.6-19.2-6.1,5.5v5.5c1.5,1.4,0,11,0,15.1
							c0,1.4-1.5-6.8-1.5-8.2v1.4c0-12.3-1.5-4.1-1.5-13.7c-3.1,0-7.7-6.8-10.7-6.8v9.6h-1.5c0-2.7,0-8.2,0-6.8
							c0-5.5-1.5,4.1-1.5,6.8C70.5,45.2,73.5,37,72,37v1.4v1.4c0,4.1,0,8.2-1.5,8.2c0-1.4,0-6.8,0-6.8c0-1.4,0-1.4,0,0l-1.5-2.7v8.2
							c0,4.1-1.5,0-1.5,8.2c0-13.7-6.1-5.5-6.1-9.6c0,5.5,0,5.5-1.5,5.5c0,1.4,0,11,0,9.6c0-17.8-1.5-8.2-1.5-20.5
							c0,8.2-3.1,2.7-1.5,15.1c-1.5-1.4,0-6.8,0-11c-4.6,5.5-6.1-6.8-9.2-4.1c0,2.7,0,5.5,0,9.6L46,37c0,1.4,0,13.7-1.5,5.5
							c0,1.4,0,5.5,0,5.5c-3.1-11-9.2,11-13.8-12.3c1.5,5.5,0,5.5,0,5.5c0,1.4,0,5.5,0,9.6l-1.5-9.6c0,9.6-1.5,0-3.1,9.6v-1.4
							c-1.5,9.6,0,23.3,0,35.6c1.5-11,1.5,17.8,4.6,0c0,2.7,0,4.1,0,6.8c0-5.5,1.5-6.8,1.5-4.1V89c3.1-1.4,3.1,4.1,6.1,8.2v-6.8
							c0,1.4,0,2.7,1.5,4.1c1.5-9.6-1.5,0-1.5-11c0,13.7,4.6,0,4.6,15.1c1.5,0,0-6.8,1.5-6.8v4.1v-5.5c0,1.4,1.5,5.5,0,9.6v1.4
							c0,4.1,1.5-1.4,3.1,0L46,100c3.1-4.1,6.1,1.4,7.7-6.8v-2.7c1.5-5.5,1.5,2.7,3.1,1.4v1.4c0-2.7,1.5-4.1,1.5-4.1
							c0,4.1,1.5,6.8,0,11c3.1-8.2,1.5-6.8,3.1-17.8v5.5c0-4.1,0-6.8,1.5-8.2c-1.5,4.1,0,8.2,0,13.7c1.5,11,3.1-11,4.6,5.5
							c1.5-13.7-1.5-8.2-1.5-11c0-4.1,1.5-11,1.5-9.6c0,0,1.5,17.8,3.1,17.8v1.4c0,4.1,1.5-5.5,1.5,1.4c0-8.2,1.5,0,1.5-11L72,89
							c1.5-2.7,1.5-15.1,3.1-9.6c0,2.7,0,5.5-1.5,6.8c0,2.7,1.5-2.7,1.5,1.4c0,11-1.5,2.7-3.1,11c0,4.1,1.5-8.2,1.5,4.1
							c0-15.1,1.5,1.4,3.1-9.6v6.8c0-1.4,0-5.5,0-5.5v8.2c0-6.8,1.5,6.8,3.1,2.7c-1.5,0,0-8.2-1.5-12.3c3.1-8.2,1.5,16.4,3.1,13.7
							c0,1.4-1.5-4.1,0-6.8c0,1.4,1.5,4.1,1.5,6.8c1.5-1.4,0-6.8,0-11c0,8.2,1.5-2.7,1.5-5.5v6.8c1.5,4.1,0-13.7,3.1-8.2l-1.5,9.6
							l1.5-2.7v6.8c1.5-5.5,1.5-4.1,3.1-1.4c0-4.1,0-12.3,1.5-12.3c0,4.1,0,6.8,1.5,5.5c0,4.1,0,9.6-1.5,2.7c0,2.7,0,4.1,0,6.8
							c0,4.1,1.5,1.4,1.5,1.4s0,0,0-1.4l1.5-9.6c0,2.7,0,4.1,0,6.8c0-1.4,0-4.1,1.5-4.1c0,5.5,0,11-1.5,13.7l1.5-5.5
							c0,2.7,1.5,6.8,0,8.2c1.5,2.7,3.1-11,3.1-6.8c0-1.4,0-1.4,0-2.7c1.5,1.4,1.5,8.2,3.1,0v9.6c1.5-2.7-1.5-12.3,1.5-16.4
							c1.5-2.7,0,8.2,1.5,11C105.7,104.1,107.2,94.5,107.2,102.7C107.2,104.1,107.2,102.7,107.2,102.7z M121,98.6
							c0,1.4-1.5,5.5-1.5,1.4C119.5,93.1,119.5,95.9,121,98.6z M140.9,83.6c0,2.7,0,1.4-1.5-1.4C140.9,80.8,140.9,80.8,140.9,83.6z
							 M197.6,37L197.6,37C196.1,35.6,196.1,35.6,197.6,37z M197.6,39.7c0-1.4,0-1.4,0-2.7c0,1.4,0,1.4,0,1.4
							C197.6,41.1,197.6,41.1,197.6,39.7z M70.5,42.5v1.4C70.5,45.2,70.5,43.8,70.5,42.5z"/>
						<path class="st1" d="M137.9,91.8c0-1.4,0-2.7,0-4.1C137.9,89,137.9,90.4,137.9,91.8z"/>
						<path class="st1" d="M98.1,106.8L98.1,106.8L98.1,106.8z"/>
						<path class="st1" d="M179.3,95.9c0-1.4,0-2.7,0-2.7C179.3,94.5,179.3,95.9,179.3,95.9z"/>
						<path class="st1" d="M203.8,28.8v1.4c0,0,0,1.4,0,2.7C203.8,31.5,203.8,28.8,203.8,28.8z"/>
						<path class="st1" d="M211.4,69.9C211.4,68.5,211.4,69.9,211.4,69.9v-4.1C211.4,65.8,211.4,68.5,211.4,69.9z"/>
						<path class="st1" d="M205.3,50.7c0,5.5,0,4.1,1.5,2.7l0,0C206.8,45.2,205.3,47.9,205.3,50.7z"/>
						<path class="st1" d="M206.8,53.4L206.8,53.4C206.8,50.7,206.8,52.1,206.8,53.4z"/>
						<path class="st1" d="M199.2,37c0,1.4,0-6.8,0-5.5C200.7,24.7,197.6,39.7,199.2,37z"/>
						<polygon class="st1" points="205.3,69.9 205.3,63 205.3,68.5 						"/>
						<path class="st1" d="M202.2,64.4l1.5,1.4C202.2,64.4,202.2,64.4,202.2,64.4C202.2,63,200.7,61.6,202.2,64.4z"/>
						<path class="st1" d="M202.2,64.4C202.2,64.4,203.8,64.4,202.2,64.4C203.8,63,202.2,63,202.2,64.4z"/>
						<polygon class="st1" points="205.3,71.2 203.8,69.9 203.8,69.9 						"/>
						<path class="st1" d="M193,63l-1.5,1.4c0,2.7,0,4.1,0,2.7C191.5,65.8,193,64.4,193,63z"/>
						<path class="st1" d="M194.6,82.2c0-1.4,0-2.7,0-5.5v8.2V82.2z"/>
						<path class="st1" d="M193,83.6c0,2.7-1.5,6.8,0,6.8C193,87.7,193,84.9,193,83.6z"/>
						<polygon class="st1" points="177.7,72.6 179.3,72.6 179.3,58.9 						"/>
						<path class="st1" d="M165.5,105.5c1.5,2.7,0-8.2,1.5-4.1c0-2.7-1.5-2.7,0-6.8C165.5,98.6,165.5,97.3,165.5,105.5z"/>
						<path class="st1" d="M167,95.9c0,0,0-1.4,0-2.7C167,94.5,167,94.5,167,95.9z"/>
						<polygon class="st1" points="27.6,34.2 27.6,31.5 27.6,35.6 						"/>
						<path class="st1" d="M26,45.2V37V45.2C26,43.8,26,42.5,26,45.2z"/>
						<path class="st1" d="M122.6,116.4v-2.7c0-2.7,0-2.7,0-2.7V116.4z"/>
						<polygon class="st1" points="111.8,109.6 113.4,109.6 111.8,101.4 						"/>
						<path class="st1" d="M104.2,120.5C104.2,120.5,105.7,119.2,104.2,120.5C104.2,120.5,104.2,109.6,104.2,120.5z"/>
					</g>
				</g>
			</g>
		</g>
	</g>
	<g class="st2">
		<g>
			<g>
				<g>
					<g>
						<path class="st3" d="M32.2,94.5c0,0,0,5.5,0,6.8C32.2,100,32.2,93.1,32.2,94.5z"/>
						<polygon class="st3" points="36.8,82.2 36.8,83.6 36.8,78.1 						"/>
						<path class="st3" d="M41.4,82.2c-1.5-11-1.5,1.4-3.1-2.7v-2.7v8.2C39.8,83.6,39.8,79.5,41.4,82.2z"/>
						<path class="st3" d="M44.4,102.7C44.4,98.6,44.4,100,44.4,102.7C44.4,101.4,44.4,102.7,44.4,102.7L44.4,102.7z"/>
						<path class="st3" d="M44.4,102.7C42.9,102.7,44.4,105.5,44.4,102.7L44.4,102.7z"/>
						<path class="st3" d="M46,100v2.7c0,2.7,0,4.1,0,5.5C47.5,105.5,46,104.1,46,100z"/>
						<path class="st3" d="M46,93.1v1.4C46,95.9,46,95.9,46,93.1z"/>
						<path class="st3" d="M46,97.3v-2.7c0-1.4,0-5.5,0,1.4C46,93.1,46,95.9,46,97.3z"/>
						<path class="st3" d="M44.4,95.9c0-2.7-1.5-4.1,0-6.8C42.9,90.4,44.4,97.3,44.4,95.9z"/>
						<path class="st3" d="M41.4,71.2v-2.7V71.2C39.8,69.9,41.4,74,41.4,71.2z"/>
						<path class="st3" d="M50.6,105.5c0-2.7,0-5.5,0-8.2v2.7C49,101.4,50.6,101.4,50.6,105.5z"/>
						<path class="st3" d="M50.6,97.3v-4.1C49,93.1,49,94.5,50.6,97.3z"/>
						<path class="st3" d="M46,82.2V89V82.2z"/>
						<polygon class="st3" points="53.6,105.5 53.6,109.6 53.6,102.7 						"/>
						<path class="st3" d="M55.2,104.1c0,4.1,0,6.8,0,9.6c0-1.4,0-4.1,1.5-6.8C56.7,108.2,55.2,108.2,55.2,104.1z"/>
						<path class="st3" d="M56.7,101.4c0,1.4,0,2.7,0,4.1C56.7,105.5,56.7,104.1,56.7,101.4z"/>
						<path class="st3" d="M52.1,94.5c0,1.4,0,4.1,1.5,5.5L52.1,94.5L52.1,94.5z"/>
						<path class="st3" d="M52.1,94.5L52.1,94.5L52.1,94.5L52.1,94.5z"/>
						<path class="st3" d="M52.1,94.5L52.1,94.5C52.1,93.1,52.1,93.1,52.1,94.5z"/>
						<path class="st3" d="M47.5,87.7c0-2.7,1.5-6.8,0-12.3C47.5,79.5,49,82.2,47.5,87.7z"/>
						<path class="st3" d="M50.6,86.3L50.6,86.3c0,0,0,2.7,0,4.1V86.3z"/>
						<polygon class="st3" points="50.6,84.9 50.6,86.3 50.6,87.7 						"/>
						<path class="st3" d="M55.2,95.9c0-2.7,0-2.7,1.5-2.7c0-1.4-1.5-1.4-1.5-1.4C55.2,93.1,55.2,95.9,55.2,95.9z"/>
						<path class="st3" d="M53.6,94.5L53.6,94.5C53.6,94.5,53.6,93.1,53.6,94.5z"/>
						<path class="st3" d="M59.8,93.1C59.8,93.1,59.8,91.8,59.8,93.1C59.8,91.8,59.8,93.1,59.8,93.1L59.8,93.1z"/>
						<path class="st3" d="M55.2,90.4c0-1.4,0,0,0,2.7C55.2,91.8,55.2,91.8,55.2,90.4L55.2,90.4z"/>
						<path class="st3" d="M58.2,98.6c0-1.4,0-2.7,0-2.7C58.2,97.3,58.2,100,58.2,98.6z"/>
						<path class="st3" d="M53.6,95.9L53.6,95.9C53.6,97.3,53.6,97.3,53.6,95.9z"/>
						<path class="st3" d="M53.6,95.9c0-1.4,0-2.7,0-4.1v1.4C53.6,94.5,53.6,95.9,53.6,95.9z"/>
						<path class="st3" d="M59.8,54.8c0,5.5,0,11-1.5,4.1c0,4.1,0,21.9,1.5,31.5c0-2.7,0-4.1,0-8.2c0-2.7-1.5-6.8-1.5-12.3
							c1.5,0,1.5,4.1,3.1,6.8c0-6.8,1.5-9.6,0-19.2v4.1C59.8,58.9,59.8,56.2,59.8,54.8z"/>
						<path class="st3" d="M58.2,91.8L58.2,91.8c0,1.4,0,4.1,1.5,8.2c0-2.7,0-4.1,0-6.8L58.2,91.8L58.2,91.8z"/>
						<path class="st3" d="M56.7,91.8c0-5.5,0-8.2,0-15.1c-1.5,0,0,5.5-1.5,6.8C58.2,83.6,55.2,87.7,56.7,91.8
							C56.7,93.1,56.7,93.1,56.7,91.8c0,1.4,0,2.7,0,4.1l0,0l0,0l0,0c0-1.4,0-1.4,0-1.4l0,0C56.7,93.1,56.7,93.1,56.7,91.8
							c0,1.4,0,1.4,0,2.7c0,0,0,0,0,1.4l0,0V91.8C58.2,91.8,58.2,91.8,56.7,91.8z"/>
						<path class="st3" d="M49,63C49,63,49,64.4,49,63L49,63z"/>
						<path class="st3" d="M49,65.8c0,1.4,0,2.7,0,2.7c0-1.4,0-2.7,0-4.1c0,1.4,0,4.1,0,6.8v-1.4c0,1.4,1.5,9.6,1.5,9.6
							C50.6,75.3,50.6,71.2,49,65.8z"/>
						<path class="st3" d="M53.6,78.1l1.5-2.7l-1.5-5.5v2.7C52.1,71.2,53.6,75.3,53.6,78.1z"/>
						<polygon class="st3" points="61.3,95.9 61.3,102.7 61.3,93.1 						"/>
						<polygon class="st3" points="62.8,94.5 62.8,100 62.8,97.3 						"/>
						<path class="st3" d="M150.1,24.7v-1.4C150.1,23.3,150.1,24.7,150.1,24.7z"/>
						<path class="st3" d="M147.1,24.7v2.7C147.1,26,147.1,24.7,147.1,24.7z"/>
						<path class="st3" d="M101.1,93.1c0,5.5,1.5,12.3,1.5,6.8L101.1,93.1C102.6,94.5,101.1,94.5,101.1,93.1z"/>
						<path class="st3" d="M127.2,56.2v-1.4c0,1.4,0,4.1,0,5.5C127.2,58.9,127.2,57.5,127.2,56.2z"/>
						<path class="st3" d="M125.6,32.9l1.5,4.1C127.2,34.2,127.2,32.9,125.6,32.9z"/>
						<path class="st3" d="M163.9,17.8v-5.5C162.4,12.3,163.9,15.1,163.9,17.8z"/>
						<path class="st3" d="M78.1,91.8c1.5,2.7,1.5,4.1,1.5,4.1C79.7,93.1,78.1,87.7,78.1,91.8z"/>
						<path class="st3" d="M151.7,87.7c0-1.4,0-2.7,0-4.1C151.7,84.9,151.7,86.3,151.7,87.7z"/>
						<path class="st3" d="M81.2,95.9v-1.4C81.2,95.9,79.7,95.9,81.2,95.9C79.7,98.6,81.2,100,81.2,95.9z"/>
						<path class="st3" d="M216,20.5C216,21.9,216,21.9,216,20.5L216,20.5z"/>
						<path class="st3" d="M232.9,80.8L232.9,80.8C232.9,82.2,232.9,80.8,232.9,80.8z"/>
						<path class="st3" d="M68.9,97.3C68.9,97.3,68.9,98.6,68.9,97.3L68.9,97.3z"/>
						<path class="st3" d="M65.9,74c0,0,0-1.4,0-2.7C65.9,72.6,65.9,74,65.9,74z"/>
						<path class="st3" d="M82.7,58.9L82.7,58.9C82.7,57.5,82.7,57.5,82.7,58.9z"/>
						<path class="st3" d="M67.4,94.5c0,1.4,0,1.4,0,1.4C68.9,95.9,68.9,95.9,67.4,94.5z"/>
						<path class="st3" d="M68.9,97.3C68.9,97.3,67.4,97.3,68.9,97.3C67.4,98.6,67.4,98.6,68.9,97.3z"/>
						<path class="st3" d="M68.9,97.3L68.9,97.3L68.9,97.3L68.9,97.3z"/>
						<path class="st3" d="M188.4,38.4L188.4,38.4C188.4,35.6,188.4,37,188.4,38.4z"/>
						<path class="st3" d="M107.2,31.5L107.2,31.5L107.2,31.5L107.2,31.5z"/>
						<path class="st3" d="M108.8,27.4c0,6.8,0,6.8-1.5,5.5l1.5,16.4V27.4z"/>
						<path class="st3" d="M156.3,23.3l-1.5-5.5c0-8.2,1.5-5.5,0-13.7c0,19.2-3.1,1.4-3.1,20.5v-4.1v-1.4c-1.5-8.2,0,13.7-1.5,11
							c0-1.4-1.5-4.1-1.5-6.8l0,6.8c0,0,0-4.1,0-2.7h-1.5l0,0c0,2.7,0,6.8,0,9.6c0-2.7,0-1.4,0-4.1V37c0-5.5,0-9.6,0-8.2
							c-1.5-19.2,0,4.1-3.1-5.5l1.5-2.7c-1.5-11-1.5-6.8-3.1-13.7c0,4.1,3.1,16.4,1.5,20.5c0-1.4,0-1.4-1.5,1.4c0-6.8,0-5.5-1.5-4.1
							v-8.2c0,2.7,0,6.8,0,11c-1.5-1.4-3.1-8.2-3.1-13.7c-1.5-1.4,1.5,11,0,12.3c-1.5-2.7-1.5,0-3.1,5.5c-1.5-2.7,0-5.5,0-8.2v6.8
							v-2.7c0,2.7,0,8.2,0,11c0,9.6-3.1-13.7-3.1-2.7c0-2.7,0-5.5,0-8.2c-3.1,6.8-3.1,4.1-3.1,13.7l-1.5-5.5c1.5,6.8,0,13.7,0,20.5
							c0,2.7,0,5.5,1.5,6.8l-1.5,5.5c0-1.4,0-4.1,0-8.2c0,1.4,0,1.4,0,2.7c0-2.7,0-8.2,0-13.7c0,1.4,0,4.1,0,5.5c0-5.5,0-11,0-16.4
							c0,1.4,0,1.4,0,2.7c0-1.4,0-2.7,0-4.1s0,1.4,0,2.7v-9.6v4.1l-4.6-5.5c0,9.6-1.5,24.7-3.1,28.8c0-6.8,0-12.3,0-20.5
							c1.5,9.6,1.5-4.1,3.1-2.7c0-1.4,0-5.5,0-6.8l-3.1,9.6c0-6.8,0-5.5-1.5-8.2c1.5,13.7-1.5,9.6-1.5,13.7c0-4.1,0-9.6,0-8.2
							c0-11,0,16.4-1.5,6.8c0,0,0,0,0-1.4c0,4.1-1.5,1.4-1.5-2.7l0,0c-1.5-1.4-4.6,0-4.6,12.3c0-1.4,0-13.7,0-16.4v38.4
							c0-9.6-1.5-34.2-1.5-39.7c0-1.4-1.5-2.7-1.5,0c0,1.4,1.5,15.1,1.5,16.4c-1.5-12.3-1.5-6.8-3.1-16.4c0,2.7,0,17.8,0,17.8
							c0-2.7,0-15.1,0-16.4l-1.5,15.1c0-2.7,0-13.7-1.5-17.8c0,2.7-1.5,0-1.5,1.4v4.1c-1.5-2.7,0,21.9-3.1,20.5
							c0-2.7,0-19.2-1.5-21.9c0,8.2,0,38.4-1.5,43.8V74l1.5,5.5c0-12.3,1.5-37,1.5-46.6c0-4.1,0-5.5-1.5-5.5c0-4.1,0-6.8,0-6.8
							l-1.5-2.7c1.5,9.6,0,9.6,0,17.8L95,26c0,9.6,0,26-1.5,24.7c0-4.1,0-16.4,0-19.2c-1.5,2.7-1.5,5.5-1.5,2.7v-5.5
							c-1.5-2.7-1.5,13.7-3.1,4.1c0,0-1.5-12.3-1.5-6.8c1.5,11,3.1,42.5,3.1,50.7c0-1.4-1.5-9.6-3.1-15.1c0-6.8,0-19.2,0-26
							c0,2.7,0,5.5,0,6.8c0-2.7,0-8.2-1.5-6.8c0,9.6-1.5-1.4,0,8.2c0,2.7-1.5-1.4-1.5-1.4c0,5.5,0,20.5,0,23.3c0-2.7,0-5.5,0-6.8
							c-3.1-1.4-4.6-5.5-6.1-5.5c0-2.7-1.5-5.5-1.5-9.6c0,1.4,0,5.5,0,5.5c0-6.8,1.5-1.4,0-11c0,5.5,0,8.2-1.5,11
							c1.5,8.2,1.5,2.7,3.1-1.4c0,11,0,23.3-1.5,28.8c-1.5,2.7-1.5-6.8-1.5-5.5c-1.5-1.4-1.5,20.5-3.1,12.3s0-15.1-1.5-20.5
							c1.5-2.7,1.5,5.5,3.1,4.1L72,64.4c0-2.7,1.5-4.1,1.5-2.7c-1.5-6.8-4.6-1.4-6.1-6.8c0,2.7,0,5.5,0,8.2v-1.4c1.5,5.5,0,8.2,0,11
							c0,4.1-1.5,11-3.1,6.8v-8.2c0,2.7,1.5,5.5,1.5,2.7c0,4.1-1.5-11-1.5,0l1.5,5.5c0,4.1-1.5,13.7-1.5,11c1.5,8.2,0-1.4,1.5,8.2
							c-1.5-12.3,3.1,0,1.5-12.3c1.5,11,1.5,4.1,3.1,13.7c0-2.7,0-5.5,0-4.1c0-1.4,0-1.4,0-2.7l0,0l0,0l0,0c0-1.4,0-2.7,0-4.1
							c0-6.8,1.5-6.8,1.5-9.6c0,1.4,0,2.7,0,5.5v-5.5c0,5.5,1.5,9.6,0,13.7h1.5c0,4.1,1.5,4.1,1.5,2.7c0,1.4,1.5-6.8,0-1.4l1.5-4.1
							v1.4c1.5,1.4,3.1-11,4.6,1.4c0-1.4,1.5-4.1,1.5-1.4v5.5c0-1.4,1.5,5.5,1.5,0c1.5,13.7,3.1,2.7,4.6,5.5v-6.8
							c1.5,1.4,3.1-1.4,3.1-4.1v-5.5c0-5.5,3.1,4.1,3.1,4.1c0,2.7,0,1.4,0,0c1.5,13.7,3.1-9.6,4.6,0c0-2.7,0-1.4,1.5,0l0,0l0,0
							c0,1.4,0,2.7,0,2.7c0-1.4,0-2.7,0-2.7s0-1.4,1.5-2.7v6.8l0,0c0,2.7,0-2.7,0-8.2c0-1.4,0-2.7,0-4.1c1.5,11,1.5-4.1,1.5,8.2
							c0-5.5,1.5-4.1,1.5-16.4c0,1.4,0,2.7,0,2.7c1.5,0,1.5,1.4,1.5-1.4v8.2v-11c1.5,5.5,1.5,8.2,1.5,15.1c1.5-9.6,1.5-4.1,1.5-13.7
							v5.5c0,0,1.5-6.8,1.5-2.7c1.5,9.6,4.6,1.4,7.7,11c0-17.8,3.1,5.5,3.1-6.8c0,4.1,0,5.5,0,9.6c1.5-4.1,3.1,5.5,3.1-4.1
							c0,4.1,0,5.5,0,8.2c0-1.4,0-2.7,0-1.4c0,2.7,0,2.7,0,5.5c1.5,0,1.5-12.3,0-23.3c1.5,5.5,1.5,4.1,1.5-2.7c0,4.1,1.5,6.8,0,8.2
							c0,0,3.1,5.5,3.1-4.1c0,2.7,0,0,1.5,0s1.5,1.4,1.5,0v-1.4c0-11,1.5-2.7,1.5-4.1v1.4c3.1,6.8,1.5-4.1,3.1,4.1v-6.8
							c0-13.7,1.5,8.2,3.1,2.7v-4.1c0-5.5,3.1,19.2,3.1,20.5s0,1.4,0,2.7c1.5,8.2,0-8.2,1.5-11c0,4.1,0,12.3,1.5,12.3
							c0,4.1,1.5-15.1,3.1-6.8c0-4.1-1.5-6.8,0-9.6c1.5-1.4,3.1,13.7,3.1,2.7c0,1.4,0,1.4,0,2.7c0-2.7,1.5-5.5,1.5-11
							c1.5,23.3,3.1-11,4.6,9.6l0,1.4v2.7c1.5,1.4,1.5-4.1,1.5-8.2c0,1.4,0,2.7,0,4.1c1.5,4.1,1.5,2.7,3.1-6.8v6.8
							c0-4.1,3.1,11,4.6,2.7c0,1.4,0,2.7,0,2.7c1.5-8.2,6.1,19.2,6.1-5.5l1.5-5.5c-1.5-1.4,0-11-1.5-15.1c0-1.4,1.5,6.8,1.5,8.2
							v-1.4c0,12.3,3.1,4.1,3.1,13.7c3.1-1.4,7.7,6.8,10.7,6.8l-1.5-9.6h1.5c0,2.7,0,8.2,0,6.8c0,5.5,1.5-5.5,1.5-6.8
							c1.5,4.1,0,12.3,0,12.3V89v-1.4c0-4.1,0-8.2,1.5-8.2c0,1.4,0,6.8,1.5,6.8c0,1.4,0,1.4,0,0l1.5,1.4l-1.5-8.2c0-4.1,1.5,0,0-8.2
							c1.5,13.7,6.1,4.1,6.1,9.6c0-5.5,1.5-5.5,3.1-5.5c0-1.4-1.5-11,0-9.6c0,17.8,1.5,8.2,3.1,20.5c-1.5-8.2,3.1-2.7,1.5-15.1
							c1.5,1.4,0,6.8,1.5,11c1.5-6.8,4.6,4.1,6.1,1.4c0-2.7,0-5.5,0-9.6l1.5,12.3c0-1.4,0-13.7,1.5-5.5c0-1.4,0-5.5,0-5.5
							c4.6,11,9.2-9.6,13.8,12.3c-1.5-4.1,0-5.5,0-5.5c0-1.4,0-5.5,0-9.6l1.5,9.6c0-9.6,1.5,0,1.5-9.6V74c0-9.6-1.5-23.3-3.1-35.6
							c0,12.3-3.1-16.4-4.6,0c0-2.7,0-4.1,0-6.8c0,5.5,0,6.8-1.5,4.1v-1.4c-1.5,1.4-3.1-4.1-6.1-8.2v6.8c0-1.4-1.5-2.7-1.5-4.1
							c0,9.6,1.5,0,1.5,11c-1.5-13.7-4.6,0-4.6-15.1c-1.5,0,0,6.8,0,6.8v-4.1v5.5c0-1.4-1.5-5.5-1.5-9.6v-1.4
							c-1.5-4.1-1.5,1.4-3.1,0l3.1,1.4c-1.5,4.1-4.6-1.4-7.7,6.8v2.7c-1.5,5.5-1.5-2.7-3.1,0v-1.4c0,2.7,0,4.1-1.5,4.1
							c0-4.1-1.5-6.8,0-11c-1.5,5.5,0,5.5-1.5,16.4v-5.5c-1.5,5.5-1.5,8.2-1.5,9.6c0-4.1-1.5-8.2,0-13.7c-3.1-11-3.1,11-4.6-5.5
							c0,13.7,1.5,8.2,1.5,11c0,4.1,0,11-1.5,9.6c0,0-1.5-17.8-3.1-17.8v-1.4c0-4.1-1.5,5.5-1.5-1.4c0,8.2-1.5,0,0,11l1.5-2.7
							c0,2.7-1.5,15.1-3.1,9.6c0-2.7,0-5.5,0-6.8c0-2.7,0,2.7-1.5-1.4c0-11,1.5-2.7,1.5-11c0-4.1-1.5,8.2-1.5-4.1
							c0,15.1-1.5-1.4-1.5,9.6v-6.8c0,1.4,0,4.1,0,4.1v-8.2c0,6.8-1.5-6.8-3.1-2.7c1.5,0,0,8.2,1.5,12.3c-1.5,8.2-1.5-16.4-4.6-13.7
							c0-1.4,1.5,4.1,1.5,6.8c0-1.4-1.5-4.1-1.5-6.8c-1.5,1.4,0,6.8,0,11c-1.5-8.2,0,2.7-1.5,5.5v-6.8c-1.5-4.1,0,13.7-1.5,8.2v-9.6
							l-1.5,2.7v-6.8c0,5.5-1.5,4.1-1.5,2.7c0,4.1,0,12.3,0,12.3c0-4.1,0-6.8-1.5-5.5c0-4.1,0-9.6,1.5-2.7c0-2.7,0-4.1,0-6.8
							c-1.5-4.1-1.5-1.4-1.5-1.4s0,0,0,1.4l-1.5,9.6c0-2.7,0-4.1,0-6.8c0,1.4,0,4.1-1.5,4.1c0-5.5,0-11,0-13.7l-1.5,5.5
							c0-2.7-1.5-6.8-1.5-8.2c-1.5-2.7-1.5,11-3.1,6.8c0,1.4,0,1.4,0,2.7c-1.5-1.4-3.1-8.2-3.1,0l-1.5-9.6c-1.5,2.7,1.5,12.3,0,16.4
							c-1.5,2.7-1.5-8.2-1.5-11C156.3,21.9,156.3,31.5,156.3,23.3C154.7,21.9,154.7,23.3,156.3,23.3z M142.5,27.4
							c0-1.4,0-5.5,1.5-1.4C144,32.9,144,30.1,142.5,27.4z M124.1,43.8c0-2.7,0-1.4,1.5,1.4C125.6,46.6,124.1,45.2,124.1,43.8z
							 M72,91.8L72,91.8C73.5,94.5,72,93.1,72,91.8z M70.5,89c0,1.4,0,1.4,0,2.7c0-1.4,0-1.4,0-1.4C72,89,72,87.7,70.5,89z
							 M194.6,82.2v-1.4C194.6,78.1,194.6,80.8,194.6,82.2z"/>
						<path class="st3" d="M125.6,35.6c0,1.4,0,2.7,0,4.1C127.2,37,127.2,35.6,125.6,35.6z"/>
						<path class="st3" d="M163.9,19.2L163.9,19.2C163.9,19.2,163.9,17.8,163.9,19.2L163.9,19.2z"/>
						<path class="st3" d="M85.8,32.9c0,1.4,0,2.7,0,2.7C87.3,34.2,87.3,32.9,85.8,32.9z"/>
						<path class="st3" d="M65.9,100v-1.4c0,0,0-1.4,0-2.7C65.9,98.6,65.9,100,65.9,100z"/>
						<path class="st3" d="M56.7,60.3L56.7,60.3v4.1C58.2,64.4,58.2,61.6,56.7,60.3z"/>
						<path class="st3" d="M64.3,78.1c0-5.5,0-4.1-1.5-2.7l0,0C62.8,83.6,62.8,80.8,64.3,78.1z"/>
						<path class="st3" d="M62.8,76.7L62.8,76.7C62.8,79.5,62.8,76.7,62.8,76.7z"/>
						<path class="st3" d="M68.9,93.1c0-1.4,0,6.8,0,5.5C68.9,105.5,70.5,89,68.9,93.1z"/>
						<polygon class="st3" points="62.8,60.3 62.8,67.1 62.8,61.6 						"/>
						<path class="st3" d="M67.4,65.8L65.9,63C65.9,64.4,65.9,65.8,67.4,65.8C65.9,65.8,67.4,67.1,67.4,65.8z"/>
						<path class="st3" d="M65.9,65.8L65.9,65.8C65.9,67.1,65.9,67.1,65.9,65.8z"/>
						<polygon class="st3" points="64.3,58.9 64.3,60.3 64.3,60.3 						"/>
						<path class="st3" d="M75.1,65.8l1.5-1.4c0-2.7,0-4.1,0-2.7C75.1,63,75.1,64.4,75.1,65.8z"/>
						<path class="st3" d="M72,47.9c0,1.4,0,2.7,0,5.5v-8.2V47.9z"/>
						<path class="st3" d="M75.1,45.2c0-2.7,1.5-6.8,0-6.8C75.1,41.1,73.5,43.8,75.1,45.2z"/>
						<polygon class="st3" points="88.9,56.2 88.9,56.2 88.9,69.9 						"/>
						<path class="st3" d="M99.6,21.9c-1.5-2.7,0,8.2-1.5,4.1c0,2.7,1.5,2.7,1.5,6.8C99.6,28.8,99.6,31.5,99.6,21.9z"/>
						<path class="st3" d="M99.6,32.9c0,0,0,1.4,0,2.7C99.6,34.2,99.6,32.9,99.6,32.9z"/>
						<polygon class="st3" points="235.9,87.7 237.5,90.4 235.9,86.3 						"/>
						<path class="st3" d="M237.5,78.1v8.2V78.1C237.5,79.5,237.5,79.5,237.5,78.1z"/>
						<path class="st3" d="M140.9,9.6v2.7c0,2.7,0,2.7,0,2.7V9.6z"/>
						<polygon class="st3" points="150.1,16.4 150.1,16.4 150.1,24.7 						"/>
						<path class="st3" d="M157.8,5.5C157.8,5.5,156.3,6.8,157.8,5.5C157.8,5.5,157.8,15.1,157.8,5.5z"/>
					</g>
				</g>
			</g>
		</g>
	</g>
	<g class="st2">
		<g>
			<g>
				<g>
					<g>
						<path class="st3" d="M101.1,28.8l1.5-5.5C101.1,23.3,101.1,30.1,101.1,28.8z"/>
						<polygon class="st3" points="96.5,41.1 96.5,38.4 95,43.8 						"/>
						<path class="st3" d="M93.5,41.1c-1.5,9.6,1.5-1.4,1.5,1.4v2.7l1.5-8.2C95,38.4,93.5,43.8,93.5,41.1z"/>
						<path class="st3" d="M96.5,19.2C96.5,23.3,95,23.3,96.5,19.2C96.5,20.5,96.5,20.5,96.5,19.2L96.5,19.2z"/>
						<path class="st3" d="M96.5,19.2C96.5,19.2,96.5,16.4,96.5,19.2L96.5,19.2z"/>
						<path class="st3" d="M95,21.9l1.5-2.7c0-2.7,0-2.7,0-4.1C96.5,16.4,95,17.8,95,21.9z"/>
						<path class="st3" d="M93.5,28.8v-1.4C93.5,26,93.5,26,93.5,28.8z"/>
						<path class="st3" d="M95,24.7l-1.5,2.7c0,1.4-1.5,4.1,0-1.4C93.5,28.8,95,26,95,24.7z"/>
						<path class="st3" d="M95,26c0,2.7,0,4.1-1.5,6.8C95,31.5,95,24.7,95,26z"/>
						<path class="st3" d="M91.9,50.7v2.7V50.7C91.9,52.1,91.9,47.9,91.9,50.7z"/>
						<path class="st3" d="M93.5,16.4c0,2.7-1.5,5.5-1.5,8.2v-2.7C93.5,20.5,93.5,19.2,93.5,16.4z"/>
						<path class="st3" d="M93.5,24.7l-1.5,2.7C91.9,28.8,91.9,27.4,93.5,24.7z"/>
						<path class="st3" d="M91.9,39.7l1.5-8.2L91.9,39.7z"/>
						<polygon class="st3" points="93.5,16.4 93.5,11 91.9,17.8 						"/>
						<path class="st3" d="M91.9,16.4c0-4.1,1.5-6.8,1.5-9.6c0,0-1.5,4.1-1.5,6.8C91.9,12.3,91.9,13.7,91.9,16.4z"/>
						<path class="st3" d="M90.4,19.2c0-1.4,0-2.7,1.5-4.1C91.9,15.1,90.4,16.4,90.4,19.2z"/>
						<path class="st3" d="M91.9,27.4c0-1.4,0-5.5,0-6.8V27.4L91.9,27.4z"/>
						<path class="st3" d="M91.9,27.4L91.9,27.4C90.4,26,90.4,26,91.9,27.4C90.4,26,90.4,26,91.9,27.4z"/>
						<path class="st3" d="M91.9,27.4L91.9,27.4L91.9,27.4z"/>
						<path class="st3" d="M91.9,34.2c-1.5,2.7-1.5,6.8-3.1,11C90.4,41.1,90.4,38.4,91.9,34.2z"/>
						<path class="st3" d="M90.4,34.2v1.4c0-1.4,0-4.1,1.5-5.5L90.4,34.2z"/>
						<polygon class="st3" points="90.4,35.6 90.4,34.2 90.4,34.2 						"/>
						<path class="st3" d="M90.4,24.7c-1.5,2.7-1.5,2.7-1.5,2.7c0,1.4,0,1.4,0,1.4C88.9,27.4,90.4,24.7,90.4,24.7z"/>
						<path class="st3" d="M90.4,26L90.4,26C90.4,27.4,90.4,27.4,90.4,26z"/>
						<path class="st3" d="M87.3,27.4L87.3,27.4L87.3,27.4L87.3,27.4z"/>
						<path class="st3" d="M88.9,30.1c0,1.4,0,0,0-1.4C88.9,28.8,88.9,28.8,88.9,30.1L88.9,30.1z"/>
						<path class="st3" d="M88.9,21.9c0,1.4,0,2.7,0,2.7C88.9,23.3,88.9,20.5,88.9,21.9z"/>
						<path class="st3" d="M90.4,24.7L90.4,24.7C90.4,23.3,90.4,24.7,90.4,24.7z"/>
						<path class="st3" d="M90.4,24.7c0,1.4,0,2.7-1.5,4.1v-1.4C90.4,26,90.4,26,90.4,24.7z"/>
						<path class="st3" d="M79.7,64.4c1.5-5.5,1.5-9.6,1.5-4.1c1.5-4.1,4.6-21.9,4.6-31.5c0,2.7-1.5,4.1-1.5,8.2
							c0,2.7,0,6.8-1.5,12.3c-1.5,2.7,0-1.4,0-5.5c0,5.5-1.5,8.2-3.1,19.2l1.5-2.7C81.2,60.3,79.7,63,79.7,64.4z"/>
						<path class="st3" d="M87.3,28.8L87.3,28.8c0-1.4,0-4.1,1.5-8.2c0,2.7-1.5,4.1-1.5,6.8V28.8L87.3,28.8z"/>
						<path class="st3" d="M88.9,28.8c-1.5,5.5-3.1,8.2-3.1,13.7c0,0,1.5-5.5,1.5-6.8C85.8,37,88.9,32.9,88.9,28.8
							C88.9,27.4,88.9,27.4,88.9,28.8c0-1.4,0-2.7,0-4.1l0,0l0,0l0,0c0,1.4,0,1.4,0,1.4l0,0C88.9,27.4,88.9,27.4,88.9,28.8
							c0-1.4,0-1.4,0-2.7v-1.4l0,0V28.8C87.3,28.8,87.3,28.8,88.9,28.8z"/>
						<path class="st3" d="M87.3,57.5L87.3,57.5C87.3,57.5,85.8,57.5,87.3,57.5z"/>
						<path class="st3" d="M87.3,54.8c0-1.4,0-2.7,0-2.7c0,1.4,0,2.7-1.5,4.1c0-1.4,1.5-4.1,1.5-6.8v1.4c0-1.4,1.5-9.6,1.5-9.6
							C88.9,45.2,87.3,49.3,87.3,54.8z"/>
						<path class="st3" d="M87.3,42.5l-1.5,2.7v5.5v-2.7C85.8,49.3,87.3,45.2,87.3,42.5z"/>
						<polygon class="st3" points="87.3,24.7 88.9,17.8 87.3,27.4 						"/>
						<polygon class="st3" points="85.8,24.7 87.3,19.2 87.3,23.3 						"/>
						<path class="st3" d="M36.8,87.7V89C35.2,89,36.8,87.7,36.8,87.7z"/>
						<path class="st3" d="M36.8,87.7v-2.7C36.8,86.3,36.8,87.7,36.8,87.7z"/>
						<path class="st3" d="M67.4,23.3c0-5.5,1.5-12.3,0-6.8V23.3C67.4,21.9,67.4,21.9,67.4,23.3z"/>
						<path class="st3" d="M50.6,57.5v1.4c0-1.4,0-4.1,1.5-5.5C50.6,54.8,50.6,56.2,50.6,57.5z"/>
						<path class="st3" d="M47.5,82.2v-4.1C47.5,79.5,47.5,80.8,47.5,82.2z"/>
						<path class="st3" d="M29.1,93.1v5.5C29.1,98.6,29.1,95.9,29.1,93.1z"/>
						<path class="st3" d="M78.1,26c0-2.7,0-2.7,0-4.1C78.1,26,76.6,31.5,78.1,26z"/>
						<path class="st3" d="M42.9,24.7c0,1.4,0,2.7,0,4.1C42.9,27.4,42.9,26,42.9,24.7z"/>
						<path class="st3" d="M78.1,21.9v1.4V21.9C78.1,20.5,78.1,17.8,78.1,21.9z"/>
						<path class="st3" d="M7.7,87.7C7.7,86.3,7.7,86.3,7.7,87.7L7.7,87.7z"/>
						<path class="st3" d="M3.1,27.4L3.1,27.4C3.1,26,3.1,26,3.1,27.4z"/>
						<path class="st3" d="M84.3,21.9L84.3,21.9L84.3,21.9z"/>
						<path class="st3" d="M81.2,45.2c0,0,0,1.4,0,2.7C79.7,46.6,81.2,45.2,81.2,45.2z"/>
						<path class="st3" d="M70.5,58.9L70.5,58.9C70.5,60.3,70.5,60.3,70.5,58.9z"/>
						<path class="st3" d="M84.3,24.7c0-1.4,0-1.4,0-1.4C84.3,23.3,84.3,23.3,84.3,24.7z"/>
						<path class="st3" d="M84.3,21.9L84.3,21.9C84.3,21.9,84.3,20.5,84.3,21.9z"/>
						<path class="st3" d="M82.7,21.9C84.3,21.9,84.3,21.9,82.7,21.9C84.3,21.9,84.3,21.9,82.7,21.9C84.3,21.9,84.3,21.9,82.7,21.9z
							"/>
						<path class="st3" d="M19.9,71.2L19.9,71.2C19.9,74,19.9,74,19.9,71.2z"/>
						<path class="st3" d="M55.2,83.6L55.2,83.6L55.2,83.6L55.2,83.6z"/>
						<path class="st3" d="M53.6,89c1.5-8.2,1.5-6.8,1.5-5.5l1.5-16.4L53.6,89z"/>
						<path class="st3" d="M33.7,89v5.5c-1.5,8.2-1.5,5.5-1.5,13.7c1.5-19.2,1.5-1.4,3.1-20.5v4.1v1.4c0,9.6,1.5-13.7,1.5-11
							c0,1.4,0,4.1,0,6.8v-6.8c0,0,0,4.1,0,2.7l1.5-1.4l0,0c0-2.7,1.5-6.8,1.5-9.6c0,2.7,0,1.4,0,4.1l1.5-4.1c0,5.5-1.5,9.6-1.5,8.2
							c-1.5,19.2,1.5-4.1,0,6.8v2.7c-1.5,11,0,6.8,0,13.7c0-4.1,1.5-16.4,1.5-20.5c0,1.4,0,2.7,0-1.4c0,6.8,0,5.5,0,4.1l-3.1,9.6
							c0-2.7,1.5-6.8,1.5-11c0,1.4,0,8.2-1.5,13.7c0,1.4,0-11,1.5-12.3c0,2.7,1.5,0,1.5-5.5c0,2.7,0,5.5-1.5,8.2l3.1-8.2v2.7
							c0-2.7,1.5-8.2,1.5-11c1.5-9.6,0,13.7,1.5,2.7c0,2.7,0,5.5-1.5,8.2c1.5-5.5,1.5-2.7,3.1-12.3v5.5c0-6.8,1.5-13.7,3.1-20.5
							c0-2.7,0-5.5,0-6.8l1.5-4.1c0,1.4,0,4.1-1.5,8.2c0-1.4,0-1.4,0-2.7c0,2.7-1.5,8.2-1.5,13.7c0-1.4,0-4.1,0-5.5
							c0,5.5-1.5,11-1.5,16.4c0-1.4,0-1.4,0-2.7c0,1.4,0,2.7,0,4.1s0-1.4,0-2.7l0,8.2v-4.1v5.5c1.5-9.6,4.6-24.7,4.6-27.4
							c0,6.8,0,11-1.5,19.2c1.5-8.2-1.5,4.1-1.5,2.7c0,1.4,0,5.5,0,6.8l1.5-8.2c-1.5,6.8,0,5.5,0,8.2c1.5-13.7,1.5-9.6,3.1-13.7
							c0,4.1-1.5,9.6-1.5,8.2c-1.5,9.6,1.5-16.4,1.5-6.8c0,0,0,0,0,1.4c0-4.1,1.5-1.4,0,2.7l0,0c0,1.4,1.5,0,3.1-11
							c0,1.4-1.5,13.7-1.5,16.4l6.1-38.4c-1.5,9.6-4.6,32.9-6.1,38.4c0,1.4,0,2.7,0,0c0-1.4,1.5-15.1,3.1-15.1
							c-1.5,11,0,5.5-1.5,15.1c0-2.7,3.1-17.8,3.1-17.8c-1.5,2.7-3.1,16.4-3.1,17.8l3.1-15.1c0,2.7-1.5,12.3-1.5,17.8
							c0-2.7,0,0,1.5-1.4v-4.1c0,2.7,3.1-21.9,4.6-20.5c-3.1,2.7-4.6,19.2-4.6,21.9c1.5-8.2,6.1-38.4,7.7-43.8v4.1l1.5-5.5
							c-3.1,12.3-7.7,37-9.2,46.6c0,4.1,0,5.5,0,5.5c0,4.1-1.5,6.8-1.5,6.8v2.7c1.5-9.6,3.1-9.6,3.1-17.8l-1.5,9.6
							c1.5-9.6,4.6-26,4.6-24.7c0,4.1-3.1,16.4-3.1,19.2c0-2.7,1.5-5.5,1.5-2.7l-1.5,4.1c0,4.1,3.1-12.3,1.5-2.7c0,0-1.5,12.3,0,6.8
							c1.5-11,6.1-42.5,7.7-50.7c0,1.4,0,9.6-1.5,15.1c-1.5,8.2-3.1,19.2-4.6,26c0-2.7,1.5-5.5,1.5-6.8c0,2.7-1.5,8.2,0,6.8
							c1.5-9.6,0,1.4,1.5-8.2c0-2.7,0,1.4,0,1.4c0-5.5,3.1-19.2,3.1-21.9c0,2.7,0,5.5-1.5,6.8c0,1.4,0,5.5,1.5,5.5
							c0,2.7,0,5.5-1.5,9.6c1.5-2.7,1.5-5.5,3.1-5.5c-1.5,8.2,0,1.4-1.5,11c0-5.5,0-8.2,1.5-11c1.5-8.2,0-1.4-1.5,1.4
							c1.5-11,4.6-23.3,6.1-28.8c1.5-2.7-1.5,6.8,0,5.5c0,2.7,3.1-19.2,3.1-11c-1.5,6.8-3.1,15.1-3.1,20.5c-1.5,2.7,0-5.5,0-5.5v4.1
							c0,2.7-1.5,4.1-1.5,2.7c-1.5,5.5,1.5,0,1.5,6.8c0-2.7,1.5-5.5,1.5-8.2v1.4c0-5.5,1.5-8.2,1.5-11c1.5-4.1,3.1-11,3.1-6.8
							l-1.5,8.2c0-2.7,0-5.5,0-2.7c1.5-4.1-1.5,11,1.5,0v-5.5c0-4.1,3.1-12.3,3.1-9.6c1.5-8.2,0,1.4,1.5-8.2
							c-1.5,12.3-1.5,0-3.1,12.3c1.5-11,0-4.1,1.5-13.7c0,2.7,0,5.5-1.5,4.1c0,1.4,0,1.4,0,2.7l0,0l0,0l0,0c0,1.4,0,2.7,0,4.1
							c-3.1,4.1-3.1,4.1-3.1,6.8c0-1.4,0-2.7,1.5-5.5L79.7,37c1.5-5.5,1.5-9.6,1.5-13.7l0,0c0-4.1,0-5.5,0-2.7c0-1.4-1.5,6.8,0,1.4
							L79.7,26v-1.4c0-1.4-3.1,9.6-1.5-1.4c-1.5,1.4-1.5,4.1-1.5,2.7v-5.5c0,1.4,0-5.5-1.5,0c1.5-13.7-1.5-2.7-1.5-5.5v5.5
							c0,0-1.5,1.4-1.5,4.1l-1.5,6.8c-1.5,5.5,0-4.1-1.5-4.1c0-2.7,0-1.4,0,0c1.5-13.7-3.1,9.6-3.1,0c0,2.7,0,1.4,0,0l0,0l0,0
							c0-1.4,0-2.7,0-2.7c0,1.4,0,2.7,0,2.7s0,1.4-1.5,2.7l1.5-6.8l0,0c0-2.7,0,2.7-1.5,8.2c0,1.4,0,2.7-1.5,4.1
							c1.5-11-1.5,4.1,0-8.2c1.5,4.1,1.5,2.7-1.5,15.1c0-1.4,0-2.7,0-2.7c0-1.4,0-2.7,0,0l1.5-8.2l-1.5,12.3c0-5.5,0-8.2,1.5-15.1
							c-3.1,9.6-1.5,4.1-3.1,13.7V37c0,0-1.5,6.8-1.5,2.7c1.5-11-1.5-1.4-3.1-11c-1.5,16.4,0-6.8-1.5,5.5c0-4.1,0-5.5,1.5-9.6
							c0,2.7,1.5-6.8,0,4.1c0-4.1,0-5.5,1.5-8.2c0,1.4,0,2.7,0,1.4c0-2.7,0-2.7,0-4.1c0,0-1.5,12.3-3.1,23.3c0-5.5,0-4.1-1.5,2.7
							c0-4.1,0-6.8,1.5-8.2c0,0-1.5-5.5-1.5,2.7c0-2.7,0,0,0,0s0-1.4-1.5,0v1.4c-3.1,9.6-1.5,1.4-3.1,2.7v-1.4
							c0-8.2-1.5,4.1-1.5-5.5v6.8c0,13.7,1.5-8.2,0-2.7v4.1c-1.5,4.1,1.5-19.2,0-21.9c0-1.4,0-1.4,0-2.7c1.5-8.2,0,9.6,0,11
							c0-4.1,0-12.3,0-12.3c0-4.1-1.5,15.1-1.5,5.5c0,4.1,0,6.8-1.5,9.6c0,1.4,0-13.7-1.5-2.7c0-1.4,0-1.4,0-2.7
							c0,2.7-1.5,4.1-1.5,11c1.5-23.3-3.1,11-1.5-9.6l0,1.4v-2.7c0-1.4-1.5,4.1-1.5,8.2c0-1.4,0-2.7,0-4.1c0-4.1,0-2.7-3.1,6.8v-6.8
							c0,4.1,0-11-1.5-2.7c0-1.4,0-2.7,0-2.7c0,8.2,0-19.2-3.1,5.5v6.8c0,1.4-1.5,11-1.5,15.1c0,1.4,0-6.8,0-8.2v1.4
							c1.5-12.3,0-4.1,0-13.7C26,32.9,24.5,26,23,26v9.6l0,0c0-2.7,0-8.2,0-6.8c0-5.5-1.5,4.1-1.5,6.8c0-4.1,1.5-12.3,1.5-12.3v1.4
							V26c0,4.1-1.5,8.2-1.5,8.2c0-1.4,0-6.8,0-6.8c0-1.4,0-1.4,0,0V26v8.2c0,4.1,0,0-1.5,8.2c0-13.7-1.5-5.5-3.1-9.6
							c0,5.5-1.5,5.5-1.5,5.5c0,1.4,0,11,0,9.6c1.5-20.5,0-11,0-24.7c0,8.2-1.5,2.7-1.5,15.1c0-1.4,0-6.8,0-11
							c-1.5,6.8-1.5-5.5-3.1-2.7c0,2.7,0,5.5,0,9.6V21.9c0,1.4,0,13.7-1.5,5.5c0,1.4,0,5.5,0,5.5c-1.5-11-4.6,11-6.1-11
							c0,4.1,0,5.5,0,5.5c0,1.4,0,5.5,0,9.6v-9.6c-1.5,8.2-3.1,0-3.1,8.2v-1.4c0,9.6,0,23.3,0,35.6c0-11,0,17.8,1.5,0
							c0,2.7,0,4.1,0,6.8c0-5.5,0-6.8,1.5-4.1V74c1.5-1.4,1.5,4.1,3.1,8.2v-6.8c0,1.4,0,2.7,0,4.1c0-9.6,0,0,0-11
							c0,13.7,1.5,0,1.5,15.1v-6.8v4.1v-5.5c0,1.4,0,5.5,0,9.6v1.4c0,4.1,1.5-1.4,1.5,0v-2.7c1.5-4.1,1.5,1.4,3.1-6.8V74
							c1.5-5.5,0,2.7,1.5,1.4v1.4c0-2.7,0-4.1,1.5-4.1c0,4.1,0,6.8,0,11c0-6.8-1.5-5.5,0-16.4v5.5c0-4.1,0-6.8,1.5-8.2
							c0,4.1,0,8.2-1.5,13.7c0,11,1.5-12.3,1.5,4.1c1.5-13.7,0-8.2,0-11c0-4.1,1.5-11,1.5-9.6v17.8v1.4c0,4.1,1.5-5.5,1.5,1.4
							c0-8.2,0,0,1.5-11L19.9,74c0-2.7,1.5-15.1,1.5-9.6c0,2.7,0,5.5-1.5,6.8c0,2.7,0-2.7,0,1.4c0,11-1.5,2.7-1.5,11
							c0,4.1,1.5-8.2,0,4.1c1.5-15.1,0,1.4,1.5-9.6v6.8c0-1.4,0-4.1,0-4.1V89c1.5-6.8,1.5,6.8,1.5,2.7c-1.5,0,0-8.2,0-12.3
							c1.5-8.2,0,16.4,0,13.7c0,1.4,0-4.1,0-6.8c0,1.4,0,4.1,0,6.8c1.5-1.4,0-6.8,1.5-11c0,8.2,0-2.7,1.5-5.5v6.8
							c0,4.1,1.5-13.7,1.5-8.2l-1.5,8.2v-2.7v6.8c1.5-5.5,1.5-4.1,1.5-1.4c0-4.1,1.5-12.3,1.5-12.3c0,4.1,0,6.8,0,5.5
							c0,4.1-1.5,9.6,0,2.7c0,2.7,0,4.1,0,6.8c0,4.1,0,1.4,1.5,1.4c0,0,0,0,0-1.4l1.5-9.6c0,2.7,0,4.1,0,6.8c0-1.4,0-4.1,1.5-4.1
							c0,5.5-1.5,11-1.5,13.7l1.5-5.5c0,2.7,0,6.8,0,8.2c0,2.7,1.5-11,1.5-5.5c0-1.4,0-1.4,0-2.7c0,1.4,0,8.2,1.5,0v9.6
							c0-2.7,0-12.3,1.5-15.1c1.5-2.7,0,8.2,0,11C32.2,90.4,33.7,79.5,33.7,89C33.7,89,33.7,87.7,33.7,89z M39.8,84.9
							c0,1.4-1.5,5.5,0,1.4C39.8,79.5,39.8,82.2,39.8,84.9z M49,69.9c0,2.7,0,1.4,0-1.4C49,68.5,49,68.5,49,69.9z M81.2,27.4
							L81.2,27.4C81.2,24.7,81.2,26,81.2,27.4z M81.2,30.1v-2.7c0,1.4,0,1.4,0,1.4C81.2,30.1,81.2,31.5,81.2,30.1z M21.4,27.4v1.4
							C21.4,31.5,21.4,28.8,21.4,27.4z"/>
						<path class="st3" d="M47.5,79.5c0-1.4,0-2.7,0-4.1C47.5,76.7,47.5,78.1,47.5,79.5z"/>
						<polygon class="st3" points="29.1,91.8 29.1,91.8 29.1,93.1 						"/>
						<path class="st3" d="M64.3,84.9c0-1.4,0-2.7,0-2.7S64.3,83.6,64.3,84.9z"/>
						<path class="st3" d="M85.8,19.2v1.4c0,0,0,1.4,0,2.7C85.8,21.9,85.8,19.2,85.8,19.2z"/>
						<path class="st3" d="M82.7,60.3C82.7,58.9,82.7,60.3,82.7,60.3l1.5-4.1C82.7,56.2,82.7,58.9,82.7,60.3z"/>
						<path class="st3" d="M82.7,41.1c-1.5,5.5,0,4.1,0,2.7l0,0C84.3,35.6,82.7,38.4,82.7,41.1z"/>
						<path class="st3" d="M82.7,43.8C82.7,43.8,82.7,42.5,82.7,43.8C84.3,39.7,82.7,42.5,82.7,43.8z"/>
						<path class="st3" d="M82.7,26c0,1.4,1.5-6.8,1.5-4.1C84.3,15.1,81.2,30.1,82.7,26z"/>
						<polygon class="st3" points="79.7,58.9 81.2,52.1 79.7,57.5 						"/>
						<path class="st3" d="M78.1,53.4v1.4C79.7,54.8,79.7,53.4,78.1,53.4C79.7,53.4,79.7,52.1,78.1,53.4z"/>
						<path class="st3" d="M79.7,53.4L79.7,53.4C79.7,52.1,79.7,52.1,79.7,53.4z"/>
						<polygon class="st3" points="78.1,61.6 79.7,60.3 78.1,58.9 						"/>
						<path class="st3" d="M75.1,52.1v1.4c0,2.7,0,4.1,0,2.7C73.5,54.8,75.1,54.8,75.1,52.1z"/>
						<path class="st3" d="M73.5,71.2c0-1.4,0-2.7,0-5.5L72,74L73.5,71.2z"/>
						<path class="st3" d="M72,72.6c0,2.7-1.5,6.8-1.5,6.8C70.5,76.7,72,74,72,72.6z"/>
						<polygon class="st3" points="67.4,61.6 67.4,61.6 68.9,47.9 						"/>
						<path class="st3" d="M56.7,93.1c0,2.7,1.5-8.2,1.5-4.1c0-2.7,0-2.7,0-6.8C58.2,86.3,58.2,84.9,56.7,93.1z"/>
						<path class="st3" d="M58.2,83.6c0,0,0-1.4,0-2.7C59.8,82.2,59.8,82.2,58.2,83.6z"/>
						<polygon class="st3" points="1.5,19.2 1.5,16.4 1.5,21.9 						"/>
						<path class="st3" d="M0,30.1v-8.2V30.1C0,28.8,0,27.4,0,30.1z"/>
						<path class="st3" d="M38.3,102.7V100c0-2.7,0-2.7,0-2.7V102.7z"/>
						<polygon class="st3" points="35.2,95.9 35.2,95.9 35.2,87.7 						"/>
						<path class="st3" d="M30.6,105.5C30.6,106.8,30.6,104.1,30.6,105.5C30.6,106.8,32.2,95.9,30.6,105.5z"/>
					</g>
				</g>
			</g>
		</g>
	</g>
	<g>
		<g>
			<g>
				<g>
					<g>
						<path class="st1" d="M4.6,94.5c0,0,0,5.5,0,6.8C6.1,100,6.1,95.9,4.6,94.5z"/>
						<polygon class="st1" points="4.6,80.8 4.6,83.6 4.6,78.1 						"/>
						<path class="st1" d="M4.6,80.8c-1.5-9.6,0,1.4,0-1.4v-2.7v8.2C4.6,83.6,4.6,78.1,4.6,80.8z"/>
						<path class="st1" d="M6.1,102.7C6.1,98.6,6.1,98.6,6.1,102.7C6.1,101.4,6.1,101.4,6.1,102.7L6.1,102.7z"/>
						<path class="st1" d="M6.1,102.7C6.1,102.7,7.7,105.5,6.1,102.7L6.1,102.7z"/>
						<path class="st1" d="M6.1,100v2.7c0,2.7,0,2.7,0,4.1C7.7,105.5,7.7,104.1,6.1,100z"/>
						<path class="st1" d="M6.1,93.1v1.4C6.1,95.9,6.1,95.9,6.1,93.1z"/>
						<path class="st1" d="M6.1,97.3v-2.7c0-1.4,0-4.1,0,1.4C6.1,93.1,6.1,95.9,6.1,97.3z"/>
						<path class="st1" d="M6.1,95.9c0-2.7,0-4.1,0-6.8C6.1,90.4,6.1,97.3,6.1,95.9z"/>
						<path class="st1" d="M4.6,71.2v-2.7V71.2C4.6,69.9,4.6,74,4.6,71.2z"/>
						<path class="st1" d="M7.7,105.5c0-2.7,0-5.5,0-8.2v2.7C7.7,101.4,7.7,101.4,7.7,105.5z"/>
						<path class="st1" d="M6.1,97.3v-4.1C6.1,93.1,6.1,94.5,6.1,97.3z"/>
						<path class="st1" d="M6.1,82.2V89V82.2z"/>
						<polygon class="st1" points="7.7,105.5 7.7,109.6 7.7,102.7 						"/>
						<path class="st1" d="M7.7,104.1c0,4.1,0,6.8,0,9.6c0-1.4,0-4.1,0-6.8C7.7,108.2,7.7,108.2,7.7,104.1z"/>
						<path class="st1" d="M7.7,101.4c0,1.4,0,2.7,0,4.1C7.7,105.5,7.7,104.1,7.7,101.4z"/>
						<path class="st1" d="M6.1,94.5c0,1.4,0,4.1,0,5.5V94.5L6.1,94.5z"/>
						<path class="st1" d="M6.1,94.5L6.1,94.5L6.1,94.5L6.1,94.5z"/>
						<path class="st1" d="M6.1,94.5L6.1,94.5C6.1,93.1,6.1,93.1,6.1,94.5z"/>
						<path class="st1" d="M6.1,87.7c0-2.7,0-6.8,0-12.3C6.1,79.5,6.1,82.2,6.1,87.7z"/>
						<path class="st1" d="M6.1,87.7L6.1,87.7c0,0,0,2.7,0,4.1V87.7z"/>
						<polygon class="st1" points="6.1,84.9 6.1,87.7 6.1,87.7 						"/>
						<path class="st1" d="M7.7,95.9c0-2.7,0-2.7,0-2.7c0-1.4,0-1.4,0-1.4C7.7,93.1,7.7,95.9,7.7,95.9z"/>
						<path class="st1" d="M7.7,94.5L7.7,94.5C6.1,94.5,6.1,94.5,7.7,94.5z"/>
						<path class="st1" d="M7.7,93.1L7.7,93.1L7.7,93.1L7.7,93.1z"/>
						<path class="st1" d="M6.1,90.4c0-1.4,0,0,0,2.7C6.1,91.8,6.1,91.8,6.1,90.4L6.1,90.4z"/>
						<path class="st1" d="M7.7,98.6c0-1.4,0-2.7,0-2.7C7.7,97.3,7.7,101.4,7.7,98.6z"/>
						<path class="st1" d="M7.7,95.9L7.7,95.9C7.7,97.3,7.7,97.3,7.7,95.9z"/>
						<path class="st1" d="M7.7,95.9c0-1.4,0-2.7,0-4.1v1.4C7.7,94.5,7.7,95.9,7.7,95.9z"/>
						<path class="st1" d="M6.1,56.2c0,5.5,0,11,0,4.1c0,4.1,1.5,21.9,1.5,31.5c0-2.7,0-4.1,0-8.2c0-2.7,0-6.8,0-12.3
							c0-2.7,0,1.4,0,4.1c0-6.8,0-9.6,0-19.2v4.1C6.1,60.3,6.1,57.5,6.1,56.2z"/>
						<path class="st1" d="M7.7,91.8L7.7,91.8c0,1.4,0,4.1,0,8.2c0-2.7,0-4.1,0-6.8V91.8L7.7,91.8z"/>
						<path class="st1" d="M7.7,91.8c0-5.5,0-8.2,0-15.1c0,0,0,5.5,0,6.8C6.1,83.6,6.1,89,7.7,91.8C7.7,93.1,7.7,93.1,7.7,91.8
							c0,1.4,0,2.7,0,4.1l0,0l0,0l0,0c0-1.4,0-1.4,0-1.4l0,0C7.7,94.5,7.7,93.1,7.7,91.8c0,1.4,0,1.4,0,2.7v1.4l0,0V91.8L7.7,91.8z"
							/>
						<path class="st1" d="M4.6,63C4.6,63,4.6,64.4,4.6,63L4.6,63z"/>
						<path class="st1" d="M4.6,67.1c0,1.4,0,2.7,0,2.7c0-1.4,0-2.7,0-4.1c0,1.4,0,4.1,0,6.8v-1.4c0,1.4,0,9.6,0,9.6
							C6.1,75.3,4.6,71.2,4.6,67.1z"/>
						<path class="st1" d="M6.1,78.1v-2.7v-5.5v2.7C6.1,71.2,6.1,75.3,6.1,78.1z"/>
						<polygon class="st1" points="7.7,95.9 7.7,102.7 7.7,93.1 						"/>
						<polygon class="st1" points="7.7,95.9 7.7,101.4 7.7,97.3 						"/>
						<path class="st1" d="M21.4,28.8v-1.4C23,27.4,23,28.8,21.4,28.8z"/>
						<path class="st1" d="M21.4,28.8v2.7C21.4,30.1,21.4,28.8,21.4,28.8z"/>
						<path class="st1" d="M10.7,94.5c0,5.5,0,12.3,0,6.8V94.5C10.7,97.3,10.7,95.9,10.7,94.5z"/>
						<path class="st1" d="M15.3,60.3v-1.4c0,1.4,0,4.1,0,5.5C15.3,61.6,15.3,61.6,15.3,60.3z"/>
						<path class="st1" d="M16.9,35.6v4.1C16.9,37,16.9,37,16.9,35.6z"/>
						<path class="st1" d="M26,23.3l1.5-5.5C26,16.4,26,20.5,26,23.3z"/>
						<path class="st1" d="M9.2,93.1c0,2.7,0,2.7,0,4.1C9.2,93.1,9.2,89,9.2,93.1z"/>
						<path class="st1" d="M13.8,91.8c0-1.4,0-2.7,0-4.1C15.3,89,15.3,90.4,13.8,91.8z"/>
						<path class="st1" d="M9.2,97.3v-1.4V97.3C9.2,100,9.2,101.4,9.2,97.3z"/>
						<path class="st1" d="M35.2,28.8C35.2,30.1,35.2,30.1,35.2,28.8L35.2,28.8z"/>
						<path class="st1" d="M21.4,87.7C21.4,89,21.4,89,21.4,87.7C21.4,89,21.4,89,21.4,87.7z"/>
						<path class="st1" d="M7.7,98.6L7.7,98.6L7.7,98.6z"/>
						<path class="st1" d="M7.7,74c0,0,0-1.4,0-2.7C7.7,72.6,7.7,74,7.7,74z"/>
						<path class="st1" d="M9.2,60.3L9.2,60.3C9.2,58.9,9.2,58.9,9.2,60.3z"/>
						<path class="st1" d="M7.7,95.9c0,1.4,0,1.4,0,1.4V95.9z"/>
						<path class="st1" d="M7.7,98.6C7.7,98.6,7.7,97.3,7.7,98.6L7.7,98.6z"/>
						<path class="st1" d="M7.7,97.3L7.7,97.3L7.7,97.3L7.7,97.3z"/>
						<path class="st1" d="M26,43.8L26,43.8C27.6,42.5,27.6,42.5,26,43.8z"/>
						<path class="st1" d="M13.8,32.9L13.8,32.9C13.8,34.2,13.8,34.2,13.8,32.9L13.8,32.9z"/>
						<path class="st1" d="M13.8,28.8c0,6.8,0,6.8,0,5.5v16.4V28.8z"/>
						<path class="st1" d="M23,27.4v-5.5c1.5-8.2,1.5-5.5,1.5-13.7C23,27.4,24.5,11,23,28.8v-4.1v-1.4c1.5-8.2-1.5,13.7-1.5,11
							c0-1.4,0-4.1,0-6.8v4.1c0,0,0-4.1,0-2.7v1.4l0,0c0,2.7-1.5,6.8-1.5,9.6c0-2.7,0-1.4,0-4.1v4.1c0-5.5,1.5-9.6,1.5-8.2
							c1.5-17.8,0,4.1,0-6.8v-2.7c1.5-11,0-6.8,1.5-13.7c0,4.1-1.5,16.4-1.5,20.5c0-1.4,0-2.7,0,1.4c0-6.8,0-5.5,0-4.1l1.5-8.2
							c0,2.7-1.5,6.8-1.5,11c0-1.4,0-8.2,1.5-13.7c0-1.4-1.5,11-1.5,12.3c0-2.7,0,0-1.5,5.5c0-2.7,0-5.5,0-8.2l-1.5,9.6v-2.7
							c0,2.7-1.5,8.2-1.5,11c-1.5,9.6,1.5-13.7,0-2.7c0-2.7,0-5.5,1.5-8.2c-1.5,6.8,0,5.5-1.5,15.1v-5.5c0,6.8-1.5,13.7-1.5,20.5
							c0,2.7,0,5.5,0,6.8v4.1c0-1.4,0-4.1,0-8.2c0,1.4,0,1.4,0,2.7c0-2.7,0-8.2,1.5-13.7c-1.5,1.4-1.5,2.7-1.5,4.1
							c0-5.5,1.5-11,1.5-16.4c0,1.4,0,1.4,0,2.7c0-1.4,0-2.7,0-4.1s0,1.4,0,2.7v-9.6V37v-5.5c-1.5,9.6-1.5,24.7-3.1,28.8
							c1.5-8.2,1.5-12.3,1.5-20.5c0,9.6,0-4.1,0-1.4c0-1.4,0-5.5,0-6.8v8.2c0-6.8,0-5.5,0-8.2c0,13.7,0,9.6,0,13.7
							c0-4.1,0-9.6,0-8.2c0-11-1.5,15.1,0,6.8c0,0,0,0,0-1.4c0,4.1,0,1.4,0-2.7l0,0c0-1.4-1.5,0-1.5,11c0-1.4,1.5-13.7,1.5-16.4
							l-3.1,38.4c0-9.6,1.5-34.2,1.5-39.7c0-1.4,0-2.7,0,0c0,1.4,0,15.1,0,15.1c0-11,0-5.5,0-15.1c0,2.7-1.5,16.4-1.5,17.8
							c0-2.7,0-15.1,0-16.4v15.1c0-2.7,0-13.7,0-17.8c0,2.7,0,0,0,1.4V37c0-2.7-1.5,21.9-1.5,20.5c0-2.7,0-19.2,0-21.9
							c0,8.2-1.5,38.4-1.5,43.8v-4.1v5.5c0-12.3,1.5-37,1.5-46.6c0-4.1,0-5.5,0-5.5c0-4.1,0-6.8,0-6.8v-2.7c0,9.6,0,9.6,0,16.4V26
							c0,9.6-1.5,26-1.5,24.7c0-4.1,0-16.4,0-19.2c0,2.7,0,5.5,0,4.1v-5.5c0-4.1,0,12.3,0,2.7c0,0,0-12.3,0-6.8c0,11,0,42.5,0,50.7
							c0-1.4,0-9.6,0-15.1c0-8.2,0-19.2,0-27.4c0,2.7,0,5.5,0,6.8c0-2.7,0-8.2,0-6.8c0,9.6,0-1.4,0,8.2c0,2.7,0-1.4,0-1.4
							c0,5.5,0,20.5,0,23.3c0-2.7,0-5.5,0-6.8s0-5.5,0-5.5c0-2.7,0-5.5,0-9.6c0,1.4,0,5.5,0,5.5c0-8.2,0-1.4,0-11c0,5.5,0,6.8,0,11
							c0,8.2,0,1.4,0-1.4c0,11,0,23.3,0,28.8c0,2.7,0-6.8,0-5.5c0-1.4,0,20.5,0,12.3c0-6.8,0-15.1,0-20.5c0-2.7,0,4.1,0,4.1v-4.1
							c0-2.7,0-4.1,0-2.7c0-6.8,0-1.4-1.5-6.8c0,2.7,0,5.5,0,8.2v-1.4c0,5.5,0,8.2,0,11c0,4.1,0,11,0,6.8v-8.2c0,2.7,0,5.5,0,2.7
							c0,4.1,0-11,0,0v5.5c0,4.1,0,13.7,0,11c0,8.2,0-1.4,0,8.2c0-12.3,0,0,0-12.3c0,11,0,4.1,0,13.7c0-2.7,0-5.5,0-4.1
							c0-1.4,0-1.4,0-2.7l0,0l0,0l0,0c0-1.4,0-2.7,0-4.1c0-6.8,0-6.8,0-9.6c0,1.4,0,2.7,0,5.5v-5.5c0,5.5,0,9.6,0,13.7l0,0
							c0,4.1,0,5.5,0,2.7c0,1.4,0-6.8,0-1.4v-4.1V89c0,1.4,0-9.6,0,1.4c0-1.4,0-4.1,0-1.4v5.5c0-1.4,0,5.5,0,0c0,13.7,0,2.7,0,5.5
							v-6.8c0,0,0-1.4,0-4.1v-5.5c0-5.5,0,4.1,0,4.1c0,2.7,0,1.4,0,0c0,13.7,0-9.6,0,0c0-2.7,0-1.4,0,0l0,0l0,0c0,1.4,0,2.7,0,2.7
							c0-1.4,0-2.7,0-2.7s0-1.4,0-2.7v6.8l0,0c0,2.7,0-2.7,0-8.2c0-1.4,0-2.7,0-4.1c0,8.2,0-1.4,0,8.2c0-5.5,0-4.1,1.5-16.4
							c0,1.4,0,2.7,0,2.7c0,1.4,0,2.7,0,0v8.2v-11c0,5.5,0,8.2,0,15.1c0-9.6,0-4.1,1.5-13.7v5.5c0,0,0-6.8,0-2.7c0,11,0,1.4,0,11
							c1.5-16.4,0,6.8,0-5.5c0,4.1,0,5.5,0,9.6c0-4.1,0,5.5,0-4.1c0,4.1,0,5.5,0,8.2c0-1.4,0-2.7,0-1.4c0,2.7,0,2.7,0,5.5
							c0,0,1.5-12.3,1.5-23.3c0,5.5,0,4.1,0-2.7c0,4.1,0,6.8,0,8.2c0,0,0,5.5,0-4.1c0,2.7,0,0,0,0s0,1.4,0,0v-1.4
							c3.1-8.2,3.1,0,3.1-1.4v1.4c0,8.2,0-4.1,0,5.5V74c1.5-13.7,0,8.2,0,2.7v-4.1c0-4.1-1.5,19.2-1.5,21.9c0,1.4,0,1.4,0,2.7
							c-1.5,8.2,0-9.6,0-11c0,4.1-1.5,12.3-1.5,12.3c0,4.1,1.5-15.1,1.5-5.5c0-4.1,1.5-6.8,1.5-9.6c0-1.4-1.5,12.3,0,1.4
							c0,1.4,0,1.4,0,2.7c0-2.7,0-5.5,1.5-11c-3.1,23.3,1.5-11-1.5,11v-1.4V89c0,1.4,0-4.1,1.5-8.2c0,1.4,0,2.7,0,4.1
							c0,4.1,0,2.7,1.5-6.8l-1.5,5.5c0-4.1-1.5,11,0,2.7c0,1.4,0,2.7,0,2.7c1.5-6.8-3.1,19.2,1.5-5.5l1.5-5.5c0-1.4,1.5-11,3.1-15.1
							c0-1.4-1.5,6.8-1.5,8.2v-1.4c-1.5,12.3,0,4.1-1.5,13.7v6.8l1.5-9.6l0,0c0,2.7-1.5,8.2-1.5,6.8c-3.1,6.8-1.5-4.1,0-5.5
							c-1.5,4.1-3.1,11-3.1,11v-1.4v-1.4c1.5-4.1,1.5-8.2,1.5-8.2c0,1.4-1.5,5.5-1.5,6.8s0,1.4,0,0v1.4l1.5-8.2c1.5-4.1,0,0,1.5-8.2
							c-3.1,13.7,0,5.5-1.5,9.6c1.5-5.5,1.5-5.5,1.5-5.5c0-1.4,1.5-11,1.5-9.6c-1.5,20.5,0,9.6-3.1,23.3c1.5-8.2,0-2.7,3.1-13.7
							c0,1.4-1.5,6.8-3.1,11c1.5-6.8,0,4.1,0,2.7c0-2.7,1.5-5.5,1.5-9.6l0,11c0-1.4,3.1-13.7,1.5-5.5c0-1.4,1.5-5.5,1.5-5.5
							c-3.1,11,3.1-9.6-3.1,11c1.5-4.1,1.5-5.5,1.5-5.5c0-1.4,1.5-5.5,3.1-9.6l-3.1,11c3.1-8.2,0,0,3.1-9.6v1.4
							c3.1-9.6,6.1-21.9,9.2-34.2c-3.1,11,4.6-16.4,0-1.4c0-2.7,1.5-4.1,1.5-6.8c-1.5,5.5-1.5,6.8-1.5,4.1v-1.4c0,1.4,0-4.1,1.5-8.2
							l-1.5,6.8c0-1.4,0-2.7,1.5-4.1c-3.1,9.6,0,0-3.1,11c3.1-12.3,0,0,3.1-15.1l-1.5,6.8l1.5-4.1l-3.1,5.5c0-1.4,1.5-5.5,1.5-9.6
							v-1.4c1.5-4.1-1.5,1.4,0,0v2.7c-1.5,4.1,0-1.4-3.1,6.8v2.7c-1.5,5.5,0-2.7,0-1.4v-1.4c0,2.7-1.5,4.1-1.5,4.1
							c1.5-2.7,1.5-5.5,3.1-9.6c-3.1,5.5-1.5,5.5-4.6,16.4l1.5-5.5c-1.5,4.1-1.5,6.8-3.1,8.2c1.5-4.1,1.5-8.2,3.1-13.7
							c1.5-11-3.1,11,0-5.5c-1.5,15.1,0,8.2-1.5,11c0,5.5-1.5,11-1.5,9.6c0,0,1.5-4.1,1.5-9.6c1.5-4.1,1.5-8.2,1.5-8.2v-1.4
							c0-4.1-1.5,4.1,0-1.4c-1.5,8.2,0,0-1.5,9.6v-2.7c0,2.7-3.1,15.1-1.5,9.6c0-2.7,1.5-5.5,1.5-6.8c0-2.7,0,2.7,0-1.4
							c1.5-11,0-2.7,3.1-11c0-2.7-3.1,9.6-1.5-1.4c-3.1,15.1,0-1.4-1.5,9.6l1.5-6.8c0,1.4-1.5,4.1-1.5,4.1l1.5-8.2
							c-1.5,6.8,1.5-6.8,0-2.7c0,0-1.5,8.2-1.5,12.3c-1.5,8.2,3.1-16.4,1.5-13.7c0-1.4,0,4.1-1.5,6.8c0-1.4,0-4.1,1.5-6.8
							c0,1.4-1.5,6.8-1.5,11c1.5-8.2,0,2.7-1.5,5.5l1.5-6.8c0-4.1-3.1,13.7-1.5,8.2l1.5-9.6v2.7v-6.8c-1.5,5.5-1.5,4.1,0,1.4
							c0,2.7-1.5,5.5-1.5,8.2c-1.5,2.7-1.5,4.1-1.5,4.1c0-4.1,1.5-6.8,0-5.5c0-4.1,1.5-9.6,0-2.7c0-2.7,0-4.1,1.5-6.8
							c0-4.1,0-1.4,0-1.4s0,0,0,1.4l-1.5,9.6c0-2.7,0-4.1,1.5-6.8c0,1.4,0,4.1-1.5,4.1c1.5-5.5,1.5-11,1.5-13.7V26
							c0-2.7,1.5-6.8,1.5-8.2c0-2.7-1.5,11-1.5,5.5c0,1.4,0,1.4,0,2.7C24.5,26,26,19.2,23,27.4l1.5-11c0,2.7-1.5,12.3-3.1,15.1
							c0,2.7,1.5-8.2,1.5-11C24.5,26,23,35.6,23,27.4C23,26,23,27.4,23,27.4z M19.9,31.5c0-1.4,1.5-5.5,0-1.4
							C19.9,37,19.9,32.9,19.9,31.5z M15.3,46.6c0-2.7,0-1.4,0,1.4C15.3,49.3,15.3,49.3,15.3,46.6z M7.7,93.1L7.7,93.1
							C7.7,94.5,7.7,94.5,7.7,93.1z M7.7,90.4v2.7c0-1.4,0-1.4,0-1.4C7.7,89,7.7,89,7.7,90.4z M18.4,87.7v-1.4
							C19.9,84.9,18.4,86.3,18.4,87.7z"/>
						<path class="st1" d="M16.9,38.4c0,1.4,0,2.7,0,4.1C16.9,41.1,16.9,39.7,16.9,38.4z"/>
						<polygon class="st1" points="26,24.7 26,24.7 26,23.3 						"/>
						<path class="st1" d="M10.7,34.2c0,1.4,0,2.7,0,2.7C10.7,35.6,10.7,34.2,10.7,34.2z"/>
						<path class="st1" d="M7.7,101.4V100c0,0,0-1.4,0-2.7C7.7,98.6,7.7,101.4,7.7,101.4z"/>
						<path class="st1" d="M6.1,60.3C6.1,61.6,6.1,60.3,6.1,60.3v4.1C6.1,64.4,6.1,61.6,6.1,60.3z"/>
						<path class="st1" d="M7.7,79.5c0-5.5,0-4.1,0-2.7l0,0C7.7,84.9,7.7,82.2,7.7,79.5z"/>
						<path class="st1" d="M7.7,76.7L7.7,76.7C7.7,79.5,7.7,78.1,7.7,76.7z"/>
						<path class="st1" d="M7.7,93.1c0-1.4,0,6.8,0,5.5C7.7,105.5,7.7,90.4,7.7,93.1z"/>
						<polygon class="st1" points="6.1,60.3 6.1,67.1 6.1,61.6 						"/>
						<path class="st1" d="M7.7,65.8v-1.4C7.7,65.8,7.7,65.8,7.7,65.8C7.7,67.1,7.7,68.5,7.7,65.8z"/>
						<path class="st1" d="M7.7,65.8L7.7,65.8C7.7,67.1,7.7,67.1,7.7,65.8z"/>
						<polygon class="st1" points="6.1,58.9 6.1,60.3 6.1,60.3 						"/>
						<path class="st1" d="M7.7,67.1v-1.4c0-2.7,0-4.1,0-2.7C7.7,64.4,7.7,64.4,7.7,67.1z"/>
						<path class="st1" d="M7.7,47.9c0,1.4,0,2.7,0,5.5v-8.2V47.9z"/>
						<path class="st1" d="M7.7,46.6c0-2.7,0-6.8,0-6.8C7.7,42.5,7.7,43.8,7.7,46.6z"/>
						<polygon class="st1" points="10.7,57.5 10.7,57.5 9.2,71.2 						"/>
						<path class="st1" d="M12.3,23.3c0-2.7,0,8.2,0,4.1c0,2.7,0,2.7,0,6.8C12.3,31.5,12.3,32.9,12.3,23.3z"/>
						<path class="st1" d="M12.3,34.2c0,0,0,1.4,0,2.7C12.3,35.6,12.3,35.6,12.3,34.2z"/>
						<polygon class="st1" points="19.9,95.9 19.9,98.6 19.9,94.5 						"/>
						<path class="st1" d="M23,84.9l-3.1,9.6L23,84.9C23,86.3,23,87.7,23,84.9z"/>
						<path class="st1" d="M23,13.7v2.7c0,2.7,0,2.7,0,2.7V13.7z"/>
						<polygon class="st1" points="23,20.5 23,20.5 23,28.8 						"/>
						<path class="st1" d="M26,11C26,9.6,26,12.3,26,11S24.5,20.5,26,11z"/>
					</g>
				</g>
			</g>
		</g>
	</g>
	<g class="st4">
		<g>
			<g>
				<g>
					<g>
						<path class="st3" d="M1.5,82.2c0,0-1.5,5.5-1.5,6.8C0,87.7,1.5,80.8,1.5,82.2z"/>
						<polygon class="st3" points="4.6,69.9 4.6,72.6 4.6,65.8 						"/>
						<path class="st3" d="M4.6,69.9c1.5-9.6,0,1.4,0-1.4v-2.7L3.1,74C4.6,72.6,4.6,67.1,4.6,69.9z"/>
						<path class="st3" d="M1.5,90.4C1.5,87.7,1.5,87.7,1.5,90.4L1.5,90.4L1.5,90.4z"/>
						<path class="st3" d="M1.5,90.4C1.5,90.4,1.5,93.1,1.5,90.4L1.5,90.4z"/>
						<path class="st3" d="M1.5,89v2.7c0,2.7,0,2.7,0,4.1C1.5,94.5,1.5,91.8,1.5,89z"/>
						<path class="st3" d="M3.1,80.8v1.4C3.1,83.6,3.1,83.6,3.1,80.8z"/>
						<path class="st3" d="M3.1,86.3v-2.7c0-1.4,1.5-4.1,0,1.4C3.1,80.8,3.1,83.6,3.1,86.3z"/>
						<path class="st3" d="M3.1,84.9c0-2.7,0-4.1,1.5-6.8C3.1,79.5,1.5,86.3,3.1,84.9z"/>
						<path class="st3" d="M6.1,60.3v-2.7V60.3C7.7,58.9,6.1,63,6.1,60.3z"/>
						<path class="st3" d="M1.5,93.1c0-1.4,1.5-5.5,1.5-8.2v2.7C3.1,89,1.5,90.4,1.5,93.1z"/>
						<path class="st3" d="M3.1,84.9v-4.1C4.6,80.8,3.1,83.6,3.1,84.9z"/>
						<path class="st3" d="M6.1,71.2l-1.5,6.8L6.1,71.2z"/>
						<polygon class="st3" points="1.5,93.1 1.5,98.6 3.1,91.8 						"/>
						<path class="st3" d="M3.1,93.1c-1.5,4.1-1.5,6.8-3.1,9.6c0-1.4,1.5-4.1,1.5-6.8C1.5,97.3,1.5,95.9,3.1,93.1z"/>
						<path class="st3" d="M3.1,90.4c0,1.4,0,2.7-1.5,4.1C3.1,94.5,3.1,93.1,3.1,90.4z"/>
						<path class="st3" d="M4.6,83.6c0,1.4-1.5,4.1-1.5,5.5L4.6,83.6L4.6,83.6z"/>
						<path class="st3" d="M4.6,82.2L4.6,82.2C4.6,83.6,4.6,83.6,4.6,82.2C4.6,83.6,4.6,83.6,4.6,82.2z"/>
						<path class="st3" d="M4.6,83.6L4.6,83.6C4.6,82.2,4.6,82.2,4.6,83.6z"/>
						<path class="st3" d="M4.6,75.3c0-2.7,1.5-6.8,1.5-11C6.1,68.5,6.1,71.2,4.6,75.3z"/>
						<path class="st3" d="M4.6,75.3L4.6,75.3c0,0,0,2.7-1.5,4.1L4.6,75.3z"/>
						<polygon class="st3" points="6.1,74 4.6,75.3 4.6,76.7 						"/>
						<path class="st3" d="M4.6,84.9c0-2.7,0-2.7,0-2.7c0-1.4,0-1.4,0-1.4C4.6,82.2,4.6,84.9,4.6,84.9z"/>
						<path class="st3" d="M4.6,83.6L4.6,83.6C4.6,82.2,4.6,82.2,4.6,83.6z"/>
						<path class="st3" d="M4.6,82.2C6.1,82.2,6.1,80.8,4.6,82.2C6.1,80.8,6.1,82.2,4.6,82.2L4.6,82.2z"/>
						<path class="st3" d="M4.6,79.5c0-1.4,0,0,0,1.4C4.6,80.8,4.6,80.8,4.6,79.5L4.6,79.5z"/>
						<path class="st3" d="M4.6,87.7c0-1.4,0-2.7,0-2.7C4.6,86.3,3.1,89,4.6,87.7z"/>
						<path class="st3" d="M4.6,84.9L4.6,84.9C3.1,86.3,3.1,86.3,4.6,84.9z"/>
						<path class="st3" d="M4.6,84.9c0-1.4,0-2.7,0-4.1v1.4C4.6,83.6,4.6,83.6,4.6,84.9z"/>
						<path class="st3" d="M12.3,45.2c-1.5,5.5-1.5,9.6-1.5,4.1c0,4.1-3.1,21.9-4.6,31.5c0-2.7,1.5-4.1,1.5-8.2
							c0-2.7,1.5-6.8,1.5-12.3c0-2.7,0,1.4,0,4.1C10.7,57.5,10.7,54.8,12.3,45.2l-1.5,5.5C12.3,49.3,12.3,46.6,12.3,45.2z"/>
						<path class="st3" d="M6.1,80.8L6.1,80.8c0,1.4,0,4.1-1.5,8.2c0-2.7,1.5-4.1,1.5-6.8V80.8L6.1,80.8z"/>
						<path class="st3" d="M4.6,80.8c1.5-5.5,1.5-8.2,3.1-15.1c0,0-1.5,5.5-1.5,6.8C6.1,72.6,6.1,76.7,4.6,80.8
							C4.6,82.2,4.6,82.2,4.6,80.8c0,1.4,0,2.7,0,4.1l0,0l0,0l0,0c0-1.4,0-1.4,0-1.4l0,0C4.6,82.2,4.6,82.2,4.6,80.8
							c0,1.4,0,1.4,0,2.7c0,0,0,0,0,1.4l0,0V80.8L4.6,80.8z"/>
						<path class="st3" d="M9.2,52.1C9.2,52.1,9.2,53.4,9.2,52.1L9.2,52.1z"/>
						<path class="st3" d="M9.2,54.8c0,1.4,0,2.7,0,2.7c0-1.4,0-2.7,1.5-4.1c0,1.4-1.5,4.1-1.5,6.8v-1.4c0,1.4-1.5,9.6-1.5,9.6
							C7.7,64.4,7.7,60.3,9.2,54.8z"/>
						<path class="st3" d="M7.7,67.1v-2.7l1.5-5.5v2.7C7.7,60.3,7.7,64.4,7.7,67.1z"/>
						<polygon class="st3" points="4.6,84.9 3.1,91.8 4.6,82.2 						"/>
						<polygon class="st3" points="4.6,84.9 4.6,89 4.6,86.3 						"/>
						<path class="st3" d="M30.6,20.5v-1.4C30.6,19.2,30.6,19.2,30.6,20.5z"/>
						<path class="st3" d="M29.1,19.2v2.7C29.1,20.5,29.1,19.2,29.1,19.2z"/>
						<path class="st3" d="M10.7,84.9C9.2,89,9.2,97.3,9.2,91.8L10.7,84.9C10.7,86.3,10.7,86.3,10.7,84.9z"/>
						<path class="st3" d="M21.4,50.7v-1.4c0,1.4,0,4.1-1.5,5.5C19.9,53.4,21.4,52.1,21.4,50.7z"/>
						<path class="st3" d="M26,26v4.1C24.5,28.8,26,27.4,26,26z"/>
						<path class="st3" d="M33.7,13.7l1.5-5.5C33.7,8.2,33.7,11,33.7,13.7z"/>
						<path class="st3" d="M7.7,82.2c0,2.7,0,2.7,0,4.1C7.7,82.2,9.2,78.1,7.7,82.2z"/>
						<path class="st3" d="M18.4,82.2c0-1.4,0-2.7,0-4.1C18.4,79.5,18.4,80.8,18.4,82.2z"/>
						<path class="st3" d="M7.7,86.3v-1.4C7.7,86.3,7.7,86.3,7.7,86.3C7.7,89,6.1,90.4,7.7,86.3z"/>
						<path class="st3" d="M39.8,20.5L39.8,20.5C39.8,19.2,39.8,19.2,39.8,20.5z"/>
						<path class="st3" d="M30.6,79.5L30.6,79.5C30.6,80.8,30.6,80.8,30.6,79.5z"/>
						<path class="st3" d="M6.1,87.7L6.1,87.7L6.1,87.7z"/>
						<path class="st3" d="M9.2,64.4c0,0,0-1.4,0-2.7C10.7,63,9.2,63,9.2,64.4z"/>
						<path class="st3" d="M15.3,49.3L15.3,49.3C15.3,47.9,15.3,49.3,15.3,49.3z"/>
						<path class="st3" d="M6.1,84.9c0,1.4,0,1.4,0,1.4S6.1,84.9,6.1,84.9z"/>
						<path class="st3" d="M6.1,87.7C6.1,86.3,6.1,86.3,6.1,87.7C4.6,87.7,4.6,87.7,6.1,87.7z"/>
						<path class="st3" d="M6.1,86.3L6.1,86.3L6.1,86.3L6.1,86.3z"/>
						<path class="st3" d="M32.2,35.6L32.2,35.6C33.7,32.9,33.7,32.9,32.2,35.6z"/>
						<path class="st3" d="M23,23.3C23,23.3,23,24.7,23,23.3C23,24.7,23,24.7,23,23.3L23,23.3z"/>
						<path class="st3" d="M24.5,19.2C23,27.4,23,26,23,24.7l-3.1,16.4L24.5,19.2z"/>
						<path class="st3" d="M30.6,17.8l1.5-4.1c1.5-8.2,1.5-5.5,3.1-13.7c-4.6,17.8-1.5,1.4-4.6,20.5v-4.1v-1.4
							c1.5-8.2-3.1,13.7-3.1,11c0-1.4,0-4.1,1.5-6.8v5.5c0,0,0-4.1,0-2.7v1.4l0,0c0,2.7-1.5,6.8-1.5,9.6c0-2.7,0-1.4,1.5-4.1
							l-1.5,2.7c0-4.1,1.5-9.6,1.5-8.2c3.1-19.2-1.5,4.1,0-6.8v-2.7c1.5-11,1.5-6.8,1.5-13.7c0,2.7-3.1,16.4-3.1,20.5
							c0-1.4,0-1.4,0,1.4c1.5-6.8,1.5-5.5,0-4.1l3.1-6.8c0,2.7-1.5,6.8-1.5,11c0-1.4,1.5-8.2,3.1-13.7c0-1.4-1.5,11-3.1,12.3
							c0-2.7,0,0-1.5,5.5c0-2.7,1.5-5.5,1.5-8.2l-1.5,6.8v-2.7c0,2.7-1.5,8.2-1.5,11c-1.5,9.6,3.1-13.7,0-2.7c0-2.7,1.5-5.5,1.5-8.2
							C26,27.4,26,26,24.5,35.6l1.5-5.5C24.5,37,23,43.8,21.4,50.7c0,2.7-1.5,5.5-1.5,6.8l-1.5,4.1c0-1.4,1.5-4.1,1.5-8.2
							c0,1.4,0,1.4,0,2.7c0-2.7,1.5-8.2,3.1-12.3c0,1.4,0,4.1-1.5,5.5c1.5-5.5,1.5-11,3.1-16.4c0,1.4,0,1.4,0,2.7c0-1.4,0-2.7,0-4.1
							s0,1.4,0,2.7l1.5-9.6v4.1l1.5-5.5C26,32.9,23,46.6,21.4,50.7c1.5-6.8,1.5-11,3.1-20.5c-1.5,8.2,1.5-4.1,0-1.4
							c0-1.4,1.5-5.5,1.5-6.8l-1.5,8.2c1.5-6.8,1.5-5.5,1.5-8.2C23,35.6,24.5,31.5,23,35.6c0-5.5,1.5-9.6,1.5-8.2
							c1.5-9.6-3.1,16.4-1.5,6.8c0,0,0,0,0-1.4c-1.5,4.1,0,1.4,0-2.7l0,0c0-1.4,0,0-3.1,11c0-1.4,3.1-13.7,3.1-16.4L15.3,63
							c1.5-9.6,6.1-32.9,7.7-38.4c0-1.4,0-2.7,0,0c0,1.4-3.1,13.7-3.1,15.1c1.5-11,1.5-5.5,3.1-15.1c0,2.7-3.1,17.8-3.1,16.4
							c0-2.7,3.1-15.1,3.1-16.4l-3.1,15.1c0-2.7,3.1-12.3,3.1-17.8c0,2.7,0,0,0,1.4v4.1c0-2.7-4.6,21.9-4.6,20.5
							c0-2.7,3.1-19.2,4.6-20.5c-3.1,6.8-9.2,37-10.7,42.5l1.5-4.1l-1.5,5.5c3.1-12.3,7.7-37,9.2-46.6c0-4.1,1.5-5.5,0-5.5
							c1.5-4.1,1.5-5.5,3.1-5.5V11c-1.5,8.2-3.1,8.2-4.6,16.4l1.5-9.6c0,9.6-3.1,26-3.1,24.7c0-4.1,3.1-16.4,3.1-19.2
							c0,2.7-1.5,5.5-1.5,4.1l1.5-5.5c0-4.1-3.1,12.3-1.5,2.7c0,0,1.5-12.3,1.5-6.8c-1.5,11-7.7,43.8-9.2,50.7c0,0,1.5-9.6,3.1-15.1
							c1.5-8.2,3.1-19.2,4.6-26c0,2.7-1.5,5.5-1.5,6.8c0-2.7,1.5-8.2,1.5-6.8c-1.5,9.6,0-1.4-1.5,8.2c0,2.7,0-1.4,0-1.4
							c-1.5,5.5-4.6,19.2-4.6,21.9c0-1.4,1.5-5.5,1.5-6.8c0-1.4,0-5.5,0-5.5c0-1.4,0-4.1,1.5-8.2c0,1.4-1.5,4.1-1.5,5.5
							c1.5-8.2,0-1.4,1.5-11c0,5.5,0,6.8-1.5,11c-1.5,8.2,0,1.4,0-1.4c-1.5,11-3.1,21.9-4.6,27.4c0,2.7,1.5-6.8,1.5-5.5
							c0-1.4-4.6,20.5-3.1,11c1.5-6.8,3.1-15.1,3.1-19.2c0-2.7,0,4.1,0,4.1v-4.1c0-2.7,1.5-4.1,0-2.7c1.5-6.8,0-1.4,0-6.8
							c0,2.7-1.5,5.5-1.5,8.2v-1.4c0,6.8,0,9.6,0,12.3c-1.5,4.1-3.1,9.6-1.5,6.8l1.5-8.2c0,2.7-1.5,5.5,0,2.7c0,4.1,1.5-11,0,0
							l-1.5,5.5C7.7,74,6.1,82.2,6.1,79.5c-1.5,8.2,0-1.4-1.5,8.2c1.5-12.3,0,0,3.1-12.3c-1.5,11,0,4.1-3.1,13.7
							c0-2.7,1.5-5.5,1.5-4.1c0-1.4,0-1.4,0-2.7l0,0l0,0l0,0c0-1.4,0-2.7,0-4.1c1.5-6.8,1.5-5.5,1.5-9.6c0,1.4,0,2.7-1.5,5.5
							l1.5-5.5c0,9.6,0,13.7-1.5,16.4l0,0c0,2.7,0,4.1,0,2.7c0,1.4,1.5-6.8,0-1.4l1.5-4.1v1.4c0,1.4,3.1-9.6,0,1.4
							c0-1.4,1.5-2.7,0-1.4v4.1c0-1.4,0,5.5,0,0c-3.1,13.7,0,2.7,0,5.5l1.5-6.8c0,0,0-1.4,1.5-4.1l1.5-5.5c1.5-5.5,0,4.1,0,4.1
							c0,2.7,0,1.4,0,0c-3.1,13.7,3.1-9.6,0,0c0-2.7,0-1.4,0,0l0,0l0,0c0,1.4,0,2.7,0,2.7c0-1.4,0-2.7,0-2.7s0-1.4,0-2.7l-1.5,6.8
							l0,0c0,2.7,0-2.7,1.5-8.2c0-1.4,0-2.7,1.5-4.1c-3.1,11,0-2.7-1.5,8.2c0-5.5,0-4.1,3.1-15.1c0,1.4,0,1.4,0,2.7s0,2.7,0,0
							l-1.5,6.8l1.5-11c0,5.5-1.5,8.2-3.1,15.1c3.1-11,1.5-4.1,3.1-13.7v5.5c0,0,1.5-6.8,0-2.7c-1.5,9.6,0,1.4,0,11
							c1.5-16.4-1.5,6.8,0-5.5c0,4.1,0,5.5-1.5,8.2c1.5-2.7,0,6.8,1.5-4.1c0,4.1-1.5,5.5-1.5,8.2c0-1.4,0-2.7,0-1.4
							c0,2.7,0,2.7-1.5,4.1c0,0,3.1-12.3,4.6-23.3c-1.5,5.5,0,4.1,0-2.7c0,4.1-1.5,6.8-1.5,8.2c0,0,0,5.5,1.5-2.7c0,2.7,0,0,0,0
							s0,1.4,0,0v-1.4c1.5-11,0-2.7,1.5-4.1v1.4c-1.5,8.2,1.5-4.1,0,5.5l1.5-6.8c3.1-13.7-1.5,8.2,0,2.7v-4.1
							c1.5-2.7-3.1,20.5-3.1,23.3c0,1.4,0,1.4,0,2.7c-1.5,8.2,1.5-9.6,1.5-11c-1.5,4.1-1.5,11-1.5,12.3c0,4.1,3.1-15.1,1.5-5.5
							c0-4.1,1.5-6.8,1.5-9.6c0-1.4-1.5,13.7,0,2.7c0,1.4,0,1.4,0,2.7c0-2.7,1.5-4.1,3.1-11c-6.1,21.9,1.5-11-3.1,9.6v-1.4v2.7
							c0,1.4,1.5-4.1,1.5-8.2c0,1.4,0,2.7-1.5,4.1c0,4.1,0,2.7,1.5-6.8V74c1.5-4.1-1.5,11,0,2.7c0,1.4,0,2.7,0,2.7
							C23,71.2,18.4,98.6,23,74l1.5-5.5c0-1.4,1.5-11,3.1-15.1c0-1.4-1.5,6.8-1.5,8.2v-1.4C23,72.6,26,64.4,24.5,74v6.8l1.5-9.6l0,0
							c0,2.7-1.5,8.2-1.5,6.8C23,84.9,26,75.3,26,72.6c0,4.1-1.5,11-1.5,12.3v-1.4v-1.4C26,78.1,26,74,26,74c0,1.4-1.5,5.5-1.5,6.8
							s0,1.4,0,0v1.4L26,74c1.5-4.1,0,0,1.5-8.2c-3.1,13.7,0,5.5-1.5,9.6c1.5-5.5,1.5-5.5,1.5-5.5c1.5-1.4,3.1-9.6,3.1-8.2
							C26,79.5,29.1,69.9,26,82.2c1.5-8.2,1.5-2.7,3.1-13.7c0,1.4-1.5,6.8-1.5,11c1.5-6.8,0,4.1,0,2.7c0-2.7,1.5-5.5,1.5-9.6
							l-1.5,11c0-1.4,3.1-13.7,1.5-5.5c0-1.4,1.5-5.5,1.5-5.5c-1.5,12.3,3.1-9.6,0,12.3c0-4.1,0-5.5,0-5.5c0-1.4,1.5-5.5,1.5-9.6
							l-1.5,9.6c1.5-9.6,0,0,1.5-9.6v1.4c1.5-9.6,4.6-21.9,6.1-35.6c-1.5,11,3.1-16.4,0,0c0-2.7,1.5-4.1,1.5-6.8
							c-1.5,5.5-1.5,6.8-1.5,4.1v-1.4c0,1.4,0-4.1,0-8.2v6.8c0-1.4,0-2.7,0-4.1c-1.5,9.6,0,0-1.5,11c3.1-13.7,0,0,1.5-15.1l-1.5,6.8
							v-4.1l1.5,5.5c0-1.4,1.5-5.5,1.5-9.6v-1.4c1.5-4.1,0,1.4,0,0v2.7c-1.5,4.1,0-1.4-1.5,6.8v2.7c-1.5,5.5,0-2.7,0-1.4v-1.4
							c0,2.7-1.5,4.1-1.5,4.1c0-4.1,1.5-6.8,1.5-11c-3.1,8.2-3.1,6.8-4.6,17.8l1.5-5.5c-1.5,5.5-1.5,6.8-3.1,8.2
							c1.5-4.1,1.5-8.2,3.1-13.7c1.5-11-3.1,11,0-5.5c-3.1,13.7-1.5,8.2-1.5,11c0,5.5-1.5,11-1.5,9.6L35.2,26v-1.4
							c0-4.1-1.5,4.1,0-1.4c-1.5,8.2,0,0-1.5,9.6v-2.7c0,5.5-3.1,17.8-1.5,11c0-2.7,1.5-5.5,1.5-6.8c0-2.7,0,2.7,0-1.4
							c1.5-11,0-2.7,3.1-11c1.5-4.1-1.5,8.2,0-4.1c-3.1,15.1,0-1.4-1.5,9.6l1.5-6.8c0,1.4-1.5,4.1-1.5,4.1l1.5-8.2
							c-1.5,6.8,1.5-6.8,0-2.7c0,0-1.5,8.2-1.5,12.3c-3.1,11,1.5-15.1,0-12.3c0-1.4,0,4.1-1.5,6.8c0-1.4,0-4.1,1.5-6.8
							c0,1.4-1.5,6.8-1.5,11c1.5-8.2,0,2.7-1.5,5.5l1.5-6.8c0-4.1-3.1,13.7-1.5,8.2l1.5-9.6v2.7l1.5-6.8c-1.5,5.5-1.5,4.1,0,1.4
							c-3.1,5.5-4.6,12.3-4.6,12.3c0-4.1,1.5-6.8,1.5-5.5c1.5-4.1,1.5-9.6,0-2.7c0-2.7,1.5-4.1,1.5-6.8c0-4.1,0-1.4,0-1.4s0,0,0,1.4
							l-1.5,11c0-2.7,1.5-4.1,1.5-6.8c0,1.4-1.5,4.1-1.5,4.1c1.5-5.5,1.5-11,3.1-13.7l-1.5,6.8c0-2.7,1.5-6.8,1.5-8.2
							c0-2.7-1.5,9.6-1.5,5.5C32.2,16.4,32.2,17.8,30.6,17.8C32.2,16.4,33.7,9.6,30.6,17.8l3.1-11c0,2.7-1.5,12.3-3.1,15.1
							c0,2.7,1.5-8.2,1.5-11C32.2,17.8,29.1,27.4,30.6,17.8C30.6,17.8,30.6,19.2,30.6,17.8z M29.1,21.9c0-1.4,1.5-5.5,0-1.4
							C27.6,27.4,29.1,24.7,29.1,21.9z M23,37c0-2.7,0-1.4,0,1.4C23,39.7,23,39.7,23,37z M7.7,82.2L7.7,82.2
							C6.1,83.6,7.7,83.6,7.7,82.2z M7.7,79.5c0,1.4,0,1.4,0,2.7c0-1.4,0-1.4,0-1.4C7.7,78.1,7.7,78.1,7.7,79.5z M24.5,79.5v-1.4
							C26,75.3,26,76.7,24.5,79.5z"/>
						<path class="st3" d="M24.5,28.8c0,1.4,0,2.7,0,4.1C24.5,31.5,24.5,30.1,24.5,28.8z"/>
						<path class="st3" d="M33.7,15.1L33.7,15.1C33.7,15.1,33.7,13.7,33.7,15.1L33.7,15.1z"/>
						<path class="st3" d="M19.9,24.7c0,1.4,0,2.7,0,2.7C19.9,26,19.9,24.7,19.9,24.7z"/>
						<path class="st3" d="M4.6,90.4V89c0,0,0-1.4,0-2.7C4.6,87.7,4.6,90.4,4.6,90.4z"/>
						<path class="st3" d="M10.7,49.3C10.7,50.7,10.7,49.3,10.7,49.3v4.1C10.7,53.4,10.7,50.7,10.7,49.3z"/>
						<path class="st3" d="M9.2,68.5c1.5-5.5,0-4.1,0-2.7l0,0C7.7,74,7.7,71.2,9.2,68.5z"/>
						<path class="st3" d="M9.2,65.8L9.2,65.8C7.7,68.5,9.2,67.1,9.2,65.8z"/>
						<path class="st3" d="M6.1,82.2c0-1.4-1.5,6.8-1.5,4.1C4.6,94.5,7.7,79.5,6.1,82.2z"/>
						<polygon class="st3" points="12.3,50.7 10.7,57.5 12.3,52.1 						"/>
						<path class="st3" d="M10.7,54.8v-1.4C10.7,54.8,10.7,54.8,10.7,54.8C10.7,56.2,10.7,57.5,10.7,54.8z"/>
						<path class="st3" d="M10.7,56.2L10.7,56.2L10.7,56.2z"/>
						<polygon class="st3" points="12.3,47.9 12.3,49.3 12.3,50.7 						"/>
						<path class="st3" d="M12.3,56.2v-1.4c0-2.7,0-4.1,0-2.7C13.8,53.4,12.3,54.8,12.3,56.2z"/>
						<path class="st3" d="M15.3,38.4c0,1.4,0,2.7,0,5.5l1.5-8.2L15.3,38.4z"/>
						<path class="st3" d="M16.9,35.6c0-2.7,1.5-6.8,1.5-5.5C16.9,32.9,16.9,34.2,16.9,35.6z"/>
						<polygon class="st3" points="16.9,46.6 16.9,46.6 13.8,61.6 						"/>
						<path class="st3" d="M24.5,15.1c0-2.7-1.5,8.2-1.5,4.1c0,2.7,0,2.7-1.5,6.8C23,21.9,23,23.3,24.5,15.1z"/>
						<path class="st3" d="M21.4,24.7c0,0,0,1.4,0,2.7C21.4,26,21.4,26,21.4,24.7z"/>
						<polygon class="st3" points="29.1,86.3 29.1,89 30.6,84.9 						"/>
						<path class="st3" d="M32.2,76.7l-1.5,8.2L32.2,76.7C32.2,78.1,30.6,78.1,32.2,76.7z"/>
						<path class="st3" d="M32.2,4.1v2.7c0,2.7,0,2.7,0,2.7V4.1z"/>
						<polygon class="st3" points="32.2,11 32.2,11 30.6,19.2 						"/>
						<path class="st3" d="M35.2,1.4C35.2,1.4,33.7,2.7,35.2,1.4C35.2,1.4,33.7,11,35.2,1.4z"/>
					</g>
				</g>
			</g>
		</g>
	</g>
</g>
<text transform="matrix(0.7382 0 0 1 15.8047 76.2877)" class="st5 st6 st7">Special Offer!</text>
<text transform="matrix(0.7382 0 0 1 8.9581 76.7113)" class="st8 st9 st7">Special Offer!</text>
</svg>
