<?xml version="1.0" encoding="utf-8"?>
<!-- Generator: Adobe Illustrator 21.0.2, SVG Export Plug-In . SVG Version: 6.00 Build 0)  -->
<svg version="1.1" id="Layer_1" xmlns="http://www.w3.org/2000/svg" xmlns:xlink="http://www.w3.org/1999/xlink" x="0px" y="0px"
	 viewBox="0 0 48 48" style="enable-background:new 0 0 48 48;" xml:space="preserve">
<style type="text/css">
	.st0{opacity:0.67;}
	.st1{fill:#FF2020;}
	.st2{opacity:0.53;}
	.st3{fill:#202020;}
	.st4{opacity:0.46;}
	.st5{stroke:#FFFFFF;stroke-width:0.1;stroke-miterlimit:10;}
	.st6{font-family:'Verveine-Regular';}
	.st7{font-size:2.6575px;}
</style>
<g class="st0">
	<g>
		<g>
			<g>
				<g>
					<g>
						<path class="st1" d="M30.3,16.2c0,0,0-0.4,0-0.5C30.3,15.8,30.3,16.3,30.3,16.2z"/>
						<polygon class="st1" points="29.9,17.1 29.9,17 29.8,17.4 						"/>
						<path class="st1" d="M29.5,17.1c0,0.7,0.1-0.1,0.2,0.1l0,0.2l0-0.6C29.6,16.9,29.5,17.3,29.5,17.1z"/>
						<path class="st1" d="M29.2,15.6C29.3,15.8,29.2,15.8,29.2,15.6C29.3,15.6,29.3,15.6,29.2,15.6C29.3,15.6,29.3,15.6,29.2,15.6z
							"/>
						<path class="st1" d="M29.3,15.6C29.3,15.6,29.3,15.4,29.3,15.6L29.3,15.6z"/>
						<path class="st1" d="M29.1,15.7l0.1-0.2c0-0.2-0.1-0.2,0-0.3C29,15.3,29.1,15.5,29.1,15.7z"/>
						<path class="st1" d="M29,16.3l0-0.1C29.1,16.1,29.1,16.1,29,16.3z"/>
						<path class="st1" d="M29.1,15.9l-0.1,0.2c0,0.1,0,0.3,0-0.1C29.1,16.3,29.1,16.1,29.1,15.9z"/>
						<path class="st1" d="M29.2,16c0,0.2,0.1,0.3,0,0.5C29.3,16.5,29.3,15.9,29.2,16z"/>
						<path class="st1" d="M29.5,17.9l0,0.2L29.5,17.9C29.5,17.9,29.5,17.6,29.5,17.9z"/>
						<path class="st1" d="M28.7,15.4c0,0.2,0,0.4,0,0.6l0-0.2C28.8,15.7,28.8,15.6,28.7,15.4z"/>
						<path class="st1" d="M28.8,16l-0.1,0.3C28.8,16.3,28.8,16.1,28.8,16z"/>
						<polygon class="st1" points="29,17.1 29.1,16.5 29,17.1 						"/>
						<polygon class="st1" points="28.5,15.4 28.5,15 28.5,15.5 						"/>
						<path class="st1" d="M28.4,15.4c0-0.3,0-0.5,0-0.7c0,0.1-0.1,0.3-0.1,0.5C28.3,15.1,28.3,15.2,28.4,15.4z"/>
						<path class="st1" d="M28.2,15.6c0-0.1,0-0.2,0.1-0.3C28.2,15.3,28.2,15.4,28.2,15.6z"/>
						<path class="st1" d="M28.6,16.2c0-0.1,0-0.3-0.1-0.4L28.6,16.2L28.6,16.2z"/>
						<path class="st1" d="M28.6,16.2L28.6,16.2C28.6,16.1,28.5,16.1,28.6,16.2C28.5,16.1,28.6,16.1,28.6,16.2z"/>
						<path class="st1" d="M28.6,16.2L28.6,16.2C28.6,16.2,28.6,16.2,28.6,16.2z"/>
						<path class="st1" d="M28.9,16.7c0,0.2-0.1,0.5,0,0.9C28.9,17.2,28.8,17,28.9,16.7z"/>
						<path class="st1" d="M28.7,16.7L28.7,16.7c0.1,0,0-0.2,0.1-0.3L28.7,16.7z"/>
						<polygon class="st1" points="28.6,16.8 28.7,16.7 28.6,16.7 						"/>
						<path class="st1" d="M28.3,16c0,0.2-0.1,0.2-0.1,0.2c0,0.1,0.1,0.1,0.1,0.1C28.3,16.2,28.3,16,28.3,16z"/>
						<path class="st1" d="M28.4,16.1C28.4,16.1,28.4,16.1,28.4,16.1C28.4,16.2,28.4,16.2,28.4,16.1z"/>
						<path class="st1" d="M27.9,16.2C27.9,16.2,27.9,16.3,27.9,16.2L27.9,16.2L27.9,16.2z"/>
						<path class="st1" d="M28.3,16.4c0,0.1,0,0,0.1-0.2C28.4,16.3,28.4,16.4,28.3,16.4C28.3,16.4,28.3,16.5,28.3,16.4z"/>
						<path class="st1" d="M28.1,15.8c0,0.1,0,0.2,0.1,0.2C28.1,15.9,28.1,15.7,28.1,15.8z"/>
						<path class="st1" d="M28.4,16C28.4,16,28.4,16,28.4,16C28.4,15.9,28.4,16,28.4,16z"/>
						<path class="st1" d="M28.4,16c0,0.1,0,0.2,0,0.3c0,0,0-0.1,0-0.1C28.4,16.1,28.4,16.1,28.4,16z"/>
						<path class="st1" d="M27.8,19c0-0.4,0.1-0.8,0.1-0.3c0.1-0.3,0-1.6-0.1-2.3c0,0.2,0,0.3-0.1,0.6c0,0.2,0.1,0.5,0.1,0.9
							c-0.1,0.2-0.1-0.1-0.1-0.3c0,0.5-0.1,0.7-0.1,1.4l0.1-0.3C27.8,18.7,27.8,18.9,27.8,19z"/>
						<path class="st1" d="M28,16.3L28,16.3c0-0.1,0-0.3-0.1-0.6c0,0.2,0,0.3-0.1,0.5L28,16.3L28,16.3z"/>
						<path class="st1" d="M28.1,16.3c0,0.4-0.1,0.6,0,1.1c0.1,0,0.1-0.4,0.1-0.5C28.1,16.9,28.2,16.6,28.1,16.3
							C28.2,16.3,28.2,16.2,28.1,16.3c0-0.1,0-0.2,0-0.3l0,0l0,0l0,0c0,0.1,0,0.1,0,0.1l0,0C28.2,16.2,28.1,16.2,28.1,16.3
							c0-0.1,0-0.1,0-0.2l0-0.1l0,0L28,16.3C28.1,16.4,28.1,16.3,28.1,16.3z"/>
						<path class="st1" d="M28.8,18.5C28.8,18.4,28.8,18.4,28.8,18.5C28.8,18.4,28.8,18.4,28.8,18.5z"/>
						<path class="st1" d="M28.7,18.2c0-0.1,0-0.2,0-0.2c0,0.1,0,0.2,0,0.3c0-0.1,0.1-0.3,0-0.5l0,0.1c-0.1-0.1-0.1-0.7-0.1-0.7
							C28.7,17.5,28.7,17.8,28.7,18.2z"/>
						<path class="st1" d="M28.4,17.4l-0.1,0.2l0.1,0.4l0-0.2C28.5,17.8,28.4,17.5,28.4,17.4z"/>
						<polygon class="st1" points="27.9,16 27.9,15.6 27.8,16.2 						"/>
						<polygon class="st1" points="27.7,16.1 27.7,15.7 27.7,15.9 						"/>
						<path class="st1" d="M20.1,20.9l0,0.1C20.1,21,20.1,21,20.1,20.9z"/>
						<path class="st1" d="M20.3,21l0-0.2C20.3,20.9,20.3,21,20.3,21z"/>
						<path class="st1" d="M24.4,16.1c0-0.4-0.1-0.9-0.1-0.5L24.4,16.1C24.4,16,24.4,16,24.4,16.1z"/>
						<path class="st1" d="M22.1,18.7c0,0,0,0.1,0,0.1c0-0.1,0-0.3,0-0.4C22.2,18.5,22.2,18.6,22.1,18.7z"/>
						<path class="st1" d="M22.1,20.5l-0.1-0.3C22.1,20.3,22.1,20.4,22.1,20.5z"/>
						<path class="st1" d="M18.9,21.4l0,0.4C18.9,21.8,18.9,21.6,18.9,21.4z"/>
						<path class="st1" d="M26.4,16.2c0-0.2-0.1-0.2-0.1-0.3C26.3,16.2,26.3,16.6,26.4,16.2z"/>
						<path class="st1" d="M20.2,16.3c0,0.1,0,0.2,0,0.3C20.2,16.5,20.2,16.4,20.2,16.3z"/>
						<path class="st1" d="M26.1,16c0,0,0,0.1,0,0.1c0-0.1,0.1-0.1,0.1-0.1C26.2,15.8,26.2,15.7,26.1,16z"/>
						<path class="st1" d="M14.5,21C14.5,21,14.5,21,14.5,21C14.5,21,14.5,21,14.5,21z"/>
						<path class="st1" d="M13.3,16.6C13.3,16.6,13.3,16.6,13.3,16.6C13.3,16.6,13.3,16.6,13.3,16.6z"/>
						<path class="st1" d="M27.2,15.9C27.2,15.8,27.2,15.8,27.2,15.9L27.2,15.9z"/>
						<path class="st1" d="M27.3,17.6c0,0,0,0.1,0,0.2C27.3,17.7,27.3,17.6,27.3,17.6z"/>
						<path class="st1" d="M25.9,18.7L25.9,18.7C25.9,18.7,25.9,18.7,25.9,18.7z"/>
						<path class="st1" d="M27.2,16.1c0-0.1,0-0.1,0-0.1C27.2,16,27.2,16,27.2,16.1z"/>
						<path class="st1" d="M27.2,15.9C27.2,15.9,27.2,15.9,27.2,15.9C27.3,15.8,27.2,15.8,27.2,15.9z"/>
						<path class="st1" d="M27.1,15.9C27.2,15.9,27.2,15.9,27.1,15.9C27.2,15.9,27.2,15.9,27.1,15.9C27.2,15.9,27.2,15.9,27.1,15.9z
							"/>
						<path class="st1" d="M16.8,19.9C16.8,19.9,16.8,19.8,16.8,19.9C16.8,20,16.8,20,16.8,19.9z"/>
						<polygon class="st1" points="23.7,20.6 23.7,20.6 23.7,20.6 						"/>
						<path class="st1" d="M23.6,20.9c0-0.5,0.1-0.5,0.1-0.4l0-1.3L23.6,20.9z"/>
						<path class="st1" d="M19.6,21.1l0.1,0.4c-0.1,0.6-0.2,0.4-0.1,1c0-1.4,0.3-0.1,0.3-1.5l0,0.3c0,0,0,0.1,0,0.1
							c0.1,0.7,0.1-1,0.2-0.8c0,0.1,0.1,0.3,0,0.5l0.1-0.3c0,0,0,0.3,0,0.2l0.1-0.1l0,0c0-0.2,0.1-0.5,0.1-0.7c0,0.2,0,0.1,0,0.3
							l0.1-0.3c0,0.4,0,0.7-0.1,0.6c0.1,1.4,0.1-0.3,0.2,0.5l-0.1,0.2c0,0.8,0.1,0.5,0.2,1c0-0.3-0.2-1.2-0.1-1.5
							c0,0.1,0.1,0.2,0.1-0.1c0,0.5,0,0.4,0.1,0.3l0,0.6c0.1-0.2,0.1-0.5,0.1-0.8c0.1,0.1,0.1,0.6,0.1,1c0.1,0.1-0.1-0.8,0.1-0.9
							c0.1,0.2,0.2,0,0.3-0.4c0.1,0.2,0,0.4,0,0.6l0.1-0.5c0,0,0,0.2,0,0.2c0-0.2,0-0.6,0.1-0.8c0-0.7,0.1,1,0.2,0.2
							c0,0.2,0,0.4,0,0.6c0.1-0.5,0.1-0.4,0.2-1.1l0.1,0.4c-0.1-0.5,0-1,0.1-1.5c0-0.2,0-0.4-0.1-0.5l0.1-0.3c0,0.1,0,0.3,0,0.6
							c0-0.1,0-0.1,0-0.2c0,0.2,0,0.6,0,1c0-0.1,0-0.3,0-0.4c0,0.4-0.1,0.8-0.1,1.2c0-0.1,0-0.1,0-0.2c0,0.1,0,0.2,0,0.3
							c0,0.1,0-0.1,0-0.2l0,0.7l0-0.3l0.2,0.4c0.1-0.7,0.2-1.8,0.4-2.1c0,0.5,0,0.9,0,1.5c0-0.7-0.1,0.3-0.2,0.1c0,0.1,0,0.4,0,0.5
							l0.2-0.6c0,0.5,0,0.4,0.1,0.6c0-1,0.1-0.7,0.2-1c0,0.3,0,0.7-0.1,0.6c0.1,0.8,0.1-1.2,0.2-0.5c0,0,0,0,0,0.1
							c0-0.3,0.2-0.1,0.1,0.2l0,0c0.1,0.1,0.4,0,0.4-0.8c0,0.1,0,1,0,1.2l0.2-2.9c0,0.7,0.1,2.5,0,2.9c0,0.1,0.1,0.2,0.1,0
							c0-0.1-0.1-1.1,0-1.1c0.1,0.8,0.1,0.4,0.2,1.1c0-0.2,0-1.3,0.1-1.3c0,0.2,0,1.1,0,1.2l0.1-1.1c0,0.2,0,1,0,1.3
							c0-0.2,0.1,0,0.1-0.1l-0.1-0.3c0.1,0.2,0.1-1.6,0.3-1.5c0,0.2,0,1.4,0,1.6c0-0.6,0.1-2.8,0.3-3.2l0,0.3l0.1-0.4
							c-0.1,0.9-0.2,2.7-0.3,3.4c0.1,0.3,0,0.4,0.1,0.4c0,0.3,0,0.5-0.1,0.5l0.2,0.2c0-0.7,0.1-0.7,0.1-1.2L24.7,21
							c0-0.7,0.1-1.9,0.2-1.8c0,0.3,0,1.2,0,1.4c0-0.2,0.1-0.4,0.1-0.3L25,20.7c0.1,0.3,0.1-0.9,0.2-0.2c0,0,0.1,0.9,0.1,0.5
							c-0.1-0.8-0.1-3.1,0-3.7c0,0.1,0.2,0.7,0.2,1.1c0.1,0.6-0.1,1.4,0,2c0-0.2,0-0.4,0-0.5c0,0.2,0,0.6,0.1,0.5
							c0-0.7,0.1,0.1,0-0.6c0.1-0.2,0.1,0.1,0.1,0.1c0-0.4,0.1-1.5,0.1-1.7c0,0.2,0,0.4,0,0.5c0.1,0.1,0.2,0.4,0.3,0.4
							c0,0.2,0.1,0.4,0.1,0.7c0-0.1,0-0.4,0.1-0.4c0.1,0.6-0.1,0.1,0,0.8c0-0.4,0.1-0.5,0.2-0.8c0-0.6-0.1-0.1-0.2,0.1
							c0-0.8,0.1-1.7,0.2-2.1c0.1-0.2,0,0.5,0.1,0.4c0.2,0.1,0.2-1.5,0.3-0.9c0.1,0.5,0,1.1,0,1.5c-0.1,0.2-0.1-0.3-0.2-0.3l0.1,0.3
							c0,0.2-0.1,0.3-0.1,0.2c0.1,0.5,0.3,0.1,0.5,0.5c0-0.2,0.1-0.4,0-0.6l0,0.1c0-0.4,0.1-0.6,0-0.8c0.1-0.3,0.1-0.8,0.2-0.5
							l0,0.6c0-0.2-0.1-0.4-0.1-0.2c0-0.3,0.1,0.8,0.2,0l-0.1-0.4c0.1-0.3,0.1-1,0.2-0.8c0-0.6,0,0.1-0.1-0.6c0.1,0.9-0.2,0-0.1,0.9
							c-0.1-0.8-0.1-0.3-0.2-1.1c0,0.2,0,0.4,0,0.3c0,0.1,0,0.1,0,0.2l0,0l0,0c0,0,0,0,0,0c0,0.1,0,0.2,0,0.3c0,0.5-0.1,0.4-0.2,0.7
							c0-0.1,0-0.2,0-0.4L27,17c0-0.4-0.1-0.7,0-1l-0.1,0c-0.1-0.3-0.1-0.4-0.2-0.2c0-0.1-0.1,0.5-0.1,0.1l-0.1,0.3l0-0.1
							c-0.1-0.1-0.3,0.7-0.4-0.1c0,0.1-0.1,0.3-0.2,0.1l0-0.4c-0.1,0.1-0.2-0.4-0.2,0c-0.1-1-0.3-0.2-0.4-0.4l0,0.5
							c-0.1,0-0.1,0.1-0.2,0.3l0,0.4c-0.1,0.4-0.2-0.3-0.3-0.3c0-0.2,0-0.1,0.1,0c-0.1-1-0.3,0.7-0.4,0c0,0.2-0.1,0.1-0.1,0
							c0,0,0,0,0,0c0,0,0,0,0,0c0-0.1,0-0.2,0-0.2c0,0.1,0,0.2,0,0.2c0,0-0.1,0.1-0.1,0.2l0-0.5c0,0,0,0,0,0c0-0.2,0,0.2,0,0.6
							c0,0.1,0,0.2,0,0.3c0-0.8-0.1,0.3-0.1-0.6c0,0.4-0.2,0.3-0.2,1.2c0-0.1,0-0.2,0-0.2c0-0.1-0.1-0.2-0.1,0l0-0.6l-0.1,0.8
							c-0.1-0.4-0.1-0.6,0-1.1c-0.1,0.7-0.1,0.3-0.2,1l0-0.4c0,0-0.1,0.5-0.1,0.2c-0.1-0.8-0.4-0.1-0.6-0.8c0,1.2-0.1-0.5-0.1,0.4
							c0-0.3,0-0.4,0-0.7c-0.1,0.3-0.2-0.4-0.2,0.3c0-0.3,0-0.4,0-0.6c0,0.1,0,0.2,0,0.1c0-0.2,0-0.2,0-0.4c-0.1,0-0.1,0.9-0.1,1.7
							c-0.1-0.4-0.1-0.3-0.1,0.2c0-0.3-0.1-0.5,0-0.6c0,0-0.2-0.4-0.3,0.3c0-0.2-0.1,0-0.1,0c-0.1,0-0.1-0.1-0.2,0l0,0.1
							c0,0.8-0.1,0.2-0.1,0.3l0-0.1c-0.2-0.6-0.1,0.3-0.2-0.4l0,0.5c0,1-0.1-0.6-0.2-0.2l0,0.3c-0.1,0.4-0.1-1.4-0.2-1.5
							c0-0.1,0-0.1,0-0.2c-0.1-0.6,0,0.6-0.1,0.8c0-0.3,0-0.9,0-0.9c0-0.3-0.2,1.1-0.3,0.4c0,0.3,0,0.5,0,0.7
							c-0.1,0.1-0.2-1-0.3-0.2c0-0.1,0-0.1,0-0.2C20.1,16.8,20,17,20,17.4c0-1.7-0.3,0.8-0.3-0.7l-0.2,0.1l0-0.2
							c-0.1-0.1-0.1,0.3-0.2,0.6c0-0.1,0-0.2,0-0.3c-0.2-0.3-0.2-0.2-0.3,0.5l0-0.5c0,0.3-0.2-0.8-0.4-0.2c0-0.1,0-0.2,0-0.2
							c-0.2,0.6-0.4-1.4-0.5,0.4L18,17.4c0.1,0.1,0,0.8,0,1.1c-0.1,0.1-0.1-0.5-0.1-0.6l0,0.1c0-0.9-0.2-0.3-0.2-1
							c-0.3,0-0.6-0.5-0.8-0.5l0,0.7l-0.1,0c0-0.2,0-0.6,0-0.5c0-0.4-0.1,0.3-0.1,0.5c-0.1-0.3,0.1-0.9,0-0.9l-0.1,0.1l0,0.1
							c0,0.3-0.1,0.6-0.1,0.6c0-0.1,0-0.5,0-0.5c0-0.1,0-0.1,0,0l-0.1-0.1l0,0.6c-0.1,0.3-0.1,0-0.1,0.6c-0.1-1-0.4-0.4-0.5-0.7
							c-0.1,0.4-0.2,0.4-0.2,0.4c0,0.1,0,0.8-0.1,0.7c0.1-1.3-0.1-0.6-0.2-1.5c0,0.6-0.2,0.2-0.2,1.1c-0.1-0.1,0-0.5,0-0.8
							c-0.2,0.5-0.3-0.3-0.5-0.2c0,0.2,0,0.4,0,0.7l-0.1-0.9c0,0.1-0.1,1-0.1,0.4c0,0.1,0,0.4,0,0.4c-0.4-0.9-0.8,0.7-1.1-0.9
							c0,0.3,0,0.4,0,0.4c0,0.1,0,0.4,0,0.7l-0.1-0.7c0,0.7-0.2,0-0.2,0.7l0.1-0.1c-0.1,0.7,0.1,1.7,0,2.6c0.1-0.8,0.2,1.3,0.3,0
							c0,0.2,0,0.3,0,0.5c0-0.4,0.1-0.5,0.1-0.3l0,0.1c0.2-0.1,0.3,0.3,0.5,0.6l0-0.5c0,0.1,0.1,0.2,0.1,0.3c0.1-0.7-0.1,0-0.1-0.8
							c0,1,0.3,0,0.4,1.1c0.1,0,0-0.5,0.1-0.5l0,0.3l0-0.4c0,0.1,0.1,0.4,0.1,0.7c0,0,0,0.1,0,0.1c0.1,0.3,0.2-0.1,0.2,0l-0.1-0.2
							c0.2-0.3,0.4,0.1,0.7-0.5l0-0.2c0.2-0.4,0.1,0.2,0.3,0.1l0,0.1c0-0.2,0.1-0.3,0.1-0.3c0,0.3,0.1,0.5,0,0.8
							c0.2-0.4,0.1-0.3,0.2-1.2l0,0.4c0-0.3,0-0.5,0.1-0.6c-0.1,0.3,0,0.6,0,1c0.2,0.8,0.3-0.8,0.3,0.4c0.1-1-0.1-0.6-0.1-0.8
							c0-0.3,0.1-0.8,0.1-0.7c0.1,0,0.1,1.3,0.2,1.3c0,0,0,0.1,0,0.1c0,0.3,0.1-0.4,0.2,0.1c0-0.6,0.1,0,0.1-0.8l-0.1,0.2
							c0.1-0.2,0.2-1.1,0.3-0.7c0,0.2,0,0.4-0.1,0.5c0,0.2,0.1-0.2,0.1,0.1c0,0.8-0.2,0.2-0.2,0.8c0,0.3,0.2-0.6,0.1,0.3
							c0.1-1.1,0.1,0.1,0.2-0.7l0,0.5c0-0.1,0-0.3,0.1-0.3l-0.1,0.6c0.1-0.5,0.1,0.5,0.2,0.2c-0.2,0,0-0.6-0.1-0.9
							c0.2-0.6,0.1,1.2,0.3,1c0,0.1-0.1-0.3-0.1-0.5c0,0.1,0.1,0.3,0.1,0.5c0.1-0.1,0-0.5,0-0.8c0,0.6,0.1-0.2,0.1-0.4l0,0.5
							c0.2,0.3,0.1-1,0.2-0.6l-0.1,0.7l0.1-0.2l0,0.5c0.1-0.4,0.1-0.3,0.2-0.1c0-0.3,0-0.9,0.1-0.9c0,0.3,0,0.5,0.1,0.4
							c0,0.3-0.1,0.7-0.1,0.2c0,0.2,0,0.3,0,0.5c0,0.3,0.1,0.1,0.2,0.1c0,0,0,0,0-0.1l0.2-0.7c0,0.2,0,0.3,0,0.5
							c0-0.1,0.1-0.3,0.1-0.3c0,0.4,0,0.8-0.1,1l0.1-0.4c0,0.2,0.1,0.5,0,0.6c0.1,0.2,0.2-0.8,0.3-0.5c0-0.1,0-0.1,0-0.2
							c0.1,0.1,0.2,0.6,0.3,0l0.1,0.7c0.1-0.2-0.1-0.9,0.1-1.2c0.1-0.2,0,0.6,0.1,0.8C19.5,21.1,19.6,20.4,19.6,21.1
							C19.6,21.1,19.6,21,19.6,21.1z M20.6,20.8c0,0.1-0.1,0.4-0.1,0.1C20.6,20.3,20.6,20.6,20.6,20.8z M22.3,19.6
							c0,0.2,0,0.1-0.1-0.1C22.3,19.5,22.3,19.5,22.3,19.6z M26.9,16.3C26.9,16.3,26.9,16.3,26.9,16.3
							C26.8,16.1,26.8,16.2,26.9,16.3z M27,16.5c0-0.1,0-0.1,0-0.2c0,0.1,0,0.1-0.1,0.1C26.9,16.5,26.9,16.6,27,16.5z M16.6,16.6
							l0,0.1C16.6,16.9,16.6,16.8,16.6,16.6z"/>
						<path class="st1" d="M22.1,20.3c0-0.1,0-0.2,0-0.3C22.1,20.1,22.1,20.2,22.1,20.3z"/>
						<polygon class="st1" points="18.9,21.3 18.9,21.3 18.9,21.4 						"/>
						<path class="st1" d="M25.5,20.6c0-0.1,0-0.2,0-0.2C25.5,20.4,25.5,20.5,25.5,20.6z"/>
						<path class="st1" d="M27.5,15.7l-0.1,0.1c0,0,0,0.1,0.1,0.2C27.5,15.8,27.5,15.7,27.5,15.7z"/>
						<path class="st1" d="M28,18.6C28.1,18.6,28.1,18.6,28,18.6l0-0.3C28,18.4,28,18.5,28,18.6z"/>
						<path class="st1" d="M27.5,17.3c0,0.4,0,0.3,0.1,0.2c0,0,0,0,0,0C27.6,16.9,27.6,17.1,27.5,17.3z"/>
						<path class="st1" d="M27.6,17.4C27.7,17.4,27.7,17.4,27.6,17.4C27.7,17.2,27.7,17.4,27.6,17.4z"/>
						<path class="st1" d="M27.1,16.2c0,0.1,0-0.5,0-0.4C27.1,15.3,27,16.5,27.1,16.2z"/>
						<polygon class="st1" points="27.6,18.6 27.6,18.1 27.6,18.5 						"/>
						<path class="st1" d="M27.2,18.2l0.1,0.1C27.3,18.3,27.3,18.2,27.2,18.2C27.3,18.2,27.2,18.1,27.2,18.2z"/>
						<path class="st1" d="M27.3,18.2C27.4,18.2,27.4,18.2,27.3,18.2C27.4,18.1,27.4,18.1,27.3,18.2z"/>
						<polygon class="st1" points="27.5,18.7 27.5,18.6 27.4,18.6 						"/>
						<path class="st1" d="M26.5,18.1l-0.1,0.1c0,0.2,0,0.3,0,0.2C26.5,18.4,26.5,18.3,26.5,18.1z"/>
						<path class="st1" d="M26.7,19.5c0-0.1,0-0.2,0-0.4l0,0.6L26.7,19.5z"/>
						<path class="st1" d="M26.5,19.6c0,0.2-0.1,0.5,0,0.5C26.5,19.9,26.6,19.8,26.5,19.6z"/>
						<polygon class="st1" points="25.4,18.9 25.4,18.8 25.4,17.8 						"/>
						<path class="st1" d="M24.4,21.3c0.1,0.2,0-0.6,0.1-0.3c0-0.2-0.1-0.2,0-0.5C24.4,20.8,24.3,20.6,24.4,21.3z"/>
						<path class="st1" d="M24.4,20.5c0,0,0-0.1,0-0.2C24.4,20.4,24.4,20.5,24.4,20.5z"/>
						<polygon class="st1" points="13.1,16.1 13,15.9 13,16.2 						"/>
						<path class="st1" d="M12.9,16.8l0-0.6L12.9,16.8C12.9,16.8,12.9,16.7,12.9,16.8z"/>
						<path class="st1" d="M20.8,22.1l0-0.2c0-0.2,0-0.2,0-0.2L20.8,22.1z"/>
						<polygon class="st1" points="20,21.6 20,21.6 20,21 						"/>
						<path class="st1" d="M19.3,22.3C19.4,22.3,19.4,22.2,19.3,22.3C19.4,22.3,19.3,21.6,19.3,22.3z"/>
					</g>
				</g>
			</g>
		</g>
	</g>
	<g class="st2">
		<g>
			<g>
				<g>
					<g>
						<path class="st3" d="M13.3,20.5c0,0,0,0.4,0,0.5C13.3,20.9,13.3,20.4,13.3,20.5z"/>
						<polygon class="st3" points="13.6,19.5 13.6,19.7 13.7,19.3 						"/>
						<path class="st3" d="M14,19.5c-0.1-0.7-0.1,0.1-0.2-0.1l0-0.2l0,0.6C13.8,19.7,13.9,19.3,14,19.5z"/>
						<path class="st3" d="M14.2,21.1C14.2,20.8,14.2,20.8,14.2,21.1C14.2,21,14.2,21,14.2,21.1C14.2,21,14.2,21,14.2,21.1z"/>
						<path class="st3" d="M14.2,21C14.1,21.1,14.2,21.3,14.2,21L14.2,21z"/>
						<path class="st3" d="M14.3,20.9l0,0.2c0,0.2,0.1,0.2,0,0.3C14.4,21.3,14.4,21.1,14.3,20.9z"/>
						<path class="st3" d="M14.4,20.4l0,0.1C14.3,20.5,14.3,20.6,14.4,20.4z"/>
						<path class="st3" d="M14.3,20.7l0-0.2c0-0.1,0-0.3,0,0.1C14.3,20.3,14.3,20.5,14.3,20.7z"/>
						<path class="st3" d="M14.3,20.6c0-0.2-0.1-0.3,0-0.5C14.1,20.2,14.2,20.7,14.3,20.6z"/>
						<path class="st3" d="M14,18.8l0-0.2L14,18.8C13.9,18.7,14,19,14,18.8z"/>
						<path class="st3" d="M14.6,21.2c0-0.2,0-0.4,0-0.6l0,0.2C14.6,20.9,14.6,21,14.6,21.2z"/>
						<path class="st3" d="M14.6,20.6l0-0.3C14.6,20.3,14.6,20.5,14.6,20.6z"/>
						<polygon class="st3" points="14.3,19.6 14.3,20.1 14.3,19.6 						"/>
						<polygon class="st3" points="14.8,21.2 14.8,21.6 14.8,21.1 						"/>
						<path class="st3" d="M15,21.2c0,0.3,0,0.5,0,0.7c0-0.1,0.1-0.3,0.1-0.5C15,21.4,15,21.4,15,21.2z"/>
						<path class="st3" d="M15.1,21c0,0.1,0,0.2,0,0.3C15.1,21.3,15.1,21.2,15.1,21z"/>
						<path class="st3" d="M14.7,20.4c0,0.1,0,0.3,0.1,0.4L14.7,20.4C14.7,20.5,14.7,20.5,14.7,20.4z"/>
						<path class="st3" d="M14.7,20.4L14.7,20.4C14.8,20.5,14.8,20.5,14.7,20.4C14.8,20.5,14.8,20.5,14.7,20.4z"/>
						<path class="st3" d="M14.7,20.4C14.7,20.4,14.7,20.4,14.7,20.4C14.7,20.4,14.7,20.4,14.7,20.4z"/>
						<path class="st3" d="M14.5,19.9c0-0.2,0.1-0.5,0-0.9C14.5,19.4,14.5,19.6,14.5,19.9z"/>
						<path class="st3" d="M14.7,19.9L14.7,19.9c-0.1,0,0,0.2,0,0.3L14.7,19.9z"/>
						<polygon class="st3" points="14.7,19.8 14.7,19.9 14.7,19.9 						"/>
						<path class="st3" d="M15,20.6c0-0.2,0-0.2,0.1-0.2c0-0.1-0.1-0.1-0.1-0.1C15,20.4,15,20.6,15,20.6z"/>
						<path class="st3" d="M14.9,20.5C14.9,20.5,14.9,20.5,14.9,20.5C14.9,20.4,14.9,20.4,14.9,20.5z"/>
						<path class="st3" d="M15.3,20.4C15.3,20.3,15.3,20.3,15.3,20.4C15.3,20.3,15.3,20.3,15.3,20.4L15.3,20.4z"/>
						<path class="st3" d="M15,20.2c0-0.1,0,0,0,0.2C14.9,20.3,14.9,20.2,15,20.2C15,20.2,15,20.1,15,20.2z"/>
						<path class="st3" d="M15.2,20.8c0-0.1,0-0.2,0-0.2C15.1,20.7,15.2,20.9,15.2,20.8z"/>
						<path class="st3" d="M14.9,20.6C14.9,20.6,14.9,20.6,14.9,20.6C14.9,20.7,14.9,20.6,14.9,20.6z"/>
						<path class="st3" d="M14.9,20.6c0-0.1,0-0.2,0-0.3c0,0,0,0.1,0,0.1C14.9,20.5,14.9,20.5,14.9,20.6z"/>
						<path class="st3" d="M15.3,17.6c0,0.4,0,0.8-0.1,0.3c0,0.3,0,1.6,0.1,2.3c0-0.2,0-0.3,0-0.6c0-0.2-0.1-0.5-0.1-0.9
							c0.1-0.2,0.1,0.1,0.1,0.3c0-0.5,0.1-0.7,0-1.4L15.3,18C15.3,17.9,15.4,17.7,15.3,17.6z"/>
						<path class="st3" d="M15.2,20.2L15.2,20.2c0,0.1,0,0.3,0.1,0.6c0-0.2,0-0.3,0-0.5L15.2,20.2L15.2,20.2z"/>
						<path class="st3" d="M15.1,20.3c0-0.4,0-0.6,0-1.1c-0.1,0,0,0.4-0.1,0.5C15.2,19.7,15,20,15.1,20.3
							C15.1,20.3,15.1,20.3,15.1,20.3c0,0.1,0,0.2,0,0.3c0,0,0,0,0,0l0,0c0,0,0,0,0,0c0-0.1,0-0.1,0-0.1c0,0,0,0,0,0
							C15.1,20.4,15.1,20.3,15.1,20.3c0,0.1,0,0.1,0,0.2c0,0,0,0,0,0.1c0,0,0,0,0,0l0.1-0.2C15.2,20.2,15.2,20.2,15.1,20.3z"/>
						<path class="st3" d="M14.5,18.2C14.5,18.2,14.5,18.2,14.5,18.2C14.5,18.2,14.5,18.2,14.5,18.2z"/>
						<path class="st3" d="M14.6,18.4c0,0.1,0,0.2,0,0.2c0-0.1,0-0.2,0-0.3c0,0.1,0,0.3,0,0.5l0-0.1c0,0.1,0.1,0.7,0.1,0.7
							C14.6,19.1,14.6,18.8,14.6,18.4z"/>
						<path class="st3" d="M14.8,19.2l0.1-0.2l-0.1-0.4l0,0.2C14.8,18.8,14.8,19.1,14.8,19.2z"/>
						<polygon class="st3" points="15.4,20.6 15.4,21 15.4,20.4 						"/>
						<polygon class="st3" points="15.5,20.5 15.5,20.9 15.5,20.7 						"/>
						<path class="st3" d="M21.8,15.4l0-0.1C21.8,15.3,21.8,15.3,21.8,15.4z"/>
						<path class="st3" d="M21.6,15.3l0,0.2C21.6,15.4,21.6,15.3,21.6,15.3z"/>
						<path class="st3" d="M18.3,20.4c0.1,0.4,0.1,0.9,0.1,0.5L18.3,20.4C18.3,20.5,18.3,20.5,18.3,20.4z"/>
						<path class="st3" d="M20.1,17.7c0,0,0-0.1,0-0.1c0,0.1,0,0.3,0,0.4C20.1,17.9,20.1,17.8,20.1,17.7z"/>
						<path class="st3" d="M20.1,15.9l0.1,0.3C20.1,16.1,20.1,16,20.1,15.9z"/>
						<path class="st3" d="M22.8,14.9l0-0.4C22.7,14.4,22.8,14.6,22.8,14.9z"/>
						<path class="st3" d="M16.7,20.3c0,0.2,0.1,0.2,0.1,0.3C16.7,20.3,16.6,19.9,16.7,20.3z"/>
						<path class="st3" d="M21.9,20c0-0.1,0-0.2,0-0.3C21.9,19.8,21.9,19.9,21.9,20z"/>
						<path class="st3" d="M16.8,20.6c0,0,0-0.1,0-0.1C16.8,20.5,16.8,20.6,16.8,20.6C16.8,20.7,16.8,20.9,16.8,20.6z"/>
						<path class="st3" d="M26.5,15.1C26.5,15.1,26.5,15.1,26.5,15.1C26.5,15.1,26.5,15.1,26.5,15.1z"/>
						<path class="st3" d="M27.8,19.4C27.8,19.4,27.7,19.4,27.8,19.4C27.7,19.5,27.7,19.5,27.8,19.4z"/>
						<path class="st3" d="M15.9,20.7C15.9,20.7,15.9,20.7,15.9,20.7L15.9,20.7z"/>
						<path class="st3" d="M15.8,19c0,0,0-0.1,0-0.2C15.8,18.9,15.8,18.9,15.8,19z"/>
						<path class="st3" d="M17,17.9C17,17.9,17,17.9,17,17.9C17,17.8,17,17.8,17,17.9z"/>
						<path class="st3" d="M15.9,20.5c0,0.1,0,0.1,0,0.1C15.9,20.6,15.9,20.5,15.9,20.5z"/>
						<path class="st3" d="M15.9,20.7C15.9,20.7,15.9,20.7,15.9,20.7C15.9,20.7,15.9,20.8,15.9,20.7z"/>
						<path class="st3" d="M16,20.7C16,20.7,16,20.6,16,20.7C15.9,20.6,16,20.7,16,20.7C16,20.7,16,20.7,16,20.7z"/>
						<path class="st3" d="M24.6,16.3C24.6,16.3,24.6,16.3,24.6,16.3C24.6,16.2,24.6,16.2,24.6,16.3z"/>
						<path class="st3" d="M18.8,15.8C18.8,15.8,18.8,15.8,18.8,15.8C18.8,15.9,18.8,15.9,18.8,15.8L18.8,15.8z"/>
						<path class="st3" d="M18.8,15.5c0,0.5,0,0.5-0.1,0.4l0.1,1.2L18.8,15.5z"/>
						<path class="st3" d="M22.2,15.2l-0.1-0.4c0-0.6,0.1-0.4,0-1c0,1.4-0.2,0.1-0.2,1.5l-0.1-0.3c0,0,0-0.1,0-0.1
							c-0.1-0.6,0,1-0.1,0.8c0-0.1-0.1-0.3-0.1-0.5l-0.1,0.3c0,0,0-0.3,0-0.2l-0.1,0.1l0,0c0,0.2,0,0.5,0,0.7c0-0.2,0-0.1,0-0.3
							l-0.1,0.3c0-0.4,0-0.7,0-0.6c-0.1-1.4,0,0.3-0.2-0.4l0.1-0.2c-0.1-0.8-0.1-0.5-0.2-1c0,0.2,0.2,1.2,0.1,1.5
							c0-0.1-0.1-0.1-0.1,0.1c0-0.5-0.1-0.4-0.1-0.3l0-0.6c0,0.2,0,0.5,0,0.8c-0.1-0.1-0.1-0.6-0.1-1c-0.1-0.1,0.1,0.8,0,0.9
							c-0.1-0.2-0.1,0-0.2,0.4c-0.1-0.2,0-0.4,0-0.6l0,0.5c0,0,0-0.2,0-0.2c0,0.2,0,0.6,0,0.8c0,0.7-0.2-1-0.2-0.2
							c0-0.2,0-0.4,0-0.6c-0.1,0.5-0.1,0.4-0.1,1.1l-0.1-0.4c0.1,0.5,0,1,0,1.5c0,0.2,0.1,0.4,0.1,0.5l-0.1,0.3c0-0.1,0-0.3,0-0.6
							c0,0.1,0,0.1,0,0.2c0-0.2,0-0.6,0-1c0,0.1,0,0.3,0.1,0.4c0-0.4,0-0.8,0-1.2c0,0.1,0,0.1,0,0.2c0-0.1,0-0.2,0-0.3
							c0-0.1,0,0.1,0,0.2l0-0.7l0,0.3l-0.1-0.4c-0.1,0.7-0.1,1.8-0.2,2.1c0-0.5,0-0.9,0-1.5c0.1,0.7,0.1-0.3,0.2-0.2
							c0-0.1,0-0.4,0-0.5l-0.1,0.6c0-0.5,0-0.4-0.1-0.6c0.1,1-0.1,0.7-0.1,1c0-0.3,0-0.7,0.1-0.6c-0.1-0.8-0.1,1.2-0.1,0.5
							c0,0,0,0,0-0.1c0,0.3-0.1,0.1-0.1-0.2l0,0c-0.1-0.1-0.3,0-0.3,0.9c0-0.1,0-1,0-1.2l-0.1,2.9c0-0.7-0.1-2.5-0.1-2.9
							c0-0.1-0.1-0.2-0.1,0c0,0.1,0.1,1.1,0.1,1.1c-0.1-0.8-0.1-0.4-0.2-1.1c0,0.2,0,1.3,0,1.3c0-0.2,0-1.1,0-1.2L18.4,17
							c0-0.2,0-1-0.1-1.3c0,0.2-0.1,0-0.1,0.1l0.1,0.3c-0.1-0.2-0.1,1.6-0.2,1.5c0-0.2,0-1.4-0.1-1.6c0,0.6,0,2.8-0.1,3.2l0-0.3
							l-0.1,0.4c0-0.9,0.1-2.7,0.1-3.4c-0.1-0.3,0-0.4-0.1-0.4c0-0.3,0-0.5,0-0.5l-0.2-0.2c0,0.7-0.1,0.7-0.1,1.2l0.1-0.7
							c0,0.7,0,1.9-0.1,1.8c0-0.3,0-1.2,0-1.4c0,0.2-0.1,0.4-0.1,0.3l0-0.4c-0.1-0.3-0.1,0.9-0.2,0.3c0,0-0.1-0.9-0.1-0.5
							c0.1,0.8,0.2,3.1,0.2,3.7c0-0.1-0.2-0.7-0.2-1.1c-0.1-0.6,0-1.4,0-1.9c0,0.2,0,0.4,0,0.5c0-0.2,0-0.6-0.1-0.5
							c0,0.7-0.1-0.1,0,0.6c0,0.2-0.1-0.1-0.1-0.1c0,0.4,0,1.5,0,1.7c0-0.2,0-0.4,0-0.5c-0.1-0.1-0.2-0.4-0.3-0.4
							c0-0.2-0.1-0.4-0.1-0.7c0,0.1,0,0.4,0,0.4c-0.1-0.6,0.1-0.1,0-0.8c0,0.4-0.1,0.6-0.1,0.8c0,0.6,0.1,0.1,0.2-0.1
							c0,0.8,0,1.7-0.1,2.1c-0.1,0.2-0.1-0.5-0.1-0.4c-0.2-0.1-0.1,1.5-0.2,0.9c-0.1-0.5,0-1.1-0.1-1.5c0.1-0.2,0.1,0.3,0.2,0.3
							l-0.1-0.3c0-0.2,0.1-0.3,0.1-0.2c-0.1-0.5-0.3-0.1-0.4-0.5c0,0.2,0,0.4,0,0.6l0-0.1c0.1,0.4-0.1,0.6,0,0.8
							c0,0.3-0.1,0.8-0.2,0.5l0-0.6c0,0.2,0.1,0.4,0.1,0.2c0,0.3-0.1-0.8-0.2,0l0.1,0.4c0,0.3-0.1,1-0.2,0.8c0.1,0.6,0-0.1,0.1,0.6
							c-0.1-0.9,0.2,0,0.1-0.9c0.1,0.8,0.1,0.3,0.2,1c0-0.2,0-0.4,0-0.3c0-0.1,0-0.1,0-0.2c0,0,0,0,0,0c0,0,0,0,0,0c0,0,0,0,0,0
							c0-0.1,0-0.2,0-0.3c0-0.5,0.1-0.5,0.1-0.7c0,0.1,0,0.2,0,0.4l0-0.4c0,0.4,0.1,0.7,0,1l0.1,0c0.1,0.2,0.1,0.3,0.1,0.2
							c0,0.1,0.1-0.5,0.1-0.1l0.1-0.3l0,0.1c0.1,0.1,0.2-0.8,0.4,0.1c0-0.1,0.1-0.3,0.1-0.1l0,0.4c0-0.1,0.2,0.4,0.2,0
							c0.1,1,0.2,0.2,0.3,0.4l0-0.5c0.1,0,0.1-0.1,0.2-0.3l0-0.4c0-0.4,0.2,0.3,0.3,0.3c0,0.2,0,0.1,0,0c0.2,1,0.2-0.7,0.4,0
							c0-0.2,0-0.1,0.1,0c0,0,0,0,0,0c0,0,0,0,0,0c0,0.1,0,0.2,0,0.2c0-0.1,0-0.2,0-0.2c0,0,0-0.1,0.1-0.2l0,0.5c0,0,0,0,0,0
							c0,0.2,0-0.2,0-0.6c0-0.1,0-0.2,0-0.3c0.1,0.8,0.1-0.3,0.1,0.6c0-0.4,0.1-0.3,0.1-1.2c0,0.1,0,0.2,0,0.2
							c0,0.1,0.1,0.2,0.1-0.1l0,0.6l0-0.8c0.1,0.4,0.1,0.6,0.1,1.1c0.1-0.7,0.1-0.3,0.1-1l0,0.4c0,0,0.1-0.5,0.1-0.2
							c0.1,0.7,0.4,0.1,0.6,0.8c-0.1-1.2,0.1,0.5,0.1-0.4c0,0.3,0.1,0.4,0,0.7c0.1-0.3,0.2,0.4,0.2-0.3c0,0.3,0,0.4,0,0.6
							c0-0.1,0-0.2,0-0.1c0,0.2,0,0.2,0,0.4c0.1-0.1,0.1-0.9,0.1-1.7c0.1,0.4,0.1,0.3,0.1-0.2c0,0.3,0.1,0.5,0,0.6
							c0,0,0.2,0.4,0.2-0.3c0,0.2,0,0,0.1,0c0.1,0,0.1,0.1,0.2,0l0-0.1c0-0.8,0.1-0.2,0.1-0.3l0,0.1c0.2,0.6,0.1-0.3,0.2,0.4l0-0.5
							c0-1,0.1,0.6,0.2,0.2l0-0.3c0-0.4,0.2,1.4,0.2,1.5c0,0.1,0,0.1,0,0.2c0.1,0.6,0-0.6,0.1-0.8c0,0.3,0,0.9,0.1,0.9
							c0,0.3,0.1-1.1,0.2-0.5c0-0.3-0.1-0.5,0-0.7c0.1-0.1,0.2,1,0.2,0.2c0,0.1,0,0.1,0,0.2c0-0.2,0.1-0.4,0.1-0.8
							c0.1,1.7,0.3-0.8,0.3,0.7l0.1-0.1l0,0.2c0.1,0.1,0.1-0.3,0.1-0.6c0,0.1,0,0.2,0,0.3c0.1,0.3,0.2,0.2,0.2-0.5l0,0.5
							c0-0.3,0.2,0.8,0.3,0.2c0,0.1,0,0.2,0,0.2c0.1-0.6,0.4,1.4,0.4-0.4l0.1-0.4c-0.1-0.1,0-0.8-0.1-1.1c0-0.1,0.1,0.5,0.1,0.6
							l0-0.1c0,0.9,0.2,0.3,0.2,1c0.2-0.1,0.5,0.5,0.7,0.5L24.6,19l0.1,0c0,0.2,0.1,0.6,0,0.5c0,0.4,0.1-0.4,0.1-0.5
							c0.1,0.3,0,0.9,0,0.9l0-0.1l0-0.1c0-0.3,0-0.6,0.1-0.6c0,0.1,0,0.5,0.1,0.5c0,0.1,0,0.1,0,0l0.1,0.1L25,19.2
							c0-0.3,0.1,0,0-0.6c0.1,1,0.4,0.3,0.4,0.7c0-0.4,0.1-0.4,0.2-0.4c0-0.1-0.1-0.8,0-0.7c0,1.3,0.1,0.6,0.2,1.5
							c-0.1-0.6,0.2-0.2,0.1-1.1c0.1,0.1,0,0.5,0.1,0.8c0.1-0.5,0.3,0.3,0.5,0.1c0-0.2,0-0.4,0-0.7l0.1,0.9c0-0.1,0-1,0.1-0.4
							c0-0.1,0-0.4,0-0.4c0.4,0.8,0.6-0.7,1,0.9c-0.1-0.3,0-0.4,0-0.4c0-0.1,0-0.4,0-0.7l0.2,0.7c0-0.7,0.1-0.1,0.1-0.7l0,0.1
							c0-0.7-0.1-1.7-0.2-2.6c0,0.9-0.2-1.2-0.3,0c0-0.2,0-0.3,0-0.5c0,0.4,0,0.5-0.1,0.3l0-0.1c-0.2,0.1-0.3-0.3-0.5-0.6l0,0.5
							c0-0.1-0.1-0.2-0.1-0.3c0,0.7,0.1,0,0.1,0.8c-0.1-1-0.3,0-0.4-1.1c-0.1,0,0,0.5,0,0.5l0-0.3l0,0.4c0-0.1-0.1-0.4-0.1-0.7
							c0,0,0-0.1,0-0.1c-0.1-0.3-0.1,0.1-0.2,0l0.1,0.2c-0.2,0.3-0.4-0.1-0.5,0.5l0,0.2c-0.1,0.4-0.1-0.2-0.2,0l0-0.1
							c0,0.2-0.1,0.3-0.1,0.3c0-0.3-0.1-0.5-0.1-0.8c-0.1,0.4-0.1,0.4-0.1,1.2l0-0.4c0,0.3,0,0.5-0.1,0.6c0-0.3-0.1-0.6,0-1
							c-0.2-0.8-0.2,0.8-0.3-0.4c0,1,0.1,0.6,0.1,0.8c0,0.3,0,0.8-0.1,0.7c0,0-0.1-1.3-0.2-1.3c0,0,0-0.1,0-0.1
							c-0.1-0.3-0.1,0.4-0.1-0.1c0,0.6-0.1,0,0,0.8l0.1-0.2c-0.1,0.2-0.1,1.1-0.2,0.7c0-0.2,0-0.4,0-0.5c0-0.2-0.1,0.2-0.1-0.1
							c0-0.8,0.1-0.2,0.2-0.8c0-0.3-0.1,0.6-0.1-0.3c0,1.1-0.1-0.1-0.2,0.7l0-0.5c0,0.1,0,0.3-0.1,0.3l0-0.6c0,0.5-0.1-0.5-0.2-0.2
							c0.1,0,0.1,0.6,0.1,0.9c-0.1,0.6-0.1-1.2-0.3-1c0-0.1,0.1,0.3,0.1,0.5c0-0.1-0.1-0.3-0.1-0.5c-0.1,0.1,0,0.5,0,0.8
							c-0.1-0.6,0,0.2-0.1,0.4l0-0.5c-0.1-0.3,0,1-0.1,0.6l0-0.7l-0.1,0.2l0-0.5c-0.1,0.4-0.1,0.3-0.2,0.2c0,0.3,0,0.9,0,0.9
							c-0.1-0.3,0-0.5-0.1-0.4c0-0.3,0-0.7,0.1-0.2c0-0.2,0-0.3,0-0.5c-0.1-0.3-0.1-0.1-0.1-0.1c0,0,0,0,0,0.1l-0.1,0.7
							c0-0.2,0-0.3,0-0.5c0,0.1,0,0.3-0.1,0.3c0-0.4,0-0.8,0-1l-0.1,0.4c0-0.2-0.1-0.5-0.1-0.6c-0.1-0.2-0.1,0.8-0.2,0.5
							c0,0.1,0,0.1,0,0.2c-0.1-0.1-0.2-0.6-0.2,0l-0.1-0.7c-0.1,0.2,0.1,0.9,0,1.2c-0.1,0.2-0.1-0.6-0.1-0.8
							C22.3,15.1,22.3,15.9,22.2,15.2C22.2,15.2,22.2,15.3,22.2,15.2z M21.3,15.6c0-0.1,0-0.4,0.1-0.1C21.4,16,21.3,15.7,21.3,15.6z
							 M20,16.8c0-0.2,0-0.1,0.1,0.1C20,16.9,20,16.9,20,16.8z M16.2,20.3C16.2,20.3,16.2,20.3,16.2,20.3
							C16.2,20.4,16.2,20.4,16.2,20.3z M16.1,20.1c0,0.1,0,0.1,0,0.2c0-0.1,0-0.1,0-0.1C16.1,20.1,16.1,20,16.1,20.1z M25,19.5
							l0-0.1C25,19.3,25,19.4,25,19.5z"/>
						<path class="st3" d="M20.1,16.1c0,0.1,0,0.2,0,0.3C20.1,16.3,20.1,16.2,20.1,16.1z"/>
						<path class="st3" d="M22.8,14.9C22.8,14.9,22.8,14.9,22.8,14.9C22.8,14.9,22.8,14.9,22.8,14.9L22.8,14.9z"/>
						<path class="st3" d="M17.2,15.9c0,0.1,0,0.2,0,0.2C17.3,16.1,17.3,16,17.2,15.9z"/>
						<path class="st3" d="M15.7,20.9l0-0.1c0,0,0-0.1-0.1-0.2C15.7,20.7,15.7,20.9,15.7,20.9z"/>
						<path class="st3" d="M15.1,17.9C15.1,18,15.1,18,15.1,17.9l0,0.3C15.2,18.2,15.2,18,15.1,17.9z"/>
						<path class="st3" d="M15.6,19.3c0-0.4,0-0.3-0.1-0.2c0,0,0,0,0,0C15.5,19.7,15.6,19.5,15.6,19.3z"/>
						<path class="st3" d="M15.5,19.1C15.5,19.2,15.5,19.2,15.5,19.1C15.5,19.4,15.5,19.2,15.5,19.1z"/>
						<path class="st3" d="M16,20.3c0-0.1,0,0.5,0,0.4C16,21.2,16.1,20.1,16,20.3z"/>
						<polygon class="st3" points="15.5,18 15.5,18.5 15.6,18.1 						"/>
						<path class="st3" d="M15.8,18.3l-0.1-0.1C15.8,18.3,15.8,18.3,15.8,18.3C15.8,18.4,15.8,18.5,15.8,18.3z"/>
						<path class="st3" d="M15.7,18.4C15.7,18.4,15.7,18.4,15.7,18.4C15.7,18.4,15.7,18.4,15.7,18.4z"/>
						<polygon class="st3" points="15.6,17.8 15.6,17.9 15.7,18 						"/>
						<path class="st3" d="M16.5,18.4l0.1-0.1c0-0.2,0-0.3,0-0.2C16.5,18.2,16.4,18.2,16.5,18.4z"/>
						<path class="st3" d="M16.2,17c0,0.1,0,0.2,0,0.4l0-0.6L16.2,17z"/>
						<path class="st3" d="M16.4,16.9c0-0.2,0.1-0.5,0-0.5C16.4,16.6,16.3,16.7,16.4,16.9z"/>
						<polygon class="st3" points="17.4,17.6 17.4,17.6 17.4,18.7 						"/>
						<path class="st3" d="M18.2,15.2c-0.1-0.2,0,0.6-0.1,0.3c0,0.2,0.1,0.2,0.1,0.5C18.2,15.7,18.2,15.8,18.2,15.2z"/>
						<path class="st3" d="M18.1,15.9c0,0,0,0.1,0,0.2C18.1,16,18.1,16,18.1,15.9z"/>
						<polygon class="st3" points="28,19.9 28,20.2 28,19.8 						"/>
						<path class="st3" d="M28,19.2l0,0.6L28,19.2C28.1,19.3,28,19.3,28,19.2z"/>
						<path class="st3" d="M21.1,14.3l0,0.2c0,0.2,0,0.2,0.1,0.2L21.1,14.3z"/>
						<polygon class="st3" points="21.8,14.7 21.8,14.7 21.8,15.3 						"/>
						<path class="st3" d="M22.3,13.9C22.3,13.9,22.3,14.1,22.3,13.9C22.3,13.9,22.4,14.7,22.3,13.9z"/>
					</g>
				</g>
			</g>
		</g>
	</g>
	<g class="st2">
		<g>
			<g>
				<g>
					<g>
						<path class="st3" d="M17.8,15.7c0,0,0.1-0.4,0.1-0.4C17.9,15.3,17.8,15.8,17.8,15.7z"/>
						<polygon class="st3" points="17.5,16.6 17.5,16.4 17.4,16.8 						"/>
						<path class="st3" d="M17.3,16.5c-0.1,0.7,0.1-0.1,0.1,0.1l0,0.2l0.1-0.6C17.4,16.4,17.3,16.7,17.3,16.5z"/>
						<path class="st3" d="M17.5,15C17.5,15.3,17.5,15.2,17.5,15C17.5,15.1,17.5,15,17.5,15C17.5,15,17.5,15,17.5,15z"/>
						<path class="st3" d="M17.5,15C17.6,15,17.6,14.8,17.5,15L17.5,15z"/>
						<path class="st3" d="M17.4,15.2l0.1-0.2c0-0.2,0-0.2,0-0.3C17.5,14.7,17.5,14.9,17.4,15.2z"/>
						<path class="st3" d="M17.3,15.7l0-0.1C17.4,15.5,17.4,15.5,17.3,15.7z"/>
						<path class="st3" d="M17.4,15.4l-0.1,0.2c0,0.1-0.1,0.3,0-0.1C17.3,15.7,17.4,15.5,17.4,15.4z"/>
						<path class="st3" d="M17.4,15.5c0,0.2,0,0.3-0.1,0.5C17.4,15.9,17.5,15.4,17.4,15.5z"/>
						<path class="st3" d="M17.2,17.3l0,0.2L17.2,17.3C17.2,17.3,17.2,17,17.2,17.3z"/>
						<path class="st3" d="M17.4,14.8c0,0.2-0.1,0.4-0.1,0.6l0-0.2C17.3,15.1,17.3,15,17.4,14.8z"/>
						<path class="st3" d="M17.3,15.4l-0.1,0.3C17.2,15.7,17.2,15.5,17.3,15.4z"/>
						<polygon class="st3" points="17.2,16.4 17.3,15.9 17.2,16.5 						"/>
						<polygon class="st3" points="17.3,14.7 17.3,14.4 17.2,14.9 						"/>
						<path class="st3" d="M17.2,14.8c0-0.3,0.1-0.5,0.1-0.7c0,0-0.1,0.3-0.1,0.5C17.2,14.5,17.2,14.6,17.2,14.8z"/>
						<path class="st3" d="M17.1,15c0-0.1,0-0.2,0.1-0.3C17.2,14.7,17.1,14.8,17.1,15z"/>
						<path class="st3" d="M17.2,15.5c0-0.1,0-0.3,0.1-0.4L17.2,15.5L17.2,15.5z"/>
						<path class="st3" d="M17.2,15.5L17.2,15.5C17.2,15.5,17.2,15.5,17.2,15.5C17.2,15.5,17.2,15.5,17.2,15.5z"/>
						<path class="st3" d="M17.2,15.5L17.2,15.5C17.2,15.6,17.2,15.6,17.2,15.5z"/>
						<path class="st3" d="M17.2,16.1c-0.1,0.2-0.1,0.5-0.2,0.8C17.1,16.6,17.1,16.4,17.2,16.1z"/>
						<path class="st3" d="M17.1,16.1l0,0.1c0-0.1,0-0.3,0.1-0.4L17.1,16.1z"/>
						<polygon class="st3" points="17.1,16.2 17.1,16.1 17.1,16 						"/>
						<path class="st3" d="M17.1,15.4c0,0.2-0.1,0.2-0.1,0.2c0,0.1,0,0.1,0,0.1C17.1,15.6,17.1,15.3,17.1,15.4z"/>
						<path class="st3" d="M17.1,15.5C17.1,15.5,17.1,15.5,17.1,15.5C17.1,15.5,17.1,15.6,17.1,15.5z"/>
						<path class="st3" d="M16.9,15.6C16.9,15.6,16.9,15.6,16.9,15.6L16.9,15.6L16.9,15.6z"/>
						<path class="st3" d="M17,15.8c0,0.1,0,0,0-0.1C17.1,15.7,17.1,15.7,17,15.8C17,15.8,17,15.8,17,15.8z"/>
						<path class="st3" d="M17,15.1c0,0.1,0,0.2,0,0.2C17,15.3,17.1,15,17,15.1z"/>
						<path class="st3" d="M17.1,15.4C17.1,15.4,17.1,15.4,17.1,15.4C17.2,15.3,17.1,15.3,17.1,15.4z"/>
						<path class="st3" d="M17.1,15.4c0,0.1,0,0.2-0.1,0.3c0,0,0-0.1,0-0.1C17.1,15.5,17.1,15.4,17.1,15.4z"/>
						<path class="st3" d="M16.4,18.3c0.1-0.4,0.1-0.7,0.1-0.3c0.1-0.3,0.3-1.6,0.3-2.3c0,0.2-0.1,0.3-0.1,0.6c0,0.2,0,0.5-0.1,0.9
							c-0.1,0.2,0-0.1,0-0.4c-0.1,0.5-0.1,0.7-0.3,1.4l0.1-0.2C16.5,18,16.4,18.2,16.4,18.3z"/>
						<path class="st3" d="M16.9,15.7L16.9,15.7c0-0.1,0-0.3,0.1-0.6c0,0.2-0.1,0.3-0.1,0.5L16.9,15.7L16.9,15.7z"/>
						<path class="st3" d="M17,15.6c-0.1,0.4-0.1,0.6-0.2,1.1c0,0,0.1-0.4,0.1-0.5C16.9,16.3,17,15.9,17,15.6
							C17,15.6,17,15.6,17,15.6c0-0.1,0-0.2,0-0.3l0,0l0,0l0,0c0,0.1,0,0.1,0,0.1l0,0C17,15.5,17,15.6,17,15.6c0-0.1,0-0.1,0-0.2
							l0-0.1l0,0L17,15.6C16.9,15.7,17,15.7,17,15.6z"/>
						<path class="st3" d="M16.9,17.8C16.9,17.8,16.9,17.7,16.9,17.8C16.9,17.8,16.9,17.8,16.9,17.8z"/>
						<path class="st3" d="M16.9,17.6c0-0.1,0-0.2,0-0.2c0,0.1,0,0.2-0.1,0.3c0-0.1,0.1-0.3,0.1-0.5l0,0.1c0-0.1,0.1-0.7,0.1-0.7
							C17,16.9,16.9,17.2,16.9,17.6z"/>
						<path class="st3" d="M16.9,16.7l-0.1,0.2l0,0.4l0-0.2C16.9,17.1,16.9,16.9,16.9,16.7z"/>
						<polygon class="st3" points="16.9,15.3 17,14.9 16.9,15.5 						"/>
						<polygon class="st3" points="16.9,15.4 16.9,15 16.9,15.2 						"/>
						<path class="st3" d="M13.6,19.9l0,0.1C13.6,20,13.6,20,13.6,19.9z"/>
						<path class="st3" d="M13.7,20l0-0.2C13.7,19.9,13.6,20,13.7,20z"/>
						<path class="st3" d="M15.6,15.3c0-0.4,0.1-0.9,0-0.5L15.6,15.3C15.6,15.1,15.6,15.2,15.6,15.3z"/>
						<path class="st3" d="M14.5,17.7c0,0,0,0.1,0,0.1c0-0.1,0-0.3,0.1-0.4C14.5,17.6,14.5,17.6,14.5,17.7z"/>
						<path class="st3" d="M14.3,19.5l0-0.3C14.3,19.3,14.3,19.4,14.3,19.5z"/>
						<path class="st3" d="M13.1,20.4l0,0.4C13.1,20.8,13.1,20.6,13.1,20.4z"/>
						<path class="st3" d="M16.3,15.5c0-0.2,0-0.2,0-0.3C16.3,15.5,16.3,15.8,16.3,15.5z"/>
						<path class="st3" d="M14,15.4c0,0.1,0,0.2,0,0.3C14,15.6,14,15.5,14,15.4z"/>
						<path class="st3" d="M16.3,15.2c0,0,0,0.1,0,0.1C16.3,15.2,16.3,15.2,16.3,15.2C16.3,15,16.3,14.9,16.3,15.2z"/>
						<path class="st3" d="M11.7,19.9C11.7,19.9,11.7,19.9,11.7,19.9C11.7,19.9,11.7,19.9,11.7,19.9z"/>
						<path class="st3" d="M11.4,15.5C11.4,15.5,11.4,15.5,11.4,15.5C11.4,15.5,11.4,15.5,11.4,15.5z"/>
						<path class="st3" d="M16.7,15.2C16.7,15.1,16.7,15.1,16.7,15.2L16.7,15.2z"/>
						<path class="st3" d="M16.5,16.9c0,0,0,0.1,0,0.2C16.5,17,16.5,16.9,16.5,16.9z"/>
						<path class="st3" d="M15.8,17.9L15.8,17.9C15.8,18,15.8,17.9,15.8,17.9z"/>
						<path class="st3" d="M16.7,15.4c0-0.1,0-0.1,0-0.1C16.7,15.3,16.7,15.3,16.7,15.4z"/>
						<path class="st3" d="M16.7,15.2C16.7,15.2,16.7,15.2,16.7,15.2C16.7,15.1,16.7,15.1,16.7,15.2z"/>
						<path class="st3" d="M16.7,15.2C16.7,15.2,16.7,15.2,16.7,15.2C16.7,15.2,16.7,15.2,16.7,15.2C16.7,15.2,16.7,15.2,16.7,15.2z
							"/>
						<path class="st3" d="M12.6,18.8C12.6,18.8,12.6,18.8,12.6,18.8C12.5,19,12.5,18.9,12.6,18.8z"/>
						<path class="st3" d="M14.8,19.7L14.8,19.7C14.8,19.7,14.8,19.7,14.8,19.7L14.8,19.7z"/>
						<path class="st3" d="M14.7,20c0.1-0.5,0.1-0.5,0.1-0.4l0.1-1.2L14.7,20z"/>
						<path class="st3" d="M13.4,20.1l0,0.4c-0.1,0.6-0.1,0.4-0.1,1c0.1-1.4,0.1-0.1,0.2-1.5l0,0.3c0,0,0,0.1,0,0.1
							c0,0.7,0.1-1,0.1-0.8c0,0.1,0,0.3,0,0.5l0.1-0.3c0,0,0,0.3,0,0.2l0.1-0.1l0,0c0-0.2,0.1-0.5,0.1-0.7c0,0.2,0,0.1,0,0.3
							l0.1-0.3c0,0.4-0.1,0.7-0.1,0.6c-0.1,1.4,0.1-0.3,0,0.5l0,0.2c-0.1,0.8,0,0.5,0,1c0-0.3,0.1-1.2,0.1-1.5c0,0.1,0,0.2,0-0.1
							c0,0.5,0,0.4,0,0.3l-0.1,0.6c0-0.2,0.1-0.5,0.1-0.8c0,0.1,0,0.6-0.1,1c0,0.1,0-0.8,0.1-0.9c0,0.2,0.1,0,0.1-0.4
							c0,0.2,0,0.4-0.1,0.6l0.1-0.5c0,0,0,0.2,0,0.2c0-0.2,0.1-0.6,0.1-0.8c0.1-0.7,0,1,0.1,0.2c0,0.2,0,0.4-0.1,0.6
							c0.1-0.5,0.1-0.4,0.2-1.1l0,0.4c0-0.5,0.1-1,0.2-1.5c0-0.2,0-0.4,0-0.5l0.1-0.3c0,0.1,0,0.3-0.1,0.6c0-0.1,0-0.1,0-0.2
							c0,0.2-0.1,0.6-0.1,1c0-0.1,0-0.3,0-0.4c0,0.4-0.1,0.8-0.1,1.2c0-0.1,0-0.1,0-0.2c0,0.1,0,0.2,0,0.3c0,0.1,0-0.1,0-0.2
							l-0.1,0.7l0-0.3l0,0.4c0.1-0.7,0.3-1.8,0.3-2c-0.1,0.5-0.1,0.8-0.2,1.5c0.1-0.7-0.1,0.3-0.1,0.1c0,0.1,0,0.4,0,0.5l0.1-0.6
							c-0.1,0.5,0,0.4,0,0.6c0.1-1,0.1-0.7,0.2-1c0,0.3-0.1,0.7-0.1,0.6c-0.1,0.8,0.2-1.2,0.1-0.5c0,0,0,0,0,0.1
							c0-0.3,0.1-0.1,0,0.2l0,0c0,0.1,0.1,0,0.2-0.8c0,0.1-0.1,1-0.1,1.2l0.4-2.8c-0.1,0.7-0.3,2.5-0.4,2.9c0,0.1,0,0.2,0,0
							c0-0.1,0.1-1.1,0.1-1.1c-0.1,0.8,0,0.4-0.1,1.1c0-0.2,0.2-1.3,0.2-1.3c0,0.2-0.1,1.1-0.2,1.2l0.2-1.1c0,0.2-0.1,0.9-0.1,1.3
							c0-0.2,0,0,0.1-0.1l0-0.3c0,0.2,0.2-1.6,0.3-1.5c0,0.2-0.2,1.4-0.2,1.6c0.1-0.6,0.4-2.7,0.5-3.2l0,0.3l0.1-0.4
							c-0.1,0.9-0.4,2.7-0.5,3.4c0,0.3,0,0.4,0,0.4c0,0.3-0.1,0.5-0.1,0.5l0,0.2c0.1-0.7,0.1-0.7,0.2-1.2l-0.2,0.7
							c0.1-0.7,0.3-1.9,0.3-1.8c0,0.3-0.2,1.2-0.2,1.4c0-0.2,0.1-0.4,0.1-0.3l-0.1,0.4c0,0.3,0.2-0.9,0.1-0.2c0,0-0.1,0.9,0,0.5
							c0.1-0.8,0.4-3.1,0.5-3.7c0,0.1,0,0.7-0.1,1.1c-0.1,0.6-0.2,1.4-0.3,1.9c0-0.2,0.1-0.4,0.1-0.5c0,0.2-0.1,0.6,0,0.5
							c0.1-0.7,0,0.1,0.1-0.6c0-0.2,0,0.1,0,0.1c0.1-0.4,0.2-1.5,0.3-1.7c0,0.2,0,0.4-0.1,0.5c0,0.1,0,0.4,0.1,0.4
							c0,0.2,0,0.4-0.1,0.7c0-0.1,0.1-0.3,0.1-0.4c-0.1,0.6,0,0.1-0.1,0.8c0.1-0.4,0.1-0.5,0.2-0.8c0.1-0.6,0-0.1-0.1,0.1
							c0.1-0.8,0.3-1.7,0.4-2.1c0.1-0.2-0.1,0.5,0,0.4c0,0.2,0.3-1.4,0.2-0.8c-0.1,0.5-0.2,1.1-0.2,1.4c-0.1,0.2,0-0.3,0-0.3l0,0.3
							c0,0.2-0.1,0.3-0.1,0.2c0,0.5,0.1,0.1,0.1,0.6c0-0.2,0.1-0.4,0.1-0.6l0,0.1c0-0.4,0.1-0.6,0.1-0.8c0.1-0.3,0.2-0.8,0.2-0.5
							l-0.1,0.6c0-0.2,0-0.4,0-0.2c0.1-0.3-0.1,0.8,0.1,0l0-0.4c0.1-0.3,0.2-0.9,0.2-0.7c0.1-0.6,0,0.1,0.1-0.6
							c-0.1,0.9-0.1,0-0.2,0.9c0.1-0.8,0-0.3,0.1-1c0,0.2,0,0.4-0.1,0.3c0,0.1,0,0.1,0,0.2l0,0l0,0c0,0,0,0,0,0c0,0.1,0,0.2,0,0.3
							c-0.1,0.5-0.1,0.4-0.2,0.7c0-0.1,0-0.2,0.1-0.4l-0.1,0.4c0.1-0.4,0.1-0.7,0.1-1l0,0c0-0.3,0-0.4,0-0.2c0-0.1-0.1,0.5,0,0.1
							l-0.1,0.3l0-0.1c0-0.1-0.2,0.7-0.1-0.1c0,0.1-0.1,0.2-0.1,0.1l0-0.4c0,0.1,0-0.4-0.1,0c0.1-1-0.1-0.2-0.1-0.4L16,15.1
							c0,0-0.1,0.1-0.1,0.3l-0.1,0.4c-0.1,0.4,0-0.3-0.1-0.3c0-0.2,0-0.1,0,0c0.1-1-0.2,0.7-0.2,0c0,0.2,0,0.1,0,0c0,0,0,0,0,0
							c0,0,0,0,0,0c0-0.1,0-0.2,0-0.2c0,0.1,0,0.2,0,0.2c0,0,0,0.1-0.1,0.2l0.1-0.5c0,0,0,0,0,0c0-0.2,0,0.2-0.1,0.6
							c0,0.1,0,0.2-0.1,0.3c0.1-0.8-0.1,0.3,0-0.6c-0.1,0.4-0.1,0.3-0.2,1.1c0-0.1,0-0.2,0-0.2c0-0.1,0-0.2,0,0l0.1-0.6l-0.1,0.8
							c0-0.4,0-0.6,0.1-1.1c-0.1,0.7-0.1,0.3-0.2,1l0-0.4c0,0-0.1,0.5-0.1,0.2c0.1-0.8-0.1-0.1-0.2-0.8c-0.1,1.2,0-0.5-0.1,0.4
							c0-0.3,0-0.4,0.1-0.7c-0.1,0.3,0-0.4-0.1,0.3c0-0.3,0-0.4,0.1-0.6c0,0.1,0,0.2,0,0.1c0-0.2,0-0.2,0-0.3c0,0-0.1,0.9-0.2,1.7
							c0-0.4,0-0.3-0.1,0.2c0-0.3,0-0.5,0.1-0.6c0,0-0.1-0.4-0.1,0.2c0-0.2,0,0,0,0c0,0,0-0.1-0.1,0l0,0.1c-0.1,0.8,0,0.2-0.1,0.3
							l0-0.1c0-0.6-0.1,0.3-0.1-0.4l0,0.5c-0.1,1,0-0.6-0.1-0.2l0,0.3c-0.1,0.3,0.1-1.4,0.1-1.5c0-0.1,0-0.1,0-0.2
							c0-0.6-0.1,0.6-0.1,0.8c0-0.3,0.1-0.9,0.1-0.9c0-0.3-0.2,1.1-0.1,0.4c0,0.3,0,0.5-0.1,0.7c0,0.1,0-1-0.1-0.2
							c0-0.1,0-0.1,0-0.2c0,0.2-0.1,0.3-0.1,0.8c0.1-1.7-0.2,0.8-0.1-0.7l-0.1,0.1l0-0.2c0-0.1-0.1,0.3-0.1,0.6c0-0.1,0-0.2,0-0.3
							c0-0.3,0-0.2-0.2,0.5l0-0.5c0,0.3,0-0.8-0.1-0.2c0-0.1,0-0.2,0-0.2c-0.1,0.6-0.1-1.4-0.2,0.4l-0.1,0.4c0,0.1-0.1,0.8-0.1,1.1
							c0,0.1,0-0.5,0-0.6l0,0.1c0.1-0.9,0-0.3,0-1c-0.1,0-0.2-0.5-0.3-0.5l0,0.7l0,0c0-0.2,0-0.6,0-0.5c0-0.4-0.1,0.3-0.1,0.5
							c0-0.3,0.1-0.9,0.1-0.9l0,0.1l0,0.1c0,0.3-0.1,0.6-0.1,0.6c0-0.1,0-0.5,0-0.5c0-0.1,0-0.1,0,0l0-0.1l0,0.6c0,0.3,0,0-0.1,0.6
							c0-1-0.1-0.4-0.2-0.7c0,0.4-0.1,0.4-0.1,0.4c0,0.1,0,0.8,0,0.7c0.1-1.3,0-0.6,0-1.5c0,0.6-0.1,0.2-0.1,1.1c0-0.1,0-0.5,0-0.8
							c-0.1,0.5-0.1-0.3-0.2-0.2c0,0.2,0,0.4,0,0.7l0-0.9c0,0.1,0,1-0.1,0.4c0,0.1,0,0.4,0,0.4c-0.1-0.9-0.3,0.7-0.4-0.9
							c0,0.3,0,0.4,0,0.4c0,0.1,0,0.4,0,0.7l0-0.7c0,0.7-0.1,0-0.1,0.7l0-0.1c0,0.7,0,1.7,0,2.6c0-0.8,0,1.3,0.1,0
							c0,0.2,0,0.3,0,0.5c0-0.4,0-0.5,0.1-0.3l0,0.1c0.1-0.1,0.1,0.3,0.2,0.6l0-0.5c0,0.1,0,0.2,0,0.3c0-0.7,0,0,0-0.8
							c0,1,0.1,0,0.1,1.1c0,0,0-0.5,0-0.5l0,0.3l0-0.4c0,0.1,0,0.4,0,0.7c0,0,0,0.1,0,0.1c0,0.3,0.1-0.1,0.1,0l0-0.2
							c0.1-0.3,0.1,0.1,0.2-0.5l0-0.2c0.1-0.4,0,0.2,0.1,0.1l0,0.1c0-0.2,0-0.3,0.1-0.3c0,0.3,0,0.5,0,0.8c0.1-0.4,0-0.3,0.1-1.2
							l0,0.4c0-0.3,0-0.5,0.1-0.6c0,0.3,0,0.6-0.1,1c0,0.8,0.1-0.8,0.1,0.4c0.1-1,0-0.6,0-0.8c0-0.3,0.1-0.8,0.1-0.7
							c0,0,0,1.3,0,1.3c0,0,0,0.1,0,0.1c0,0.3,0.1-0.4,0.1,0.1c0-0.6,0,0,0.1-0.8L12.5,19c0-0.2,0.1-1.1,0.1-0.7
							c0,0.2,0,0.4-0.1,0.5c0,0.2,0-0.2,0,0.1c0,0.8-0.1,0.2-0.1,0.8c0,0.3,0.1-0.6,0,0.3c0.1-1.1,0,0.1,0.1-0.7l0,0.5
							c0-0.1,0-0.3,0-0.3l-0.1,0.6c0.1-0.5,0,0.5,0.1,0.2c-0.1,0,0-0.6,0-0.9c0.1-0.6,0,1.2,0,1c0,0.1,0-0.3,0-0.5
							c0,0.1,0,0.3,0,0.5c0.1-0.1,0-0.5,0.1-0.8c0,0.6,0-0.2,0.1-0.4l0,0.5c0,0.3,0.1-1,0.1-0.6l-0.1,0.7l0-0.2l0,0.5
							c0.1-0.4,0.1-0.3,0.1-0.1c0-0.3,0.1-0.9,0.1-0.9c0,0.3,0,0.5,0,0.4c0,0.3-0.1,0.7,0,0.2c0,0.2,0,0.3,0,0.5
							c0,0.3,0,0.1,0.1,0.1c0,0,0,0,0-0.1l0.1-0.7c0,0.2,0,0.3,0,0.5c0-0.1,0-0.3,0.1-0.3c0,0.4-0.1,0.8-0.1,1l0.1-0.4
							c0,0.2,0,0.5,0,0.6c0,0.2,0.1-0.8,0.1-0.4c0-0.1,0-0.1,0-0.2c0,0.1,0,0.6,0.1,0l0,0.7c0-0.2,0-0.9,0.1-1.1
							c0.1-0.2,0,0.6,0,0.8C13.4,20.1,13.4,19.4,13.4,20.1C13.4,20.1,13.4,20,13.4,20.1z M13.8,19.8c0,0.1-0.1,0.4,0,0.1
							C13.8,19.4,13.8,19.6,13.8,19.8z M14.5,18.7c0,0.2,0,0.1,0-0.1C14.4,18.5,14.5,18.6,14.5,18.7z M16.5,15.5
							C16.5,15.6,16.5,15.6,16.5,15.5C16.5,15.4,16.5,15.5,16.5,15.5z M16.5,15.8l0-0.2c0,0.1,0,0.1,0,0.1
							C16.5,15.8,16.5,15.9,16.5,15.8z M12.6,15.6l0,0.1C12.6,15.8,12.6,15.7,12.6,15.6z"/>
						<path class="st3" d="M14.3,19.3c0-0.1,0-0.2,0-0.3C14.3,19.1,14.3,19.2,14.3,19.3z"/>
						<polygon class="st3" points="13.2,20.3 13.2,20.3 13.1,20.4 						"/>
						<path class="st3" d="M15.4,19.7c0-0.1,0-0.2,0-0.2C15.4,19.6,15.4,19.7,15.4,19.7z"/>
						<path class="st3" d="M16.8,15l0,0.1c0,0,0,0.1,0,0.2C16.8,15.1,16.8,15,16.8,15z"/>
						<path class="st3" d="M16.6,18C16.6,17.9,16.6,18,16.6,18l0.1-0.3C16.6,17.7,16.6,17.9,16.6,18z"/>
						<path class="st3" d="M16.6,16.6c-0.1,0.4,0,0.3,0,0.2l0,0C16.7,16.2,16.7,16.4,16.6,16.6z"/>
						<path class="st3" d="M16.6,16.7C16.6,16.7,16.6,16.7,16.6,16.7C16.7,16.5,16.6,16.7,16.6,16.7z"/>
						<path class="st3" d="M16.6,15.5c0,0.1,0.1-0.5,0.1-0.3C16.7,14.6,16.5,15.8,16.6,15.5z"/>
						<polygon class="st3" points="16.4,17.9 16.5,17.4 16.4,17.8 						"/>
						<path class="st3" d="M16.4,17.5l0,0.1C16.4,17.6,16.4,17.5,16.4,17.5C16.4,17.5,16.4,17.4,16.4,17.5z"/>
						<path class="st3" d="M16.4,17.5C16.4,17.5,16.4,17.5,16.4,17.5C16.4,17.4,16.4,17.4,16.4,17.5z"/>
						<polygon class="st3" points="16.4,18 16.4,17.9 16.4,17.9 						"/>
						<path class="st3" d="M16.1,17.4l0,0.1c0,0.2,0,0.3,0,0.2C16.1,17.6,16.1,17.5,16.1,17.4z"/>
						<path class="st3" d="M16,18.7c0-0.1,0-0.2,0-0.4L15.9,19L16,18.7z"/>
						<path class="st3" d="M15.9,18.9c0,0.2-0.1,0.5-0.1,0.5C15.9,19.2,15.9,19,15.9,18.9z"/>
						<polygon class="st3" points="15.6,18 15.6,18 15.7,17 						"/>
						<path class="st3" d="M15,20.4c0,0.2,0.1-0.6,0.1-0.3c0-0.2,0-0.2,0-0.5C15,19.9,15,19.8,15,20.4z"/>
						<path class="st3" d="M15.1,19.6c0,0,0-0.1,0-0.2C15.1,19.6,15.1,19.6,15.1,19.6z"/>
						<polygon class="st3" points="11.3,15 11.3,14.8 11.3,15.1 						"/>
						<path class="st3" d="M11.2,15.8l0-0.6L11.2,15.8C11.2,15.7,11.2,15.6,11.2,15.8z"/>
						<path class="st3" d="M13.7,21.1l0-0.2c0-0.2,0-0.2,0-0.2L13.7,21.1z"/>
						<polygon class="st3" points="13.5,20.6 13.5,20.6 13.5,20 						"/>
						<path class="st3" d="M13.2,21.3C13.2,21.3,13.3,21.2,13.2,21.3C13.2,21.3,13.3,20.6,13.2,21.3z"/>
					</g>
				</g>
			</g>
		</g>
	</g>
	<g>
		<g>
			<g>
				<g>
					<g>
						<path class="st1" d="M11.6,20.5c0,0,0,0.4,0,0.5C11.6,20.8,11.6,20.6,11.6,20.5z"/>
						<polygon class="st1" points="11.5,19.5 11.5,19.7 11.5,19.3 						"/>
						<path class="st1" d="M11.6,19.5c-0.1-0.7,0,0.1,0-0.1l0-0.2l0,0.6C11.5,19.7,11.5,19.3,11.6,19.5z"/>
						<path class="st1" d="M11.7,21C11.6,20.8,11.6,20.8,11.7,21C11.7,21,11.7,21,11.7,21C11.7,21,11.7,21,11.7,21z"/>
						<path class="st1" d="M11.7,21C11.7,21.1,11.7,21.3,11.7,21L11.7,21z"/>
						<path class="st1" d="M11.7,20.9l0,0.2c0,0.2,0,0.2,0,0.3C11.7,21.3,11.7,21.1,11.7,20.9z"/>
						<path class="st1" d="M11.6,20.4l0,0.1C11.6,20.5,11.6,20.6,11.6,20.4z"/>
						<path class="st1" d="M11.6,20.7l0-0.2c0-0.1,0-0.3,0,0.1C11.6,20.3,11.6,20.5,11.6,20.7z"/>
						<path class="st1" d="M11.6,20.6c0-0.2,0-0.3,0-0.5C11.6,20.2,11.6,20.7,11.6,20.6z"/>
						<path class="st1" d="M11.5,18.8l0-0.2L11.5,18.8C11.5,18.7,11.5,19,11.5,18.8z"/>
						<path class="st1" d="M11.7,21.2c0-0.2,0-0.4,0-0.6l0,0.2C11.7,20.9,11.7,21,11.7,21.2z"/>
						<path class="st1" d="M11.7,20.6l0-0.3C11.6,20.4,11.7,20.5,11.7,20.6z"/>
						<polygon class="st1" points="11.6,19.6 11.6,20.1 11.6,19.6 						"/>
						<polygon class="st1" points="11.7,21.3 11.7,21.6 11.7,21.1 						"/>
						<path class="st1" d="M11.7,21.2c0,0.3,0,0.5,0,0.7c0-0.1,0-0.3,0-0.5C11.7,21.5,11.7,21.4,11.7,21.2z"/>
						<path class="st1" d="M11.7,21c0,0.1,0,0.2,0,0.3C11.7,21.3,11.7,21.2,11.7,21z"/>
						<path class="st1" d="M11.7,20.5c0,0.1,0,0.3,0,0.4L11.7,20.5L11.7,20.5z"/>
						<path class="st1" d="M11.7,20.5L11.7,20.5C11.7,20.5,11.7,20.5,11.7,20.5C11.7,20.5,11.7,20.5,11.7,20.5z"/>
						<path class="st1" d="M11.7,20.5L11.7,20.5C11.7,20.4,11.7,20.4,11.7,20.5z"/>
						<path class="st1" d="M11.6,19.9c0-0.2,0-0.5,0-0.9C11.6,19.4,11.6,19.6,11.6,19.9z"/>
						<path class="st1" d="M11.6,19.9L11.6,19.9c0,0,0,0.2,0,0.3L11.6,19.9z"/>
						<polygon class="st1" points="11.6,19.8 11.6,19.9 11.6,20 						"/>
						<path class="st1" d="M11.7,20.6c0-0.2,0-0.2,0-0.2c0-0.1,0-0.1,0-0.1C11.7,20.4,11.7,20.6,11.7,20.6z"/>
						<path class="st1" d="M11.7,20.5C11.7,20.5,11.7,20.5,11.7,20.5C11.7,20.4,11.7,20.4,11.7,20.5z"/>
						<path class="st1" d="M11.7,20.4C11.7,20.4,11.7,20.3,11.7,20.4L11.7,20.4L11.7,20.4z"/>
						<path class="st1" d="M11.7,20.2c0-0.1,0,0,0,0.2C11.7,20.3,11.7,20.3,11.7,20.2C11.7,20.2,11.7,20.2,11.7,20.2z"/>
						<path class="st1" d="M11.7,20.8c0-0.1,0-0.2,0-0.2C11.7,20.7,11.7,20.9,11.7,20.8z"/>
						<path class="st1" d="M11.7,20.6C11.7,20.6,11.7,20.6,11.7,20.6C11.7,20.7,11.7,20.7,11.7,20.6z"/>
						<path class="st1" d="M11.7,20.6c0-0.1,0-0.2,0-0.3c0,0,0,0.1,0,0.1C11.7,20.5,11.7,20.6,11.7,20.6z"/>
						<path class="st1" d="M11.6,17.6c0,0.4,0,0.8,0,0.3c0,0.3,0.1,1.6,0.1,2.3c0-0.2,0-0.3,0-0.6c0-0.2,0-0.5,0-0.9
							c0-0.2,0,0.1,0,0.3c0-0.5,0-0.7,0-1.4l0,0.3C11.6,17.9,11.6,17.7,11.6,17.6z"/>
						<path class="st1" d="M11.7,20.3L11.7,20.3c0,0.1,0,0.3,0,0.6c0-0.2,0-0.3,0-0.5L11.7,20.3L11.7,20.3z"/>
						<path class="st1" d="M11.7,20.3c0-0.4,0-0.6,0-1.1c0,0,0,0.4,0,0.5C11.7,19.7,11.7,20,11.7,20.3
							C11.7,20.3,11.7,20.4,11.7,20.3c0,0.1,0,0.2,0,0.3l0,0l0,0l0,0c0-0.1,0-0.1,0-0.1l0,0C11.7,20.4,11.7,20.4,11.7,20.3
							c0,0.1,0,0.1,0,0.2l0,0.1l0,0L11.7,20.3C11.7,20.3,11.7,20.3,11.7,20.3z"/>
						<path class="st1" d="M11.5,18.2C11.5,18.2,11.5,18.2,11.5,18.2C11.5,18.2,11.5,18.2,11.5,18.2z"/>
						<path class="st1" d="M11.5,18.4c0,0.1,0,0.2,0,0.2c0-0.1,0-0.2,0-0.3c0,0.1,0,0.3,0,0.5l0-0.1c0,0.1,0,0.7,0,0.7
							C11.6,19.1,11.6,18.8,11.5,18.4z"/>
						<path class="st1" d="M11.6,19.3l0-0.2l0-0.4l0,0.2C11.6,18.8,11.6,19.1,11.6,19.3z"/>
						<polygon class="st1" points="11.7,20.6 11.7,21.1 11.7,20.4 						"/>
						<polygon class="st1" points="11.7,20.5 11.7,20.9 11.7,20.7 						"/>
						<path class="st1" d="M12.7,15.7l0-0.1C12.7,15.6,12.7,15.6,12.7,15.7z"/>
						<path class="st1" d="M12.6,15.7l0,0.2C12.6,15.7,12.6,15.7,12.6,15.7z"/>
						<path class="st1" d="M11.9,20.5c0,0.4,0,0.9,0,0.5L11.9,20.5C11.9,20.6,11.9,20.6,11.9,20.5z"/>
						<path class="st1" d="M12.2,17.9c0,0,0-0.1,0-0.1c0,0.1,0,0.3,0,0.4C12.2,18.1,12.2,18,12.2,17.9z"/>
						<path class="st1" d="M12.3,16.1l0,0.3C12.3,16.3,12.3,16.2,12.3,16.1z"/>
						<path class="st1" d="M12.9,15.2l0.1-0.4C13,14.8,12.9,15,12.9,15.2z"/>
						<path class="st1" d="M11.8,20.4c0,0.2,0,0.2,0,0.3C11.8,20.4,11.8,20,11.8,20.4z"/>
						<path class="st1" d="M12.2,20.3c0-0.1,0-0.2,0-0.3C12.2,20.1,12.2,20.2,12.2,20.3z"/>
						<path class="st1" d="M11.8,20.6c0,0,0-0.1,0-0.1C11.8,20.6,11.8,20.7,11.8,20.6C11.8,20.8,11.8,20.9,11.8,20.6z"/>
						<path class="st1" d="M13.5,15.7C13.5,15.7,13.5,15.7,13.5,15.7C13.5,15.7,13.5,15.7,13.5,15.7z"/>
						<path class="st1" d="M12.7,20C12.6,20,12.6,20,12.7,20C12.6,20.1,12.6,20.1,12.7,20z"/>
						<path class="st1" d="M11.7,20.7C11.7,20.8,11.7,20.8,11.7,20.7L11.7,20.7z"/>
						<path class="st1" d="M11.7,19c0,0,0-0.1,0-0.2C11.7,18.9,11.7,19,11.7,19z"/>
						<path class="st1" d="M11.8,17.9L11.8,17.9C11.8,17.9,11.8,17.9,11.8,17.9z"/>
						<path class="st1" d="M11.7,20.5c0,0.1,0,0.1,0,0.1C11.7,20.6,11.7,20.6,11.7,20.5z"/>
						<path class="st1" d="M11.7,20.7C11.7,20.7,11.7,20.7,11.7,20.7C11.7,20.8,11.7,20.8,11.7,20.7z"/>
						<path class="st1" d="M11.7,20.7C11.7,20.7,11.7,20.7,11.7,20.7C11.7,20.7,11.7,20.7,11.7,20.7L11.7,20.7z"/>
						<path class="st1" d="M13,16.8C13,16.8,13,16.8,13,16.8C13,16.7,13,16.7,13,16.8z"/>
						<path class="st1" d="M12.1,16L12.1,16C12.1,16,12.1,16,12.1,16L12.1,16z"/>
						<path class="st1" d="M12.2,15.7c0,0.5,0,0.5,0,0.4l-0.1,1.2L12.2,15.7z"/>
						<path class="st1" d="M12.8,15.6l0-0.4c0.1-0.6,0.1-0.4,0.1-1c-0.2,1.3-0.1,0.1-0.2,1.5l0-0.3c0,0,0-0.1,0-0.1
							c0.1-0.6-0.1,1-0.1,0.8c0-0.1,0-0.3,0-0.5l0,0.3c0,0,0-0.3,0-0.2l0,0.1l0,0c0,0.2-0.1,0.5-0.1,0.7c0-0.2,0-0.1,0-0.3l0,0.3
							c0-0.4,0.1-0.7,0.1-0.6c0.1-1.3,0,0.3,0-0.5l0-0.2c0.1-0.8,0-0.5,0.1-1c0,0.3-0.1,1.2-0.1,1.5c0-0.1,0-0.2,0,0.1
							c0-0.5,0-0.4,0-0.3l0.1-0.6c0,0.2-0.1,0.5-0.1,0.8c0-0.1,0-0.6,0.1-1c0-0.1-0.1,0.8-0.1,0.9c0-0.2,0,0-0.1,0.4
							c0-0.2,0-0.4,0-0.6l-0.1,0.5c0,0,0-0.2,0-0.2c0,0.2-0.1,0.6-0.1,0.8c-0.1,0.7,0.1-1,0-0.2c0-0.2,0-0.4,0.1-0.6
							c-0.1,0.5,0,0.4-0.1,1.1l0-0.4c0,0.5-0.1,1-0.1,1.5c0,0.2,0,0.4,0,0.5l0,0.3c0-0.1,0-0.3,0-0.6c0,0.1,0,0.1,0,0.2
							c0-0.2,0-0.6,0.1-1c0,0.1,0,0.3,0,0.4c0-0.4,0.1-0.8,0.1-1.2c0,0.1,0,0.1,0,0.2c0-0.1,0-0.2,0-0.3c0-0.1,0,0.1,0,0.2l0-0.7
							l0,0.3l0-0.4c-0.1,0.7-0.2,1.8-0.2,2.1c0-0.5,0.1-0.9,0.1-1.5c0,0.7,0-0.3,0-0.1c0-0.1,0-0.4,0-0.5l-0.1,0.6
							c0-0.5,0-0.4,0-0.6c-0.1,1-0.1,0.7-0.1,1c0-0.3,0-0.7,0-0.6c0-0.8-0.1,1.2-0.1,0.5c0,0,0,0,0-0.1c0,0.3,0,0.1,0-0.2l0,0
							c0-0.1-0.1,0-0.1,0.8c0-0.1,0.1-1,0.1-1.2L12,18.9c0-0.7,0.1-2.5,0.1-2.9c0-0.1,0-0.2,0,0c0,0.1,0,1.1,0,1.1
							c0-0.8,0-0.4,0-1.1c0,0.2-0.1,1.2-0.1,1.3c0-0.2,0-1.1,0-1.2L12,17.2c0-0.2,0-1,0-1.3c0,0.2,0,0,0,0.1l0,0.3
							c0-0.2-0.1,1.6-0.1,1.5c0-0.2,0-1.4,0-1.6c0,0.6-0.1,2.8-0.1,3.2l0-0.3l0,0.4c0-0.9,0.1-2.7,0.1-3.4c0-0.3,0-0.4,0-0.4
							c0-0.3,0-0.5,0-0.5l0-0.2c0,0.7,0,0.7,0,1.2l0-0.7c0,0.7-0.1,1.9-0.1,1.8c0-0.3,0-1.2,0-1.4c0,0.2,0,0.4,0,0.3l0-0.4
							c0-0.3,0,0.9,0,0.2c0,0,0-0.9,0-0.5c0,0.8,0,3.1,0,3.7c0-0.1,0-0.7,0-1.1c0-0.6,0-1.4,0-2c0,0.2,0,0.4,0,0.5
							c0-0.2,0-0.6,0-0.5c0,0.7,0-0.1,0,0.6c0,0.2,0-0.1,0-0.1c0,0.4,0,1.5,0,1.7c0-0.2,0-0.4,0-0.5c0-0.1,0-0.4,0-0.4
							c0-0.2,0-0.4,0-0.7c0,0.1,0,0.4,0,0.4c0-0.6,0-0.1,0-0.8c0,0.4,0,0.5,0,0.8c0,0.6,0,0.1,0-0.1c0,0.8,0,1.7,0,2.1
							c0,0.2,0-0.5,0-0.4c0-0.1,0,1.5,0,0.9c0-0.5,0-1.1,0-1.5c0-0.2,0,0.3,0,0.3l0-0.3c0-0.2,0-0.3,0-0.2c0-0.5,0-0.1-0.1-0.5
							c0,0.2,0,0.4,0,0.6l0-0.1c0,0.4,0,0.6,0,0.8c0,0.3,0,0.8,0,0.5l0-0.6c0,0.2,0,0.4,0,0.2c0,0.3,0-0.8,0,0l0,0.4
							c0,0.3,0,1,0,0.8c0,0.6,0-0.1,0,0.6c0-0.9,0,0,0-0.9c0,0.8,0,0.3,0,1c0-0.2,0-0.4,0-0.3c0-0.1,0-0.1,0-0.2l0,0l0,0
							c0,0,0,0,0,0c0-0.1,0-0.2,0-0.3c0-0.5,0-0.5,0-0.7c0,0.1,0,0.2,0,0.4l0-0.4c0,0.4,0,0.7,0,1l0,0c0,0.3,0,0.4,0,0.2
							c0,0.1,0-0.5,0-0.1l0-0.3l0,0.1c0,0.1,0-0.7,0,0.1c0-0.1,0-0.3,0-0.1l0,0.4c0-0.1,0,0.4,0,0c0,1,0,0.2,0,0.4l0-0.5
							c0,0,0-0.1,0-0.3l0-0.4c0-0.4,0,0.3,0,0.3c0,0.2,0,0.1,0,0c0,1,0-0.7,0,0c0-0.2,0-0.1,0,0c0,0,0,0,0,0l0,0c0,0.1,0,0.2,0,0.2
							c0-0.1,0-0.2,0-0.2c0,0,0-0.1,0-0.2l0,0.5c0,0,0,0,0,0c0,0.2,0-0.2,0-0.6c0-0.1,0-0.2,0-0.3c0,0.6,0-0.1,0,0.6
							c0-0.4,0-0.3,0.1-1.2c0,0.1,0,0.2,0,0.2c0,0.1,0,0.2,0,0l0,0.6l0-0.8c0,0.4,0,0.6,0,1.1c0-0.7,0-0.3,0.1-1l0,0.4
							c0,0,0-0.5,0-0.2c0,0.8,0,0.1,0,0.8c0.1-1.2,0,0.5,0-0.4c0,0.3,0,0.4,0,0.7c0-0.3,0,0.4,0-0.3c0,0.3,0,0.4,0,0.6
							c0-0.1,0-0.2,0-0.1c0,0.2,0,0.2,0,0.4c0,0,0.1-0.9,0.1-1.7c0,0.4,0,0.3,0-0.2c0,0.3,0,0.5,0,0.6c0,0,0,0.4,0-0.3
							c0,0.2,0,0,0,0c0,0,0,0.1,0,0l0-0.1c0.1-0.8,0-0.2,0-0.3l0,0.1c0,0.6,0-0.3,0,0.4l0-0.5c0.1-1,0,0.6,0,0.2l0-0.3
							c0-0.4-0.1,1.4-0.1,1.5c0,0.1,0,0.1,0,0.2c-0.1,0.6,0.1-0.6,0.1-0.8c0,0.3-0.1,0.9-0.1,0.9c0,0.3,0.1-1.1,0.1-0.4
							c0-0.3,0.1-0.5,0.1-0.7c0-0.1-0.1,1,0,0.2c0,0.1,0,0.1,0,0.2c0-0.2,0-0.4,0.1-0.8c-0.2,1.6,0.1-0.8-0.1,0.7l0-0.1l0,0.2
							c0,0.1,0-0.3,0.1-0.6c0,0.1,0,0.2,0,0.3c0,0.3,0,0.2,0.1-0.5l-0.1,0.5c0-0.3-0.1,0.8,0,0.2c0,0.1,0,0.2,0,0.2
							c0.1-0.6-0.2,1.4,0.1-0.4l0.1-0.4c0-0.1,0.1-0.8,0.2-1.1c0-0.1-0.1,0.5-0.1,0.6l0-0.1c-0.1,0.9,0,0.3-0.1,1c0,0,0,0.5,0,0.5
							l0.1-0.7l0,0c0,0.2-0.1,0.6-0.1,0.5c-0.1,0.4,0.1-0.3,0.1-0.5c-0.1,0.3-0.1,0.8-0.1,0.9l0-0.1l0-0.1c0.1-0.3,0.1-0.6,0.1-0.6
							c0,0.1-0.1,0.4-0.1,0.5c0,0.1,0,0.1,0,0l0,0.1l0.1-0.6c0.1-0.3,0,0,0.1-0.6c-0.2,1,0,0.4-0.1,0.7c0.1-0.4,0.1-0.4,0.1-0.4
							c0-0.1,0.1-0.8,0.1-0.7c-0.2,1.3-0.1,0.6-0.3,1.5c0.1-0.6,0-0.2,0.2-1c0,0.1-0.1,0.5-0.2,0.8c0.1-0.5,0,0.3,0,0.2
							c0-0.2,0.1-0.4,0.1-0.7l-0.2,0.9c0-0.1,0.2-1,0.1-0.4c0-0.1,0.1-0.4,0.1-0.4c-0.2,0.8,0.2-0.7-0.1,0.9
							c0.1-0.3,0.1-0.4,0.1-0.4c0-0.1,0.1-0.4,0.2-0.7L12.7,20c0.2-0.6,0,0,0.2-0.7l0,0.1c0.2-0.7,0.4-1.6,0.6-2.5
							c-0.2,0.8,0.3-1.2,0-0.1c0-0.2,0.1-0.3,0.1-0.5c-0.1,0.4-0.1,0.5-0.1,0.3l0-0.1c0,0.1,0-0.3,0.1-0.6l-0.1,0.5
							c0-0.1,0-0.2,0.1-0.3c-0.2,0.7,0,0-0.2,0.8c0.2-0.9,0,0,0.2-1.1c0,0-0.1,0.5-0.1,0.5l0.1-0.3l-0.1,0.4c0-0.1,0.1-0.4,0.1-0.7
							c0,0,0-0.1,0-0.1c0.1-0.3-0.1,0.1,0,0l0,0.2c-0.1,0.3,0-0.1-0.2,0.5l0,0.2c-0.1,0.4,0-0.2,0-0.1l0-0.1c0,0.2-0.1,0.3-0.1,0.3
							c0-0.3,0.1-0.5,0.2-0.8c-0.1,0.4-0.1,0.3-0.2,1.2l0.1-0.4C13,17.1,13,17.3,13,17.4c0.1-0.3,0.1-0.6,0.2-1
							c0.1-0.8-0.2,0.8,0-0.4c-0.2,1-0.1,0.6-0.1,0.8c-0.1,0.3-0.1,0.8-0.1,0.7c0,0,0.1-0.3,0.1-0.7c0.1-0.3,0.1-0.6,0.1-0.6
							c0,0,0-0.1,0-0.1c0-0.3-0.1,0.3,0-0.1c-0.1,0.6,0,0-0.1,0.7l0-0.2c0,0.2-0.2,1.1-0.1,0.7c0-0.2,0.1-0.4,0.1-0.5
							c0-0.2,0,0.2,0-0.1c0.1-0.8,0-0.2,0.2-0.8c0.1-0.3-0.1,0.6,0-0.3c-0.2,1.1,0-0.1-0.1,0.7l0.1-0.5c0,0.1-0.1,0.3-0.1,0.3
							l0.1-0.6c-0.1,0.5,0.1-0.5,0-0.2c0,0-0.1,0.6-0.1,0.9c-0.1,0.6,0.2-1.2,0.1-1c0-0.1,0,0.3-0.1,0.5c0-0.1,0-0.3,0.1-0.5
							c0,0.1-0.1,0.5-0.1,0.8c0.1-0.6,0,0.2-0.1,0.4L13,16c0-0.3-0.2,1-0.1,0.6l0.1-0.7l0,0.2l0.1-0.5c-0.1,0.4-0.1,0.3,0,0.1
							c0,0.2-0.1,0.4-0.1,0.6c0,0.2-0.1,0.3-0.1,0.3c0-0.3,0.1-0.5,0-0.4c0-0.3,0.1-0.7,0-0.2c0-0.2,0-0.3,0.1-0.5
							c0-0.3,0-0.1,0-0.1c0,0,0,0,0,0.1l-0.1,0.7c0-0.2,0-0.3,0.1-0.5c0,0.1,0,0.3-0.1,0.3c0.1-0.4,0.1-0.8,0.1-1l-0.1,0.4
							c0-0.2,0.1-0.5,0.1-0.6c0-0.2-0.1,0.8-0.1,0.4c0,0.1,0,0.1,0,0.2C12.9,15.4,12.9,15,12.8,15.6l0.1-0.8c0,0.2-0.1,0.9-0.2,1.1
							c0,0.2,0.1-0.6,0.1-0.8C12.8,15.5,12.7,16.2,12.8,15.6C12.8,15.5,12.8,15.6,12.8,15.6z M12.6,15.9c0-0.1,0.1-0.4,0-0.1
							C12.5,16.3,12.6,16,12.6,15.9z M12.3,17c0-0.2,0-0.1,0,0.1C12.3,17.1,12.3,17.1,12.3,17z M11.8,20.3
							C11.8,20.3,11.8,20.3,11.8,20.3C11.8,20.5,11.8,20.4,11.8,20.3z M11.7,20.1l0,0.2c0-0.1,0-0.1,0-0.1
							C11.7,20.1,11.7,20,11.7,20.1z M12.4,20l0-0.1C12.5,19.7,12.5,19.9,12.4,20z"/>
						<path class="st1" d="M12.3,16.3c0,0.1,0,0.2,0,0.3C12.3,16.5,12.3,16.4,12.3,16.3z"/>
						<polygon class="st1" points="12.9,15.3 12.9,15.3 12.9,15.2 						"/>
						<path class="st1" d="M11.9,16c0,0.1,0,0.2,0,0.2C11.9,16.2,11.9,16.1,11.9,16z"/>
						<path class="st1" d="M11.7,21l0-0.1c0,0,0-0.1,0-0.2C11.7,20.8,11.7,20.9,11.7,21z"/>
						<path class="st1" d="M11.6,18C11.6,18,11.6,18,11.6,18l0,0.3C11.6,18.2,11.6,18.1,11.6,18z"/>
						<path class="st1" d="M11.7,19.4c0-0.4,0-0.3,0-0.2l0,0C11.7,19.7,11.7,19.5,11.7,19.4z"/>
						<path class="st1" d="M11.7,19.2C11.7,19.2,11.7,19.2,11.7,19.2C11.7,19.4,11.7,19.2,11.7,19.2z"/>
						<path class="st1" d="M11.7,20.4c0-0.1,0,0.5,0,0.4C11.8,21.3,11.7,20.1,11.7,20.4z"/>
						<polygon class="st1" points="11.6,18 11.7,18.5 11.7,18.1 						"/>
						<path class="st1" d="M11.7,18.4l0-0.1C11.7,18.3,11.7,18.4,11.7,18.4C11.7,18.4,11.7,18.5,11.7,18.4z"/>
						<path class="st1" d="M11.7,18.4C11.7,18.4,11.7,18.4,11.7,18.4C11.7,18.5,11.7,18.5,11.7,18.4z"/>
						<polygon class="st1" points="11.7,17.9 11.7,18 11.7,18 						"/>
						<path class="st1" d="M11.8,18.5l0-0.1c0-0.2,0-0.3,0-0.2C11.8,18.2,11.8,18.3,11.8,18.5z"/>
						<path class="st1" d="M11.7,17.1c0,0.1,0,0.2,0,0.4l0-0.6L11.7,17.1z"/>
						<path class="st1" d="M11.7,17c0-0.2,0-0.5,0-0.5C11.7,16.7,11.7,16.8,11.7,17z"/>
						<polygon class="st1" points="11.9,17.7 11.9,17.8 11.9,18.8 						"/>
						<path class="st1" d="M12.1,15.3c0-0.2,0,0.6,0,0.3c0,0.2,0,0.2,0,0.5C12,15.8,12,16,12.1,15.3z"/>
						<path class="st1" d="M12,16.1c0,0,0,0.1,0,0.2C12,16.2,12,16.1,12,16.1z"/>
						<polygon class="st1" points="12.5,20.5 12.5,20.8 12.6,20.4 						"/>
						<path class="st1" d="M12.7,19.8l-0.2,0.6L12.7,19.8C12.7,19.9,12.7,20,12.7,19.8z"/>
						<path class="st1" d="M12.7,14.6l0,0.2c0,0.2,0,0.2,0,0.2L12.7,14.6z"/>
						<polygon class="st1" points="12.8,15.1 12.8,15 12.7,15.6 						"/>
						<path class="st1" d="M12.9,14.3C12.9,14.3,12.9,14.4,12.9,14.3C12.9,14.3,12.9,15,12.9,14.3z"/>
					</g>
				</g>
			</g>
		</g>
	</g>
	<g class="st4">
		<g>
			<g>
				<g>
					<g>
						<path class="st3" d="M11.3,19.6c0,0-0.1,0.4-0.1,0.5C11.2,19.9,11.3,19.5,11.3,19.6z"/>
						<polygon class="st3" points="11.5,18.7 11.5,18.8 11.5,18.4 						"/>
						<path class="st3" d="M11.5,18.7c0.1-0.7,0,0.1,0-0.1l0-0.2l-0.1,0.6C11.5,18.8,11.6,18.5,11.5,18.7z"/>
						<path class="st3" d="M11.3,20.2C11.4,19.9,11.4,20,11.3,20.2C11.3,20.1,11.3,20.2,11.3,20.2C11.3,20.2,11.3,20.2,11.3,20.2z"
							/>
						<path class="st3" d="M11.3,20.2C11.3,20.2,11.3,20.4,11.3,20.2L11.3,20.2z"/>
						<path class="st3" d="M11.4,20l0,0.2c0,0.2,0,0.2,0,0.3C11.3,20.5,11.3,20.3,11.4,20z"/>
						<path class="st3" d="M11.4,19.5l0,0.1C11.4,19.7,11.4,19.7,11.4,19.5z"/>
						<path class="st3" d="M11.4,19.8l0-0.2c0-0.1,0.1-0.3,0,0.1C11.4,19.5,11.4,19.7,11.4,19.8z"/>
						<path class="st3" d="M11.4,19.7c0-0.2,0-0.3,0.1-0.5C11.5,19.3,11.4,19.8,11.4,19.7z"/>
						<path class="st3" d="M11.7,17.9l0-0.2L11.7,17.9C11.7,17.9,11.6,18.2,11.7,17.9z"/>
						<path class="st3" d="M11.3,20.4c0-0.1,0.1-0.4,0.1-0.6l0,0.2C11.4,20.1,11.4,20.2,11.3,20.4z"/>
						<path class="st3" d="M11.4,19.8l0-0.3C11.5,19.5,11.5,19.6,11.4,19.8z"/>
						<polygon class="st3" points="11.6,18.7 11.5,19.3 11.6,18.7 						"/>
						<polygon class="st3" points="11.4,20.4 11.3,20.8 11.4,20.2 						"/>
						<path class="st3" d="M11.4,20.4c-0.1,0.3-0.1,0.5-0.1,0.7c0-0.1,0.1-0.3,0.1-0.5C11.3,20.6,11.3,20.6,11.4,20.4z"/>
						<path class="st3" d="M11.4,20.2c0,0.1,0,0.2-0.1,0.3C11.4,20.4,11.4,20.3,11.4,20.2z"/>
						<path class="st3" d="M11.5,19.6c0,0.1-0.1,0.3-0.1,0.4L11.5,19.6C11.5,19.6,11.5,19.6,11.5,19.6z"/>
						<path class="st3" d="M11.5,19.6L11.5,19.6C11.5,19.6,11.5,19.7,11.5,19.6C11.5,19.7,11.5,19.6,11.5,19.6z"/>
						<path class="st3" d="M11.5,19.6C11.5,19.6,11.5,19.6,11.5,19.6C11.5,19.6,11.5,19.6,11.5,19.6z"/>
						<path class="st3" d="M11.5,19.1c0-0.2,0.1-0.5,0.1-0.8C11.6,18.6,11.6,18.8,11.5,19.1z"/>
						<path class="st3" d="M11.6,19.1L11.6,19.1c0,0,0,0.2-0.1,0.3L11.6,19.1z"/>
						<polygon class="st3" points="11.6,19 11.6,19.1 11.6,19.1 						"/>
						<path class="st3" d="M11.5,19.8c0-0.2,0-0.2,0-0.2c0-0.1,0-0.1,0-0.1C11.5,19.6,11.5,19.8,11.5,19.8z"/>
						<path class="st3" d="M11.5,19.7C11.5,19.7,11.5,19.7,11.5,19.7C11.5,19.6,11.5,19.6,11.5,19.7z"/>
						<path class="st3" d="M11.6,19.6C11.6,19.5,11.6,19.5,11.6,19.6C11.6,19.5,11.6,19.5,11.6,19.6L11.6,19.6z"/>
						<path class="st3" d="M11.6,19.4c0-0.1,0,0,0,0.1C11.5,19.5,11.5,19.4,11.6,19.4C11.6,19.4,11.6,19.3,11.6,19.4z"/>
						<path class="st3" d="M11.5,20c0-0.1,0-0.2,0-0.2C11.5,19.9,11.5,20.1,11.5,20z"/>
						<path class="st3" d="M11.5,19.8C11.5,19.8,11.5,19.8,11.5,19.8C11.5,19.9,11.5,19.8,11.5,19.8z"/>
						<path class="st3" d="M11.5,19.8c0-0.1,0-0.2,0-0.3c0,0,0,0.1,0,0.1C11.5,19.7,11.5,19.7,11.5,19.8z"/>
						<path class="st3" d="M12,16.9c-0.1,0.4-0.1,0.8-0.1,0.3c-0.1,0.3-0.3,1.6-0.4,2.3c0-0.2,0.1-0.3,0.1-0.6
							c0-0.2,0.1-0.5,0.1-0.9c0-0.2,0,0.1,0,0.3c0.1-0.5,0.1-0.7,0.2-1.4L12,17.3C12,17.1,12,17,12,16.9z"/>
						<path class="st3" d="M11.6,19.5L11.6,19.5c0,0.1,0,0.3-0.1,0.6c0-0.2,0.1-0.3,0.1-0.5L11.6,19.5L11.6,19.5z"/>
						<path class="st3" d="M11.5,19.5c0.1-0.4,0.1-0.6,0.2-1.1c0,0-0.1,0.4-0.1,0.5C11.7,18.9,11.6,19.2,11.5,19.5
							C11.5,19.5,11.5,19.5,11.5,19.5c0,0.1,0,0.2,0,0.3c0,0,0,0,0,0l0,0c0,0,0,0,0,0c0-0.1,0-0.1,0-0.1c0,0,0,0,0,0
							C11.5,19.6,11.5,19.6,11.5,19.5c0,0.1,0,0.1,0,0.2c0,0,0,0,0,0.1c0,0,0,0,0,0L11.5,19.5C11.6,19.4,11.6,19.5,11.5,19.5z"/>
						<path class="st3" d="M11.8,17.4C11.8,17.4,11.8,17.4,11.8,17.4C11.8,17.4,11.8,17.4,11.8,17.4z"/>
						<path class="st3" d="M11.8,17.6c0,0.1,0,0.2,0,0.2c0-0.1,0-0.2,0.1-0.3c0,0.1-0.1,0.3-0.1,0.5l0-0.1c0,0.1-0.1,0.7-0.1,0.7
							C11.7,18.3,11.7,18,11.8,17.6z"/>
						<path class="st3" d="M11.7,18.4l0-0.2l0.1-0.4l0,0.2C11.8,18,11.7,18.3,11.7,18.4z"/>
						<polygon class="st3" points="11.5,19.8 11.5,20.2 11.6,19.6 						"/>
						<polygon class="st3" points="11.6,19.7 11.5,20.1 11.5,19.9 						"/>
						<path class="st3" d="M13.2,15l0-0.1C13.2,14.9,13.2,15,13.2,15z"/>
						<path class="st3" d="M13.2,15l0,0.2C13.2,15.1,13.2,15,13.2,15z"/>
						<path class="st3" d="M11.9,19.7c-0.1,0.4-0.1,0.9-0.1,0.5L11.9,19.7C11.9,19.9,11.9,19.8,11.9,19.7z"/>
						<path class="st3" d="M12.6,17.2c0,0,0-0.1,0-0.1c0,0.1,0,0.3-0.1,0.4C12.6,17.4,12.6,17.3,12.6,17.2z"/>
						<path class="st3" d="M12.9,15.5l0,0.3C12.9,15.6,12.9,15.6,12.9,15.5z"/>
						<path class="st3" d="M13.4,14.6l0.1-0.4C13.5,14.2,13.4,14.4,13.4,14.6z"/>
						<path class="st3" d="M11.7,19.6c0,0.2,0,0.2,0,0.3C11.7,19.6,11.8,19.2,11.7,19.6z"/>
						<path class="st3" d="M12.4,19.6c0-0.1,0-0.2,0-0.3C12.4,19.4,12.4,19.5,12.4,19.6z"/>
						<path class="st3" d="M11.7,19.9c0,0,0-0.1,0-0.1C11.7,19.8,11.7,19.9,11.7,19.9C11.7,20,11.7,20.2,11.7,19.9z"/>
						<path class="st3" d="M13.8,15C13.8,15,13.8,15.1,13.8,15C13.8,15,13.8,15,13.8,15z"/>
						<path class="st3" d="M13.2,19.4C13.2,19.4,13.2,19.4,13.2,19.4C13.2,19.4,13.2,19.4,13.2,19.4z"/>
						<path class="st3" d="M11.6,19.9C11.6,20,11.6,20,11.6,19.9L11.6,19.9z"/>
						<path class="st3" d="M11.9,18.2c0,0,0-0.1,0-0.2C11.9,18.1,11.9,18.2,11.9,18.2z"/>
						<path class="st3" d="M12.2,17.2C12.2,17.2,12.2,17.2,12.2,17.2C12.2,17.1,12.2,17.1,12.2,17.2z"/>
						<path class="st3" d="M11.6,19.7c0,0.1,0,0.1,0,0.1C11.6,19.8,11.6,19.8,11.6,19.7z"/>
						<path class="st3" d="M11.6,19.9C11.6,19.9,11.6,19.9,11.6,19.9C11.6,20,11.6,20,11.6,19.9z"/>
						<path class="st3" d="M11.6,19.9C11.6,19.9,11.6,19.9,11.6,19.9C11.6,19.9,11.6,19.9,11.6,19.9C11.6,19.9,11.6,19.9,11.6,19.9z
							"/>
						<path class="st3" d="M13.4,16.1C13.4,16.1,13.4,16.2,13.4,16.1C13.4,16,13.4,16,13.4,16.1z"/>
						<path class="st3" d="M12.7,15.3C12.7,15.3,12.7,15.3,12.7,15.3C12.7,15.3,12.7,15.3,12.7,15.3L12.7,15.3z"/>
						<path class="st3" d="M12.8,15c-0.1,0.5-0.1,0.5-0.1,0.4l-0.2,1.2L12.8,15z"/>
						<path class="st3" d="M13.3,14.9l0.1-0.4c0.1-0.6,0.1-0.4,0.2-1c-0.2,1.3-0.1,0.1-0.3,1.5l0-0.3c0,0,0-0.1,0-0.1
							c0.1-0.6-0.2,1-0.2,0.8c0-0.1,0-0.3,0.1-0.5l-0.1,0.3c0,0,0-0.3,0-0.2l0,0.1l0,0c0,0.2-0.1,0.5-0.1,0.7c0-0.2,0-0.1,0.1-0.3
							L13,15.9c0.1-0.3,0.1-0.7,0.1-0.6c0.2-1.3-0.1,0.3,0.1-0.4l0-0.2c0.1-0.8,0.1-0.5,0.1-1c0,0.2-0.2,1.2-0.2,1.5
							c0-0.1,0-0.1,0,0.1c0.1-0.5,0.1-0.4,0-0.3l0.1-0.6c0,0.2-0.1,0.5-0.1,0.8c0-0.1,0.1-0.6,0.2-1c0-0.1-0.1,0.8-0.2,0.9
							c0-0.2,0,0-0.1,0.4c0-0.2,0.1-0.4,0.1-0.6L13,15.4c0,0,0-0.2,0-0.2c0,0.2-0.1,0.6-0.1,0.8c-0.1,0.7,0.2-1,0-0.2
							c0-0.2,0.1-0.4,0.1-0.6c-0.1,0.5-0.1,0.4-0.2,1.1l0.1-0.4c-0.1,0.5-0.2,1-0.3,1.5c0,0.2-0.1,0.4-0.1,0.5l-0.1,0.3
							c0-0.1,0.1-0.3,0.1-0.6c0,0.1,0,0.1,0,0.2c0-0.2,0.1-0.6,0.2-0.9c0,0.1,0,0.3-0.1,0.4c0.1-0.4,0.1-0.8,0.2-1.2
							c0,0.1,0,0.1,0,0.2c0-0.1,0-0.2,0-0.3c0-0.1,0,0.1,0,0.2l0.1-0.7l0,0.3l0.1-0.4c-0.1,0.7-0.3,1.7-0.4,2
							c0.1-0.5,0.1-0.8,0.2-1.5c-0.1,0.6,0.1-0.3,0-0.1c0-0.1,0.1-0.4,0.1-0.5l-0.1,0.6c0.1-0.5,0.1-0.4,0.1-0.6
							c-0.2,1-0.1,0.7-0.2,1c0.1-0.3,0.1-0.7,0.1-0.6c0.1-0.7-0.2,1.2-0.1,0.5c0,0,0,0,0-0.1c-0.1,0.3,0,0.1,0-0.2l0,0
							c0-0.1,0,0-0.2,0.8c0-0.1,0.2-1,0.2-1.2l-0.5,2.8c0.1-0.7,0.4-2.4,0.5-2.8c0-0.1,0-0.2,0,0c0,0.1-0.2,1-0.2,1.1
							c0.1-0.8,0.1-0.4,0.2-1.1c0,0.2-0.2,1.3-0.2,1.2c0-0.2,0.2-1.1,0.2-1.2l-0.2,1.1c0-0.2,0.2-0.9,0.2-1.3c0,0.2,0,0,0,0.1l0,0.3
							c0-0.2-0.3,1.6-0.3,1.5c0-0.2,0.2-1.4,0.3-1.5c-0.1,0.6-0.5,2.7-0.6,3.2l0.1-0.3L12,18.7c0.1-0.9,0.5-2.6,0.6-3.3
							c0-0.3,0.1-0.4,0-0.4c0-0.3,0.1-0.5,0.1-0.5l0-0.2c-0.1,0.7-0.1,0.7-0.2,1.2l0.1-0.7c-0.1,0.7-0.3,1.9-0.3,1.8
							c0-0.3,0.2-1.2,0.2-1.4c0,0.2-0.1,0.4-0.1,0.3l0.1-0.4c0-0.3-0.2,0.9-0.1,0.2c0,0,0.1-0.9,0.1-0.5c-0.1,0.8-0.5,3.1-0.6,3.7
							c0-0.1,0.1-0.7,0.2-1.1c0.1-0.6,0.2-1.4,0.3-1.9c0,0.2-0.1,0.4-0.1,0.5c0-0.2,0.1-0.6,0.1-0.5c-0.1,0.7,0-0.1-0.1,0.6
							c0,0.2,0-0.1,0-0.1c-0.1,0.4-0.3,1.5-0.3,1.7c0-0.2,0.1-0.4,0.1-0.5c0-0.1,0-0.4,0-0.4c0-0.2,0.1-0.4,0.1-0.7
							c0,0.1-0.1,0.3-0.1,0.4c0.1-0.6,0-0.1,0.1-0.8c-0.1,0.4-0.1,0.5-0.1,0.8c-0.1,0.6,0,0.1,0-0.1c-0.1,0.8-0.3,1.7-0.4,2.1
							c0,0.2,0.1-0.5,0.1-0.4c0-0.1-0.3,1.5-0.2,0.8c0.1-0.5,0.2-1.1,0.2-1.4c0-0.2,0,0.3,0,0.3l0-0.3c0-0.2,0.1-0.3,0-0.2
							c0.1-0.5,0-0.1,0-0.5c0,0.2-0.1,0.4-0.1,0.6l0-0.1c-0.1,0.4-0.1,0.6-0.1,0.8c-0.1,0.3-0.1,0.8-0.1,0.5l0.1-0.6
							c0,0.2-0.1,0.4,0,0.2c0,0.3,0.1-0.8,0,0l-0.1,0.4c-0.1,0.3-0.2,0.9-0.2,0.8c-0.1,0.6,0-0.1-0.1,0.6c0.1-0.9,0,0,0.2-0.9
							c-0.1,0.8,0,0.3-0.2,1c0-0.2,0.1-0.4,0.1-0.3c0-0.1,0-0.1,0-0.2c0,0,0,0,0,0c0,0,0,0,0,0c0,0,0,0,0,0c0-0.1,0-0.2,0-0.3
							c0.1-0.5,0.1-0.4,0.1-0.7c0,0.1,0,0.2-0.1,0.4l0.1-0.4c-0.1,0.4-0.1,0.7-0.2,1l0,0c0,0.2,0,0.3,0,0.2c0,0.1,0.1-0.5,0-0.1
							l0.1-0.3l0,0.1c0,0.1,0.2-0.7,0,0.1c0-0.1,0.1-0.2,0-0.1L11.7,20c0-0.1,0,0.4,0,0c-0.2,1,0,0.2,0,0.4l0.1-0.5
							c0,0,0-0.1,0.1-0.3l0.1-0.4c0.1-0.4,0,0.3,0,0.3c0,0.2,0,0.1,0,0c-0.2,1,0.2-0.7,0,0c0-0.2,0-0.1,0,0c0,0,0,0,0,0c0,0,0,0,0,0
							c0,0.1,0,0.2,0,0.2c0-0.1,0-0.2,0-0.2c0,0,0-0.1,0-0.2l-0.1,0.5c0,0,0,0,0,0c0,0.2,0-0.2,0.1-0.6c0-0.1,0-0.2,0.1-0.3
							c-0.1,0.8,0.1-0.3-0.1,0.6c0.1-0.4,0.1-0.3,0.2-1.1c0,0.1,0,0.2,0,0.2c0,0.1,0,0.2,0,0l-0.1,0.6l0.1-0.8
							c-0.1,0.4-0.1,0.6-0.2,1c0.1-0.7,0.1-0.3,0.2-1l-0.1,0.4c0,0,0.1-0.5,0-0.2c-0.1,0.7,0,0.1-0.1,0.8c0.2-1.2-0.1,0.5,0.1-0.4
							c0,0.3-0.1,0.4-0.1,0.7c0.1-0.3-0.1,0.4,0.1-0.3c0,0.3-0.1,0.4-0.1,0.6c0-0.1,0-0.2,0-0.1c0,0.2,0,0.2-0.1,0.3
							c0,0,0.2-0.9,0.3-1.7c-0.1,0.4,0,0.3,0-0.2c0,0.3-0.1,0.5-0.1,0.6c0,0,0,0.4,0.1-0.2c0,0.2,0,0,0,0c0,0,0,0.1,0,0l0-0.1
							c0.1-0.8,0-0.2,0.1-0.3l0,0.1c-0.1,0.6,0.1-0.3,0,0.4l0.1-0.5c0.2-1-0.1,0.6,0,0.2l0-0.3c0.1-0.3-0.2,1.4-0.2,1.5
							c0,0.1,0,0.1,0,0.2c-0.1,0.6,0.1-0.6,0.1-0.8c-0.1,0.3-0.1,0.9-0.1,0.9c0,0.3,0.2-1.1,0.1-0.4c0-0.3,0.1-0.5,0.1-0.7
							c0-0.1-0.1,1,0,0.2c0,0.1,0,0.1,0,0.2c0-0.2,0.1-0.3,0.2-0.8c-0.3,1.6,0.2-0.8-0.1,0.7l0-0.1l0,0.2c0,0.1,0.1-0.3,0.1-0.6
							c0,0.1,0,0.2-0.1,0.3c0,0.3,0,0.2,0.1-0.5L12.7,19c0.1-0.3-0.1,0.8,0,0.2c0,0.1,0,0.2,0,0.2c0.1-0.6-0.2,1.4,0.1-0.4l0.1-0.4
							c0-0.1,0.1-0.8,0.2-1.1c0-0.1-0.1,0.5-0.1,0.6l0-0.1c-0.2,0.9,0,0.3-0.1,1c0,0,0,0.5,0,0.5l0.1-0.7l0,0c0,0.2-0.1,0.6-0.1,0.5
							c-0.1,0.4,0.1-0.3,0.1-0.5c0,0.3-0.1,0.8-0.1,0.9l0-0.1l0-0.1c0.1-0.3,0.1-0.6,0.1-0.6c0,0.1-0.1,0.4-0.1,0.5c0,0.1,0,0.1,0,0
							l0,0.1l0.1-0.6c0.1-0.3,0,0,0.1-0.6c-0.2,1,0,0.4-0.1,0.7c0.1-0.4,0.1-0.4,0.1-0.4c0-0.1,0.1-0.8,0.1-0.7
							c-0.2,1.3-0.1,0.6-0.2,1.5c0.1-0.6,0.1-0.2,0.2-1c0,0.1-0.1,0.5-0.1,0.8c0.1-0.5,0,0.3,0,0.2c0-0.2,0.1-0.4,0.1-0.7L13,19.7
							c0-0.1,0.2-1,0.1-0.4c0-0.1,0.1-0.4,0.1-0.4c-0.1,0.9,0.2-0.7,0,0.9c0.1-0.3,0.1-0.4,0.1-0.4c0-0.1,0.1-0.4,0.1-0.7l-0.1,0.7
							c0.1-0.7,0,0,0.1-0.7l0,0.1c0.1-0.7,0.3-1.6,0.4-2.6c-0.1,0.8,0.2-1.2,0,0c0-0.2,0.1-0.3,0.1-0.5c-0.1,0.4-0.1,0.5-0.1,0.3
							l0-0.1c0,0.1,0-0.3,0-0.6l-0.1,0.5c0-0.1,0-0.2,0-0.3c-0.1,0.7,0,0-0.1,0.8c0.2-1,0,0,0.1-1.1c0,0-0.1,0.5-0.1,0.5l0-0.3
							l-0.1,0.4c0-0.1,0.1-0.4,0.1-0.7c0,0,0-0.1,0-0.1c0.1-0.3,0,0.1,0,0l0,0.2c-0.1,0.3,0-0.1-0.1,0.5l0,0.2c-0.1,0.4,0-0.2,0-0.1
							l0-0.1c0,0.2-0.1,0.3-0.1,0.3c0-0.3,0.1-0.5,0.1-0.8c-0.1,0.4-0.1,0.3-0.2,1.2l0.1-0.4c-0.1,0.3-0.1,0.5-0.1,0.6
							c0.1-0.3,0.1-0.6,0.2-1c0.1-0.8-0.2,0.8,0-0.4c-0.2,1-0.1,0.6-0.1,0.8c-0.1,0.3-0.1,0.8-0.1,0.7c0,0,0.2-1.3,0.2-1.3
							c0,0,0-0.1,0-0.1c0-0.3-0.1,0.3,0-0.1c-0.1,0.6,0,0-0.1,0.7l0-0.2c0,0.2-0.2,1.1-0.1,0.7c0-0.2,0.1-0.4,0.1-0.5
							c0-0.2,0,0.2,0-0.1c0.1-0.8,0-0.2,0.2-0.8c0.1-0.3-0.1,0.6,0-0.3c-0.2,1.1,0-0.1-0.1,0.7l0.1-0.5c0,0.1-0.1,0.3-0.1,0.3
							l0.1-0.6c-0.1,0.5,0.1-0.5,0-0.2c0,0-0.1,0.6-0.1,0.9c-0.1,0.6,0.2-1.2,0.1-1c0-0.1,0,0.3-0.1,0.5c0-0.1,0-0.3,0.1-0.5
							c0,0.1-0.1,0.5-0.1,0.8c0.1-0.6,0,0.2-0.1,0.4l0.1-0.5c0-0.3-0.2,1-0.1,0.6l0.1-0.7l0,0.2l0.1-0.5c-0.1,0.4-0.1,0.3,0,0.1
							c-0.1,0.3-0.1,0.9-0.2,0.9c0-0.3,0.1-0.5,0.1-0.4c0.1-0.3,0.1-0.7,0-0.2c0-0.2,0.1-0.3,0.1-0.5c0-0.3,0-0.1,0-0.1
							c0,0,0,0,0,0.1l-0.1,0.7c0-0.2,0.1-0.3,0.1-0.5c0,0.1-0.1,0.3-0.1,0.3c0.1-0.4,0.1-0.8,0.2-1l-0.1,0.4c0-0.2,0.1-0.5,0.1-0.6
							c0-0.2-0.1,0.7-0.1,0.4C13.4,14.8,13.4,14.8,13.3,14.9C13.3,14.8,13.4,14.3,13.3,14.9l0.2-0.8c0,0.2-0.1,0.9-0.2,1.1
							c0,0.2,0.1-0.6,0.1-0.8C13.3,14.8,13.2,15.6,13.3,14.9C13.3,14.9,13.3,15,13.3,14.9z M13.1,15.2c0-0.1,0.1-0.4,0-0.1
							C13,15.6,13.1,15.4,13.1,15.2z M12.7,16.3c0-0.2,0-0.1,0,0.1C12.7,16.5,12.7,16.4,12.7,16.3z M11.7,19.5
							C11.7,19.5,11.7,19.5,11.7,19.5C11.7,19.7,11.7,19.6,11.7,19.5z M11.7,19.3c0,0.1,0,0.1,0,0.2c0-0.1,0-0.1,0-0.1
							C11.7,19.3,11.7,19.2,11.7,19.3z M12.9,19.3l0-0.1C12.9,19.1,12.9,19.2,12.9,19.3z"/>
						<path class="st3" d="M12.9,15.7c0,0.1,0,0.2,0,0.3C12.8,15.8,12.8,15.8,12.9,15.7z"/>
						<path class="st3" d="M13.4,14.7C13.4,14.7,13.4,14.7,13.4,14.7C13.4,14.7,13.4,14.6,13.4,14.7L13.4,14.7z"/>
						<path class="st3" d="M12.5,15.3c0,0.1,0,0.2,0,0.2C12.5,15.5,12.5,15.4,12.5,15.3z"/>
						<path class="st3" d="M11.5,20.1l0-0.1c0,0,0-0.1,0-0.2C11.5,20,11.5,20.1,11.5,20.1z"/>
						<path class="st3" d="M12,17.2C11.9,17.2,11.9,17.2,12,17.2l-0.1,0.3C11.9,17.5,11.9,17.3,12,17.2z"/>
						<path class="st3" d="M11.8,18.6c0.1-0.4,0-0.3,0-0.2c0,0,0,0,0,0C11.7,18.9,11.7,18.7,11.8,18.6z"/>
						<path class="st3" d="M11.8,18.4C11.8,18.4,11.8,18.4,11.8,18.4C11.7,18.6,11.8,18.4,11.8,18.4z"/>
						<path class="st3" d="M11.6,19.6c0-0.1-0.1,0.5-0.1,0.3C11.5,20.5,11.7,19.3,11.6,19.6z"/>
						<polygon class="st3" points="12,17.2 11.9,17.7 12,17.3 						"/>
						<path class="st3" d="M12,17.6l0-0.1C12,17.5,12,17.6,12,17.6C12,17.7,11.9,17.8,12,17.6z"/>
						<path class="st3" d="M12,17.6C12,17.6,11.9,17.6,12,17.6C11.9,17.7,11.9,17.7,12,17.6z"/>
						<polygon class="st3" points="12,17.1 12,17.2 12,17.2 						"/>
						<path class="st3" d="M12,17.7l0-0.1c0-0.2,0-0.3,0-0.2C12.1,17.5,12.1,17.5,12,17.7z"/>
						<path class="st3" d="M12.2,16.4c0,0.1,0,0.2-0.1,0.4l0.1-0.6L12.2,16.4z"/>
						<path class="st3" d="M12.3,16.2c0-0.2,0.1-0.5,0.1-0.4C12.3,15.9,12.3,16.1,12.3,16.2z"/>
						<polygon class="st3" points="12.3,17 12.3,17 12.1,18 						"/>
						<path class="st3" d="M12.8,14.6c0-0.2-0.1,0.6-0.1,0.3c0,0.2,0,0.2-0.1,0.5C12.7,15.1,12.7,15.3,12.8,14.6z"/>
						<path class="st3" d="M12.7,15.4c0,0,0,0.1,0,0.2C12.6,15.5,12.6,15.4,12.7,15.4z"/>
						<polygon class="st3" points="13.2,19.9 13.1,20.1 13.2,19.8 						"/>
						<path class="st3" d="M13.3,19.2l-0.1,0.6L13.3,19.2C13.3,19.3,13.3,19.3,13.3,19.2z"/>
						<path class="st3" d="M13.3,13.9l0,0.2c0,0.2,0,0.2,0,0.2L13.3,13.9z"/>
						<polygon class="st3" points="13.3,14.4 13.3,14.4 13.2,15 						"/>
						<path class="st3" d="M13.5,13.7C13.5,13.6,13.5,13.8,13.5,13.7C13.5,13.6,13.4,14.4,13.5,13.7z"/>
					</g>
				</g>
			</g>
		</g>
	</g>
</g>
<text transform="matrix(1.1932 0 0 1 13.1382 18.6557)" class="st5 st6 st7">Special Offer!</text>
</svg>
